<?xml version="1.0" encoding="UTF-8"?>
<svg version="1.1" xmlns="http://www.w3.org/2000/svg" width="50" height="50">
<path d="M0 0 C3.3 0 6.6 0 10 0 C10 0.66 10 1.32 10 2 C10.66 2 11.32 2 12 2 C12 1.34 12 0.68 12 0 C15.3 0 18.6 0 22 0 C22.495 0.99 22.495 0.99 23 2 C24.65 2 26.3 2 28 2 C28 3.32 28 4.64 28 6 C29.32 6 30.64 6 32 6 C32 7.98 32 9.96 32 12 C32.66 12 33.32 12 34 12 C34.495 14.97 34.495 14.97 35 18 C35.33 18 35.66 18 36 18 C36 22.62 36 27.24 36 32 C35.34 32 34.68 32 34 32 C34 33.98 34 35.96 34 38 C33.34 38 32.68 38 32 38 C32 40.31 32 42.62 32 45 C30.68 45 29.36 45 28 45 C28 45.99 28 46.98 28 48 C27.34 48 26.68 48 26 48 C25.505 48.99 25.505 48.99 25 50 C21.7 50 18.4 50 15 50 C15 49.34 15 48.68 15 48 C14.34 48 13.68 48 13 48 C12.34 47.01 11.68 46.02 11 45 C10.67 45.99 10.34 46.98 10 48 C9.01 48 8.02 48 7 48 C7 48.66 7 49.32 7 50 C3.7 50 0.4 50 -3 50 C-3 49.34 -3 48.68 -3 48 C-3.99 48 -4.98 48 -6 48 C-6 47.01 -6 46.02 -6 45 C-6.99 45 -7.98 45 -9 45 C-9 42.69 -9 40.38 -9 38 C-9.99 38 -10.98 38 -12 38 C-12 36.02 -12 34.04 -12 32 C-12.66 32 -13.32 32 -14 32 C-14 27.38 -14 22.76 -14 18 C-13.34 18 -12.68 18 -12 18 C-12 15.03 -12 12.06 -12 9 C-11.01 9 -10.02 9 -9 9 C-9 8.01 -9 7.02 -9 6 C-8.01 6 -7.02 6 -6 6 C-6 4.68 -6 3.36 -6 2 C-4.02 2 -2.04 2 0 2 C0 1.34 0 0.68 0 0 Z " fill="#583335" transform="translate(14,0)"/>
<path d="M0 0 C0.33 0.99 0.66 1.98 1 3 C3.64 3 6.28 3 9 3 C9 6.3 9 9.6 9 13 C8.34 13 7.68 13 7 13 C7 11.68 7 10.36 7 9 C5.68 9 4.36 9 3 9 C3.33 11.31 3.66 13.62 4 16 C5.65 16 7.3 16 9 16 C9 17.98 9 19.96 9 22 C8.34 22 7.68 22 7 22 C7 21.01 7 20.02 7 19 C5.02 19 3.04 19 1 19 C1 19.99 1 20.98 1 22 C0.01 22.33 -0.98 22.66 -2 23 C-2.33 23.66 -2.66 24.32 -3 25 C-4.65 25 -6.3 25 -8 25 C-8 26.32 -8 27.64 -8 29 C-6.35 29 -4.7 29 -3 29 C-3 29.99 -3 30.98 -3 32 C-1.68 32 -0.36 32 1 32 C1 32.99 1 33.98 1 35 C1.66 35 2.32 35 3 35 C3 35.66 3 36.32 3 37 C2.34 37 1.68 37 1 37 C1 38.32 1 39.64 1 41 C1.99 41 2.98 41 4 41 C4 40.01 4 39.02 4 38 C4.99 38 5.98 38 7 38 C7 36.68 7 35.36 7 34 C6.01 34 5.02 34 4 34 C4 32.35 4 30.7 4 29 C2.02 29 0.04 29 -2 29 C-2 28.01 -2 27.02 -2 26 C-1.01 26 -0.02 26 1 26 C1 25.01 1 24.02 1 23 C1.99 23 2.98 23 4 23 C4 23.99 4 24.98 4 26 C5.65 26 7.3 26 9 26 C9 30.95 9 35.9 9 41 C8.34 41 7.68 41 7 41 C7 42.98 7 44.96 7 47 C4.03 47 1.06 47 -2 47 C-2 46.01 -2 45.02 -2 44 C-2.99 44 -3.98 44 -5 44 C-5 41.69 -5 39.38 -5 37 C-5.99 37 -6.98 37 -8 37 C-8 35.35 -8 33.7 -8 32 C-9.98 32 -11.96 32 -14 32 C-14 27.38 -14 22.76 -14 18 C-13.34 18 -12.68 18 -12 18 C-12 15.03 -12 12.06 -12 9 C-11.01 9 -10.02 9 -9 9 C-9 8.01 -9 7.02 -9 6 C-8.01 6 -7.02 6 -6 6 C-6 4.68 -6 3.36 -6 2 C-4.02 2 -2.04 2 0 2 C0 1.34 0 0.68 0 0 Z " fill="#DE6F4C" transform="translate(14,0)"/>
<path d="M0 0 C0 0.66 0 1.32 0 2 C-1.98 2 -3.96 2 -6 2 C-6 2.99 -6 3.98 -6 5 C-5.34 5 -4.68 5 -4 5 C-3.67 6.65 -3.34 8.3 -3 10 C-2.01 10.33 -1.02 10.66 0 11 C0 11.99 0 12.98 0 14 C-0.99 14 -1.98 14 -3 14 C-3 14.99 -3 15.98 -3 17 C-4.98 17 -6.96 17 -9 17 C-9 17.99 -9 18.98 -9 20 C-7.02 20 -5.04 20 -3 20 C-3 19.34 -3 18.68 -3 18 C-1.35 18 0.3 18 2 18 C2 18.66 2 19.32 2 20 C1.34 20 0.68 20 0 20 C0 21.98 0 23.96 0 26 C0.99 26 1.98 26 3 26 C3 25.01 3 24.02 3 23 C3.66 23 4.32 23 5 23 C5 24.98 5 26.96 5 29 C3.35 29 1.7 29 0 29 C0 28.34 0 27.68 0 27 C-1.98 27 -3.96 27 -6 27 C-6 27.66 -6 28.32 -6 29 C-4.7934375 28.9690625 -4.7934375 28.9690625 -3.5625 28.9375 C-1 29 -1 29 0 30 C0.07244053 32.01964199 0.08377188 34.04167124 0.0625 36.0625 C0.05347656 37.16722656 0.04445313 38.27195313 0.03515625 39.41015625 C0.02355469 40.26480469 0.01195312 41.11945312 0 42 C-1.98 42 -3.96 42 -6 42 C-6 41.01 -6 40.02 -6 39 C-8.97 39 -11.94 39 -15 39 C-15 26.46 -15 13.92 -15 1 C-5 0 -5 0 0 0 Z " fill="#DB6F4D" transform="translate(42,2)"/>
<path d="M0 0 C0.33 0 0.66 0 1 0 C1 14.85 1 29.7 1 45 C0.01 45 -0.98 45 -2 45 C-2 45.66 -2 46.32 -2 47 C-5.3 47 -8.6 47 -12 47 C-12 46.34 -12 45.68 -12 45 C-12.99 45 -13.98 45 -15 45 C-15 44.01 -15 43.02 -15 42 C-15.99 42 -16.98 42 -18 42 C-18 39.69 -18 37.38 -18 35 C-18.99 35 -19.98 35 -21 35 C-21 33.02 -21 31.04 -21 29 C-19.68 29 -18.36 29 -17 29 C-17 30.65 -17 32.3 -17 34 C-16.01 34 -15.02 34 -14 34 C-14 36.31 -14 38.62 -14 41 C-13.01 41 -12.02 41 -11 41 C-11 41.99 -11 42.98 -11 44 C-8.03 44 -5.06 44 -2 44 C-2 42.02 -2 40.04 -2 38 C-1.34 38 -0.68 38 0 38 C0 33.05 0 28.1 0 23 C-1.65 23 -3.3 23 -5 23 C-5 22.01 -5 21.02 -5 20 C-5.99 20 -6.98 20 -8 20 C-8 20.99 -8 21.98 -8 23 C-8.99 23 -9.98 23 -11 23 C-11 23.99 -11 24.98 -11 26 C-9.02 26 -7.04 26 -5 26 C-5 27.65 -5 29.3 -5 31 C-4.01 31 -3.02 31 -2 31 C-2 32.32 -2 33.64 -2 35 C-2.99 35 -3.98 35 -5 35 C-5 35.99 -5 36.98 -5 38 C-5.99 38 -6.98 38 -8 38 C-8 36.68 -8 35.36 -8 34 C-7.34 34 -6.68 34 -6 34 C-6 33.34 -6 32.68 -6 32 C-6.66 32 -7.32 32 -8 32 C-8 31.01 -8 30.02 -8 29 C-9.32 29 -10.64 29 -12 29 C-12 28.01 -12 27.02 -12 26 C-13.65 26 -15.3 26 -17 26 C-17 24.68 -17 23.36 -17 22 C-15.35 22 -13.7 22 -12 22 C-11.67 21.01 -11.34 20.02 -11 19 C-10.01 19 -9.02 19 -8 19 C-8 18.01 -8 17.02 -8 16 C-6.02 16 -4.04 16 -2 16 C-2 16.99 -2 17.98 -2 19 C-1.34 19 -0.68 19 0 19 C0 17.02 0 15.04 0 13 C-1.65 13 -3.3 13 -5 13 C-5.33 10.69 -5.66 8.38 -6 6 C-4.68 6 -3.36 6 -2 6 C-2 7.32 -2 8.64 -2 10 C-1.34 10 -0.68 10 0 10 C0 6.7 0 3.4 0 0 Z " fill="#95493B" transform="translate(23,3)"/>
<path d="M0 0 C0.33 0.99 0.66 1.98 1 3 C3.64 3 6.28 3 9 3 C9 6.3 9 9.6 9 13 C8.34 13 7.68 13 7 13 C7 11.68 7 10.36 7 9 C5.68 9 4.36 9 3 9 C3.33 11.31 3.66 13.62 4 16 C5.65 16 7.3 16 9 16 C9 17.98 9 19.96 9 22 C8.34 22 7.68 22 7 22 C7 21.01 7 20.02 7 19 C5.02 19 3.04 19 1 19 C1 19.99 1 20.98 1 22 C0.01 22.33 -0.98 22.66 -2 23 C-2.33 23.66 -2.66 24.32 -3 25 C-4.65 25 -6.3 25 -8 25 C-8.33 26.32 -8.66 27.64 -9 29 C-11.4294516 25.3558226 -11.16179575 23.28758728 -11 19 C-8.03 19 -5.06 19 -2 19 C-2 18.01 -2 17.02 -2 16 C-3.98 16 -5.96 16 -8 16 C-8 15.01 -8 14.02 -8 13 C-7.01 13 -6.02 13 -5 13 C-5 12.01 -5 11.02 -5 10 C-4.34 10 -3.68 10 -3 10 C-3 9.01 -3 8.02 -3 7 C-2.01 7 -1.02 7 0 7 C0 5.68 0 4.36 0 3 C-1.98 3 -3.96 3 -6 3 C-6 2.67 -6 2.34 -6 2 C-4.02 2 -2.04 2 0 2 C0 1.34 0 0.68 0 0 Z " fill="#D66D4C" transform="translate(14,0)"/>
<path d="M0 0 C1.98 0 3.96 0 6 0 C6 0.66 6 1.32 6 2 C7.32 2 8.64 2 10 2 C10 3.98 10 5.96 10 8 C10.66 8 11.32 8 12 8 C12 14.27 12 20.54 12 27 C11.67 27 11.34 27 11 27 C11 25.02 11 23.04 11 21 C10.34 21 9.68 21 9 21 C9 21.99 9 22.98 9 24 C8.01 24 7.02 24 6 24 C6 22.02 6 20.04 6 18 C6.66 18 7.32 18 8 18 C8 17.34 8 16.68 8 16 C6.35 16 4.7 16 3 16 C3 16.66 3 17.32 3 18 C1.02 18 -0.96 18 -3 18 C-3 17.01 -3 16.02 -3 15 C-1.02 15 0.96 15 3 15 C3 14.01 3 13.02 3 12 C3.99 12 4.98 12 6 12 C6 11.01 6 10.02 6 9 C4.68 8.67 3.36 8.34 2 8 C2 6.35 2 4.7 2 3 C1.34 3 0.68 3 0 3 C0 2.01 0 1.02 0 0 Z " fill="#B9523C" transform="translate(36,4)"/>
<path d="M0 0 C2.97 0 5.94 0 9 0 C9 0.66 9 1.32 9 2 C9.66 2 10.32 2 11 2 C11 1.34 11 0.68 11 0 C14.3 0 17.6 0 21 0 C21 0.99 21 1.98 21 3 C18.03 3 15.06 3 12 3 C12 16.53 12 30.06 12 44 C11.01 44 10.02 44 9 44 C9 30.47 9 16.94 9 3 C6.03 3 3.06 3 0 3 C0 2.01 0 1.02 0 0 Z " fill="#2A2633" transform="translate(15,0)"/>
<path d="M0 0 C1.98 0 3.96 0 6 0 C6 1.32 6 2.64 6 4 C5.01 4 4.02 4 3 4 C3 4.99 3 5.98 3 7 C2.34 7 1.68 7 1 7 C1 7.99 1 8.98 1 10 C0.01 10 -0.98 10 -2 10 C-2 10.99 -2 11.98 -2 13 C-0.02 13 1.96 13 4 13 C4 13.99 4 14.98 4 16 C0.7 16 -2.6 16 -6 16 C-6 19.96 -6 23.92 -6 28 C-6.66 28.33 -7.32 28.66 -8 29 C-8 24.38 -8 19.76 -8 15 C-7.34 15 -6.68 15 -6 15 C-6 12.03 -6 9.06 -6 6 C-5.01 6 -4.02 6 -3 6 C-3 5.01 -3 4.02 -3 3 C-2.01 3 -1.02 3 0 3 C0 2.01 0 1.02 0 0 Z " fill="#A04A3A" transform="translate(8,3)"/>
<path d="M0 0 C1.32 0 2.64 0 4 0 C4 1.65 4 3.3 4 5 C4.99 5 5.98 5 7 5 C7 7.31 7 9.62 7 12 C7.99 12 8.98 12 10 12 C10 12.99 10 13.98 10 15 C12.97 15 15.94 15 19 15 C19 14.01 19 13.02 19 12 C19.99 12 20.98 12 22 12 C22 13.32 22 14.64 22 16 C21.01 16 20.02 16 19 16 C19 16.66 19 17.32 19 18 C15.7 18 12.4 18 9 18 C9 17.34 9 16.68 9 16 C8.01 16 7.02 16 6 16 C6 15.01 6 14.02 6 13 C5.01 13 4.02 13 3 13 C3 10.69 3 8.38 3 6 C2.01 6 1.02 6 0 6 C0 4.02 0 2.04 0 0 Z " fill="#2C2C3A" transform="translate(2,32)"/>
<path d="M0 0 C1.98 0 3.96 0 6 0 C5.01 0.33 4.02 0.66 3 1 C3 1.99 3 2.98 3 4 C2.01 4 1.02 4 0 4 C0 4.99 0 5.98 0 7 C1.98 7 3.96 7 6 7 C6 8.65 6 10.3 6 12 C6.99 12 7.98 12 9 12 C9 13.32 9 14.64 9 16 C8.01 16 7.02 16 6 16 C6 16.99 6 17.98 6 19 C5.01 19 4.02 19 3 19 C3 17.68 3 16.36 3 15 C3.66 15 4.32 15 5 15 C5 14.34 5 13.68 5 13 C4.34 13 3.68 13 3 13 C3 12.01 3 11.02 3 10 C1.68 10 0.36 10 -1 10 C-1 9.01 -1 8.02 -1 7 C-2.65 7 -4.3 7 -6 7 C-6 5.68 -6 4.36 -6 3 C-4.35 3 -2.7 3 -1 3 C-0.67 2.01 -0.34 1.02 0 0 Z " fill="#B85039" transform="translate(12,22)"/>
<path d="M0 0 C2.97 0 5.94 0 9 0 C9 0.99 9 1.98 9 3 C9.99 3 10.98 3 12 3 C12 4.98 12 6.96 12 9 C8.7 9 5.4 9 2 9 C2 8.34 2 7.68 2 7 C1.34 7 0.68 7 0 7 C0 4.69 0 2.38 0 0 Z " fill="#A14334" transform="translate(27,41)"/>
<path d="M0 0 C0.99 0 1.98 0 3 0 C3 0.99 3 1.98 3 3 C4.65 3 6.3 3 8 3 C8 7.95 8 12.9 8 18 C6.35 18 4.7 18 3 18 C3 17.01 3 16.02 3 15 C3.99 15 4.98 15 6 15 C6 13.68 6 12.36 6 11 C5.01 11 4.02 11 3 11 C3 9.35 3 7.7 3 6 C1.02 6 -0.96 6 -3 6 C-3 5.01 -3 4.02 -3 3 C-2.01 3 -1.02 3 0 3 C0 2.01 0 1.02 0 0 Z " fill="#E0714D" transform="translate(15,23)"/>
<path d="M0 0 C1.98 0 3.96 0 6 0 C6 0.66 6 1.32 6 2 C7.32 2 8.64 2 10 2 C10 3.98 10 5.96 10 8 C10.66 8 11.32 8 12 8 C12 10.31 12 12.62 12 15 C11.01 15 10.02 15 9 15 C9 13.02 9 11.04 9 9 C7.5459375 9.0309375 7.5459375 9.0309375 6.0625 9.0625 C3 9 3 9 2 8 C1.95936168 6.33382885 1.957279 4.66611905 2 3 C1.34 3 0.68 3 0 3 C0 2.01 0 1.02 0 0 Z " fill="#734441" transform="translate(36,4)"/>
<path d="M0 0 C2.97 0 5.94 0 9 0 C9 0.66 9 1.32 9 2 C9.66 2 10.32 2 11 2 C11 1.34 11 0.68 11 0 C14.3 0 17.6 0 21 0 C21 0.99 21 1.98 21 3 C14.07 3 7.14 3 0 3 C0 2.01 0 1.02 0 0 Z " fill="#242F3E" transform="translate(15,0)"/>
<path d="M0 0 C0.99 0 1.98 0 3 0 C3 1.98 3 3.96 3 6 C2.34 6 1.68 6 1 6 C1 8.31 1 10.62 1 13 C-0.32 13 -1.64 13 -3 13 C-3 13.99 -3 14.98 -3 16 C-3.99 15.67 -4.98 15.34 -6 15 C-6 14.01 -6 13.02 -6 12 C-5.01 12 -4.02 12 -3 12 C-3 10.02 -3 8.04 -3 6 C-2.01 6 -1.02 6 0 6 C0 4.02 0 2.04 0 0 Z " fill="#263240" transform="translate(45,32)"/>
<path d="M0 0 C0.99 0.33 1.98 0.66 3 1 C3 3.97 3 6.94 3 10 C2.01 10 1.02 10 0 10 C0 13.96 0 17.92 0 22 C-0.66 22.33 -1.32 22.66 -2 23 C-2 18.38 -2 13.76 -2 9 C-1.34 9 -0.68 9 0 9 C0 6.03 0 3.06 0 0 Z " fill="#1F293A" transform="translate(2,9)"/>
<path d="M0 0 C1.98 0 3.96 0 6 0 C6 2.31 6 4.62 6 7 C5.01 7 4.02 7 3 7 C3 7.99 3 8.98 3 10 C2.01 10 1.02 10 0 10 C0 6.7 0 3.4 0 0 Z " fill="#C95A3F" transform="translate(27,9)"/>
<path d="M0 0 C2.64 0 5.28 0 8 0 C8 3.3 8 6.6 8 10 C7.34 10 6.68 10 6 10 C6 8.68 6 7.36 6 6 C5.01 6 4.02 6 3 6 C3 5.01 3 4.02 3 3 C2.01 3 1.02 3 0 3 C0 2.01 0 1.02 0 0 Z " fill="#DE714E" transform="translate(15,3)"/>
<path d="M0 0 C0.33 0 0.66 0 1 0 C1 3.96 1 7.92 1 12 C2.98 12 4.96 12 7 12 C7 12.99 7 13.98 7 15 C7.99 15.33 8.98 15.66 10 16 C10 16.99 10 17.98 10 19 C8.02 18.67 6.04 18.34 4 18 C4 16.35 4 14.7 4 13 C2.35 13 0.7 13 -1 13 C-0.67 8.71 -0.34 4.42 0 0 Z " fill="#AA5341" transform="translate(2,19)"/>
<path d="M0 0 C0.99 0 1.98 0 3 0 C3 0.99 3 1.98 3 3 C5.97 3 8.94 3 12 3 C12 3.99 12 4.98 12 6 C8.7 6 5.4 6 2 6 C2 5.34 2 4.68 2 4 C1.34 4 0.68 4 0 4 C0 2.68 0 1.36 0 0 Z " fill="#2E2933" transform="translate(27,44)"/>
<path d="M0 0 C1.32 0 2.64 0 4 0 C4 1.65 4 3.3 4 5 C4.99 5 5.98 5 7 5 C7 7.31 7 9.62 7 12 C6.67 12 6.34 12 6 12 C6 10.02 6 8.04 6 6 C5.34 6 4.68 6 4 6 C4 8.31 4 10.62 4 13 C3.67 13 3.34 13 3 13 C3 10.69 3 8.38 3 6 C2.01 6 1.02 6 0 6 C0 4.02 0 2.04 0 0 Z " fill="#6A4A48" transform="translate(2,32)"/>
<path d="M0 0 C0.99 0 1.98 0 3 0 C3 1.32 3 2.64 3 4 C2.01 4 1.02 4 0 4 C0 4.66 0 5.32 0 6 C-3.3 6 -6.6 6 -10 6 C-10 5.34 -10 4.68 -10 4 C-6.7 3.67 -3.4 3.34 0 3 C0 2.01 0 1.02 0 0 Z " fill="#25212B" transform="translate(21,44)"/>
<path d="M0 0 C0.99 0 1.98 0 3 0 C3 1.32 3 2.64 3 4 C2.01 4 1.02 4 0 4 C0 5.98 0 7.96 0 10 C-0.99 10 -1.98 10 -3 10 C-3 7.69 -3 5.38 -3 3 C-2.01 3 -1.02 3 0 3 C0 2.01 0 1.02 0 0 Z " fill="#B44833" transform="translate(30,25)"/>
<path d="M0 0 C1.98 0 3.96 0 6 0 C6 0.99 6 1.98 6 3 C6.66 3 7.32 3 8 3 C8 3.99 8 4.98 8 6 C6.35 6 4.7 6 3 6 C3 5.01 3 4.02 3 3 C2.01 3 1.02 3 0 3 C0 2.01 0 1.02 0 0 Z " fill="#AC4330" transform="translate(15,19)"/>
<path d="M0 0 C1.98 0 3.96 0 6 0 C6 6.27 6 12.54 6 19 C5.01 19 4.02 19 3 19 C3 18.01 3 17.02 3 16 C3.66 16 4.32 16 5 16 C5 11.05 5 6.1 5 1 C3.35 1 1.7 1 0 1 C0 0.67 0 0.34 0 0 Z " fill="#AF5540" transform="translate(18,25)"/>
<path d="M0 0 C2.97 0 5.94 0 9 0 C9 0.99 9 1.98 9 3 C6.03 3 3.06 3 0 3 C0 2.01 0 1.02 0 0 Z " fill="#A14131" transform="translate(12,44)"/>
<path d="M0 0 C0.33 0 0.66 0 1 0 C1 3.96 1 7.92 1 12 C-0.98 12 -2.96 12 -5 12 C-5 11.01 -5 10.02 -5 9 C-3.35 9 -1.7 9 0 9 C0 6.03 0 3.06 0 0 Z " fill="#C66047" transform="translate(41,32)"/>
<path d="M0 0 C0.66 0 1.32 0 2 0 C2 1.98 2 3.96 2 6 C0.35 6 -1.3 6 -3 6 C-3 5.34 -3 4.68 -3 4 C-4.98 4 -6.96 4 -9 4 C-9 3.67 -9 3.34 -9 3 C-6.03 3 -3.06 3 0 3 C0 2.01 0 1.02 0 0 Z " fill="#D56647" transform="translate(45,25)"/>
<path d="M0 0 C0.99 0 1.98 0 3 0 C3 1.98 3 3.96 3 6 C1.02 6 -0.96 6 -3 6 C-3 5.01 -3 4.02 -3 3 C-2.01 3 -1.02 3 0 3 C0 2.01 0 1.02 0 0 Z " fill="#9F473A" transform="translate(42,13)"/>
<path d="M0 0 C2.97 0 5.94 0 9 0 C9 0.99 9 1.98 9 3 C6.03 3 3.06 3 0 3 C0 2.01 0 1.02 0 0 Z " fill="#1A2232" transform="translate(27,0)"/>
<path d="M0 0 C1.32 0 2.64 0 4 0 C4 2.31 4 4.62 4 7 C3.01 7 2.02 7 1 7 C0.67 4.69 0.34 2.38 0 0 Z " fill="#BC5138" transform="translate(17,9)"/>
<path d="M0 0 C1.98 0 3.96 0 6 0 C5.01 0.33 4.02 0.66 3 1 C3 1.99 3 2.98 3 4 C0.03 4 -2.94 4 -6 4 C-6 3.67 -6 3.34 -6 3 C-4.35 3 -2.7 3 -1 3 C-0.67 2.01 -0.34 1.02 0 0 Z " fill="#C3583D" transform="translate(12,22)"/>
<path d="M0 0 C2.31 0 4.62 0 7 0 C7 0.99 7 1.98 7 3 C4.69 3 2.38 3 0 3 C0 2.01 0 1.02 0 0 Z " fill="#A7412F" transform="translate(5,16)"/>
<path d="M0 0 C0.99 0 1.98 0 3 0 C3 2.31 3 4.62 3 7 C2.01 7 1.02 7 0 7 C0 4.69 0 2.38 0 0 Z " fill="#22202B" transform="translate(45,12)"/>
<path d="M0 0 C1.65 0 3.3 0 5 0 C5 1.65 5 3.3 5 5 C4.34 5 3.68 5 3 5 C3 4.34 3 3.68 3 3 C2.01 3 1.02 3 0 3 C0 2.01 0 1.02 0 0 Z " fill="#AB4431" transform="translate(12,29)"/>
<path d="M0 0 C0.99 0 1.98 0 3 0 C3 1.32 3 2.64 3 4 C2.34 4 1.68 4 1 4 C1 5.98 1 7.96 1 10 C0.67 10 0.34 10 0 10 C-1.125 3.375 -1.125 3.375 0 0 Z " fill="#543535" transform="translate(5,6)"/>
<path d="M0 0 C2.97 0 5.94 0 9 0 C8.67 0.99 8.34 1.98 8 3 C8 2.34 8 1.68 8 1 C6.8553125 1.495 6.8553125 1.495 5.6875 2 C3 3 3 3 0 3 C0 2.01 0 1.02 0 0 Z " fill="#B34E38" transform="translate(27,41)"/>
<path d="M0 0 C0.99 0 1.98 0 3 0 C3 1.98 3 3.96 3 6 C2.01 6 1.02 6 0 6 C0 4.02 0 2.04 0 0 Z " fill="#CA6046" transform="translate(9,38)"/>
<path d="M0 0 C1.98 0 3.96 0 6 0 C6 0.99 6 1.98 6 3 C4.02 3 2.04 3 0 3 C0 2.01 0 1.02 0 0 Z " fill="#AE4733" transform="translate(33,35)"/>
<path d="M0 0 C0.99 0 1.98 0 3 0 C3 1.98 3 3.96 3 6 C2.01 6 1.02 6 0 6 C0 4.02 0 2.04 0 0 Z " fill="#191C27" transform="translate(2,32)"/>
<path d="M0 0 C0.99 0 1.98 0 3 0 C3 1.98 3 3.96 3 6 C2.01 6 1.02 6 0 6 C0 4.02 0 2.04 0 0 Z " fill="#1E1F2D" transform="translate(45,32)"/>
<path d="M0 0 C0.99 0 1.98 0 3 0 C3 1.98 3 3.96 3 6 C2.01 6 1.02 6 0 6 C0 4.02 0 2.04 0 0 Z " fill="#923D32" transform="translate(42,32)"/>
<path d="M0 0 C1.98 0 3.96 0 6 0 C6 0.99 6 1.98 6 3 C4.02 3 2.04 3 0 3 C0 2.01 0 1.02 0 0 Z " fill="#CC6045" transform="translate(6,13)"/>
<path d="M0 0 C0.99 0 1.98 0 3 0 C3 1.98 3 3.96 3 6 C2.01 6 1.02 6 0 6 C0 4.02 0 2.04 0 0 Z " fill="#AC4432" transform="translate(30,10)"/>
<path d="M0 0 C1.32 0 2.64 0 4 0 C4 0.99 4 1.98 4 3 C3.34 3 2.68 3 2 3 C2 3.99 2 4.98 2 6 C1.34 6 0.68 6 0 6 C0 4.02 0 2.04 0 0 Z " fill="#1E2433" transform="translate(42,6)"/>
<path d="M0 0 C1.98 0 3.96 0 6 0 C6 0.99 6 1.98 6 3 C4.02 3 2.04 3 0 3 C0 2.01 0 1.02 0 0 Z " fill="#212533" transform="translate(8,3)"/>
</svg>
