<?xml version="1.0" encoding="UTF-8"?>
<svg version="1.1" xmlns="http://www.w3.org/2000/svg" width="50" height="50">
<path d="M0 0 C1.32 0 2.64 0 4 0 C4 1.98 4 3.96 4 6 C4.66 6 5.32 6 6 6 C6 4.02 6 2.04 6 0 C7.32 0 8.64 0 10 0 C10 1.98 10 3.96 10 6 C10.66 6 11.32 6 12 6 C12 4.02 12 2.04 12 0 C13.32 0 14.64 0 16 0 C16 1.98 16 3.96 16 6 C16.99 6 17.98 6 19 6 C19 4.02 19 2.04 19 0 C20.32 0 21.64 0 23 0 C23 1.98 23 3.96 23 6 C24.98 6 26.96 6 29 6 C29 7.32 29 8.64 29 10 C30.65 10 32.3 10 34 10 C34 11.32 34 12.64 34 14 C32.35 14 30.7 14 29 14 C29 14.66 29 15.32 29 16 C30.65 16 32.3 16 34 16 C34 17.65 34 19.3 34 21 C32.35 21 30.7 21 29 21 C29 21.66 29 22.32 29 23 C30.65 23 32.3 23 34 23 C34 24.32 34 25.64 34 27 C32.68 27.33 31.36 27.66 30 28 C30 28.66 30 29.32 30 30 C31.32 30 32.64 30 34 30 C34 31.32 34 32.64 34 34 C32.35 34 30.7 34 29 34 C29 34.66 29 35.32 29 36 C30.65 36 32.3 36 34 36 C34 37.65 34 39.3 34 41 C32.35 41 30.7 41 29 41 C29 41.99 29 42.98 29 44 C27.02 44 25.04 44 23 44 C23 45.98 23 47.96 23 50 C21.68 50 20.36 50 19 50 C19 48.02 19 46.04 19 44 C18.34 44 17.68 44 17 44 C17 45.98 17 47.96 17 50 C15.35 50 13.7 50 12 50 C12 48.02 12 46.04 12 44 C11.34 44 10.68 44 10 44 C10 45.98 10 47.96 10 50 C8.68 50 7.36 50 6 50 C6 48.02 6 46.04 6 44 C5.34 44 4.68 44 4 44 C4 45.98 4 47.96 4 50 C2.35 50 0.7 50 -1 50 C-1 48.02 -1 46.04 -1 44 C-2.98 44 -4.96 44 -7 44 C-7 43.01 -7 42.02 -7 41 C-8.65 41 -10.3 41 -12 41 C-12 39.35 -12 37.7 -12 36 C-10.35 36 -8.7 36 -7 36 C-7 35.34 -7 34.68 -7 34 C-8.65 34 -10.3 34 -12 34 C-12 32.68 -12 31.36 -12 30 C-10.35 30 -8.7 30 -7 30 C-7 29.01 -7 28.02 -7 27 C-8.65 27 -10.3 27 -12 27 C-12 25.68 -12 24.36 -12 23 C-10.35 23 -8.7 23 -7 23 C-7 22.34 -7 21.68 -7 21 C-8.65 21 -10.3 21 -12 21 C-12 19.35 -12 17.7 -12 16 C-10.35 16 -8.7 16 -7 16 C-7 15.34 -7 14.68 -7 14 C-8.65 14 -10.3 14 -12 14 C-12 12.68 -12 11.36 -12 10 C-10.02 10 -8.04 10 -6 10 C-6 8.68 -6 7.36 -6 6 C-4.02 6 -2.04 6 0 6 C0 4.02 0 2.04 0 0 Z " fill="#242734" transform="translate(14,0)"/>
<path d="M0 0 C9.24 0 18.48 0 28 0 C28 4.29 28 8.58 28 13 C27.34 13 26.68 13 26 13 C26 9.7 26 6.4 26 3 C18.74 3 11.48 3 4 3 C3.67 8.61 3.34 14.22 3 20 C3.99 20 4.98 20 6 20 C6 15.38 6 10.76 6 6 C11.61 6 17.22 6 23 6 C23 11.94 23 17.88 23 24 C17.39 24 11.78 24 6 24 C6 24.99 6 25.98 6 27 C11.28 27 16.56 27 22 27 C22 27.99 22 28.98 22 30 C14.74 30 7.48 30 0 30 C0 20.1 0 10.2 0 0 Z " fill="#2F5160" transform="translate(11,10)"/>
<path d="M0 0 C0.33 0 0.66 0 1 0 C1 9.9 1 19.8 1 30 C-1.31 30 -3.62 30 -6 30 C-6 29.01 -6 28.02 -6 27 C-11.28 27 -16.56 27 -22 27 C-22 26.01 -22 25.02 -22 24 C-16.39 24 -10.78 24 -5 24 C-5 18.06 -5 12.12 -5 6 C-10.61 6 -16.22 6 -22 6 C-22 10.62 -22 15.24 -22 20 C-22.99 20 -23.98 20 -25 20 C-25.02699725 17.72923158 -25.04639453 15.45837179 -25.0625 13.1875 C-25.07990234 11.29064453 -25.07990234 11.29064453 -25.09765625 9.35546875 C-25 6 -25 6 -24 3 C-16.74 3 -9.48 3 -2 3 C-2 6.3 -2 9.6 -2 13 C-1.34 13 -0.68 13 0 13 C0 8.71 0 4.42 0 0 Z " fill="#21364A" transform="translate(39,10)"/>
<path d="M0 0 C1.32 0.66 2.64 1.32 4 2 C3.67 12.56 3.34 23.12 3 34 C10.26 34 17.52 34 25 34 C25 34.33 25 34.66 25 35 C14.605 35.495 14.605 35.495 4 36 C4.66 36.33 5.32 36.66 6 37 C6 38.65 6 40.3 6 42 C5.67 40.68 5.34 39.36 5 38 C3.02 38 1.04 38 -1 38 C-1 37.01 -1 36.02 -1 35 C-2.65 35 -4.3 35 -6 35 C-6 33.35 -6 31.7 -6 30 C-4.35 30 -2.7 30 -1 30 C-1 29.34 -1 28.68 -1 28 C-2.65 28 -4.3 28 -6 28 C-6 26.68 -6 25.36 -6 24 C-4.35 24 -2.7 24 -1 24 C-1 23.01 -1 22.02 -1 21 C-2.65 21 -4.3 21 -6 21 C-6 19.68 -6 18.36 -6 17 C-4.35 17 -2.7 17 -1 17 C-1 16.34 -1 15.68 -1 15 C-2.65 15 -4.3 15 -6 15 C-6 13.35 -6 11.7 -6 10 C-4.35 10 -2.7 10 -1 10 C-1 9.34 -1 8.68 -1 8 C-2.65 8 -4.3 8 -6 8 C-6 6.68 -6 5.36 -6 4 C-4.02 4 -2.04 4 0 4 C0 2.68 0 1.36 0 0 Z " fill="#2D2E3A" transform="translate(8,6)"/>
<path d="M0 0 C5.28 0 10.56 0 16 0 C16 5.61 16 11.22 16 17 C11.05 17 6.1 17 1 17 C0.67 11.39 0.34 5.78 0 0 Z " fill="#EBB572" transform="translate(17,16)"/>
<path d="M0 0 C5.28 0 10.56 0 16 0 C16 5.61 16 11.22 16 17 C11.71 17 7.42 17 3 17 C3 16.01 3 15.02 3 14 C6.3 14 9.6 14 13 14 C13 9.71 13 5.42 13 1 C9.04 1 5.08 1 1 1 C0.67 1.99 0.34 2.98 0 4 C0 2.68 0 1.36 0 0 Z " fill="#D1955F" transform="translate(17,16)"/>
<path d="M0 0 C1.32 0 2.64 0 4 0 C4 1.98 4 3.96 4 6 C4.99 6 5.98 6 7 6 C7 4.02 7 2.04 7 0 C8.32 0 9.64 0 11 0 C11 1.98 11 3.96 11 6 C12.98 6 14.96 6 17 6 C17 6.33 17 6.66 17 7 C12.53665816 8.72293135 8.89798769 9.22240791 4.125 9.125 C2.97257812 9.10695313 1.82015625 9.08890625 0.6328125 9.0703125 C-0.23601563 9.04710937 -1.10484375 9.02390625 -2 9 C-2 8.01 -2 7.02 -2 6 C-1.34 6 -0.68 6 0 6 C0 4.02 0 2.04 0 0 Z " fill="#32313C" transform="translate(26,0)"/>
<path d="M0 0 C1.32 0 2.64 0 4 0 C4 1.98 4 3.96 4 6 C4.66 6 5.32 6 6 6 C6 4.02 6 2.04 6 0 C7.32 0 8.64 0 10 0 C10.87890625 6.15234375 10.87890625 6.15234375 11 8 C9.19657226 9.80342774 6.56924544 9.54580176 4.125 9.8125 C2.52011719 10.00779297 2.52011719 10.00779297 0.8828125 10.20703125 C-2 10 -2 10 -3.8828125 8.01171875 C-4.43582031 7.01591797 -4.43582031 7.01591797 -5 6 C-3.35 6 -1.7 6 0 6 C0 4.02 0 2.04 0 0 Z " fill="#22202C" transform="translate(14,0)"/>
<path d="M0 0 C1.98 0 3.96 0 6 0 C6 0.66 6 1.32 6 2 C5.34 2 4.68 2 4 2 C4 4.31 4 6.62 4 9 C2.68 9 1.36 9 0 9 C0 7.02 0 5.04 0 3 C-0.66 3 -1.32 3 -2 3 C-2 4.98 -2 6.96 -2 9 C-3.65 9 -5.3 9 -7 9 C-7 7.02 -7 5.04 -7 3 C-3.535 2.505 -3.535 2.505 0 2 C0 1.34 0 0.68 0 0 Z " fill="#2D2C34" transform="translate(33,41)"/>
<path d="M0 0 C0.33 0.99 0.66 1.98 1 3 C0.01 3 -0.98 3 -2 3 C-2 4.98 -2 6.96 -2 9 C-3.65 9 -5.3 9 -7 9 C-6.67 6.69 -6.34 4.38 -6 2 C-7.32 1.67 -8.64 1.34 -10 1 C-6.78548731 -0.60725635 -3.56387464 -0.05748185 0 0 Z " fill="#1F1E2B" transform="translate(20,41)"/>
<path d="M0 0 C5.28 0 10.56 0 16 0 C16 0.99 16 1.98 16 3 C10.72 3 5.44 3 0 3 C0 2.01 0 1.02 0 0 Z " fill="#202B3D" transform="translate(17,34)"/>
<path d="M0 0 C0.66 0 1.32 0 2 0 C1.67 2.97 1.34 5.94 1 9 C2.98 9 4.96 9 7 9 C7 10.65 7 12.3 7 14 C6.67 12.68 6.34 11.36 6 10 C4.02 10 2.04 10 0 10 C0 9.01 0 8.02 0 7 C-1.65 7 -3.3 7 -5 7 C-5 5.35 -5 3.7 -5 2 C-3.35 2 -1.7 2 0 2 C0 1.34 0 0.68 0 0 Z " fill="#47464B" transform="translate(7,34)"/>
<path d="M0 0 C3.3 0 6.6 0 10 0 C10 0.99 10 1.98 10 3 C6.7 3 3.4 3 0 3 C0 2.01 0 1.02 0 0 Z " fill="#EAA25E" transform="translate(20,30)"/>
<path d="M0 0 C1.65 0 3.3 0 5 0 C5 1.65 5 3.3 5 5 C3.35 5 1.7 5 0 5 C-0.33 5.66 -0.66 6.32 -1 7 C-0.67 4.69 -0.34 2.38 0 0 Z " fill="#323640" transform="translate(43,16)"/>
<path d="M0 0 C1.98 0 3.96 0 6 0 C6 0.99 6 1.98 6 3 C4.68 3 3.36 3 2 3 C2 3.99 2 4.98 2 6 C1.01 6 0.02 6 -1 6 C-0.67 4.02 -0.34 2.04 0 0 Z " fill="#EFC88A" transform="translate(18,17)"/>
<path d="M0 0 C1.32 0 2.64 0 4 0 C4 1.98 4 3.96 4 6 C2.68 6 1.36 6 0 6 C0 4.02 0 2.04 0 0 Z " fill="#45434B" transform="translate(26,44)"/>
<path d="M0 0 C1.65 0 3.3 0 5 0 C5 1.32 5 2.64 5 4 C3.35 4 1.7 4 0 4 C0 2.68 0 1.36 0 0 Z " fill="#1E212D" transform="translate(2,16)"/>
<path d="M0 0 C1.65 0 3.3 0 5 0 C5 0.99 5 1.98 5 3 C3.68 3.33 2.36 3.66 1 4 C1 4.66 1 5.32 1 6 C0.34 6 -0.32 6 -1 6 C-0.67 4.02 -0.34 2.04 0 0 Z " fill="#2B3542" transform="translate(43,24)"/>
<path d="M0 0 C1.98 0 3.96 0 6 0 C6 1.65 6 3.3 6 5 C5.67 4.34 5.34 3.68 5 3 C3.35 3 1.7 3 0 3 C0 2.01 0 1.02 0 0 Z " fill="#2A3747" transform="translate(2,11)"/>
<path d="M0 0 C0.99 0 1.98 0 3 0 C3 1.98 3 3.96 3 6 C2.01 6 1.02 6 0 6 C0 4.02 0 2.04 0 0 Z " fill="#E6A15F" transform="translate(30,17)"/>
<path d="M0 0 C1.98 0 3.96 0 6 0 C6 0.99 6 1.98 6 3 C4.35 3 2.7 3 1 3 C0.67 2.01 0.34 1.02 0 0 Z " fill="#1A2E41" transform="translate(42,11)"/>
</svg>
