<?xml version="1.0" encoding="UTF-8"?>
<svg version="1.1" xmlns="http://www.w3.org/2000/svg" width="50" height="50">
<path d="M0 0 C4.95 0 9.9 0 15 0 C15 0.99 15 1.98 15 3 C16.32 3 17.64 3 19 3 C19 3.99 19 4.98 19 6 C19.66 6 20.32 6 21 6 C21 7.98 21 9.96 21 12 C21.99 12 22.98 12 24 12 C24 17.28 24 22.56 24 28 C24.99 28 25.98 28 27 28 C27 28.99 27 29.98 27 31 C27.66 31 28.32 31 29 31 C29 37.27 29 43.54 29 50 C14.48 50 -0.04 50 -15 50 C-15 43.73 -15 37.46 -15 31 C-14.01 31 -13.02 31 -12 31 C-12 30.01 -12 29.02 -12 28 C-11.34 28 -10.68 28 -10 28 C-10 22.72 -10 17.44 -10 12 C-9.01 12 -8.02 12 -7 12 C-7 10.02 -7 8.04 -7 6 C-6.01 6 -5.02 6 -4 6 C-4 5.01 -4 4.02 -4 3 C-2.68 3 -1.36 3 0 3 C0 2.01 0 1.02 0 0 Z " fill="#1A4D63" transform="translate(18,0)"/>
<path d="M0 0 C4.95 0 9.9 0 15 0 C15 0.99 15 1.98 15 3 C16.32 3 17.64 3 19 3 C19 3.99 19 4.98 19 6 C19.66 6 20.32 6 21 6 C21 7.98 21 9.96 21 12 C21.99 12 22.98 12 24 12 C24 17.28 24 22.56 24 28 C23.67 28 23.34 28 23 28 C23 23.05 23 18.1 23 13 C22.34 13 21.68 13 21 13 C21 16.96 21 20.92 21 25 C19.02 25 17.04 25 15 25 C15 25.99 15 26.98 15 28 C13.68 28 12.36 28 11 28 C11 28.99 11 29.98 11 31 C8.36 31 5.72 31 3 31 C3 30.01 3 29.02 3 28 C2.01 28 1.02 28 0 28 C0 27.01 0 26.02 0 25 C-0.99 25 -1.98 25 -3 25 C-3 23.02 -3 21.04 -3 19 C-3.99 19 -4.98 19 -6 19 C-6.33 14.71 -6.66 10.42 -7 6 C-6.01 6 -5.02 6 -4 6 C-4 5.01 -4 4.02 -4 3 C-2.68 3 -1.36 3 0 3 C0 2.01 0 1.02 0 0 Z " fill="#1B596F" transform="translate(18,0)"/>
<path d="M0 0 C1.32 0.33 2.64 0.66 4 1 C4 2.98 4 4.96 4 7 C4.99 7 5.98 7 7 7 C7 8.98 7 10.96 7 13 C7.99 13 8.98 13 10 13 C10 13.99 10 14.98 10 16 C10.99 16 11.98 16 13 16 C13 16.99 13 17.98 13 19 C15.64 19 18.28 19 21 19 C21 18.01 21 17.02 21 16 C22.32 16 23.64 16 25 16 C25 15.01 25 14.02 25 13 C26.98 13 28.96 13 31 13 C31 9.04 31 5.08 31 1 C31.66 1 32.32 1 33 1 C33 5.95 33 10.9 33 16 C32.01 16 31.02 16 30 16 C30 16.99 30 17.98 30 19 C29.01 19 28.02 19 27 19 C27 19.99 27 20.98 27 22 C26.01 22 25.02 22 24 22 C24 23.32 24 24.64 24 26 C22.35 26 20.7 26 19 26 C19 27.65 19 29.3 19 31 C18.01 31.33 17.02 31.66 16 32 C16 30.02 16 28.04 16 26 C14.02 26 12.04 26 10 26 C10 25.01 10 24.02 10 23 C9.01 23 8.02 23 7 23 C7 22.01 7 21.02 7 20 C6.01 20 5.02 20 4 20 C4 19.01 4 18.02 4 17 C3.01 17 2.02 17 1 17 C1 17.66 1 18.32 1 19 C0.01 19 -0.98 19 -2 19 C-2 18.01 -2 17.02 -2 16 C-1.34 16 -0.68 16 0 16 C0 10.72 0 5.44 0 0 Z " fill="#1C3044" transform="translate(8,12)"/>
<path d="M0 0 C1.32 0 2.64 0 4 0 C4 0.99 4 1.98 4 3 C4.66 3 5.32 3 6 3 C6 9.27 6 15.54 6 22 C-8.52 22 -23.04 22 -38 22 C-38 15.73 -38 9.46 -38 3 C-37.01 3.33 -36.02 3.66 -35 4 C-35 4.99 -35 5.98 -35 7 C-33.02 7 -31.04 7 -29 7 C-29 10.96 -29 14.92 -29 19 C-20.42 19 -11.84 19 -3 19 C-3 16.03 -3 13.06 -3 10 C-2.01 10 -1.02 10 0 10 C0 12.97 0 15.94 0 19 C0.99 19 1.98 19 3 19 C3 14.05 3 9.1 3 4 C2.01 4 1.02 4 0 4 C0 2.68 0 1.36 0 0 Z " fill="#192F45" transform="translate(41,28)"/>
<path d="M0 0 C4.95 0 9.9 0 15 0 C15 0.99 15 1.98 15 3 C15.66 3 16.32 3 17 3 C17 4.98 17 6.96 17 9 C16.34 9 15.68 9 15 9 C15 9.99 15 10.98 15 12 C13.68 12 12.36 12 11 12 C11 12.99 11 13.98 11 15 C8.36 15 5.72 15 3 15 C3 14.01 3 13.02 3 12 C2.01 12 1.02 12 0 12 C0 11.01 0 10.02 0 9 C-0.99 9 -1.98 9 -3 9 C-3 7.02 -3 5.04 -3 3 C-2.01 3 -1.02 3 0 3 C0 2.01 0 1.02 0 0 Z " fill="#E28B59" transform="translate(18,16)"/>
<path d="M0 0 C0.99 0 1.98 0 3 0 C3 0.99 3 1.98 3 3 C3.99 3 4.98 3 6 3 C6 3.99 6 4.98 6 6 C6.99 6 7.98 6 9 6 C9 6.99 9 7.98 9 9 C10.98 9 12.96 9 15 9 C15 10.98 15 12.96 15 15 C13.02 15 11.04 15 9 15 C9 14.01 9 13.02 9 12 C8.01 12 7.02 12 6 12 C6 11.01 6 10.02 6 9 C5.01 9 4.02 9 3 9 C3 8.01 3 7.02 3 6 C1.02 6 -0.96 6 -3 6 C-3.33 4.68 -3.66 3.36 -4 2 C-2.68 2 -1.36 2 0 2 C0 1.34 0 0.68 0 0 Z " fill="#1C5C70" transform="translate(9,29)"/>
<path d="M0 0 C1.32 0 2.64 0 4 0 C4 0.99 4 1.98 4 3 C4.66 3 5.32 3 6 3 C6 4.98 6 6.96 6 9 C6.99 9 7.98 9 9 9 C9 14.28 9 19.56 9 25 C8.67 25 8.34 25 8 25 C8 20.05 8 15.1 8 10 C7.34 10 6.68 10 6 10 C6 13.96 6 17.92 6 22 C4.68 22 3.36 22 2 22 C2 20.02 2 18.04 2 16 C1.34 16 0.68 16 0 16 C0 15.01 0 14.02 0 13 C0.99 13 1.98 13 3 13 C3 13.99 3 14.98 3 16 C3.66 16 4.32 16 5 16 C5 13.69 5 11.38 5 9 C4.34 9 3.68 9 3 9 C3 7.35 3 5.7 3 4 C2.01 4 1.02 4 0 4 C0 2.68 0 1.36 0 0 Z " fill="#2A3E4E" transform="translate(33,3)"/>
<path d="M0 0 C1.98 0 3.96 0 6 0 C6 2.97 6 5.94 6 9 C4.02 9.33 2.04 9.66 0 10 C0 9.34 0 8.68 0 8 C-0.99 8 -1.98 8 -3 8 C-3 6.02 -3 4.04 -3 2 C-2.01 2 -1.02 2 0 2 C0 1.34 0 0.68 0 0 Z " fill="#E18C5A" transform="translate(18,17)"/>
<path d="M0 0 C1.32 0.33 2.64 0.66 4 1 C4 3.64 4 6.28 4 9 C9.94 9 15.88 9 22 9 C22 9.33 22 9.66 22 10 C17.05 10 12.1 10 7 10 C7 10.99 7 11.98 7 13 C5.02 13 3.04 13 1 13 C0.67 8.71 0.34 4.42 0 0 Z " fill="#304655" transform="translate(11,6)"/>
<path d="M0 0 C3.96 0 7.92 0 12 0 C12 1.65 12 3.3 12 5 C7.05 5 2.1 5 -3 5 C-3 4.01 -3 3.02 -3 2 C-2.01 2 -1.02 2 0 2 C0 1.34 0 0.68 0 0 Z " fill="#143149" transform="translate(21,10)"/>
<path d="M0 0 C4.95 0 9.9 0 15 0 C14.67 0.99 14.34 1.98 14 3 C10.37 3 6.74 3 3 3 C3 3.99 3 4.98 3 6 C-1.75 7.125 -1.75 7.125 -4 6 C-4 5.01 -4 4.02 -4 3 C-2.68 3 -1.36 3 0 3 C0 2.01 0 1.02 0 0 Z " fill="#172E42" transform="translate(18,0)"/>
<path d="M0 0 C0.99 0.33 1.98 0.66 3 1 C3.33 6.28 3.66 11.56 4 17 C5.98 17.33 7.96 17.66 10 18 C10 18.33 10 18.66 10 19 C6.7 19 3.4 19 0 19 C0 12.73 0 6.46 0 0 Z " fill="#1E3044" transform="translate(3,31)"/>
<path d="M0 0 C0 1.65 0 3.3 0 5 C0.99 5 1.98 5 3 5 C3 6.65 3 8.3 3 10 C3.66 10 4.32 10 5 10 C5 12.31 5 14.62 5 17 C4.34 17 3.68 17 3 17 C3 16.01 3 15.02 3 14 C2.01 14 1.02 14 0 14 C0 12.02 0 10.04 0 8 C-0.99 8 -1.98 8 -3 8 C-3 5.69 -3 3.38 -3 1 C-1 0 -1 0 0 0 Z " fill="#1A4960" transform="translate(33,2)"/>
<path d="M0 0 C1.98 0 3.96 0 6 0 C6 0.99 6 1.98 6 3 C5.34 3 4.68 3 4 3 C4 5.97 4 8.94 4 12 C2.68 12 1.36 12 0 12 C0 8.04 0 4.08 0 0 Z " fill="#164258" transform="translate(6,35)"/>
<path d="M0 0 C0.33 0.99 0.66 1.98 1 3 C1.66 3 2.32 3 3 3 C3 4.98 3 6.96 3 9 C2.34 9 1.68 9 1 9 C0.67 9.99 0.34 10.98 0 12 C-0.33 9.69 -0.66 7.38 -1 5 C-1.33 6.32 -1.66 7.64 -2 9 C-2.99 9 -3.98 9 -5 9 C-5 6.69 -5 4.38 -5 2 C-3.35 1.34 -1.7 0.68 0 0 Z " fill="#D98454" transform="translate(32,16)"/>
<path d="M0 0 C1.32 0.33 2.64 0.66 4 1 C4 2.98 4 4.96 4 7 C3.34 7 2.68 7 2 7 C1.67 9.97 1.34 12.94 1 16 C0.67 16 0.34 16 0 16 C0 10.72 0 5.44 0 0 Z " fill="#111D2B" transform="translate(8,12)"/>
<path d="M0 0 C1.32 0 2.64 0 4 0 C4 6.27 4 12.54 4 19 C3.67 19 3.34 19 3 19 C3 14.05 3 9.1 3 4 C2.01 4 1.02 4 0 4 C0 2.68 0 1.36 0 0 Z " fill="#17354A" transform="translate(41,28)"/>
<path d="M0 0 C0.99 0 1.98 0 3 0 C3 1.98 3 3.96 3 6 C2.01 6 1.02 6 0 6 C0 4.02 0 2.04 0 0 Z " fill="#2D3A4A" transform="translate(27,19)"/>
<path d="M0 0 C0.99 0 1.98 0 3 0 C3 1.98 3 3.96 3 6 C2.01 6 1.02 6 0 6 C0 4.02 0 2.04 0 0 Z " fill="#1A2E44" transform="translate(21,19)"/>
<path d="M0 0 C0.99 0 1.98 0 3 0 C3 1.98 3 3.96 3 6 C2.01 6 1.02 6 0 6 C0 4.02 0 2.04 0 0 Z " fill="#C46D3E" transform="translate(15,19)"/>
<path d="M0 0 C1.98 0 3.96 0 6 0 C6 0.66 6 1.32 6 2 C1.545 2.495 1.545 2.495 -3 3 C-2.01 2.67 -1.02 2.34 0 2 C0 1.34 0 0.68 0 0 Z " fill="#18475D" transform="translate(21,10)"/>
</svg>
