<?xml version="1.0" encoding="UTF-8"?>
<svg version="1.1" xmlns="http://www.w3.org/2000/svg" width="50" height="50">
<path d="M0 0 C8.91 0 17.82 0 27 0 C27 0.66 27 1.32 27 2 C27.66 2 28.32 2 29 2 C29 5.63 29 9.26 29 13 C28.34 13 27.68 13 27 13 C27.33 14.98 27.66 16.96 28 19 C27.01 19 26.02 19 25 19 C25 20.32 25 21.64 25 23 C23.68 23 22.36 23 21 23 C21 24.98 21 26.96 21 29 C20.01 29 19.02 29 18 29 C18 29.66 18 30.32 18 31 C19.98 31 21.96 31 24 31 C24 32.98 24 34.96 24 37 C24.99 37 25.98 37 27 37 C27 37.99 27 38.98 27 40 C27.66 40 28.32 40 29 40 C29.125 47.75 29.125 47.75 28 50 C18.76 50 9.52 50 0 50 C0 49.34 0 48.68 0 48 C-0.99 47.67 -1.98 47.34 -3 47 C-3 44.69 -3 42.38 -3 40 C-2.01 40 -1.02 40 0 40 C0 39.01 0 38.02 0 37 C0.99 37 1.98 37 3 37 C3 35.02 3 33.04 3 31 C4.98 31 6.96 31 9 31 C9 30.34 9 29.68 9 29 C8.01 29 7.02 29 6 29 C6 26.69 6 24.38 6 22 C5.01 22.33 4.02 22.66 3 23 C3 21.68 3 20.36 3 19 C2.01 19 1.02 19 0 19 C0 17.02 0 15.04 0 13 C-0.99 13 -1.98 13 -3 13 C-3 9.7 -3 6.4 -3 3 C-2.01 3 -1.02 3 0 3 C0 2.01 0 1.02 0 0 Z " fill="#58B3AF" transform="translate(12,0)"/>
<path d="M0 0 C0.66 0 1.32 0 2 0 C2 0.99 2 1.98 2 3 C6.62 3 11.24 3 16 3 C16 4.98 16 6.96 16 9 C16.99 9 17.98 9 19 9 C19 9.99 19 10.98 19 12 C19.66 12 20.32 12 21 12 C21.125 19.75 21.125 19.75 20 22 C10.76 22 1.52 22 -8 22 C-8 21.34 -8 20.68 -8 20 C-8.99 19.67 -9.98 19.34 -11 19 C-11 16.69 -11 14.38 -11 12 C-10.01 12 -9.02 12 -8 12 C-8 11.01 -8 10.02 -8 9 C-7.01 9 -6.02 9 -5 9 C-5 7.02 -5 5.04 -5 3 C-3.02 3 -1.04 3 1 3 C0.67 2.01 0.34 1.02 0 0 Z " fill="#674E46" transform="translate(20,28)"/>
<path d="M0 0 C0.66 0 1.32 0 2 0 C2 3.3 2 6.6 2 10 C1.34 10 0.68 10 0 10 C0.33 11.98 0.66 13.96 1 16 C0.01 16 -0.98 16 -2 16 C-2 17.32 -2 18.64 -2 20 C-3.32 20 -4.64 20 -6 20 C-6 21.98 -6 23.96 -6 26 C-6.99 26 -7.98 26 -9 26 C-9 26.66 -9 27.32 -9 28 C-11.64 28 -14.28 28 -17 28 C-17 27.01 -17 26.02 -17 25 C-18.32 25.33 -19.64 25.66 -21 26 C-20.67 23.69 -20.34 21.38 -20 19 C-18.35 19 -16.7 19 -15 19 C-15 19.99 -15 20.98 -15 22 C-14.01 22 -13.02 22 -12 22 C-12 21.01 -12 20.02 -12 19 C-11.01 19 -10.02 19 -9 19 C-9 18.01 -9 17.02 -9 16 C-8.01 16 -7.02 16 -6 16 C-6 13.69 -6 11.38 -6 9 C-5.01 9 -4.02 9 -3 9 C-3 8.01 -3 7.02 -3 6 C-2.01 6 -1.02 6 0 6 C0 4.02 0 2.04 0 0 Z " fill="#068E9F" transform="translate(39,3)"/>
<path d="M0 0 C8.91 0 17.82 0 27 0 C26.67 0.99 26.34 1.98 26 3 C17.75 3 9.5 3 1 3 C1 4.98 1 6.96 1 9 C1.99 9 2.98 9 4 9 C4 9.99 4 10.98 4 12 C4.66 12 5.32 12 6 12 C6 15.3 6 18.6 6 22 C5.01 22.33 4.02 22.66 3 23 C3 21.68 3 20.36 3 19 C2.01 19 1.02 19 0 19 C0 17.02 0 15.04 0 13 C-0.99 13 -1.98 13 -3 13 C-3 9.7 -3 6.4 -3 3 C-2.01 3 -1.02 3 0 3 C0 2.01 0 1.02 0 0 Z " fill="#068A9C" transform="translate(12,0)"/>
<path d="M0 0 C2.97 0 5.94 0 9 0 C9 0.99 9 1.98 9 3 C9.66 3 10.32 3 11 3 C11 5.31 11 7.62 11 10 C10.34 10 9.68 10 9 10 C9 10.99 9 11.98 9 13 C8.01 13 7.02 13 6 13 C6 13.99 6 14.98 6 16 C5.01 16 4.02 16 3 16 C3 15.01 3 14.02 3 13 C2.01 13 1.02 13 0 13 C0 12.01 0 11.02 0 10 C-0.66 10 -1.32 10 -2 10 C-2 7.69 -2 5.38 -2 3 C-1.34 3 -0.68 3 0 3 C0 2.01 0 1.02 0 0 Z " fill="#ABD0BD" transform="translate(21,9)"/>
<path d="M0 0 C0.66 0 1.32 0 2 0 C2 0.99 2 1.98 2 3 C6.62 3 11.24 3 16 3 C16 5.31 16 7.62 16 10 C13.04160645 10.02689449 10.08345573 10.04678741 7.125 10.0625 C5.86236328 10.07506836 5.86236328 10.07506836 4.57421875 10.08789062 C3.76855469 10.09111328 2.96289062 10.09433594 2.1328125 10.09765625 C1.38918457 10.10289307 0.64555664 10.10812988 -0.12060547 10.11352539 C-2 10 -2 10 -4 9 C-4.625 5.9375 -4.625 5.9375 -5 3 C-3.02 3 -1.04 3 1 3 C0.67 2.01 0.34 1.02 0 0 Z " fill="#183C51" transform="translate(20,28)"/>
<path d="M0 0 C1.5 1.3125 1.5 1.3125 3 3 C3 3.99 3 4.98 3 6 C13.395 5.505 13.395 5.505 24 5 C23.67 6.32 23.34 7.64 23 9 C14.42 9 5.84 9 -3 9 C-3.33 11.31 -3.66 13.62 -4 16 C-4.66 15.67 -5.32 15.34 -6 15 C-6 12.69 -6 10.38 -6 8 C-5.01 8 -4.02 8 -3 8 C-3 7.01 -3 6.02 -3 5 C-2.01 5 -1.02 5 0 5 C0 3.35 0 1.7 0 0 Z " fill="#212331" transform="translate(15,32)"/>
<path d="M0 0 C0.66 0 1.32 0 2 0 C2.125 6.75 2.125 6.75 1 9 C-8.24 9 -17.48 9 -27 9 C-27 8.01 -27 7.02 -27 6 C-18.09 6 -9.18 6 0 6 C0 4.02 0 2.04 0 0 Z " fill="#1B2C40" transform="translate(39,41)"/>
<path d="M0 0 C1.65 0 3.3 0 5 0 C5 0.99 5 1.98 5 3 C5.99 3 6.98 3 8 3 C8 2.01 8 1.02 8 0 C8.99 0 9.98 0 11 0 C11 1.98 11 3.96 11 6 C11.66 6.33 12.32 6.66 13 7 C12.34 7 11.68 7 11 7 C11 7.66 11 8.32 11 9 C8.36 9 5.72 9 3 9 C3 8.01 3 7.02 3 6 C1.68 6.33 0.36 6.66 -1 7 C-0.67 4.69 -0.34 2.38 0 0 Z " fill="#30A5A9" transform="translate(19,22)"/>
<path d="M0 0 C8.25 0 16.5 0 25 0 C25 0.99 25 1.98 25 3 C16.75 3 8.5 3 0 3 C0 2.01 0 1.02 0 0 Z " fill="#91624D" transform="translate(13,41)"/>
<path d="M0 0 C4.95 0 9.9 0 15 0 C15 1.32 15 2.64 15 4 C10.05 4 5.1 4 0 4 C0 2.68 0 1.36 0 0 Z " fill="#7B5A4D" transform="translate(18,34)"/>
<path d="M0 0 C9.57 0 19.14 0 29 0 C29 0.33 29 0.66 29 1 C20.42 1 11.84 1 3 1 C2.67 3.31 2.34 5.62 2 8 C1.34 7.67 0.68 7.34 0 7 C0 4.69 0 2.38 0 0 Z " fill="#453A40" transform="translate(9,40)"/>
<path d="M0 0 C0.66 0 1.32 0 2 0 C2 0.99 2 1.98 2 3 C5.96 3 9.92 3 14 3 C14 3.33 14 3.66 14 4 C10.04 4 6.08 4 2 4 C2 4.66 2 5.32 2 6 C1.38125 6.12375 0.7625 6.2475 0.125 6.375 C-2.19120832 6.87197356 -2.19120832 6.87197356 -4 9 C-4.33 7.02 -4.66 5.04 -5 3 C-3.02 3 -1.04 3 1 3 C0.67 2.01 0.34 1.02 0 0 Z " fill="#1B5365" transform="translate(20,28)"/>
<path d="M0 0 C0.99 0 1.98 0 3 0 C3 0.66 3 1.32 3 2 C4.32 1.67 5.64 1.34 7 1 C7 1.99 7 2.98 7 4 C5.68 4 4.36 4 3 4 C3 5.98 3 7.96 3 10 C2.01 9.67 1.02 9.34 0 9 C0 6.03 0 3.06 0 0 Z " fill="#369599" transform="translate(30,19)"/>
<path d="M0 0 C0.99 0 1.98 0 3 0 C3 1.98 3 3.96 3 6 C3.66 6.33 4.32 6.66 5 7 C2.36 6.67 -0.28 6.34 -3 6 C-3 5.01 -3 4.02 -3 3 C-2.01 3 -1.02 3 0 3 C0 2.01 0 1.02 0 0 Z " fill="#57B3AF" transform="translate(27,22)"/>
<path d="M0 0 C2.31 0 4.62 0 7 0 C7.33 0.99 7.66 1.98 8 3 C5.36 3 2.72 3 0 3 C0 2.01 0 1.02 0 0 Z " fill="#0491A1" transform="translate(22,28)"/>
<path d="M0 0 C0.99 0 1.98 0 3 0 C2.67 2.31 2.34 4.62 2 7 C1.34 6.67 0.68 6.34 0 6 C0 4.02 0 2.04 0 0 Z " fill="#132539" transform="translate(9,41)"/>
<path d="M0 0 C0.99 0 1.98 0 3 0 C3.33 1.98 3.66 3.96 4 6 C2.68 5.67 1.36 5.34 0 5 C0 3.35 0 1.7 0 0 Z " fill="#008094" transform="translate(36,13)"/>
<path d="M0 0 C0.99 0 1.98 0 3 0 C2.41321669 3.52069985 1.64350079 5.71299843 0 9 C0 6.03 0 3.06 0 0 Z " fill="#008095" transform="translate(9,3)"/>
<path d="M0 0 C0.66 0 1.32 0 2 0 C2 1.98 2 3.96 2 6 C1.01 6.33 0.02 6.66 -1 7 C-0.67 4.69 -0.34 2.38 0 0 Z " fill="#0D8E9D" transform="translate(19,22)"/>
<path d="M0 0 C0.66 0 1.32 0 2 0 C2.33 2.31 2.66 4.62 3 7 C2.01 6.67 1.02 6.34 0 6 C0 4.02 0 2.04 0 0 Z " fill="#078B9B" transform="translate(30,22)"/>
</svg>
