<?xml version="1.0" encoding="UTF-8"?>
<svg version="1.1" xmlns="http://www.w3.org/2000/svg" width="50" height="50">
<path d="M0 0 C4.62 0 9.24 0 14 0 C14 0.66 14 1.32 14 2 C14.66 2 15.32 2 16 2 C16 2.99 16 3.98 16 5 C16.99 5 17.98 5 19 5 C19 9.62 19 14.24 19 19 C18.01 19 17.02 19 16 19 C16 19.99 16 20.98 16 22 C15.34 22 14.68 22 14 22 C14 23.32 14 24.64 14 26 C10.7 26 7.4 26 4 26 C4 26.66 4 27.32 4 28 C3.01 28 2.02 28 1 28 C1 29.32 1 30.64 1 32 C0.01 32 -0.98 32 -2 32 C-2 32.99 -2 33.98 -2 35 C-2.99 35 -3.98 35 -5 35 C-5 35.99 -5 36.98 -5 38 C-5.99 38 -6.98 38 -8 38 C-8 38.99 -8 39.98 -8 41 C-8.99 41 -9.98 41 -11 41 C-11 42.32 -11 43.64 -11 45 C-12.65 45 -14.3 45 -16 45 C-16 45.99 -16 46.98 -16 48 C-17.32 48 -18.64 48 -20 48 C-20 48.66 -20 49.32 -20 50 C-21.32 50 -22.64 50 -24 50 C-24 49.34 -24 48.68 -24 48 C-24.99 48 -25.98 48 -27 48 C-27 45.36 -27 42.72 -27 40 C-26.01 40 -25.02 40 -24 40 C-24 36.7 -24 33.4 -24 30 C-23.01 30 -22.02 30 -21 30 C-21 29.01 -21 28.02 -21 27 C-20.34 27 -19.68 27 -19 27 C-18.67 26.01 -18.34 25.02 -18 24 C-17.01 24 -16.02 24 -15 24 C-15 23.01 -15 22.02 -15 21 C-14.01 21 -13.02 21 -12 21 C-12 20.01 -12 19.02 -12 18 C-11.01 18 -10.02 18 -9 18 C-9 17.01 -9 16.02 -9 15 C-8.01 15 -7.02 15 -6 15 C-6 11.7 -6 8.4 -6 5 C-5.01 5 -4.02 5 -3 5 C-3 4.01 -3 3.02 -3 2 C-2.01 2 -1.02 2 0 2 C0 1.34 0 0.68 0 0 Z " fill="#1E4C61" transform="translate(29,0)"/>
<path d="M0 0 C3.3 0 6.6 0 10 0 C10 0.99 10 1.98 10 3 C10.99 3 11.98 3 13 3 C13 6.63 13 10.26 13 14 C12.01 14 11.02 14 10 14 C10 14.99 10 15.98 10 17 C9.01 17 8.02 17 7 17 C7 17.99 7 18.98 7 20 C6.01 20 5.02 20 4 20 C4 20.99 4 21.98 4 23 C3.01 23 2.02 23 1 23 C1 24.32 1 25.64 1 27 C-0.65 27 -2.3 27 -4 27 C-4 27.99 -4 28.98 -4 30 C-5.32 30 -6.64 30 -8 30 C-8 30.66 -8 31.32 -8 32 C-9.32 32 -10.64 32 -12 32 C-12 31.34 -12 30.68 -12 30 C-12.99 30 -13.98 30 -15 30 C-15 27.36 -15 24.72 -15 22 C-14.01 22 -13.02 22 -12 22 C-12 18.7 -12 15.4 -12 12 C-11.01 12 -10.02 12 -9 12 C-9 11.01 -9 10.02 -9 9 C-8.34 9 -7.68 9 -7 9 C-6.67 8.01 -6.34 7.02 -6 6 C-5.01 6 -4.02 6 -3 6 C-3 5.01 -3 4.02 -3 3 C-2.01 3 -1.02 3 0 3 C0 2.01 0 1.02 0 0 Z " fill="#323E48" transform="translate(17,18)"/>
<path d="M0 0 C2.31 0 4.62 0 7 0 C7 0.99 7 1.98 7 3 C7.99 3 8.98 3 10 3 C10 5.31 10 7.62 10 10 C8.68 10 7.36 10 6 10 C6 10.99 6 11.98 6 13 C5.34 13 4.68 13 4 13 C4 13.99 4 14.98 4 16 C2.68 16 1.36 16 0 16 C0 16.99 0 17.98 0 19 C-0.99 19 -1.98 19 -3 19 C-3 19.99 -3 20.98 -3 22 C-4.65 22 -6.3 22 -8 22 C-8 21.01 -8 20.02 -8 19 C-8.99 19 -9.98 19 -11 19 C-11 17.02 -11 15.04 -11 13 C-10.01 13 -9.02 13 -8 13 C-8 12.01 -8 11.02 -8 10 C-7.34 10 -6.68 10 -6 10 C-6 9.01 -6 8.02 -6 7 C-5.01 7 -4.02 7 -3 7 C-3 6.01 -3 5.02 -3 4 C-2.01 4 -1.02 4 0 4 C0 2.68 0 1.36 0 0 Z " fill="#BB5D02" transform="translate(20,18)"/>
<path d="M0 0 C0.66 0 1.32 0 2 0 C3.60355101 3.50776784 4.22036864 6.14354879 4 10 C4.99 10 5.98 10 7 10 C7 11.32 7 12.64 7 14 C7.99 14 8.98 14 10 14 C10 14.99 10 15.98 10 17 C13.3 17 16.6 17 20 17 C20 18.32 20 19.64 20 21 C16.7 21 13.4 21 10 21 C10 21.66 10 22.32 10 23 C9.01 23 8.02 23 7 23 C7 20.69 7 18.38 7 16 C6.01 16 5.02 16 4 16 C4 15.01 4 14.02 4 13 C1.69 13 -0.62 13 -3 13 C-3 12.01 -3 11.02 -3 10 C-2.01 10 -1.02 10 0 10 C0 6.7 0 3.4 0 0 Z " fill="#162334" transform="translate(23,5)"/>
<path d="M0 0 C4.62 0 9.24 0 14 0 C14 0.66 14 1.32 14 2 C14.66 2 15.32 2 16 2 C16 2.99 16 3.98 16 5 C16.99 5 17.98 5 19 5 C19 9.62 19 14.24 19 19 C18.01 18.67 17.02 18.34 16 18 C16 15.03 16 12.06 16 9 C14.68 9 13.36 9 12 9 C12 6.69 12 4.38 12 2 C7.38 2.33 2.76 2.66 -2 3 C-1.34 2.67 -0.68 2.34 0 2 C0 1.34 0 0.68 0 0 Z " fill="#1D293D" transform="translate(29,0)"/>
<path d="M0 0 C2.64 0 5.28 0 8 0 C8 0.99 8 1.98 8 3 C7.34 3 6.68 3 6 3 C5.67 5.97 5.34 8.94 5 12 C3.35 12 1.7 12 0 12 C0 11.01 0 10.02 0 9 C-0.99 9 -1.98 9 -3 9 C-3 7.02 -3 5.04 -3 3 C-2.01 3 -1.02 3 0 3 C0 2.01 0 1.02 0 0 Z " fill="#D87927" transform="translate(12,28)"/>
<path d="M0 0 C2.29633824 3.44450737 2.54016485 5.93812283 3 10 C4.32 10.33 5.64 10.66 7 11 C7 11.99 7 12.98 7 14 C5.68 14 4.36 14 3 14 C3 14.66 3 15.32 3 16 C1.68 16 0.36 16 -1 16 C-1 15.34 -1 14.68 -1 14 C-1.99 14 -2.98 14 -4 14 C-4 11.36 -4 8.72 -4 6 C-3.01 5.67 -2.02 5.34 -1 5 C-0.67 3.35 -0.34 1.7 0 0 Z " fill="#1E3345" transform="translate(6,34)"/>
<path d="M0 0 C0.99 0 1.98 0 3 0 C3 1.32 3 2.64 3 4 C2.01 4 1.02 4 0 4 C0 4.99 0 5.98 0 7 C-0.99 7 -1.98 7 -3 7 C-3 7.99 -3 8.98 -3 10 C-3.66 10 -4.32 10 -5 10 C-5 10.99 -5 11.98 -5 13 C-5.99 13 -6.98 13 -8 13 C-8 14.98 -8 16.96 -8 19 C-7.01 19.33 -6.02 19.66 -5 20 C-5.99 20 -6.98 20 -8 20 C-8.33 20.66 -8.66 21.32 -9 22 C-9.33 21.01 -9.66 20.02 -10 19 C-10.66 19.66 -11.32 20.32 -12 21 C-12 18.03 -12 15.06 -12 12 C-11.01 12 -10.02 12 -9 12 C-9 11.01 -9 10.02 -9 9 C-8.34 9 -7.68 9 -7 9 C-6.67 8.01 -6.34 7.02 -6 6 C-5.01 6 -4.02 6 -3 6 C-3 5.01 -3 4.02 -3 3 C-2.01 3 -1.02 3 0 3 C0 2.01 0 1.02 0 0 Z " fill="#4D4343" transform="translate(17,18)"/>
<path d="M0 0 C0.66 0 1.32 0 2 0 C3.60355101 3.50776784 4.22036864 6.14354879 4 10 C4.99 10 5.98 10 7 10 C6.67 10.99 6.34 11.98 6 13 C6 12.34 6 11.68 6 11 C5.34 11 4.68 11 4 11 C4 11.66 4 12.32 4 13 C1.69 13 -0.62 13 -3 13 C-3 12.01 -3 11.02 -3 10 C-2.01 10 -1.02 10 0 10 C0 6.7 0 3.4 0 0 Z " fill="#1B394D" transform="translate(23,5)"/>
<path d="M0 0 C1.32 0 2.64 0 4 0 C4 1.32 4 2.64 4 4 C3.01 4 2.02 4 1 4 C1 4.99 1 5.98 1 7 C0.01 7 -0.98 7 -2 7 C-2 7.99 -2 8.98 -2 10 C-2.99 10 -3.98 10 -5 10 C-5 10.99 -5 11.98 -5 13 C-5.99 13 -6.98 13 -8 13 C-8 12.01 -8 11.02 -8 10 C-7.34 10 -6.68 10 -6 10 C-6 8.68 -6 7.36 -6 6 C-4.68 6 -3.36 6 -2 6 C-2 5.01 -2 4.02 -2 3 C-1.34 3 -0.68 3 0 3 C0 2.01 0 1.02 0 0 Z " fill="#212F3C" transform="translate(26,28)"/>
<path d="M0 0 C4.49652778 -0.36458333 4.49652778 -0.36458333 6.8125 1.3125 C8 3 8 3 8 6 C7.01 6 6.02 6 5 6 C5 6.66 5 7.32 5 8 C3.35 8.33 1.7 8.66 0 9 C0 6.03 0 3.06 0 0 Z " fill="#E98E36" transform="translate(21,19)"/>
<path d="M0 0 C2.31 0 4.62 0 7 0 C6.67 0.99 6.34 1.98 6 3 C6 2.34 6 1.68 6 1 C4.35 1 2.7 1 1 1 C1 4.96 1 8.92 1 13 C0.67 12.01 0.34 11.02 0 10 C-1.98 10 -3.96 10 -6 10 C-6 9.01 -6 8.02 -6 7 C-5.01 7 -4.02 7 -3 7 C-3 6.01 -3 5.02 -3 4 C-2.01 4 -1.02 4 0 4 C0 2.68 0 1.36 0 0 Z " fill="#CA7527" transform="translate(20,18)"/>
<path d="M0 0 C0.99 0 1.98 0 3 0 C3 4.62 3 9.24 3 14 C2.01 13.67 1.02 13.34 0 13 C0 8.71 0 4.42 0 0 Z " fill="#232634" transform="translate(45,5)"/>
<path d="M0 0 C3.55780196 0.60990891 6.6828589 1.5783681 10 3 C10 2.01 10 1.02 10 0 C12.31 0 14.62 0 17 0 C16.01 0.495 16.01 0.495 15 1 C15 1.99 15 2.98 15 4 C11.04 4 7.08 4 3 4 C3 3.01 3 2.02 3 1 C2.01 0.67 1.02 0.34 0 0 Z " fill="#1C4054" transform="translate(30,18)"/>
<path d="M0 0 C2.97 0 5.94 0 9 0 C8.67 0.99 8.34 1.98 8 3 C7.34 3 6.68 3 6 3 C5.67 3.99 5.34 4.98 5 6 C4.01 6 3.02 6 2 6 C2 5.01 2 4.02 2 3 C1.34 3 0.68 3 0 3 C0 2.01 0 1.02 0 0 Z " fill="#216375" transform="translate(30,3)"/>
<path d="M0 0 C0.66 0 1.32 0 2 0 C3.60725635 3.21451269 3.05748185 6.43612536 3 10 C2.01 10 1.02 10 0 10 C0 6.7 0 3.4 0 0 Z " fill="#162537" transform="translate(23,5)"/>
<path d="M0 0 C0.99 0 1.98 0 3 0 C3 1.32 3 2.64 3 4 C2.01 4 1.02 4 0 4 C0 4.99 0 5.98 0 7 C-0.99 7 -1.98 7 -3 7 C-3 5.68 -3 4.36 -3 3 C-2.01 3 -1.02 3 0 3 C0 2.01 0 1.02 0 0 Z " fill="#2B3544" transform="translate(17,18)"/>
<path d="M0 0 C2.31 0 4.62 0 7 0 C6.67 0.99 6.34 1.98 6 3 C6 2.34 6 1.68 6 1 C4.35 1 2.7 1 1 1 C1 2.98 1 4.96 1 7 C-0.32 7 -1.64 7 -3 7 C-3 6.01 -3 5.02 -3 4 C-2.01 4 -1.02 4 0 4 C0 2.68 0 1.36 0 0 Z " fill="#8D582B" transform="translate(20,18)"/>
<path d="M0 0 C2.97 0 5.94 0 9 0 C8.67 1.32 8.34 2.64 8 4 C7.67 3.67 7.34 3.34 7 3 C5.65252916 2.76924918 4.29622435 2.58846937 2.9375 2.4375 C1.638125 2.293125 0.33875 2.14875 -1 2 C-0.67 1.34 -0.34 0.68 0 0 Z " fill="#213240" transform="translate(34,22)"/>
<path d="M0 0 C1.65 0 3.3 0 5 0 C5 0.99 5 1.98 5 3 C4.01 3 3.02 3 2 3 C2 3.99 2 4.98 2 6 C1.34 6 0.68 6 0 6 C0 4.02 0 2.04 0 0 Z " fill="#E89139" transform="translate(15,28)"/>
<path d="M0 0 C0.99 0 1.98 0 3 0 C3 2.31 3 4.62 3 7 C0.69 7 -1.62 7 -4 7 C-3.01 6.67 -2.02 6.34 -1 6 C-1 5.34 -1 4.68 -1 4 C-0.01 4 0.98 4 2 4 C2 3.01 2 2.02 2 1 C1.34 0.67 0.68 0.34 0 0 Z " fill="#B1672D" transform="translate(27,21)"/>
<path d="M0 0 C0.99 0 1.98 0 3 0 C3.1875 3.375 3.1875 3.375 3 7 C2.01 7.66 1.02 8.32 0 9 C0 6.03 0 3.06 0 0 Z " fill="#3A4A56" transform="translate(5,30)"/>
<path d="M0 0 C1.32 0 2.64 0 4 0 C4 1.32 4 2.64 4 4 C2.02 4.33 0.04 4.66 -2 5 C-2 4.34 -2 3.68 -2 3 C-1.34 3 -0.68 3 0 3 C0 2.01 0 1.02 0 0 Z " fill="#413A3B" transform="translate(26,28)"/>
<path d="M0 0 C1.98 0.495 1.98 0.495 4 1 C3.625 2.9375 3.625 2.9375 3 5 C2.01 5.495 2.01 5.495 1 6 C0.34 5.67 -0.32 5.34 -1 5 C-0.67 3.35 -0.34 1.7 0 0 Z " fill="#31495B" transform="translate(26,2)"/>
<path d="M0 0 C0.33 1.32 0.66 2.64 1 4 C1.66 4 2.32 4 3 4 C3.33 3.34 3.66 2.68 4 2 C4 3.65 4 5.3 4 7 C2.68 7 1.36 7 0 7 C0 4.69 0 2.38 0 0 Z " fill="#203B4E" transform="translate(41,2)"/>
<path d="M0 0 C0.99 0 1.98 0 3 0 C3 1.32 3 2.64 3 4 C1.02 4 -0.96 4 -3 4 C-2.34 3.67 -1.68 3.34 -1 3 C-0.67 2.01 -0.34 1.02 0 0 Z " fill="#4C565C" transform="translate(11,24)"/>
</svg>
