<?xml version="1.0" encoding="UTF-8"?>
<svg version="1.1" xmlns="http://www.w3.org/2000/svg" width="50" height="50">
<path d="M0 0 C5.94 0 11.88 0 18 0 C18 1.98 18 3.96 18 6 C20.31 6 22.62 6 25 6 C25 18.21 25 30.42 25 43 C25.66 43 26.32 43 27 43 C27 45.31 27 47.62 27 50 C15.12 50 3.24 50 -9 50 C-9 48.02 -9 46.04 -9 44 C-8.01 44 -7.02 44 -6 44 C-6 31.46 -6 18.92 -6 6 C-4.02 6 -2.04 6 0 6 C0 4.02 0 2.04 0 0 Z " fill="#E5B677" transform="translate(16,0)"/>
<path d="M0 0 C5.94 0 11.88 0 18 0 C18 1.98 18 3.96 18 6 C20.31 6 22.62 6 25 6 C25 18.21 25 30.42 25 43 C25.66 43 26.32 43 27 43 C27 45.31 27 47.62 27 50 C15.12 50 3.24 50 -9 50 C-9 48.02 -9 46.04 -9 44 C-8.01 44 -7.02 44 -6 44 C-6 31.46 -6 18.92 -6 6 C-4.02 6 -2.04 6 0 6 C0 4.02 0 2.04 0 0 Z M-2 10 C-2 22.21 -2 34.42 -2 47 C0.64 47 3.28 47 6 47 C6 45.02 6 43.04 6 41 C7.98 41 9.96 41 12 41 C12 42.98 12 44.96 12 47 C14.97 47 17.94 47 21 47 C21 34.79 21 22.58 21 10 C13.41 10 5.82 10 -2 10 Z " fill="#1E2031" transform="translate(16,0)"/>
<path d="M0 0 C7.59 0 15.18 0 23 0 C23 12.21 23 24.42 23 37 C20.03 37 17.06 37 14 37 C14 35.02 14 33.04 14 31 C12.02 31 10.04 31 8 31 C8 32.98 8 34.96 8 37 C5.36 37 2.72 37 0 37 C0 24.79 0 12.58 0 0 Z M2 2 C2 4.31 2 6.62 2 9 C4.475 9.495 4.475 9.495 7 10 C7 10.66 7 11.32 7 12 C5.35 12 3.7 12 2 12 C2 14.31 2 16.62 2 19 C3.98 19 5.96 19 8 19 C8 19.66 8 20.32 8 21 C6.02 21 4.04 21 2 21 C2 23.31 2 25.62 2 28 C3.98 28 5.96 28 8 28 C8 28.66 8 29.32 8 30 C10.31 30 12.62 30 15 30 C15 29.34 15 28.68 15 28 C16.65 28 18.3 28 20 28 C20 25.69 20 23.38 20 21 C18.02 21 16.04 21 14 21 C14 20.34 14 19.68 14 19 C15.98 19 17.96 19 20 19 C20 16.69 20 14.38 20 12 C19.01 12 18.02 12 17 12 C17 11.34 17 10.68 17 10 C17.99 9.67 18.98 9.34 20 9 C20 6.69 20 4.38 20 2 C10.96621066 0.92468983 10.96621066 0.92468983 2 2 Z " fill="#CEA56D" transform="translate(14,10)"/>
<path d="M0 0 C5.94 0 11.88 0 18 0 C18 1.98 18 3.96 18 6 C19.65 6 21.3 6 23 6 C22.01 6.495 22.01 6.495 21 7 C21 7.99 21 8.98 21 10 C13.41 10 5.82 10 -2 10 C-2 22.21 -2 34.42 -2 47 C-2.33 47 -2.66 47 -3 47 C-3 34.46 -3 21.92 -3 9 C-1.35 8.34 0.3 7.68 2 7 C1.34 6.67 0.68 6.34 0 6 C0 4.02 0 2.04 0 0 Z " fill="#453D3F" transform="translate(16,0)"/>
<path d="M0 0 C0 12.21 0 24.42 0 37 C0.66 37 1.32 37 2 37 C2 39.31 2 41.62 2 44 C-2.95 43.34 -7.9 42.68 -13 42 C-13 41.67 -13 41.34 -13 41 C-10.03 41 -7.06 41 -4 41 C-4 27.8 -4 14.6 -4 1 C-2 0 -2 0 0 0 Z " fill="#2E2C36" transform="translate(41,6)"/>
<path d="M0 0 C7.59 0 15.18 0 23 0 C23 3.96 23 7.92 23 12 C22.34 12 21.68 12 21 12 C21.33 14.97 21.66 17.94 22 21 C19.13822943 22.43088528 17.06624227 21.59991697 14 21 C14 20.34 14 19.68 14 19 C15.98 19 17.96 19 20 19 C20 16.69 20 14.38 20 12 C19.01 12 18.02 12 17 12 C17 11.34 17 10.68 17 10 C16.34 9.67 15.68 9.34 15 9 C16.65 9 18.3 9 20 9 C20 6.69 20 4.38 20 2 C14.06 2 8.12 2 2 2 C2 4.31 2 6.62 2 9 C3.98 9 5.96 9 8 9 C7.67 9.99 7.34 10.98 7 12 C5.35 12 3.7 12 2 12 C2 14.31 2 16.62 2 19 C3.98 19 5.96 19 8 19 C8 19.66 8 20.32 8 21 C6.02 21 4.04 21 2 21 C2 23.31 2 25.62 2 28 C1.34 27.67 0.68 27.34 0 27 C0 18.09 0 9.18 0 0 Z " fill="#F2BF7C" transform="translate(14,10)"/>
<path d="M0 0 C2 3.875 2 3.875 2 5 C0.35 5.33 -1.3 5.66 -3 6 C-3.33 17.22 -3.66 28.44 -4 40 C-5.485 40.495 -5.485 40.495 -7 41 C-7 28.46 -7 15.92 -7 3 C-4.69 3 -2.38 3 0 3 C0 2.01 0 1.02 0 0 Z " fill="#1C1C29" transform="translate(17,3)"/>
<path d="M0 0 C2.64 0.33 5.28 0.66 8 1 C8 3.97 8 6.94 8 10 C5.36 10 2.72 10 0 10 C0 6.7 0 3.4 0 0 Z " fill="#ECBA79" transform="translate(14,37)"/>
<path d="M0 0 C0.33 0 0.66 0 1 0 C1.33 7.26 1.66 14.52 2 22 C4.97 22 7.94 22 11 22 C11 22.33 11 22.66 11 23 C8.94921875 23.22786458 6.8984375 23.45572917 4.84765625 23.68359375 C2.98859771 23.81886614 2.98859771 23.81886614 2 25 C0.00041636 25.04080783 -2.00045254 25.04254356 -4 25 C-4 23.02 -4 21.04 -4 19 C-2.68 19 -1.36 19 0 19 C0 12.73 0 6.46 0 0 Z " fill="#2A2835" transform="translate(11,25)"/>
<path d="M0 0 C0.33 0 0.66 0 1 0 C1 3.63 1 7.26 1 11 C0.34 11 -0.32 11 -1 11 C-0.67 13.97 -0.34 16.94 0 20 C-2.86177057 21.43088528 -4.93375773 20.59991697 -8 20 C-8 19.34 -8 18.68 -8 18 C-6.02 18 -4.04 18 -2 18 C-2 15.69 -2 13.38 -2 11 C-2.99 11 -3.98 11 -5 11 C-5 10.34 -5 9.68 -5 9 C-5.66 8.67 -6.32 8.34 -7 8 C-5.02 8 -3.04 8 -1 8 C-0.67 5.36 -0.34 2.72 0 0 Z " fill="#F0BF7D" transform="translate(36,11)"/>
<path d="M0 0 C7.59 0 15.18 0 23 0 C22.34 2.97 21.68 5.94 21 9 C20.67 9 20.34 9 20 9 C20 6.69 20 4.38 20 2 C14.06 2 8.12 2 2 2 C2 3.32 2 4.64 2 6 C1.34 6 0.68 6 0 6 C0 4.02 0 2.04 0 0 Z " fill="#FBD191" transform="translate(14,10)"/>
<path d="M0 0 C3.96 0 7.92 0 12 0 C12 1.32 12 2.64 12 4 C8.04 4 4.08 4 0 4 C0 2.68 0 1.36 0 0 Z " fill="#A78862" transform="translate(19,3)"/>
<path d="M0 0 C0.66 0 1.32 0 2 0 C2.24873139 6.86775004 2.13047437 12.73905127 -1 19 C-1.99 19 -2.98 19 -4 19 C-4 18.01 -4 17.02 -4 16 C-3.01 16 -2.02 16 -1 16 C-1.020625 15.0925 -1.04125 14.185 -1.0625 13.25 C-1.00982921 10.51111885 -0.65093254 8.60373016 0 6 C0.03845443 4.00036972 0.04544281 1.99948367 0 0 Z " fill="#DAAC70" transform="translate(35,22)"/>
<path d="M0 0 C1.98 0 3.96 0 6 0 C6 1.98 6 3.96 6 6 C4.02 6 2.04 6 0 6 C0 4.02 0 2.04 0 0 Z " fill="#314453" transform="translate(16,32)"/>
<path d="M0 0 C1.98 0 3.96 0 6 0 C6 1.98 6 3.96 6 6 C4.02 6 2.04 6 0 6 C0 4.02 0 2.04 0 0 Z " fill="#2D3D4D" transform="translate(28,32)"/>
<path d="M0 0 C1.98 0 3.96 0 6 0 C6 1.98 6 3.96 6 6 C4.02 6 2.04 6 0 6 C0 4.02 0 2.04 0 0 Z " fill="#324352" transform="translate(16,22)"/>
<path d="M0 0 C1.98 0 3.96 0 6 0 C6 1.98 6 3.96 6 6 C4.02 6 2.04 6 0 6 C0 4.02 0 2.04 0 0 Z " fill="#2E4152" transform="translate(28,22)"/>
<path d="M0 0 C1.98 0 3.96 0 6 0 C6 1.98 6 3.96 6 6 C4.02 6 2.04 6 0 6 C0 4.02 0 2.04 0 0 Z " fill="#344856" transform="translate(28,13)"/>
<path d="M0 0 C1.98 0 3.96 0 6 0 C6 1.98 6 3.96 6 6 C4.02 6 2.04 6 0 6 C0 4.02 0 2.04 0 0 Z " fill="#364D5B" transform="translate(16,13)"/>
<path d="M0 0 C0 0.33 0 0.66 0 1 C-2.64 1 -5.28 1 -8 1 C-8.33 1.99 -8.66 2.98 -9 4 C-9.66 4 -10.32 4 -11 4 C-11 3.01 -11 2.02 -11 1 C-13.31 1 -15.62 1 -18 1 C-18 0.67 -18 0.34 -18 0 C-11.96496237 -1.50875941 -6.10261631 -0.64186094 0 0 Z " fill="#E1BD87" transform="translate(34,12)"/>
<path d="M0 0 C2.31 0 4.62 0 7 0 C7 0.99 7 1.98 7 3 C4.69 3 2.38 3 0 3 C0 2.01 0 1.02 0 0 Z " fill="#D0A76F" transform="translate(14,44)"/>
</svg>
