<?xml version="1.0" encoding="UTF-8"?>
<svg version="1.1" xmlns="http://www.w3.org/2000/svg" width="50" height="50">
<path d="M0 0 C2.64 0 5.28 0 8 0 C8 1.98 8 3.96 8 6 C11.63 5.67 15.26 5.34 19 5 C19.33 3.35 19.66 1.7 20 0 C21.98 0 23.96 0 26 0 C26 1.32 26 2.64 26 4 C25.34 4 24.68 4 24 4 C24 5.65 24 7.3 24 9 C24.99 9 25.98 9 27 9 C27 9.99 27 10.98 27 12 C27.66 12 28.32 12 29 12 C29 12.99 29 13.98 29 15 C29.99 15 30.98 15 32 15 C32 18.63 32 22.26 32 26 C31.01 26 30.02 26 29 26 C29 26.66 29 27.32 29 28 C28.34 28 27.68 28 27 28 C27 29.32 27 30.64 27 32 C26.01 32 25.02 32 24 32 C24 32.66 24 33.32 24 34 C25.65 34 27.3 34 29 34 C29 34.99 29 35.98 29 37 C29.99 37 30.98 37 32 37 C32 41.29 32 45.58 32 50 C19.46 50 6.92 50 -6 50 C-6 45.71 -6 41.42 -6 37 C-4.68 37 -3.36 37 -2 37 C-2 36.01 -2 35.02 -2 34 C-0.35 34 1.3 34 3 34 C3 33.34 3 32.68 3 32 C2.01 32 1.02 32 0 32 C0 31.01 0 30.02 0 29 C-0.66 29 -1.32 29 -2 29 C-2 28.01 -2 27.02 -2 26 C-3.32 26 -4.64 26 -6 26 C-6 22.37 -6 18.74 -6 15 C-4.68 15 -3.36 15 -2 15 C-2 14.01 -2 13.02 -2 12 C-1.34 12 -0.68 12 0 12 C0 11.01 0 10.02 0 9 C0.99 9 1.98 9 3 9 C3 7.35 3 5.7 3 4 C2.01 4 1.02 4 0 4 C0 2.68 0 1.36 0 0 Z " fill="#2C4555" transform="translate(12,0)"/>
<path d="M0 0 C6.27 0 12.54 0 19 0 C19 0.66 19 1.32 19 2 C19.99 2 20.98 2 22 2 C22 7.28 22 12.56 22 18 C21.01 18 20.02 18 19 18 C19 18.99 19 19.98 19 21 C12.73 21 6.46 21 0 21 C0 20.01 0 19.02 0 18 C-0.99 18 -1.98 18 -3 18 C-3 12.72 -3 7.44 -3 2 C-2.01 2 -1.02 2 0 2 C0 1.34 0 0.68 0 0 Z " fill="#7DBAAC" transform="translate(16,10)"/>
<path d="M0 0 C2.64 0 5.28 0 8 0 C8 1.98 8 3.96 8 6 C11.63 5.67 15.26 5.34 19 5 C19.33 3.35 19.66 1.7 20 0 C21.98 0 23.96 0 26 0 C26 1.32 26 2.64 26 4 C25.34 4 24.68 4 24 4 C24 5.65 24 7.3 24 9 C24.99 9 25.98 9 27 9 C27 9.99 27 10.98 27 12 C27.66 12 28.32 12 29 12 C29 12.99 29 13.98 29 15 C29.99 15 30.98 15 32 15 C32 18.63 32 22.26 32 26 C31.01 26 30.02 26 29 26 C29 26.66 29 27.32 29 28 C28.34 28 27.68 28 27 28 C27 29.32 27 30.64 27 32 C24.00873681 33.72206188 21.89314287 34.24179923 18.453125 34.1953125 C17.18662109 34.18564453 17.18662109 34.18564453 15.89453125 34.17578125 C14.58548828 34.15064453 14.58548828 34.15064453 13.25 34.125 C12.36183594 34.11597656 11.47367188 34.10695312 10.55859375 34.09765625 C8.37211942 34.07414577 6.18619906 34.04128499 4 34 C4.33 33.01 4.66 32.02 5 31 C10.94 31 16.88 31 23 31 C23 30.01 23 29.02 23 28 C23.99 28 24.98 28 26 28 C26 22.72 26 17.44 26 12 C25.01 12 24.02 12 23 12 C23 11.34 23 10.68 23 10 C16.73 10 10.46 10 4 10 C4 10.66 4 11.32 4 12 C3.01 12 2.02 12 1 12 C1 17.28 1 22.56 1 28 C1.99 28 2.98 28 4 28 C3.67 29.32 3.34 30.64 3 32 C2.01 32 1.02 32 0 32 C0 31.01 0 30.02 0 29 C-0.66 29 -1.32 29 -2 29 C-2 28.01 -2 27.02 -2 26 C-3.32 26 -4.64 26 -6 26 C-6 22.37 -6 18.74 -6 15 C-4.68 15 -3.36 15 -2 15 C-2 14.01 -2 13.02 -2 12 C-1.34 12 -0.68 12 0 12 C0 11.01 0 10.02 0 9 C0.99 9 1.98 9 3 9 C3 7.35 3 5.7 3 4 C2.01 4 1.02 4 0 4 C0 2.68 0 1.36 0 0 Z " fill="#223B4D" transform="translate(12,0)"/>
<path d="M0 0 C6.27 0 12.54 0 19 0 C19 4.95 19 9.9 19 15 C12.73 15 6.46 15 0 15 C0 10.05 0 5.1 0 0 Z " fill="#57A8A1" transform="translate(16,35)"/>
<path d="M0 0 C6.27 0 12.54 0 19 0 C19 2.97 19 5.94 19 9 C12.73 9 6.46 9 0 9 C0 6.03 0 3.06 0 0 Z " fill="#273D51" transform="translate(16,16)"/>
<path d="M0 0 C2.64 0 5.28 0 8 0 C8 1.98 8 3.96 8 6 C13.445 5.505 13.445 5.505 19 5 C19.33 3.35 19.66 1.7 20 0 C21.98 0 23.96 0 26 0 C26 1.32 26 2.64 26 4 C24.68 4 23.36 4 22 4 C22 5.65 22 7.3 22 9 C15.73 9 9.46 9 3 9 C3 7.35 3 5.7 3 4 C2.01 4 1.02 4 0 4 C0 2.68 0 1.36 0 0 Z " fill="#334658" transform="translate(12,0)"/>
<path d="M0 0 C7.26 0 14.52 0 22 0 C22 1.98 22 3.96 22 6 C15.73 6 9.46 6 3 6 C3 5.01 3 4.02 3 3 C2.01 3 1.02 3 0 3 C0 2.01 0 1.02 0 0 Z " fill="#B1D1BB" transform="translate(13,25)"/>
<path d="M0 0 C5.94 0 11.88 0 18 0 C18 2.97 18 5.94 18 9 C17.34 9 16.68 9 16 9 C16 8.01 16 7.02 16 6 C11.05 6 6.1 6 1 6 C0.67 4.02 0.34 2.04 0 0 Z " fill="#62ADA5" transform="translate(17,35)"/>
<path d="M0 0 C2.64 0 5.28 0 8 0 C8 1.98 8 3.96 8 6 C9.65 5.67 11.3 5.34 13 5 C13 5.99 13 6.98 13 8 C7.39 8 1.78 8 -4 8 C-4 7.67 -4 7.34 -4 7 C-2.35 7 -0.7 7 1 7 C0.67 4.69 0.34 2.38 0 0 Z " fill="#1A2E44" transform="translate(21,16)"/>
<path d="M0 0 C0.99 0 1.98 0 3 0 C3 5.28 3 10.56 3 16 C2.01 16 1.02 16 0 16 C0 12.04 0 8.08 0 4 C-6.27 4 -12.54 4 -19 4 C-19 3.67 -19 3.34 -19 3 C-12.73 3 -6.46 3 0 3 C0 2.01 0 1.02 0 0 Z " fill="#6FA59C" transform="translate(35,12)"/>
<path d="M0 0 C0.99 0 1.98 0 3 0 C3 3.96 3 7.92 3 12 C0.36 12 -2.28 12 -5 12 C-5 9.03 -5 6.06 -5 3 C-4.34 3 -3.68 3 -3 3 C-3 4.98 -3 6.96 -3 9 C-2.01 9 -1.02 9 0 9 C0 6.03 0 3.06 0 0 Z " fill="#1A2D43" transform="translate(41,38)"/>
<path d="M0 0 C2.64 0 5.28 0 8 0 C7.67 2.31 7.34 4.62 7 7 C8.65 7 10.3 7 12 7 C12 7.66 12 8.32 12 9 C9.03 9 6.06 9 3 9 C3 7.35 3 5.7 3 4 C2.01 4 1.02 4 0 4 C0 2.68 0 1.36 0 0 Z " fill="#1D2835" transform="translate(12,0)"/>
<path d="M0 0 C6.27 0 12.54 0 19 0 C19 0.99 19 1.98 19 3 C12.73 3 6.46 3 0 3 C0 2.01 0 1.02 0 0 Z " fill="#68B3A9" transform="translate(16,28)"/>
<path d="M0 0 C5.28 0 10.56 0 16 0 C16 1.98 16 3.96 16 6 C15.34 6 14.68 6 14 6 C13.67 5.01 13.34 4.02 13 3 C8.71 2.67 4.42 2.34 0 2 C0 1.34 0 0.68 0 0 Z " fill="#8FC3B1" transform="translate(19,38)"/>
<path d="M0 0 C4.29 0 8.58 0 13 0 C13 0.99 13 1.98 13 3 C8.71 3 4.42 3 0 3 C0 2.01 0 1.02 0 0 Z " fill="#9CC7B4" transform="translate(19,44)"/>
<path d="M0 0 C4.29 0 8.58 0 13 0 C13 0.99 13 1.98 13 3 C8.71 3 4.42 3 0 3 C0 2.01 0 1.02 0 0 Z " fill="#1E5A6E" transform="translate(19,41)"/>
<path d="M0 0 C2.475 0.495 2.475 0.495 5 1 C5 2.98 5 4.96 5 7 C3.35 7 1.7 7 0 7 C0 4.69 0 2.38 0 0 Z " fill="#5A5450" transform="translate(17,16)"/>
<path d="M0 0 C1.4540625 0.0309375 1.4540625 0.0309375 2.9375 0.0625 C2.9375 1.3825 2.9375 2.7025 2.9375 4.0625 C1.6175 4.0625 0.2975 4.0625 -1.0625 4.0625 C-1.0625 5.0525 -1.0625 6.0425 -1.0625 7.0625 C-2.0525 6.7325 -3.0425 6.4025 -4.0625 6.0625 C-4.105221 4.39638095 -4.10313832 2.72867115 -4.0625 1.0625 C-3.0625 0.0625 -3.0625 0.0625 0 0 Z " fill="#1B2D3C" transform="translate(35.0625,-0.0625)"/>
<path d="M0 0 C1.32 0.33 2.64 0.66 4 1 C4 4.3 4 7.6 4 11 C3.01 10.67 2.02 10.34 1 10 C0.67 6.7 0.34 3.4 0 0 Z " fill="#225065" transform="translate(40,14)"/>
<path d="M0 0 C2.97 0.495 2.97 0.495 6 1 C6 2.98 6 4.96 6 7 C5.01 7 4.02 7 3 7 C3 6.01 3 5.02 3 4 C2.01 4 1.02 4 0 4 C0 2.68 0 1.36 0 0 Z " fill="#183D53" transform="translate(10,34)"/>
<path d="M0 0 C1.65 0 3.3 0 5 0 C5 1.65 5 3.3 5 5 C3.35 5.33 1.7 5.66 0 6 C0 4.02 0 2.04 0 0 Z " fill="#66665C" transform="translate(29,16)"/>
<path d="M0 0 C7.26 0 14.52 0 22 0 C22 0.33 22 0.66 22 1 C15.73 1 9.46 1 3 1 C3 1.66 3 2.32 3 3 C2.01 3 1.02 3 0 3 C0 2.01 0 1.02 0 0 Z " fill="#A1C3B3" transform="translate(13,25)"/>
<path d="M0 0 C0.99 0 1.98 0 3 0 C3 2.97 3 5.94 3 9 C2.01 9 1.02 9 0 9 C0 6.03 0 3.06 0 0 Z " fill="#82BBAD" transform="translate(38,38)"/>
<path d="M0 0 C0.99 0 1.98 0 3 0 C3 2.97 3 5.94 3 9 C2.01 9 1.02 9 0 9 C0 6.03 0 3.06 0 0 Z " fill="#84BDAD" transform="translate(10,38)"/>
<path d="M0 0 C0.99 0 1.98 0 3 0 C3 3.3 3 6.6 3 10 C2.67 9.34 2.34 8.68 2 8 C1.34 8 0.68 8 0 8 C0 5.36 0 2.72 0 0 Z " fill="#22546A" transform="translate(7,16)"/>
<path d="M0 0 C0.66 0 1.32 0 2 0 C2 0.99 2 1.98 2 3 C2.99 3 3.98 3 5 3 C4.67 4.32 4.34 5.64 4 7 C3.01 7 2.02 7 1 7 C1 6.01 1 5.02 1 4 C0.34 4 -0.32 4 -1 4 C-0.67 2.68 -0.34 1.36 0 0 Z " fill="#283948" transform="translate(11,25)"/>
<path d="M0 0 C0.66 0.33 1.32 0.66 2 1 C1.67 2.98 1.34 4.96 1 7 C2.65 7 4.3 7 6 7 C6 7.66 6 8.32 6 9 C3.69 9 1.38 9 -1 9 C-0.67 6.03 -0.34 3.06 0 0 Z " fill="#1C3045" transform="translate(18,0)"/>
<path d="M0 0 C2.31 0 4.62 0 7 0 C7 0.99 7 1.98 7 3 C5.02 3 3.04 3 1 3 C0.67 2.01 0.34 1.02 0 0 Z " fill="#78B8AB" transform="translate(28,28)"/>
</svg>
