<?xml version="1.0" encoding="UTF-8"?>
<svg version="1.1" xmlns="http://www.w3.org/2000/svg" width="50" height="50">
<path d="M0 0 C3.03908367 0.54763686 4.68011156 2.34250268 6.97265625 4.35546875 C9.15269314 5.33973914 11.34959384 6.20815058 13.59375 7.03515625 C17.23218938 9.05451998 19.96892793 10.6769525 21.97265625 14.35546875 C22.70653072 18.86454696 22.7526717 23.28235212 22.64501953 27.83300781 C22.5976085 29.98263387 22.60393395 32.12732378 22.6171875 34.27734375 C22.53323409 44.61145135 22.53323409 44.61145135 20.18505859 47.72802734 C16.89539226 50.14790329 13.89302173 50.47719883 9.87841797 50.51660156 C9.0843454 50.52620911 8.29027283 50.53581665 7.47213745 50.54571533 C6.62410553 50.54996521 5.77607361 50.55421509 4.90234375 50.55859375 C3.58618576 50.56714386 3.58618576 50.56714386 2.24343872 50.5758667 C0.39261068 50.58529615 -1.458234 50.5918425 -3.30908203 50.59570312 C-6.14905552 50.60545746 -8.98831976 50.6365191 -11.828125 50.66796875 C-13.62629779 50.67449439 -15.42447574 50.67974658 -17.22265625 50.68359375 C-18.07473663 50.69594055 -18.92681702 50.70828735 -19.80471802 50.7210083 C-22.19189453 50.71191406 -22.19189453 50.71191406 -26.02734375 50.35546875 C-28.45604284 46.71242011 -28.2841005 44.04824536 -28.22265625 39.84375 C-28.21982635 39.11552536 -28.21699646 38.38730072 -28.21408081 37.63700867 C-28.20289632 35.31382738 -28.17779541 32.99103328 -28.15234375 30.66796875 C-28.14231169 29.09180245 -28.13318623 27.5156301 -28.125 25.93945312 C-28.10296271 22.07797608 -28.06844516 18.21678804 -28.02734375 14.35546875 C-27.36734375 14.35546875 -26.70734375 14.35546875 -26.02734375 14.35546875 C-25.68703125 13.42734375 -25.68703125 13.42734375 -25.33984375 12.48046875 C-23.6148244 9.68758028 -22.08762609 9.4230091 -19.02734375 8.35546875 C-18.20234375 7.86046875 -17.37734375 7.36546875 -16.52734375 6.85546875 C-14.02734375 5.35546875 -14.02734375 5.35546875 -11.40234375 4.35546875 C-8.97634917 3.55448823 -8.97634917 3.55448823 -7.71484375 1.73046875 C-5.30887371 -0.22995129 -3.01397916 -0.11487035 0 0 Z " fill="#A73A0E" transform="translate(28.02734375,-0.35546875)"/>
<path d="M0 0 C0 6.27 0 12.54 0 19 C-0.66 19 -1.32 19 -2 19 C-2 19.99 -2 20.98 -2 22 C-3.65 22 -5.3 22 -7 22 C-7 22.99 -7 23.98 -7 25 C-18.55 25 -30.1 25 -42 25 C-42 23.68 -42 22.36 -42 21 C-42.66 21 -43.32 21 -44 21 C-44 16.05 -44 11.1 -44 6 C-43.67 6 -43.34 6 -43 6 C-43 8.64 -43 11.28 -43 14 C-31.12 14 -19.24 14 -7 14 C-7 13.01 -7 12.02 -7 11 C-5.35 11 -3.7 11 -2 11 C-2 9.02 -2 7.04 -2 5 C-2.66 5 -3.32 5 -4 5 C-3.625 3.0625 -3.625 3.0625 -3 1 C-1 0 -1 0 0 0 Z " fill="#822D20" transform="translate(47,24)"/>
<path d="M0 0 C3.03908367 0.54763686 4.68011156 2.34250268 6.97265625 4.35546875 C9.15269314 5.33973914 11.34959384 6.20815058 13.59375 7.03515625 C17.23218938 9.05451998 19.96892793 10.6769525 21.97265625 14.35546875 C22.70653072 18.86454696 22.7526717 23.28235212 22.64501953 27.83300781 C22.5976085 29.98263387 22.60393395 32.12732378 22.6171875 34.27734375 C22.53323409 44.61145135 22.53323409 44.61145135 20.18505859 47.72802734 C16.89539226 50.14790329 13.89302173 50.47719883 9.87841797 50.51660156 C9.0843454 50.52620911 8.29027283 50.53581665 7.47213745 50.54571533 C6.62410553 50.54996521 5.77607361 50.55421509 4.90234375 50.55859375 C3.58618576 50.56714386 3.58618576 50.56714386 2.24343872 50.5758667 C0.39261068 50.58529615 -1.458234 50.5918425 -3.30908203 50.59570312 C-6.14905552 50.60545746 -8.98831976 50.6365191 -11.828125 50.66796875 C-13.62629779 50.67449439 -15.42447574 50.67974658 -17.22265625 50.68359375 C-18.07473663 50.69594055 -18.92681702 50.70828735 -19.80471802 50.7210083 C-22.19189453 50.71191406 -22.19189453 50.71191406 -26.02734375 50.35546875 C-28.45604284 46.71242011 -28.2841005 44.04824536 -28.22265625 39.84375 C-28.21982635 39.11552536 -28.21699646 38.38730072 -28.21408081 37.63700867 C-28.20289632 35.31382738 -28.17779541 32.99103328 -28.15234375 30.66796875 C-28.14231169 29.09180245 -28.13318623 27.5156301 -28.125 25.93945312 C-28.10296271 22.07797608 -28.06844516 18.21678804 -28.02734375 14.35546875 C-27.36734375 14.35546875 -26.70734375 14.35546875 -26.02734375 14.35546875 C-25.68703125 13.42734375 -25.68703125 13.42734375 -25.33984375 12.48046875 C-23.6148244 9.68758028 -22.08762609 9.4230091 -19.02734375 8.35546875 C-18.20234375 7.86046875 -17.37734375 7.36546875 -16.52734375 6.85546875 C-14.02734375 5.35546875 -14.02734375 5.35546875 -11.40234375 4.35546875 C-8.97634917 3.55448823 -8.97634917 3.55448823 -7.71484375 1.73046875 C-5.30887371 -0.22995129 -3.01397916 -0.11487035 0 0 Z M-5.02734375 2.35546875 C-5.02734375 3.34546875 -5.02734375 4.33546875 -5.02734375 5.35546875 C-5.68734375 5.35546875 -6.34734375 5.35546875 -7.02734375 5.35546875 C-7.02734375 6.34546875 -7.02734375 7.33546875 -7.02734375 8.35546875 C-9.00734375 8.35546875 -10.98734375 8.35546875 -13.02734375 8.35546875 C-13.02734375 9.01546875 -13.02734375 9.67546875 -13.02734375 10.35546875 C-14.67734375 10.35546875 -16.32734375 10.35546875 -18.02734375 10.35546875 C-18.02734375 11.34546875 -18.02734375 12.33546875 -18.02734375 13.35546875 C-19.67734375 13.35546875 -21.32734375 13.35546875 -23.02734375 13.35546875 C-23.02734375 14.34546875 -23.02734375 15.33546875 -23.02734375 16.35546875 C-24.01734375 16.35546875 -25.00734375 16.35546875 -26.02734375 16.35546875 C-26.02734375 26.25546875 -26.02734375 36.15546875 -26.02734375 46.35546875 C-25.03734375 46.35546875 -24.04734375 46.35546875 -23.02734375 46.35546875 C-23.02734375 47.34546875 -23.02734375 48.33546875 -23.02734375 49.35546875 C-11.47734375 49.35546875 0.07265625 49.35546875 11.97265625 49.35546875 C11.97265625 48.36546875 11.97265625 47.37546875 11.97265625 46.35546875 C13.62265625 46.35546875 15.27265625 46.35546875 16.97265625 46.35546875 C16.97265625 45.36546875 16.97265625 44.37546875 16.97265625 43.35546875 C17.96265625 43.35546875 18.95265625 43.35546875 19.97265625 43.35546875 C19.97265625 34.44546875 19.97265625 25.53546875 19.97265625 16.35546875 C18.98265625 16.35546875 17.99265625 16.35546875 16.97265625 16.35546875 C16.97265625 15.36546875 16.97265625 14.37546875 16.97265625 13.35546875 C16.31265625 13.35546875 15.65265625 13.35546875 14.97265625 13.35546875 C14.97265625 12.36546875 14.97265625 11.37546875 14.97265625 10.35546875 C13.32265625 10.35546875 11.67265625 10.35546875 9.97265625 10.35546875 C9.97265625 9.69546875 9.97265625 9.03546875 9.97265625 8.35546875 C7.99265625 8.35546875 6.01265625 8.35546875 3.97265625 8.35546875 C3.97265625 7.36546875 3.97265625 6.37546875 3.97265625 5.35546875 C2.98265625 5.35546875 1.99265625 5.35546875 0.97265625 5.35546875 C0.97265625 4.36546875 0.97265625 3.37546875 0.97265625 2.35546875 C-1.00734375 2.35546875 -2.98734375 2.35546875 -5.02734375 2.35546875 Z " fill="#FCF6F4" transform="translate(28.02734375,-0.35546875)"/>
<path d="M0 0 C0.33 0.66 0.66 1.32 1 2 C2.65 2 4.3 2 6 2 C6 2.99 6 3.98 6 5 C6.66 5 7.32 5 8 5 C8 5.99 8 6.98 8 8 C9.98 8 11.96 8 14 8 C14 7.01 14 6.02 14 5 C14.99 5 15.98 5 17 5 C17 4.34 17 3.68 17 3 C18.65 3 20.3 3 22 3 C22 3.66 22 4.32 22 5 C23.65 5 25.3 5 27 5 C27.495 7.97 27.495 7.97 28 11 C25.36 11 22.72 11 20 11 C19.67 11.99 19.34 12.98 19 14 C10.09 14 1.18 14 -8 14 C-8 15.65 -8 17.3 -8 19 C-8.66 19 -9.32 19 -10 19 C-10 14.38 -10 9.76 -10 5 C-8.35 5 -6.7 5 -5 5 C-5 4.01 -5 3.02 -5 2 C-3.35 2 -1.7 2 0 2 C0 1.34 0 0.68 0 0 Z " fill="#F88E73" transform="translate(15,8)"/>
<path d="M0 0 C1.98 0 3.96 0 6 0 C6 0.99 6 1.98 6 3 C6.99 3 7.98 3 9 3 C9 3.99 9 4.98 9 6 C10.98 6 12.96 6 15 6 C15 6.66 15 7.32 15 8 C16.65 8 18.3 8 20 8 C20 8.99 20 9.98 20 11 C20.66 11 21.32 11 22 11 C22 14.63 22 18.26 22 22 C21.34 22 20.68 22 20 22 C20 21.01 20 20.02 20 19 C18.02 19 16.04 19 14 19 C14 19.99 14 20.98 14 22 C12.35 22 10.7 22 9 22 C9 22.99 9 23.98 9 25 C7.02 25 5.04 25 3 25 C3 24.01 3 23.02 3 22 C-3.27 22 -9.54 22 -16 22 C-16 21.34 -16 20.68 -16 20 C-7.09 19.67 1.82 19.34 11 19 C11.33 18.34 11.66 17.68 12 17 C14.64 17 17.28 17 20 17 C19.505 14.03 19.505 14.03 19 11 C17.35 11 15.7 11 14 11 C14 10.34 14 9.68 14 9 C12.35 9 10.7 9 9 9 C9 9.66 9 10.32 9 11 C8.01 11 7.02 11 6 11 C6 11.99 6 12.98 6 14 C4.02 14 2.04 14 0 14 C0 13.01 0 12.02 0 11 C-0.66 11 -1.32 11 -2 11 C-2 10.01 -2 9.02 -2 8 C-3.65 8 -5.3 8 -7 8 C-7 7.34 -7 6.68 -7 6 C-5.35 6 -3.7 6 -2 6 C-2 5.01 -2 4.02 -2 3 C-1.34 3 -0.68 3 0 3 C0 2.01 0 1.02 0 0 Z " fill="#F46146" transform="translate(23,2)"/>
<path d="M0 0 C1.65 0 3.3 0 5 0 C5 1.98 5 3.96 5 6 C3.35 6 1.7 6 0 6 C0 6.99 0 7.98 0 9 C-11.55 9 -23.1 9 -35 9 C-35 7.02 -35 5.04 -35 3 C-23.45 3 -11.9 3 0 3 C0 2.01 0 1.02 0 0 Z " fill="#F05F45" transform="translate(40,29)"/>
<path d="M0 0 C0.33 0 0.66 0 1 0 C1 4.29 1 8.58 1 13 C-0.98 12.67 -2.96 12.34 -5 12 C-5 12.66 -5 13.32 -5 14 C-15.89 14 -26.78 14 -38 14 C-38 12.35 -38 10.7 -38 9 C-27.11 9 -16.22 9 -5 9 C-5 8.01 -5 7.02 -5 6 C-3.35 6 -1.7 6 0 6 C0 4.02 0 2.04 0 0 Z " fill="#97330D" transform="translate(45,29)"/>
<path d="M0 0 C1.65 0 3.3 0 5 0 C5 0.66 5 1.32 5 2 C6.65 2 8.3 2 10 2 C10.495 4.97 10.495 4.97 11 8 C8.36 8 5.72 8 3 8 C3 8.66 3 9.32 3 10 C-5.25 10 -13.5 10 -22 10 C-22 9.01 -22 8.02 -22 7 C-17.38 7 -12.76 7 -8 7 C-8 6.34 -8 5.68 -8 5 C-6.35 5 -4.7 5 -3 5 C-3 4.01 -3 3.02 -3 2 C-2.01 2 -1.02 2 0 2 C0 1.34 0 0.68 0 0 Z " fill="#FE9C81" transform="translate(32,11)"/>
<path d="M0 0 C0 0.99 0 1.98 0 3 C-1.65 3 -3.3 3 -5 3 C-5 3.99 -5 4.98 -5 6 C-5.99 6 -6.98 6 -8 6 C-8 15.9 -8 25.8 -8 36 C-7.01 36 -6.02 36 -5 36 C-5 36.99 -5 37.98 -5 39 C6.55 39 18.1 39 30 39 C30 39.33 30 39.66 30 40 C24.62486811 40.0740324 19.25003146 40.12854569 13.87451172 40.16479492 C12.04503207 40.17990251 10.21558875 40.20038968 8.38623047 40.22631836 C5.76000008 40.26261585 3.13424751 40.27970615 0.5078125 40.29296875 C-0.31306854 40.30845261 -1.13394958 40.32393646 -1.97970581 40.33988953 C-4.28466797 40.34057617 -4.28466797 40.34057617 -8 40 C-10.42869909 36.35695136 -10.25675675 33.69277661 -10.1953125 29.48828125 C-10.1924826 28.76005661 -10.18965271 28.03183197 -10.18673706 27.28153992 C-10.17555257 24.95835863 -10.15045166 22.63556453 -10.125 20.3125 C-10.11496794 18.7363337 -10.10584248 17.16016135 -10.09765625 15.58398438 C-10.07561896 11.72250733 -10.04110141 7.86131929 -10 4 C-9.34 4 -8.68 4 -8 4 C-7.7525 3.360625 -7.505 2.72125 -7.25 2.0625 C-6 0 -6 0 -4 -0.8125 C-2 -1 -2 -1 0 0 Z " fill="#FCFBFA" transform="translate(10,10)"/>
<path d="M0 0 C1.98 0 3.96 0 6 0 C6 0.99 6 1.98 6 3 C6.99 3 7.98 3 9 3 C9 3.99 9 4.98 9 6 C10.65 6 12.3 6 14 6 C14 6.66 14 7.32 14 8 C12.35 8 10.7 8 9 8 C9 8.99 9 9.98 9 11 C8.01 11 7.02 11 6 11 C6 11.99 6 12.98 6 14 C4.02 14 2.04 14 0 14 C0 13.01 0 12.02 0 11 C-0.66 11 -1.32 11 -2 11 C-2 10.01 -2 9.02 -2 8 C-3.65 8 -5.3 8 -7 8 C-7 7.34 -7 6.68 -7 6 C-5.35 6 -3.7 6 -2 6 C-2 5.01 -2 4.02 -2 3 C-1.34 3 -0.68 3 0 3 C0 2.01 0 1.02 0 0 Z " fill="#CA1316" transform="translate(23,2)"/>
<path d="M0 0 C9.9 0 19.8 0 30 0 C30 0.99 30 1.98 30 3 C20.1 3 10.2 3 0 3 C0 2.01 0 1.02 0 0 Z " fill="#FF9881" transform="translate(7,32)"/>
<path d="M0 0 C1.65 0 3.3 0 5 0 C5 0.66 5 1.32 5 2 C6.65 2 8.3 2 10 2 C10 2.99 10 3.98 10 5 C2.08 5 -5.84 5 -14 5 C-14 4.01 -14 3.02 -14 2 C-9.38 2 -4.76 2 0 2 C0 1.34 0 0.68 0 0 Z " fill="#FFB79B" transform="translate(24,16)"/>
<path d="M0 0 C0.99 0 1.98 0 3 0 C3 3.63 3 7.26 3 11 C3.66 11 4.32 11 5 11 C5 12.32 5 13.64 5 15 C4.34 15 3.68 15 3 15 C3 17.31 3 19.62 3 22 C2.67 22 2.34 22 2 22 C1.67 24.31 1.34 26.62 1 29 C1.66 29.33 2.32 29.66 3 30 C2.01 30 1.02 30 0 30 C0 20.1 0 10.2 0 0 Z " fill="#993825" transform="translate(2,16)"/>
<path d="M0 0 C0.99 0 1.98 0 3 0 C3 8.91 3 17.82 3 27 C2.67 27 2.34 27 2 27 C1.67 21.06 1.34 15.12 1 9 C0.01 10.485 0.01 10.485 -1 12 C-1.99 12.495 -1.99 12.495 -3 13 C-3 11.35 -3 9.7 -3 8 C-4.65 8 -6.3 8 -8 8 C-8 7.01 -8 6.02 -8 5 C-6.02 5 -4.04 5 -2 5 C-2 5.99 -2 6.98 -2 8 C-1.34 8 -0.68 8 0 8 C0 5.36 0 2.72 0 0 Z " fill="#973724" transform="translate(45,16)"/>
<path d="M0 0 C0.33 0.66 0.66 1.32 1 2 C2.65 2 4.3 2 6 2 C6 2.99 6 3.98 6 5 C6.66 5 7.32 5 8 5 C8 8.63 8 12.26 8 16 C7.34 16 6.68 16 6 16 C6 15.01 6 14.02 6 13 C4.02 13 2.04 13 0 13 C0 13.66 0 14.32 0 15 C-0.99 14.67 -1.98 14.34 -3 14 C-2.67 13.01 -2.34 12.02 -2 11 C0.64 11 3.28 11 6 11 C5.67 9.02 5.34 7.04 5 5 C3.35 5 1.7 5 0 5 C0 4.34 0 3.68 0 3 C-1.65 3 -3.3 3 -5 3 C-5 2.67 -5 2.34 -5 2 C-3.35 2 -1.7 2 0 2 C0 1.34 0 0.68 0 0 Z " fill="#EF6246" transform="translate(37,8)"/>
<path d="M0 0 C0.33 0 0.66 0 1 0 C1.24233721 4.05571903 1.4571958 8.11188281 1.64697266 12.17041016 C1.71532217 13.55003376 1.79109709 14.92931072 1.87451172 16.30810547 C1.9932826 18.292867 2.08293521 20.27930313 2.171875 22.265625 C2.2347168 23.45961914 2.29755859 24.65361328 2.36230469 25.88378906 C2 29 2 29 0.19238281 31.37402344 C-2.51507056 33.3820011 -4.67869244 33.69806295 -8 34 C-8 32.68 -8 31.36 -8 30 C-6.35 30 -4.7 30 -3 30 C-3 29.01 -3 28.02 -3 27 C-2.01 27 -1.02 27 0 27 C0 18.09 0 9.18 0 0 Z " fill="#EDD7CD" transform="translate(48,16)"/>
<path d="M0 0 C5.94 0 11.88 0 18 0 C18 0.99 18 1.98 18 3 C12.06 3 6.12 3 0 3 C0 2.01 0 1.02 0 0 Z " fill="#832612" transform="translate(8,24)"/>
<path d="M0 0 C1.98 0 3.96 0 6 0 C6 0.99 6 1.98 6 3 C6.99 3 7.98 3 9 3 C8 6 8 6 6 8 C3.375 8.125 3.375 8.125 1 8 C-0.35439668 5.29120665 -0.06501451 2.99066732 0 0 Z " fill="#DD1E1E" transform="translate(23,2)"/>
<path d="M0 0 C5.75 -0.125 5.75 -0.125 8 1 C9.73868744 1.15266612 11.48247501 1.24932596 13.2265625 1.31640625 C14.2578125 1.35830078 15.2890625 1.40019531 16.3515625 1.44335938 C17.43179687 1.48267578 18.51203125 1.52199219 19.625 1.5625 C21.25695313 1.62727539 21.25695313 1.62727539 22.921875 1.69335938 C25.6144517 1.7996453 28.30712253 1.90168057 31 2 C31 2.33 31 2.66 31 3 C20.77 3 10.54 3 0 3 C0 2.01 0 1.02 0 0 Z " fill="#B2420E" transform="translate(8,39)"/>
<path d="M0 0 C0.33 0 0.66 0 1 0 C1 4.29 1 8.58 1 13 C-1.97 12.505 -1.97 12.505 -5 12 C-5 10.02 -5 8.04 -5 6 C-3.35 6 -1.7 6 0 6 C0 4.02 0 2.04 0 0 Z " fill="#973111" transform="translate(45,29)"/>
<path d="M0 0 C1.65 0 3.3 0 5 0 C5 1.98 5 3.96 5 6 C2.36 6 -0.28 6 -3 6 C-3 5.01 -3 4.02 -3 3 C-2.01 3 -1.02 3 0 3 C0 2.01 0 1.02 0 0 Z " fill="#F67251" transform="translate(40,29)"/>
<path d="M0 0 C1.65 0 3.3 0 5 0 C5 0.99 5 1.98 5 3 C3.68 3 2.36 3 1 3 C1 3.66 1 4.32 1 5 C-0.98 5 -2.96 5 -5 5 C-5 4.01 -5 3.02 -5 2 C-3.35 2 -1.7 2 0 2 C0 1.34 0 0.68 0 0 Z " fill="#AE4A36" transform="translate(10,11)"/>
<path d="M0 0 C0.99 0.495 0.99 0.495 2 1 C1.01 1.495 1.01 1.495 0 2 C0 1.34 0 0.68 0 0 Z M-6 2 C-4.02 2 -2.04 2 0 2 C-0.33 3.65 -0.66 5.3 -1 7 C-2.65 7 -4.3 7 -6 7 C-6 5.35 -6 3.7 -6 2 Z " fill="#FF9F83" transform="translate(11,14)"/>
<path d="M0 0 C0.33 0.66 0.66 1.32 1 2 C2.98 2 4.96 2 7 2 C7 2.66 7 3.32 7 4 C5.35 4 3.7 4 2 4 C2 4.99 2 5.98 2 7 C1.01 7 0.02 7 -1 7 C-0.67 4.69 -0.34 2.38 0 0 Z " fill="#A91512" transform="translate(30,6)"/>
<path d="M0 0 C0.66 0 1.32 0 2 0 C2 2.64 2 5.28 2 8 C1.34 8 0.68 8 0 8 C0 7.01 0 6.02 0 5 C-1.65 5 -3.3 5 -5 5 C-5 4.34 -5 3.68 -5 3 C-3.35 3 -1.7 3 0 3 C0 2.01 0 1.02 0 0 Z " fill="#9F100F" transform="translate(21,5)"/>
<path d="M0 0 C0.33 0.66 0.66 1.32 1 2 C2.65 2 4.3 2 6 2 C6 2.99 6 3.98 6 5 C4.02 5 2.04 5 0 5 C0 4.34 0 3.68 0 3 C-1.65 3 -3.3 3 -5 3 C-5 2.67 -5 2.34 -5 2 C-3.35 2 -1.7 2 0 2 C0 1.34 0 0.68 0 0 Z " fill="#B76754" transform="translate(37,8)"/>
<path d="M0 0 C0.33 0.66 0.66 1.32 1 2 C1.99 2.33 2.98 2.66 4 3 C3.34 3 2.68 3 2 3 C2 3.66 2 4.32 2 5 C0.35 5 -1.3 5 -3 5 C-3 3.68 -3 2.36 -3 1 C-2.01 0.67 -1.02 0.34 0 0 Z " fill="#7A2114" transform="translate(43,40)"/>
<path d="M0 0 C1.98 0 3.96 0 6 0 C6 0.99 6 1.98 6 3 C4.02 3 2.04 3 0 3 C0 2.01 0 1.02 0 0 Z " fill="#83270E" transform="translate(26,27)"/>
<path d="M0 0 C0.66 0 1.32 0 2 0 C2 1.32 2 2.64 2 4 C1.34 4 0.68 4 0 4 C0 6.31 0 8.62 0 11 C-0.33 11 -0.66 11 -1 11 C-1.33 8.03 -1.66 5.06 -2 2 C-1.34 2 -0.68 2 0 2 C0 1.34 0 0.68 0 0 Z " fill="#8C2A18" transform="translate(5,27)"/>
<path d="M0 0 C-0.33 0.99 -0.66 1.98 -1 3 C-2.65 3 -4.3 3 -6 3 C-6 2.01 -6 1.02 -6 0 C-2.25 -1.125 -2.25 -1.125 0 0 Z " fill="#FF7C5C" transform="translate(43,32)"/>
<path d="M0 0 C1.98 0 3.96 0 6 0 C6 0.33 6 0.66 6 1 C4.35 1 2.7 1 1 1 C1 1.66 1 2.32 1 3 C1.66 3 2.32 3 3 3 C3 3.99 3 4.98 3 6 C2.01 6 1.02 6 0 6 C0 4.02 0 2.04 0 0 Z " fill="#DD6359" transform="translate(23,2)"/>
</svg>
