<?xml version="1.0" encoding="UTF-8"?>
<svg version="1.1" xmlns="http://www.w3.org/2000/svg" width="50" height="50">
<path d="M0 0 C1.48831242 0.00667405 2.97660807 0.01863442 4.46484375 0.03515625 C5.22345703 0.03966797 5.98207031 0.04417969 6.76367188 0.04882812 C8.64326246 0.06064945 10.52281274 0.07858547 12.40234375 0.09765625 C12.89734375 1.58265625 12.89734375 1.58265625 13.40234375 3.09765625 C14.51609375 3.25234375 14.51609375 3.25234375 15.65234375 3.41015625 C18.70011433 4.17209889 20.13860313 4.93682642 22.40234375 7.09765625 C23.24303427 10.83670908 23.00475885 14.65019845 22.96484375 18.47265625 C23.00061523 20.035 23.00061523 20.035 23.03710938 21.62890625 C23.02779951 26.4824495 23.00356096 29.23591158 20.17578125 33.2890625 C17.26487023 35.18730448 15.88478977 35.66555901 12.46484375 35.66015625 C7.69087464 35.90097962 5.24287419 37.15027242 1.40234375 40.09765625 C-5.15148688 43.37457156 -12.50831777 43.05892249 -19.59765625 42.09765625 C-22.73186873 40.81449319 -24.23170605 39.67299408 -26.359375 37.0546875 C-28.95997207 30.84442889 -29.36486714 22.62485695 -27.59765625 16.09765625 C-25.171875 13.046875 -25.171875 13.046875 -22.59765625 11.09765625 C-21.93765625 11.09765625 -21.27765625 11.09765625 -20.59765625 11.09765625 C-20.26765625 10.10765625 -19.93765625 9.11765625 -19.59765625 8.09765625 C-17.36328125 7.0703125 -17.36328125 7.0703125 -14.59765625 6.09765625 C-12.83857451 5.26235264 -11.08835908 4.40811351 -9.34765625 3.53515625 C-8.47625 3.10074219 -7.60484375 2.66632812 -6.70703125 2.21875 C-2.66867731 0.07243967 -2.66867731 0.07243967 0 0 Z " fill="#C92A0E" transform="translate(27.59765625,4.90234375)"/>
<path d="M0 0 C0.66 0 1.32 0 2 0 C2 4.95 2 9.9 2 15 C1.34 15 0.68 15 0 15 C0 15.99 0 16.98 0 18 C-0.99 18 -1.98 18 -3 18 C-3 18.99 -3 19.98 -3 21 C-6.63 21 -10.26 21 -14 21 C-14 21.99 -14 22.98 -14 24 C-15.65 24 -17.3 24 -19 24 C-19 24.66 -19 25.32 -19 26 C-20.65 26 -22.3 26 -24 26 C-24 26.99 -24 27.98 -24 29 C-28.62 29 -33.24 29 -38 29 C-38 28.01 -38 27.02 -38 26 C-38.66 26 -39.32 26 -40 26 C-40 25.01 -40 24.02 -40 23 C-40.99 23 -41.98 23 -43 23 C-43 22.34 -43 21.68 -43 21 C-43.99 21 -44.98 21 -46 21 C-46 16.71 -46 12.42 -46 8 C-45.01 8 -44.02 8 -43 8 C-43 9.65 -43 11.3 -43 13 C-42.34 13 -41.68 13 -41 13 C-39.375 14.375 -39.375 14.375 -38 16 C-38 16.66 -38 17.32 -38 18 C-32.72 18 -27.44 18 -22 18 C-22 17.34 -22 16.68 -22 16 C-20.02 16 -18.04 16 -16 16 C-16 15.01 -16 14.02 -16 13 C-12.7 13 -9.4 13 -6 13 C-6 12.01 -6 11.02 -6 10 C-5.01 10 -4.02 10 -3 10 C-3 9.34 -3 8.68 -3 8 C-2.01 8 -1.02 8 0 8 C0 5.36 0 2.72 0 0 Z " fill="#9E2A15" transform="translate(47,16)"/>
<path d="M0 0 C1.48831242 0.00667405 2.97660807 0.01863442 4.46484375 0.03515625 C5.22345703 0.03966797 5.98207031 0.04417969 6.76367188 0.04882812 C8.64326246 0.06064945 10.52281274 0.07858547 12.40234375 0.09765625 C12.89734375 1.58265625 12.89734375 1.58265625 13.40234375 3.09765625 C14.51609375 3.25234375 14.51609375 3.25234375 15.65234375 3.41015625 C18.70011433 4.17209889 20.13860313 4.93682642 22.40234375 7.09765625 C23.24303427 10.83670908 23.00475885 14.65019845 22.96484375 18.47265625 C23.00061523 20.035 23.00061523 20.035 23.03710938 21.62890625 C23.02779951 26.4824495 23.00356096 29.23591158 20.17578125 33.2890625 C17.26487023 35.18730448 15.88478977 35.66555901 12.46484375 35.66015625 C7.69087464 35.90097962 5.24287419 37.15027242 1.40234375 40.09765625 C-5.15148688 43.37457156 -12.50831777 43.05892249 -19.59765625 42.09765625 C-22.73186873 40.81449319 -24.23170605 39.67299408 -26.359375 37.0546875 C-28.95997207 30.84442889 -29.36486714 22.62485695 -27.59765625 16.09765625 C-25.171875 13.046875 -25.171875 13.046875 -22.59765625 11.09765625 C-21.93765625 11.09765625 -21.27765625 11.09765625 -20.59765625 11.09765625 C-20.26765625 10.10765625 -19.93765625 9.11765625 -19.59765625 8.09765625 C-17.36328125 7.0703125 -17.36328125 7.0703125 -14.59765625 6.09765625 C-12.83857451 5.26235264 -11.08835908 4.40811351 -9.34765625 3.53515625 C-8.47625 3.10074219 -7.60484375 2.66632812 -6.70703125 2.21875 C-2.66867731 0.07243967 -2.66867731 0.07243967 0 0 Z M-2.59765625 2.09765625 C-2.59765625 3.08765625 -2.59765625 4.07765625 -2.59765625 5.09765625 C-4.24765625 5.09765625 -5.89765625 5.09765625 -7.59765625 5.09765625 C-7.59765625 6.08765625 -7.59765625 7.07765625 -7.59765625 8.09765625 C-9.57765625 8.09765625 -11.55765625 8.09765625 -13.59765625 8.09765625 C-13.59765625 9.08765625 -13.59765625 10.07765625 -13.59765625 11.09765625 C-15.24765625 11.09765625 -16.89765625 11.09765625 -18.59765625 11.09765625 C-18.59765625 11.75765625 -18.59765625 12.41765625 -18.59765625 13.09765625 C-19.25765625 13.09765625 -19.91765625 13.09765625 -20.59765625 13.09765625 C-20.59765625 14.08765625 -20.59765625 15.07765625 -20.59765625 16.09765625 C-21.58765625 16.09765625 -22.57765625 16.09765625 -23.59765625 16.09765625 C-23.59765625 17.08765625 -23.59765625 18.07765625 -23.59765625 19.09765625 C-24.58765625 19.09765625 -25.57765625 19.09765625 -26.59765625 19.09765625 C-26.59765625 23.38765625 -26.59765625 27.67765625 -26.59765625 32.09765625 C-25.60765625 32.09765625 -24.61765625 32.09765625 -23.59765625 32.09765625 C-23.59765625 32.75765625 -23.59765625 33.41765625 -23.59765625 34.09765625 C-22.60765625 34.09765625 -21.61765625 34.09765625 -20.59765625 34.09765625 C-20.59765625 35.08765625 -20.59765625 36.07765625 -20.59765625 37.09765625 C-19.93765625 37.09765625 -19.27765625 37.09765625 -18.59765625 37.09765625 C-18.59765625 38.08765625 -18.59765625 39.07765625 -18.59765625 40.09765625 C-13.97765625 40.09765625 -9.35765625 40.09765625 -4.59765625 40.09765625 C-4.59765625 39.10765625 -4.59765625 38.11765625 -4.59765625 37.09765625 C-2.94765625 37.09765625 -1.29765625 37.09765625 0.40234375 37.09765625 C0.40234375 36.43765625 0.40234375 35.77765625 0.40234375 35.09765625 C2.05234375 35.09765625 3.70234375 35.09765625 5.40234375 35.09765625 C5.40234375 34.10765625 5.40234375 33.11765625 5.40234375 32.09765625 C9.03234375 32.09765625 12.66234375 32.09765625 16.40234375 32.09765625 C16.40234375 31.10765625 16.40234375 30.11765625 16.40234375 29.09765625 C17.39234375 29.09765625 18.38234375 29.09765625 19.40234375 29.09765625 C19.40234375 28.10765625 19.40234375 27.11765625 19.40234375 26.09765625 C20.06234375 26.09765625 20.72234375 26.09765625 21.40234375 26.09765625 C21.40234375 21.14765625 21.40234375 16.19765625 21.40234375 11.09765625 C20.74234375 11.09765625 20.08234375 11.09765625 19.40234375 11.09765625 C19.40234375 10.10765625 19.40234375 9.11765625 19.40234375 8.09765625 C18.41234375 8.09765625 17.42234375 8.09765625 16.40234375 8.09765625 C16.40234375 7.10765625 16.40234375 6.11765625 16.40234375 5.09765625 C14.75234375 5.09765625 13.10234375 5.09765625 11.40234375 5.09765625 C11.40234375 4.10765625 11.40234375 3.11765625 11.40234375 2.09765625 C6.78234375 2.09765625 2.16234375 2.09765625 -2.59765625 2.09765625 Z " fill="#F9EFEB" transform="translate(27.59765625,4.90234375)"/>
<path d="M0 0 C0.99 0 1.98 0 3 0 C3 3.63 3 7.26 3 11 C2.01 11 1.02 11 0 11 C0 11.66 0 12.32 0 13 C-0.99 13 -1.98 13 -3 13 C-3 13.99 -3 14.98 -3 16 C-6.3 16 -9.6 16 -13 16 C-13 16.99 -13 17.98 -13 19 C-14.98 19 -16.96 19 -19 19 C-19 19.66 -19 20.32 -19 21 C-24.28 21 -29.56 21 -35 21 C-35 20.34 -35 19.68 -35 19 C-35.99 18.67 -36.98 18.34 -38 18 C-38 17.34 -38 16.68 -38 16 C-38.66 16 -39.32 16 -40 16 C-40 14.35 -40 12.7 -40 11 C-39.01 11 -38.02 11 -37 11 C-37 12.65 -37 14.3 -37 16 C-36.34 16 -35.68 16 -35 16 C-35 16.66 -35 17.32 -35 18 C-29.72 18 -24.44 18 -19 18 C-19 17.01 -19 16.02 -19 15 C-17.35 15 -15.7 15 -14 15 C-14 14.34 -14 13.68 -14 13 C-10.7 13 -7.4 13 -4 13 C-4 12.34 -4 11.68 -4 11 C-5.98 11 -7.96 11 -10 11 C-10.33 10.01 -10.66 9.02 -11 8 C-12.65 8 -14.3 8 -16 8 C-16 7.01 -16 6.02 -16 5 C-14.35 5 -12.7 5 -11 5 C-11 4.34 -11 3.68 -11 3 C-9.35 3 -7.7 3 -6 3 C-6 3.66 -6 4.32 -6 5 C-7.32 5 -8.64 5 -10 5 C-10 5.99 -10 6.98 -10 8 C-9.34 8 -8.68 8 -8 8 C-8 7.34 -8 6.68 -8 6 C-7.01 6 -6.02 6 -5 6 C-5 4.68 -5 3.36 -5 2 C-3.35 2 -1.7 2 0 2 C0 1.34 0 0.68 0 0 Z " fill="#C1270E" transform="translate(44,13)"/>
<path d="M0 0 C0.99 0 1.98 0 3 0 C3 1.65 3 3.3 3 5 C3.66 5 4.32 5 5 5 C6.625 6.375 6.625 6.375 8 8 C8 8.66 8 9.32 8 10 C11.63 10 15.26 10 19 10 C19 12.64 19 15.28 19 18 C14.71 18 10.42 18 6 18 C6 17.01 6 16.02 6 15 C5.01 15 4.02 15 3 15 C3 14.34 3 13.68 3 13 C2.01 13 1.02 13 0 13 C0 8.71 0 4.42 0 0 Z " fill="#D3310E" transform="translate(1,24)"/>
<path d="M0 0 C0.66 0 1.32 0 2 0 C2 4.95 2 9.9 2 15 C1.34 15 0.68 15 0 15 C0 15.99 0 16.98 0 18 C-0.99 18 -1.98 18 -3 18 C-3 18.66 -3 19.32 -3 20 C-6.63 20 -10.26 20 -14 20 C-16 16 -16 16 -16 13 C-12.7 13 -9.4 13 -6 13 C-6 12.01 -6 11.02 -6 10 C-5.01 10 -4.02 10 -3 10 C-3 9.34 -3 8.68 -3 8 C-2.01 8 -1.02 8 0 8 C0 5.36 0 2.72 0 0 Z " fill="#9C1F0C" transform="translate(47,16)"/>
<path d="M0 0 C0.99 0 1.98 0 3 0 C3 1.65 3 3.3 3 5 C3.66 5 4.32 5 5 5 C5 5.66 5 6.32 5 7 C10.28 7 15.56 7 21 7 C21 6.01 21 5.02 21 4 C22.65 4 24.3 4 26 4 C26 3.34 26 2.68 26 2 C29.63 2 33.26 2 37 2 C37 2.99 37 3.98 37 5 C33.7 5 30.4 5 27 5 C27 5.99 27 6.98 27 8 C25.02 8 23.04 8 21 8 C21 8.66 21 9.32 21 10 C15.72 10 10.44 10 5 10 C5 9.34 5 8.68 5 8 C4.01 7.67 3.02 7.34 2 7 C2 6.34 2 5.68 2 5 C1.34 5 0.68 5 0 5 C0 3.35 0 1.7 0 0 Z " fill="#EF5619" transform="translate(4,24)"/>
<path d="M0 0 C4.62 0 9.24 0 14 0 C14 0.99 14 1.98 14 3 C15.65 3 17.3 3 19 3 C19 4.65 19 6.3 19 8 C17.35 8 15.7 8 14 8 C14 7.34 14 6.68 14 6 C9.38 6 4.76 6 0 6 C0 5.34 0 4.68 0 4 C-1.65 4 -3.3 4 -5 4 C-5 3.67 -5 3.34 -5 3 C-3.35 3 -1.7 3 0 3 C0 2.01 0 1.02 0 0 Z " fill="#C34E2D" transform="translate(25,7)"/>
<path d="M0 0 C1.48831242 0.00667405 2.97660807 0.01863442 4.46484375 0.03515625 C5.22345703 0.03966797 5.98207031 0.04417969 6.76367188 0.04882812 C8.64326246 0.06064945 10.52281274 0.07858547 12.40234375 0.09765625 C12.73234375 1.08765625 13.06234375 2.07765625 13.40234375 3.09765625 C14.51609375 3.25234375 14.51609375 3.25234375 15.65234375 3.41015625 C18.64356069 4.15796049 20.22676054 4.92207304 22.40234375 7.09765625 C22.40234375 8.41765625 22.40234375 9.73765625 22.40234375 11.09765625 C21.41234375 11.09765625 20.42234375 11.09765625 19.40234375 11.09765625 C19.40234375 10.10765625 19.40234375 9.11765625 19.40234375 8.09765625 C18.41234375 8.09765625 17.42234375 8.09765625 16.40234375 8.09765625 C16.40234375 7.10765625 16.40234375 6.11765625 16.40234375 5.09765625 C14.75234375 5.09765625 13.10234375 5.09765625 11.40234375 5.09765625 C11.40234375 4.10765625 11.40234375 3.11765625 11.40234375 2.09765625 C6.78234375 2.09765625 2.16234375 2.09765625 -2.59765625 2.09765625 C-2.59765625 3.08765625 -2.59765625 4.07765625 -2.59765625 5.09765625 C-4.24765625 5.09765625 -5.89765625 5.09765625 -7.59765625 5.09765625 C-7.59765625 5.75765625 -7.59765625 6.41765625 -7.59765625 7.09765625 C-9.57765625 7.09765625 -11.55765625 7.09765625 -13.59765625 7.09765625 C-12.31835779 4.53905933 -11.15494557 4.23616891 -8.59765625 3.03515625 C-2.31662698 0.06288347 -2.31662698 0.06288347 0 0 Z " fill="#FEFCFA" transform="translate(27.59765625,4.90234375)"/>
<path d="M0 0 C1.98 0 3.96 0 6 0 C6 0.99 6 1.98 6 3 C4.35 3 2.7 3 1 3 C0.67 6.3 0.34 9.6 0 13 C-0.33 12.34 -0.66 11.68 -1 11 C-2.32 11 -3.64 11 -5 11 C-5 12.32 -5 13.64 -5 15 C-5.66 15 -6.32 15 -7 15 C-7 13.68 -7 12.36 -7 11 C-7.99 11 -8.98 11 -10 11 C-10 10.01 -10 9.02 -10 8 C-9.01 8 -8.02 8 -7 8 C-7 7.01 -7 6.02 -7 5 C-6.34 5 -5.68 5 -5 5 C-5 4.34 -5 3.68 -5 3 C-3.35 3 -1.7 3 0 3 C0 2.01 0 1.02 0 0 Z " fill="#BE290F" transform="translate(14,13)"/>
<path d="M0 0 C0.99 0 1.98 0 3 0 C3 1.65 3 3.3 3 5 C3.66 5 4.32 5 5 5 C6.61328125 6.17578125 6.61328125 6.17578125 8 8 C8.29296875 10.48046875 8.29296875 10.48046875 8.1875 13.1875 C8.16042969 14.08855469 8.13335937 14.98960938 8.10546875 15.91796875 C8.07066406 16.60503906 8.03585937 17.29210937 8 18 C7.34 18 6.68 18 6 18 C6 17.01 6 16.02 6 15 C5.01 15 4.02 15 3 15 C3 14.34 3 13.68 3 13 C2.01 13 1.02 13 0 13 C0 8.71 0 4.42 0 0 Z " fill="#922715" transform="translate(1,24)"/>
<path d="M0 0 C1.65 0 3.3 0 5 0 C5 0.66 5 1.32 5 2 C3.68 2 2.36 2 1 2 C1 2.99 1 3.98 1 5 C2.65 5 4.3 5 6 5 C6 5.99 6 6.98 6 8 C4.35 8 2.7 8 1 8 C0.67 7.01 0.34 6.02 0 5 C-1.65 5 -3.3 5 -5 5 C-5 4.01 -5 3.02 -5 2 C-3.35 2 -1.7 2 0 2 C0 1.34 0 0.68 0 0 Z " fill="#E43713" transform="translate(33,16)"/>
<path d="M0 0 C1.98 0 3.96 0 6 0 C6 0.99 6 1.98 6 3 C4.35 3 2.7 3 1 3 C0.67 4.32 0.34 5.64 0 7 C-2.31 6.67 -4.62 6.34 -7 6 C-6.34 5.67 -5.68 5.34 -5 5 C-5 4.34 -5 3.68 -5 3 C-3.35 3 -1.7 3 0 3 C0 2.01 0 1.02 0 0 Z " fill="#992A1A" transform="translate(14,13)"/>
<path d="M0 0 C0.33 0 0.66 0 1 0 C1 3.63 1 7.26 1 11 C0.01 11 -0.98 11 -2 11 C-2 11.66 -2 12.32 -2 13 C-2.99 13 -3.98 13 -5 13 C-5 12.01 -5 11.02 -5 10 C-4.01 10 -3.02 10 -2 10 C-2 7.69 -2 5.38 -2 3 C-1.34 3 -0.68 3 0 3 C0 2.01 0 1.02 0 0 Z " fill="#EC5420" transform="translate(46,13)"/>
<path d="M0 0 C3.3 0 6.6 0 10 0 C10 0.99 10 1.98 10 3 C6.7 3 3.4 3 0 3 C0 2.01 0 1.02 0 0 Z " fill="#FD5B1D" transform="translate(31,26)"/>
<path d="M0 0 C0.66 0 1.32 0 2 0 C4.1519437 3.22791555 4.20086443 4.28400809 4 8 C2.68 7.67 1.36 7.34 0 7 C0 4.69 0 2.38 0 0 Z " fill="#B9250D" transform="translate(4,29)"/>
<path d="M0 0 C1.65 0 3.3 0 5 0 C5 1.65 5 3.3 5 5 C3.35 5 1.7 5 0 5 C0 3.35 0 1.7 0 0 Z " fill="#DD3311" transform="translate(23,13)"/>
<path d="M0 0 C0.99 0 1.98 0 3 0 C3 1.65 3 3.3 3 5 C3.66 5 4.32 5 5 5 C5 5.66 5 6.32 5 7 C4.01 7 3.02 7 2 7 C2 6.34 2 5.68 2 5 C1.34 5 0.68 5 0 5 C0 3.35 0 1.7 0 0 Z " fill="#F54D1A" transform="translate(4,24)"/>
<path d="M0 0 C1.98 0 3.96 0 6 0 C6 0.99 6 1.98 6 3 C4.02 3 2.04 3 0 3 C0 2.01 0 1.02 0 0 Z " fill="#E73C12" transform="translate(14,21)"/>
</svg>
