<?xml version="1.0" encoding="UTF-8"?>
<svg version="1.1" xmlns="http://www.w3.org/2000/svg" width="50" height="50">
<path d="M0 0 C4.6957947 1.78440199 6.80177872 3.48786159 9 8 C9.495 8.99 9.495 8.99 10 10 C10.125 13.5625 10.125 13.5625 10 17 C9.505 17.495 9.505 17.495 9 18 C9.886875 18.226875 10.77375 18.45375 11.6875 18.6875 C15.63818551 20.25286596 17.35786422 21.66861141 20 25 C20.73902395 27.83577268 20.74580268 30.51983098 20.6875 33.4375 C20.71521484 34.17548828 20.74292969 34.91347656 20.77148438 35.67382812 C20.75284676 39.86729121 20.19396094 42.31872351 17.26953125 45.41015625 C11.30004029 50.94035515 4.33924718 50.33462767 -3.3125 50.3125 C-4.96668945 50.33666992 -4.96668945 50.33666992 -6.65429688 50.36132812 C-14.67177246 50.36611468 -20.79606429 49.42849203 -27.453125 44.83984375 C-30.86470339 41.0358292 -30.90476043 38.510535 -30.75 33.5625 C-30.77320312 32.82451172 -30.79640625 32.08652344 -30.8203125 31.32617188 C-30.77466236 27.04647147 -30.15210699 24.65876003 -27.12890625 21.546875 C-24.62697127 19.30163862 -22.23052569 18.01530807 -19 17 C-18.67 16.67 -18.34 16.34 -18 16 C-16.31816052 15.76712992 -14.6287584 15.58735834 -12.9375 15.4375 C-12.01839844 15.35371094 -11.09929688 15.26992187 -10.15234375 15.18359375 C-9.44207031 15.12300781 -8.73179688 15.06242188 -8 15 C-8 14.01 -8 13.02 -8 12 C-8.33 11.67 -8.66 11.34 -9 11 C-9.36759816 7.10345954 -9.57929325 4.83675691 -7.3125 1.5625 C-4.48336239 -0.34907947 -3.35464046 -0.55910674 0 0 Z " fill="#917300" transform="translate(30,0)"/>
<path d="M0 0 C4.6957947 1.78440199 6.80177872 3.48786159 9 8 C9.495 8.99 9.495 8.99 10 10 C10.125 13.5625 10.125 13.5625 10 17 C9.505 17.495 9.505 17.495 9 18 C9.886875 18.226875 10.77375 18.45375 11.6875 18.6875 C15.63818551 20.25286596 17.35786422 21.66861141 20 25 C20.73902395 27.83577268 20.74580268 30.51983098 20.6875 33.4375 C20.71521484 34.17548828 20.74292969 34.91347656 20.77148438 35.67382812 C20.75284676 39.86729121 20.19396094 42.31872351 17.26953125 45.41015625 C11.30004029 50.94035515 4.33924718 50.33462767 -3.3125 50.3125 C-4.96668945 50.33666992 -4.96668945 50.33666992 -6.65429688 50.36132812 C-14.67177246 50.36611468 -20.79606429 49.42849203 -27.453125 44.83984375 C-30.86470339 41.0358292 -30.90476043 38.510535 -30.75 33.5625 C-30.77320312 32.82451172 -30.79640625 32.08652344 -30.8203125 31.32617188 C-30.77466236 27.04647147 -30.15210699 24.65876003 -27.12890625 21.546875 C-24.62697127 19.30163862 -22.23052569 18.01530807 -19 17 C-18.67 16.67 -18.34 16.34 -18 16 C-16.31816052 15.76712992 -14.6287584 15.58735834 -12.9375 15.4375 C-12.01839844 15.35371094 -11.09929688 15.26992187 -10.15234375 15.18359375 C-9.44207031 15.12300781 -8.73179688 15.06242188 -8 15 C-8 14.01 -8 13.02 -8 12 C-8.33 11.67 -8.66 11.34 -9 11 C-9.36759816 7.10345954 -9.57929325 4.83675691 -7.3125 1.5625 C-4.48336239 -0.34907947 -3.35464046 -0.55910674 0 0 Z M-17 19 C-17 19.66 -17 20.32 -17 21 C-18.98 21 -20.96 21 -23 21 C-23 21.99 -23 22.98 -23 24 C-23.66 24 -24.32 24 -25 24 C-25 24.99 -25 25.98 -25 27 C-25.99 27 -26.98 27 -28 27 C-28 31.29 -28 35.58 -28 40 C-27.01 40 -26.02 40 -25 40 C-25 40.66 -25 41.32 -25 42 C-24.05004839 43.7893443 -24.05004839 43.7893443 -22 45 C-19.28141321 45.2627431 -16.74236049 45.13487019 -14 45 C-14 45.99 -14 46.98 -14 48 C-7.07 48 -0.14 48 7 48 C7 47.01 7 46.02 7 45 C8.98 45 10.96 45 13 45 C13 44.34 13 43.68 13 43 C13.99 43 14.98 43 16 43 C16 42.01 16 41.02 16 40 C16.66 40 17.32 40 18 40 C18 35.71 18 31.42 18 27 C17.01 27 16.02 27 15 27 C15 26.01 15 25.02 15 24 C14.34 24 13.68 24 13 24 C13 23.01 13 22.02 13 21 C8.38 21 3.76 21 -1 21 C-1 20.34 -1 19.68 -1 19 C-6.28 19 -11.56 19 -17 19 Z " fill="#F9F6F1" transform="translate(30,0)"/>
<path d="M0 0 C0.99 0 1.98 0 3 0 C3 0.66 3 1.32 3 2 C3.66 2 4.32 2 5 2 C5 2.99 5 3.98 5 5 C4.34 5 3.68 5 3 5 C3 6.98 3 8.96 3 11 C3.66 11 4.32 11 5 11 C5 11.66 5 12.32 5 13 C6.98 13 8.96 13 11 13 C11 11.35 11 9.7 11 8 C13.64 8 16.28 8 19 8 C19 8.66 19 9.32 19 10 C23.29 10 27.58 10 32 10 C32 9.34 32 8.68 32 8 C32.99 8 33.98 8 35 8 C35 8.99 35 9.98 35 11 C34.34 11 33.68 11 33 11 C33 11.66 33 12.32 33 13 C28.38 13 23.76 13 19 13 C19 12.34 19 11.68 19 11 C17.35 11 15.7 11 14 11 C14 12.65 14 14.3 14 16 C14.66 16 15.32 16 16 16 C16 16.66 16 17.32 16 18 C21.61 18 27.22 18 33 18 C33 17.34 33 16.68 33 16 C36.465 15.505 36.465 15.505 40 15 C40 15.99 40 16.98 40 18 C38.35 18 36.7 18 35 18 C35 18.99 35 19.98 35 21 C28.07 21 21.14 21 14 21 C14 20.01 14 19.02 14 18 C12.741875 18.061875 11.48375 18.12375 10.1875 18.1875 C6.28277965 18.19441101 6.28277965 18.19441101 4 16.625 C3 15 3 15 3 13 C2.01 13 1.02 13 0 13 C0 8.71 0 4.42 0 0 Z " fill="#694802" transform="translate(2,27)"/>
<path d="M0 0 C5.28 0 10.56 0 16 0 C16 0.66 16 1.32 16 2 C20.62 2 25.24 2 30 2 C30 2.99 30 3.98 30 5 C30.66 5 31.32 5 32 5 C32 5.99 32 6.98 32 8 C32.99 8 33.98 8 35 8 C35 12.29 35 16.58 35 21 C34.01 21 33.02 21 32 21 C32 21.66 32 22.32 32 23 C31.34 23 30.68 23 30 23 C30 21.35 30 19.7 30 18 C30.66 18 31.32 18 32 18 C32 16.35 32 14.7 32 13 C27.71 13 23.42 13 19 13 C19 12.01 19 11.02 19 10 C19.66 10 20.32 10 21 10 C21 9.01 21 8.02 21 7 C22.65 6.67 24.3 6.34 26 6 C22.7 5.67 19.4 5.34 16 5 C16 4.34 16 3.68 16 3 C9.07 3 2.14 3 -5 3 C-5.33 3.66 -5.66 4.32 -6 5 C-6 4.01 -6 3.02 -6 2 C-4.02 2 -2.04 2 0 2 C0 1.34 0 0.68 0 0 Z " fill="#785B01" transform="translate(13,19)"/>
<path d="M0 0 C0.33 0.99 0.66 1.98 1 3 C3.31 3 5.62 3 8 3 C8 4.65 8 6.3 8 8 C7.34 8 6.68 8 6 8 C6 9.65 6 11.3 6 13 C6.66 13 7.32 13 8 13 C8.33 12.34 8.66 11.68 9 11 C9 11.99 9 12.98 9 14 C8.01 14 7.02 14 6 14 C5.67 14.66 5.34 15.32 5 16 C5 15.01 5 14.02 5 13 C2.69 13.33 0.38 13.66 -2 14 C-2 14.66 -2 15.32 -2 16 C-7.61 16 -13.22 16 -19 16 C-19 15.34 -19 14.68 -19 14 C-19.66 14 -20.32 14 -21 14 C-21 12.35 -21 10.7 -21 9 C-19.35 9 -17.7 9 -16 9 C-16 9.66 -16 10.32 -16 11 C-11.38 11 -6.76 11 -2 11 C-2 10.34 -2 9.68 -2 9 C-1.34 9 -0.68 9 0 9 C0 6.03 0 3.06 0 0 Z " fill="#825F05" transform="translate(37,29)"/>
<path d="M0 0 C0.598125 0.226875 1.19625 0.45375 1.8125 0.6875 C1.1525 0.6875 0.4925 0.6875 -0.1875 0.6875 C-0.1875 1.6775 -0.1875 2.6675 -0.1875 3.6875 C-1.1775 3.6875 -2.1675 3.6875 -3.1875 3.6875 C-3.1875 7.9775 -3.1875 12.2675 -3.1875 16.6875 C-2.1975 16.6875 -1.2075 16.6875 -0.1875 16.6875 C-0.1875 17.3475 -0.1875 18.0075 -0.1875 18.6875 C0.8025 19.0175 1.7925 19.3475 2.8125 19.6875 C2.8125 20.3475 2.8125 21.0075 2.8125 21.6875 C5.4525 21.6875 8.0925 21.6875 10.8125 21.6875 C10.8125 22.6775 10.8125 23.6675 10.8125 24.6875 C17.7425 24.6875 24.6725 24.6875 31.8125 24.6875 C31.8125 25.0175 31.8125 25.3475 31.8125 25.6875 C28.14725597 25.944987 24.48065029 26.16329023 20.8125 26.375 C19.78253906 26.44783203 18.75257812 26.52066406 17.69140625 26.59570312 C9.69504227 27.02862729 3.97266893 26.09196752 -2.65234375 21.5078125 C-5.88551582 17.91097084 -5.98924229 15.17106194 -5.75 10.5625 C-5.74806641 9.84707031 -5.74613281 9.13164063 -5.74414062 8.39453125 C-5.66774667 5.36706722 -5.54251887 3.1982115 -3.7890625 0.67578125 C-2.1875 -0.3125 -2.1875 -0.3125 0 0 Z " fill="#F2EDE1" transform="translate(5.1875,23.3125)"/>
<path d="M0 0 C0 0.99 0 1.98 0 3 C-1.65 3 -3.3 3 -5 3 C-5 3.99 -5 4.98 -5 6 C-11.93 6 -18.86 6 -26 6 C-26 5.01 -26 4.02 -26 3 C-28.64 3 -31.28 3 -34 3 C-34 2.34 -34 1.68 -34 1 C-30.7 1 -27.4 1 -24 1 C-24 1.66 -24 2.32 -24 3 C-18.39 3 -12.78 3 -7 3 C-7 2.34 -7 1.68 -7 1 C-2.25 0 -2.25 0 0 0 Z " fill="#583C01" transform="translate(42,42)"/>
<path d="M0 0 C1.65 0 3.3 0 5 0 C5.33 0.66 5.66 1.32 6 2 C8.35599235 2.46751788 8.35599235 2.46751788 11.0625 2.625 C12.44115234 2.73714844 12.44115234 2.73714844 13.84765625 2.8515625 C14.55792969 2.90054688 15.26820312 2.94953125 16 3 C16 4.32 16 5.64 16 7 C11.38 7 6.76 7 2 7 C2 6.34 2 5.68 2 5 C1.34 5 0.68 5 0 5 C0 3.35 0 1.7 0 0 Z " fill="#896300" transform="translate(16,38)"/>
<path d="M0 0 C5.28 0 10.56 0 16 0 C16 0.66 16 1.32 16 2 C20.62 2 25.24 2 30 2 C30 2.33 30 2.66 30 3 C18.45 3 6.9 3 -5 3 C-5.33 3.66 -5.66 4.32 -6 5 C-6 4.01 -6 3.02 -6 2 C-4.02 2 -2.04 2 0 2 C0 1.34 0 0.68 0 0 Z " fill="#725816" transform="translate(13,19)"/>
<path d="M0 0 C2.64 0 5.28 0 8 0 C8 2.64 8 5.28 8 8 C6.02 8 4.04 8 2 8 C2 7.34 2 6.68 2 6 C1.34 6 0.68 6 0 6 C0 4.02 0 2.04 0 0 Z " fill="#8A6200" transform="translate(5,32)"/>
<path d="M0 0 C0.99 0 1.98 0 3 0 C3 4.29 3 8.58 3 13 C2.01 13 1.02 13 0 13 C0 13.66 0 14.32 0 15 C-0.66 15 -1.32 15 -2 15 C-2 13.35 -2 11.7 -2 10 C-1.34 10 -0.68 10 0 10 C0 8.35 0 6.7 0 5 C-0.66 5 -1.32 5 -2 5 C-2 4.01 -2 3.02 -2 2 C-1.34 2 -0.68 2 0 2 C0 1.34 0 0.68 0 0 Z " fill="#604200" transform="translate(45,27)"/>
<path d="M0 0 C0.99 0 1.98 0 3 0 C3 1.65 3 3.3 3 5 C3.66 5 4.32 5 5 5 C5 6.98 5 8.96 5 11 C4.34 11 3.68 11 3 11 C3 11.99 3 12.98 3 14 C2.01 14 1.02 14 0 14 C0 12.68 0 11.36 0 10 C0.66 10 1.32 10 2 10 C2 8.68 2 7.36 2 6 C1.34 6 0.68 6 0 6 C0 4.02 0 2.04 0 0 Z " fill="#F0E9DA" transform="translate(32,5)"/>
<path d="M0 0 C0.99 0 1.98 0 3 0 C3 0.99 3 1.98 3 3 C2.34 3 1.68 3 1 3 C1 4.65 1 6.3 1 8 C1.66 8 2.32 8 3 8 C3 9.98 3 11.96 3 14 C2.01 14 1.02 14 0 14 C0 12.35 0 10.7 0 9 C-0.66 9 -1.32 9 -2 9 C-2 7.02 -2 5.04 -2 3 C-1.34 3 -0.68 3 0 3 C0 2.01 0 1.02 0 0 Z " fill="#F1E9DA" transform="translate(26,2)"/>
<path d="M0 0 C1.98 0 3.96 0 6 0 C6 1.65 6 3.3 6 5 C3.36 5 0.72 5 -2 5 C-2 4.34 -2 3.68 -2 3 C-1.34 3 -0.68 3 0 3 C0 2.01 0 1.02 0 0 Z " fill="#715600" transform="translate(18,24)"/>
<path d="M0 0 C2.31 0 4.62 0 7 0 C7 1.32 7 2.64 7 4 C4.03 4 1.06 4 -2 4 C-1.34 2.68 -0.68 1.36 0 0 Z " fill="#906E00" transform="translate(25,41)"/>
<path d="M0 0 C1.98 0 3.96 0 6 0 C6 0.66 6 1.32 6 2 C5.01 2 4.02 2 3 2 C3 2.99 3 3.98 3 5 C1.35 5 -0.3 5 -2 5 C-2 4.01 -2 3.02 -2 2 C-1.34 2 -0.68 2 0 2 C0 1.34 0 0.68 0 0 Z " fill="#6E5200" transform="translate(34,27)"/>
<path d="M0 0 C0.33 1.32 0.66 2.64 1 4 C-0.65 4 -2.3 4 -4 4 C-4 4.66 -4 5.32 -4 6 C-5.32 5.67 -6.64 5.34 -8 5 C-5.64722731 2.27573689 -3.37503669 1.1858237 0 0 Z " fill="#FFFFFF" transform="translate(11,17)"/>
<path d="M0 0 C1.98 0 3.96 0 6 0 C6 0.99 6 1.98 6 3 C4.02 3 2.04 3 0 3 C0 2.01 0 1.02 0 0 Z " fill="#664700" transform="translate(7,32)"/>
</svg>
