<?xml version="1.0" encoding="UTF-8"?>
<svg version="1.1" xmlns="http://www.w3.org/2000/svg" width="50" height="50">
<path d="M0 0 C1.11955078 -0.01224609 2.23910156 -0.02449219 3.39257812 -0.03710938 C10.76966286 -0.05024365 16.34217283 0.1866933 22.390625 4.7421875 C27.33216917 10.0024531 26.53031124 17.19771056 26.36523438 23.96728516 C26.31244644 26.31488177 26.32411386 28.65591446 26.34375 31.00390625 C26.33193933 32.50524319 26.31644086 34.0065566 26.296875 35.5078125 C26.30072205 36.20375519 26.30456909 36.89969788 26.30853271 37.61672974 C26.18831115 41.17601835 25.58509238 43.15366621 23.59887695 46.12817383 C19.4135387 48.96674649 16.19806358 48.89288444 11.24609375 48.81640625 C9.90587914 48.82002419 9.90587914 48.82002419 8.53858948 48.82371521 C6.65499419 48.82273812 4.7713697 48.80937739 2.88793945 48.78442383 C0.0056818 48.75006773 -2.87351664 48.76378265 -5.75585938 48.78320312 C-7.58855471 48.77630565 -9.42124214 48.76663416 -11.25390625 48.75390625 C-12.11440079 48.75886612 -12.97489532 48.76382599 -13.86146545 48.76893616 C-17.52844169 48.69674481 -19.80279918 48.57571922 -22.97167969 46.63745117 C-24.97976048 43.28117356 -25.06726743 40.22928319 -25.07421875 36.421875 C-25.08516068 35.66964661 -25.0961026 34.91741821 -25.1073761 34.14239502 C-25.123218 32.55219353 -25.12844427 30.96185558 -25.1237793 29.37158203 C-25.12498992 26.95760401 -25.18464961 24.5497617 -25.24804688 22.13671875 C-25.39696417 9.23903999 -25.39696417 9.23903999 -21.20703125 4.140625 C-15.57473327 -1.34983858 -7.31765708 0.00419831 0 0 Z " fill="#583305" transform="translate(24.4375,0.8125)"/>
<path d="M0 0 C1.11955078 -0.01224609 2.23910156 -0.02449219 3.39257812 -0.03710938 C10.76966286 -0.05024365 16.34217283 0.1866933 22.390625 4.7421875 C27.33216917 10.0024531 26.53031124 17.19771056 26.36523438 23.96728516 C26.31244644 26.31488177 26.32411386 28.65591446 26.34375 31.00390625 C26.33193933 32.50524319 26.31644086 34.0065566 26.296875 35.5078125 C26.30072205 36.20375519 26.30456909 36.89969788 26.30853271 37.61672974 C26.18831115 41.17601835 25.58509238 43.15366621 23.59887695 46.12817383 C19.4135387 48.96674649 16.19806358 48.89288444 11.24609375 48.81640625 C9.90587914 48.82002419 9.90587914 48.82002419 8.53858948 48.82371521 C6.65499419 48.82273812 4.7713697 48.80937739 2.88793945 48.78442383 C0.0056818 48.75006773 -2.87351664 48.76378265 -5.75585938 48.78320312 C-7.58855471 48.77630565 -9.42124214 48.76663416 -11.25390625 48.75390625 C-12.11440079 48.75886612 -12.97489532 48.76382599 -13.86146545 48.76893616 C-17.70529873 48.69326304 -19.79292283 48.64126904 -22.99584961 46.38647461 C-25.02841752 43.28616315 -24.71587613 40.80638974 -24.4375 37.1875 C-23.4475 37.1875 -22.4575 37.1875 -21.4375 37.1875 C-21.4375 39.1675 -21.4375 41.1475 -21.4375 43.1875 C-20.7775 43.1875 -20.1175 43.1875 -19.4375 43.1875 C-19.4375 43.8475 -19.4375 44.5075 -19.4375 45.1875 C-6.5675 45.1875 6.3025 45.1875 19.5625 45.1875 C19.5625 44.1975 19.5625 43.2075 19.5625 42.1875 C20.2225 42.1875 20.8825 42.1875 21.5625 42.1875 C21.5625 40.5375 21.5625 38.8875 21.5625 37.1875 C22.5525 37.1875 23.5425 37.1875 24.5625 37.1875 C24.5625 35.5375 24.5625 33.8875 24.5625 32.1875 C23.5725 32.1875 22.5825 32.1875 21.5625 32.1875 C21.5625 30.2075 21.5625 28.2275 21.5625 26.1875 C22.5525 26.1875 23.5425 26.1875 24.5625 26.1875 C24.5625 24.5375 24.5625 22.8875 24.5625 21.1875 C23.5725 21.1875 22.5825 21.1875 21.5625 21.1875 C21.5625 17.5575 21.5625 13.9275 21.5625 10.1875 C20.5725 10.1875 19.5825 10.1875 18.5625 10.1875 C18.5625 9.5275 18.5625 8.8675 18.5625 8.1875 C17.9025 8.1875 17.2425 8.1875 16.5625 8.1875 C16.8925 9.095 17.2225 10.0025 17.5625 10.9375 C18.5625 14.1875 18.5625 14.1875 18.5625 18.1875 C17.9025 18.1875 17.2425 18.1875 16.5625 18.1875 C16.5625 18.8475 16.5625 19.5075 16.5625 20.1875 C6.6625 20.1875 -3.2375 20.1875 -13.4375 20.1875 C-13.4375 19.5275 -13.4375 18.8675 -13.4375 18.1875 C-15.0875 18.1875 -16.7375 18.1875 -18.4375 18.1875 C-18.4375 15.5475 -18.4375 12.9075 -18.4375 10.1875 C-19.4275 10.1875 -20.4175 10.1875 -21.4375 10.1875 C-21.4375 13.8175 -21.4375 17.4475 -21.4375 21.1875 C-22.4275 21.1875 -23.4175 21.1875 -24.4375 21.1875 C-25.49357842 11.12961031 -25.49357842 11.12961031 -23.0546875 6.64453125 C-16.6025855 -1.02257697 -9.45387952 0.00542391 0 0 Z " fill="#F9990B" transform="translate(24.4375,0.8125)"/>
<path d="M0 0 C0.66 0 1.32 0 2 0 C2 0.99 2 1.98 2 3 C2.99 3 3.98 3 5 3 C5 4.65 5 6.3 5 8 C4.01 8 3.02 8 2 8 C2 9.98 2 11.96 2 14 C2.99 14 3.98 14 5 14 C5 15.65 5 17.3 5 19 C4.01 19 3.02 19 2 19 C2 20.65 2 22.3 2 24 C1.34 24 0.68 24 0 24 C0 24.99 0 25.98 0 27 C-12.87 27 -25.74 27 -39 27 C-39 26.34 -39 25.68 -39 25 C-39.66 24.67 -40.32 24.34 -41 24 C-29.45 24 -17.9 24 -6 24 C-6 23.34 -6 22.68 -6 22 C-5.01 22 -4.02 22 -3 22 C-3 21.01 -3 20.02 -3 19 C-2.01 19 -1.02 19 0 19 C0 18.34 0 17.68 0 17 C-12.54 17 -25.08 17 -38 17 C-38 16.01 -38 15.02 -38 14 C-38.99 13.67 -39.98 13.34 -41 13 C-40.01 13 -39.02 13 -38 13 C-38 11.35 -38 9.7 -38 8 C-36.35 8 -34.7 8 -33 8 C-33 7.34 -33 6.68 -33 6 C-31.02 6 -29.04 6 -27 6 C-27 6.66 -27 7.32 -27 8 C-25.35 8 -23.7 8 -22 8 C-22 7.34 -22 6.68 -22 6 C-20.35 6 -18.7 6 -17 6 C-17 6.66 -17 7.32 -17 8 C-15.02 8 -13.04 8 -11 8 C-11 7.34 -11 6.68 -11 6 C-8.36 6 -5.72 6 -3 6 C-3 5.01 -3 4.02 -3 3 C-2.01 3 -1.02 3 0 3 C0 2.01 0 1.02 0 0 Z " fill="#651808" transform="translate(44,19)"/>
<path d="M0 0 C1.11955078 -0.01224609 2.23910156 -0.02449219 3.39257812 -0.03710938 C10.76966286 -0.05024365 16.34217283 0.1866933 22.390625 4.7421875 C27.33216917 10.0024531 26.53031124 17.19771056 26.36523438 23.96728516 C26.31244644 26.31488177 26.32411386 28.65591446 26.34375 31.00390625 C26.33193933 32.50524319 26.31644086 34.0065566 26.296875 35.5078125 C26.30072205 36.20375519 26.30456909 36.89969788 26.30853271 37.61672974 C26.18831115 41.17601835 25.58509238 43.15366621 23.59887695 46.12817383 C19.4135387 48.96674649 16.19806358 48.89288444 11.24609375 48.81640625 C9.90587914 48.82002419 9.90587914 48.82002419 8.53858948 48.82371521 C6.65499419 48.82273812 4.7713697 48.80937739 2.88793945 48.78442383 C0.0056818 48.75006773 -2.87351664 48.76378265 -5.75585938 48.78320312 C-7.58855471 48.77630565 -9.42124214 48.76663416 -11.25390625 48.75390625 C-12.11440079 48.75886612 -12.97489532 48.76382599 -13.86146545 48.76893616 C-17.70529873 48.69326304 -19.79292283 48.64126904 -22.99584961 46.38647461 C-25.02841752 43.28616315 -24.71587613 40.80638974 -24.4375 37.1875 C-23.4475 37.1875 -22.4575 37.1875 -21.4375 37.1875 C-21.4375 39.1675 -21.4375 41.1475 -21.4375 43.1875 C-20.7775 43.1875 -20.1175 43.1875 -19.4375 43.1875 C-19.4375 43.8475 -19.4375 44.5075 -19.4375 45.1875 C-6.5675 45.1875 6.3025 45.1875 19.5625 45.1875 C19.5625 44.1975 19.5625 43.2075 19.5625 42.1875 C20.2225 42.1875 20.8825 42.1875 21.5625 42.1875 C21.5625 40.5375 21.5625 38.8875 21.5625 37.1875 C22.5525 37.1875 23.5425 37.1875 24.5625 37.1875 C24.5625 35.5375 24.5625 33.8875 24.5625 32.1875 C23.5725 32.1875 22.5825 32.1875 21.5625 32.1875 C21.5625 30.2075 21.5625 28.2275 21.5625 26.1875 C22.5525 26.1875 23.5425 26.1875 24.5625 26.1875 C24.5625 24.5375 24.5625 22.8875 24.5625 21.1875 C23.5725 21.1875 22.5825 21.1875 21.5625 21.1875 C21.5625 17.5575 21.5625 13.9275 21.5625 10.1875 C20.9025 10.1875 20.2425 10.1875 19.5625 10.1875 C19.5625 9.1975 19.5625 8.2075 19.5625 7.1875 C18.5725 7.1875 17.5825 7.1875 16.5625 7.1875 C16.5625 6.5275 16.5625 5.8675 16.5625 5.1875 C14.9125 5.1875 13.2625 5.1875 11.5625 5.1875 C11.5625 4.1975 11.5625 3.2075 11.5625 2.1875 C3.9725 2.1875 -3.6175 2.1875 -11.4375 2.1875 C-11.4375 2.8475 -11.4375 3.5075 -11.4375 4.1875 C-13.0875 4.1875 -14.7375 4.1875 -16.4375 4.1875 C-16.4375 5.1775 -16.4375 6.1675 -16.4375 7.1875 C-17.4275 7.1875 -18.4175 7.1875 -19.4375 7.1875 C-19.4375 8.1775 -19.4375 9.1675 -19.4375 10.1875 C-20.0975 10.1875 -20.7575 10.1875 -21.4375 10.1875 C-21.4375 13.8175 -21.4375 17.4475 -21.4375 21.1875 C-22.4275 21.1875 -23.4175 21.1875 -24.4375 21.1875 C-25.49357842 11.12961031 -25.49357842 11.12961031 -23.0546875 6.64453125 C-16.6025855 -1.02257697 -9.45387952 0.00542391 0 0 Z " fill="#FCF5EE" transform="translate(24.4375,0.8125)"/>
<path d="M0 0 C0.99 0 1.98 0 3 0 C3 1.98 3 3.96 3 6 C3.99 6 4.98 6 6 6 C6 6.99 6 7.98 6 9 C18.54 9 31.08 9 44 9 C44 9.66 44 10.32 44 11 C43.01 11 42.02 11 41 11 C41 11.99 41 12.98 41 14 C40.01 14 39.02 14 38 14 C38 14.66 38 15.32 38 16 C26.45 16 14.9 16 3 16 C3 14.35 3 12.7 3 11 C2.01 11 1.02 11 0 11 C0 7.37 0 3.74 0 0 Z " fill="#FD9100" transform="translate(0,27)"/>
<path d="M0 0 C1.65 0 3.3 0 5 0 C5 1.65 5 3.3 5 5 C4.01 5 3.02 5 2 5 C2 6.65 2 8.3 2 10 C1.34 10 0.68 10 0 10 C0 10.99 0 11.98 0 13 C-12.87 13 -25.74 13 -39 13 C-39 12.34 -39 11.68 -39 11 C-39.66 10.67 -40.32 10.34 -41 10 C-29.45 10 -17.9 10 -6 10 C-6 9.34 -6 8.68 -6 8 C-5.01 8 -4.02 8 -3 8 C-3 7.01 -3 6.02 -3 5 C-2.01 5 -1.02 5 0 5 C0 4.34 0 3.68 0 3 C-12.54 3 -25.08 3 -38 3 C-38 2.67 -38 2.34 -38 2 C-25.46 2 -12.92 2 0 2 C0 1.34 0 0.68 0 0 Z " fill="#B15100" transform="translate(44,33)"/>
<path d="M0 0 C7.59 0 15.18 0 23 0 C23 0.99 23 1.98 23 3 C15.74 3 8.48 3 1 3 C1 4.65 1 6.3 1 8 C1.99 8.33 2.98 8.66 4 9 C3.67 10.32 3.34 11.64 3 13 C3.99 13.33 4.98 13.66 6 14 C4.58461283 14.33872513 3.16762037 14.67074624 1.75 15 C0.96109375 15.185625 0.1721875 15.37125 -0.640625 15.5625 C-3 16 -3 16 -7 16 C-7.33 12.37 -7.66 8.74 -8 5 C-7.01 5 -6.02 5 -5 5 C-5 4.01 -5 3.02 -5 2 C-3.35 2 -1.7 2 0 2 C0 1.34 0 0.68 0 0 Z " fill="#F29214" transform="translate(13,3)"/>
<path d="M0 0 C0.66 0 1.32 0 2 0 C2 0.66 2 1.32 2 2 C2.99 2 3.98 2 5 2 C5 4.64 5 7.28 5 10 C4.34 10 3.68 10 3 10 C3 10.99 3 11.98 3 13 C2.01 13 1.02 13 0 13 C0 13.66 0 14.32 0 15 C-9.9 15 -19.8 15 -30 15 C-30 14.34 -30 13.68 -30 13 C-31.65 13 -33.3 13 -35 13 C-35 12.01 -35 11.02 -35 10 C-33.35 10 -31.7 10 -30 10 C-30 10.66 -30 11.32 -30 12 C-20.1 12 -10.2 12 0 12 C0 11.34 0 10.68 0 10 C0.66 10 1.32 10 2 10 C1.34 6.7 0.68 3.4 0 0 Z " fill="#C44800" transform="translate(41,9)"/>
<path d="M0 0 C3.3 0.33 6.6 0.66 10 1 C10 1.66 10 2.32 10 3 C17.26 3 24.52 3 32 3 C32 2.01 32 1.02 32 0 C33.65 0 35.3 0 37 0 C37 0.99 37 1.98 37 3 C35.68 3 34.36 3 33 3 C33 3.99 33 4.98 33 6 C21.12 6 9.24 6 -3 6 C-2.01 5.67 -1.02 5.34 0 5 C0 3.35 0 1.7 0 0 Z " fill="#A02C05" transform="translate(6,27)"/>
<path d="M0 0 C5.28 0 10.56 0 16 0 C16 0.99 16 1.98 16 3 C15.34 3.66 14.68 4.32 14 5 C14 5.99 14 6.98 14 8 C12.68 8 11.36 8 10 8 C9.67 7.01 9.34 6.02 9 5 C8.67 5.33 8.34 5.66 8 6 C5.30917128 5.82364548 2.67148554 5.38164079 0 5 C0 3.35 0 1.7 0 0 Z " fill="#FFAC1B" transform="translate(14,6)"/>
<path d="M0 0 C9.24 0 18.48 0 28 0 C28 0.99 28 1.98 28 3 C18.76 3 9.52 3 0 3 C0 2.01 0 1.02 0 0 Z " fill="#BF4400" transform="translate(8,38)"/>
<path d="M0 0 C0.66 0 1.32 0 2 0 C2 0.66 2 1.32 2 2 C2.66 2 3.32 2 4 2 C4 2.66 4 3.32 4 4 C-8.21 4 -20.42 4 -33 4 C-33 3.34 -33 2.68 -33 2 C-22.11 2 -11.22 2 0 2 C0 1.34 0 0.68 0 0 Z " fill="#AC3700" transform="translate(39,42)"/>
<path d="M0 0 C1.98 0 3.96 0 6 0 C6 0.66 6 1.32 6 2 C7.65 2 9.3 2 11 2 C11 1.34 11 0.68 11 0 C12.65 0 14.3 0 16 0 C16 0.66 16 1.32 16 2 C17.98 2 19.96 2 22 2 C22 2.99 22 3.98 22 5 C16.39 5 10.78 5 5 5 C5 4.01 5 3.02 5 2 C3.35 2 1.7 2 0 2 C0 1.34 0 0.68 0 0 Z " fill="#602A03" transform="translate(11,25)"/>
<path d="M0 0 C1.32 0.66 2.64 1.32 4 2 C3.34 2 2.68 2 2 2 C2 2.66 2 3.32 2 4 C-7.9 4 -17.8 4 -28 4 C-28 3.34 -28 2.68 -28 2 C-18.76 2 -9.52 2 0 2 C0 1.34 0 0.68 0 0 Z " fill="#F06B00" transform="translate(39,17)"/>
<path d="M0 0 C7.26 0 14.52 0 22 0 C22 0.99 22 1.98 22 3 C14.74 3 7.48 3 0 3 C0 2.01 0 1.02 0 0 Z " fill="#C35E14" transform="translate(14,3)"/>
<path d="M0 0 C0.99 0 1.98 0 3 0 C3 1.98 3 3.96 3 6 C3.99 6 4.98 6 6 6 C6 9.3 6 12.6 6 16 C5.01 16 4.02 16 3 16 C3 14.35 3 12.7 3 11 C2.01 11 1.02 11 0 11 C0 7.37 0 3.74 0 0 Z " fill="#C95503" transform="translate(0,27)"/>
<path d="M0 0 C0.66 0.33 1.32 0.66 2 1 C1.67 1.66 1.34 2.32 1 3 C1.66 3 2.32 3 3 3 C3 4.65 3 6.3 3 8 C2.505 7.01 2.505 7.01 2 6 C1.34 6 0.68 6 0 6 C0 5.34 0 4.68 0 4 C-0.66 4 -1.32 4 -2 4 C-2 4.66 -2 5.32 -2 6 C-12.89 6 -23.78 6 -35 6 C-35.33 6.66 -35.66 7.32 -36 8 C-36 7.34 -36 6.68 -36 6 C-36.66 5.67 -37.32 5.34 -38 5 C-26.45 5 -14.9 5 -3 5 C-3 4.34 -3 3.68 -3 3 C-2.01 3 -1.02 3 0 3 C0 2.01 0 1.02 0 0 Z " fill="#D2630C" transform="translate(41,38)"/>
<path d="M0 0 C9.9 0 19.8 0 30 0 C30 0.33 30 0.66 30 1 C27.36 1 24.72 1 22 1 C22 1.66 22 2.32 22 3 C20.02 3 18.04 3 16 3 C16 2.34 16 1.68 16 1 C14.35 1 12.7 1 11 1 C11 1.66 11 2.32 11 3 C9.35 3 7.7 3 6 3 C6 2.34 6 1.68 6 1 C4.02 1 2.04 1 0 1 C0 0.67 0 0.34 0 0 Z " fill="#845A00" transform="translate(11,24)"/>
<path d="M0 0 C1.4606285 2.64738916 2 3.89448334 2 7 C0.68 6.67 -0.64 6.34 -2 6 C-2 6.66 -2 7.32 -2 8 C-11.57 8 -21.14 8 -31 8 C-31 7.67 -31 7.34 -31 7 C-24.51291589 6.11629026 -18.46080235 5.99721505 -11.9375 6.4375 C-10.6390918 6.51581055 -10.6390918 6.51581055 -9.31445312 6.59570312 C-7.20920968 6.7236461 -5.10453172 6.86083971 -3 7 C-3 6.34 -3 5.68 -3 5 C-2.01 5 -1.02 5 0 5 C0 3.35 0 1.7 0 0 Z " fill="#FD8E00" transform="translate(41,11)"/>
<path d="M0 0 C0.66 0 1.32 0 2 0 C2 0.99 2 1.98 2 3 C2.99 3 3.98 3 5 3 C5 4.65 5 6.3 5 8 C3.35 8 1.7 8 0 8 C0 7.34 0 6.68 0 6 C-0.99 6 -1.98 6 -3 6 C-3 5.01 -3 4.02 -3 3 C-2.01 3 -1.02 3 0 3 C0 2.01 0 1.02 0 0 Z " fill="#585301" transform="translate(44,19)"/>
<path d="M0 0 C0.99 0 1.98 0 3 0 C3 1.65 3 3.3 3 5 C2.01 5 1.02 5 0 5 C0 6.65 0 8.3 0 10 C-0.66 10 -1.32 10 -2 10 C-2 9.34 -2 8.68 -2 8 C-2.66 8 -3.32 8 -4 8 C-3.34 6.35 -2.68 4.7 -2 3 C-1.34 3 -0.68 3 0 3 C0 2.01 0 1.02 0 0 Z " fill="#AC3C02" transform="translate(46,33)"/>
<path d="M0 0 C4.62 0 9.24 0 14 0 C14 0.66 14 1.32 14 2 C12.68 2 11.36 2 10 2 C10 2.66 10 3.32 10 4 C9.34 4 8.68 4 8 4 C8 3.34 8 2.68 8 2 C5.36 2 2.72 2 0 2 C0 1.34 0 0.68 0 0 Z " fill="#FEA600" transform="translate(30,36)"/>
<path d="M0 0 C3.3 0.33 6.6 0.66 10 1 C10 1.66 10 2.32 10 3 C7.36 3 4.72 3 2 3 C2.33 3.99 2.66 4.98 3 6 C1.02 6 -0.96 6 -3 6 C-2.01 5.67 -1.02 5.34 0 5 C0 3.35 0 1.7 0 0 Z " fill="#832306" transform="translate(6,27)"/>
<path d="M0 0 C0.66 0 1.32 0 2 0 C2 0.66 2 1.32 2 2 C2.99 2 3.98 2 5 2 C5 4.64 5 7.28 5 10 C4.01 10 3.02 10 2 10 C1.34 6.7 0.68 3.4 0 0 Z " fill="#C74F03" transform="translate(41,9)"/>
<path d="M0 0 C1.98 0 3.96 0 6 0 C6 0.66 6 1.32 6 2 C7.65 2 9.3 2 11 2 C11 2.99 11 3.98 11 5 C9.02 5 7.04 5 5 5 C5 4.01 5 3.02 5 2 C3.35 2 1.7 2 0 2 C0 1.34 0 0.68 0 0 Z " fill="#433400" transform="translate(11,25)"/>
<path d="M0 0 C1.32 0 2.64 0 4 0 C4 1.98 4 3.96 4 6 C2.68 6 1.36 6 0 6 C0 4.02 0 2.04 0 0 Z " fill="#F4EAE0" transform="translate(46,27)"/>
<path d="M0 0 C0.99 0 1.98 0 3 0 C3 2.64 3 5.28 3 8 C2.01 8 1.02 8 0 8 C0 5.36 0 2.72 0 0 Z " fill="#B64805" transform="translate(3,11)"/>
<path d="M0 0 C0.99 0 1.98 0 3 0 C3 1.65 3 3.3 3 5 C1.35 5 -0.3 5 -2 5 C-2 4.34 -2 3.68 -2 3 C-1.34 3 -0.68 3 0 3 C0 2.01 0 1.02 0 0 Z " fill="#3C3703" transform="translate(46,22)"/>
<path d="M0 0 C1.98 0 3.96 0 6 0 C6 0.99 6 1.98 6 3 C4.02 3 2.04 3 0 3 C0 2.01 0 1.02 0 0 Z " fill="#4B3000" transform="translate(27,27)"/>
<path d="M0 0 C0.99 0 1.98 0 3 0 C3 1.98 3 3.96 3 6 C2.01 6 1.02 6 0 6 C0 4.02 0 2.04 0 0 Z " fill="#F8EDE4" transform="translate(0,27)"/>
<path d="M0 0 C0.99 0 1.98 0 3 0 C3 1.98 3 3.96 3 6 C2.01 6 1.02 6 0 6 C0 4.02 0 2.04 0 0 Z " fill="#5B5300" transform="translate(3,19)"/>
</svg>
