<?xml version="1.0" encoding="UTF-8"?>
<svg version="1.1" xmlns="http://www.w3.org/2000/svg" width="50" height="50">
<path d="M0 0 C0.495 1.485 0.495 1.485 1 3 C1.721875 3.061875 2.44375 3.12375 3.1875 3.1875 C8.68049893 4.77436636 11.30064368 9.24399125 14 14 C14.66 14.66 15.32 15.32 16 16 C18.48570935 20.55713381 18.19765176 24.95988006 18 30 C17.34 30 16.68 30 16 30 C15.896875 30.763125 15.79375 31.52625 15.6875 32.3125 C14.91587429 35.32885503 14.52596454 36.23182482 12 38 C7.19715319 39.75488633 3.08882356 40.19572398 -2 40 C-4.49363897 40 -6.93434268 40.10357351 -9.421875 40.24609375 C-11.19786819 40.31123122 -12.97391275 40.37497969 -14.75 40.4375 C-15.63171875 40.49615234 -16.5134375 40.55480469 -17.421875 40.61523438 C-22.4442493 40.74602537 -25.34894781 40.30647684 -29.10546875 36.81640625 C-31.74443143 33.74306082 -32.86172303 31.65248291 -32.5625 27.5 C-32.50191406 26.56542969 -32.44132812 25.63085938 -32.37890625 24.66796875 C-31.89619363 21.26907476 -31.14983992 18.23392479 -30 15 C-29.34 15 -28.68 15 -28 15 C-28 14.34 -28 13.68 -28 13 C-27.34 13 -26.68 13 -26 13 C-25.8453125 11.89591797 -25.8453125 11.89591797 -25.6875 10.76953125 C-24.67733924 6.70019046 -22.83927598 4.50980532 -19.875 1.60546875 C-13.88758117 -1.7380491 -6.63506239 -0.54286874 0 0 Z " fill="#EE7500" transform="translate(32,6)"/>
<path d="M0 0 C0.495 1.485 0.495 1.485 1 3 C1.721875 3.061875 2.44375 3.12375 3.1875 3.1875 C8.68049893 4.77436636 11.30064368 9.24399125 14 14 C14.66 14.66 15.32 15.32 16 16 C18.48570935 20.55713381 18.19765176 24.95988006 18 30 C17.34 30 16.68 30 16 30 C15.896875 30.763125 15.79375 31.52625 15.6875 32.3125 C14.91587429 35.32885503 14.52596454 36.23182482 12 38 C7.19715319 39.75488633 3.08882356 40.19572398 -2 40 C-4.49363897 40 -6.93434268 40.10357351 -9.421875 40.24609375 C-11.19786819 40.31123122 -12.97391275 40.37497969 -14.75 40.4375 C-15.63171875 40.49615234 -16.5134375 40.55480469 -17.421875 40.61523438 C-22.4442493 40.74602537 -25.34894781 40.30647684 -29.10546875 36.81640625 C-31.74443143 33.74306082 -32.86172303 31.65248291 -32.5625 27.5 C-32.50191406 26.56542969 -32.44132812 25.63085938 -32.37890625 24.66796875 C-31.89619363 21.26907476 -31.14983992 18.23392479 -30 15 C-29.34 15 -28.68 15 -28 15 C-28 14.34 -28 13.68 -28 13 C-27.34 13 -26.68 13 -26 13 C-25.8453125 11.89591797 -25.8453125 11.89591797 -25.6875 10.76953125 C-24.67733924 6.70019046 -22.83927598 4.50980532 -19.875 1.60546875 C-13.88758117 -1.7380491 -6.63506239 -0.54286874 0 0 Z M-16 3 C-16 3.66 -16 4.32 -16 5 C-16.99 5 -17.98 5 -19 5 C-19 5.99 -19 6.98 -19 8 C-19.66 8 -20.32 8 -21 8 C-21 8.66 -21 9.32 -21 10 C-21.99 10 -22.98 10 -24 10 C-24 11.65 -24 13.3 -24 15 C-24.66 15 -25.32 15 -26 15 C-26 15.99 -26 16.98 -26 18 C-26.99 18 -27.98 18 -29 18 C-29 20.31 -29 22.62 -29 25 C-29.66 25 -30.32 25 -31 25 C-31 26.65 -31 28.3 -31 30 C-30.34 30 -29.68 30 -29 30 C-29 30.99 -29 31.98 -29 33 C-28.01 33 -27.02 33 -26 33 C-26 33.66 -26 34.32 -26 35 C-25.34 35 -24.68 35 -24 35 C-24 35.99 -24 36.98 -24 38 C-18.06 38 -12.12 38 -6 38 C-6 37.01 -6 36.02 -6 35 C-4.35 35 -2.7 35 -1 35 C-1 35.99 -1 36.98 -1 38 C0.65 38 2.3 38 4 38 C4 37.01 4 36.02 4 35 C6.31 35 8.62 35 11 35 C11 34.34 11 33.68 11 33 C11.99 33 12.98 33 14 33 C14 31.02 14 29.04 14 27 C14.66 27 15.32 27 16 27 C16 25.68 16 24.36 16 23 C15.34 23 14.68 23 14 23 C14 21.35 14 19.7 14 18 C13.01 18 12.02 18 11 18 C11 17.01 11 16.02 11 15 C10.34 15 9.68 15 9 15 C9 13.35 9 11.7 9 10 C8.34 10 7.68 10 7 10 C7 9.34 7 8.68 7 8 C6.01 8 5.02 8 4 8 C4 7.01 4 6.02 4 5 C2.35 5 0.7 5 -1 5 C-1 4.34 -1 3.68 -1 3 C-5.95 3 -10.9 3 -16 3 Z " fill="#FEF7F0" transform="translate(32,6)"/>
<path d="M0 0 C0.99 0 1.98 0 3 0 C3 1.32 3 2.64 3 4 C3.66 4 4.32 4 5 4 C5 4.99 5 5.98 5 7 C5.99 7 6.98 7 8 7 C8 8.65 8 10.3 8 12 C8.66 12 9.32 12 10 12 C10 13.32 10 14.64 10 16 C9.34 16 8.68 16 8 16 C8 17.98 8 19.96 8 22 C7.01 22 6.02 22 5 22 C5 22.66 5 23.32 5 24 C2.69 24 0.38 24 -2 24 C-2 24.99 -2 25.98 -2 27 C-3.65 27 -5.3 27 -7 27 C-7 26.01 -7 25.02 -7 24 C-8.65 24 -10.3 24 -12 24 C-12 24.99 -12 25.98 -12 27 C-17.94 27 -23.88 27 -30 27 C-30 26.01 -30 25.02 -30 24 C-29.01 24 -28.02 24 -27 24 C-27 23.34 -27 22.68 -27 22 C-20.565 21.505 -20.565 21.505 -14 21 C-14 20.34 -14 19.68 -14 19 C-12.68 19 -11.36 19 -10 19 C-10 18.34 -10 17.68 -10 17 C-10.99 17 -11.98 17 -13 17 C-13 16.01 -13 15.02 -13 14 C-12.01 14 -11.02 14 -10 14 C-10 14.66 -10 15.32 -10 16 C-9.01 16 -8.02 16 -7 16 C-7 15.34 -7 14.68 -7 14 C-6.34 14 -5.68 14 -5 14 C-5 14.66 -5 15.32 -5 16 C-3.35 16 -1.7 16 0 16 C0 15.34 0 14.68 0 14 C0.99 14 1.98 14 3 14 C3 12.35 3 10.7 3 9 C1.35 9 -0.3 9 -2 9 C-2 7.35 -2 5.7 -2 4 C-1.34 4 -0.68 4 0 4 C0 2.68 0 1.36 0 0 Z " fill="#F67E00" transform="translate(38,17)"/>
<path d="M0 0 C0.99 0 1.98 0 3 0 C3 0.99 3 1.98 3 3 C7.95 3 12.9 3 18 3 C18 3.66 18 4.32 18 5 C13.71 5 9.42 5 5 5 C5 5.99 5 6.98 5 8 C4.34 8 3.68 8 3 8 C3 9.65 3 11.3 3 13 C0.36 13 -2.28 13 -5 13 C-5 16.96 -5 20.92 -5 25 C-4.01 25 -3.02 25 -2 25 C-2 25.66 -2 26.32 -2 27 C-1.34 27.33 -0.68 27.66 0 28 C-0.66 28 -1.32 28 -2 28 C-2 28.66 -2 29.32 -2 30 C-3.65 30 -5.3 30 -7 30 C-7 29.34 -7 28.68 -7 28 C-7.99 28 -8.98 28 -10 28 C-10 27.01 -10 26.02 -10 25 C-10.66 25 -11.32 25 -12 25 C-12 23.35 -12 21.7 -12 20 C-11.34 20 -10.68 20 -10 20 C-10 17.69 -10 15.38 -10 13 C-9.01 13 -8.02 13 -7 13 C-7 12.01 -7 11.02 -7 10 C-6.34 10 -5.68 10 -5 10 C-5 8.35 -5 6.7 -5 5 C-4.01 5 -3.02 5 -2 5 C-2 4.34 -2 3.68 -2 3 C-1.34 3 -0.68 3 0 3 C0 2.01 0 1.02 0 0 Z " fill="#EB750B" transform="translate(13,11)"/>
<path d="M0 0 C4.95 0 9.9 0 15 0 C15 0.66 15 1.32 15 2 C16.65 2 18.3 2 20 2 C20 2.99 20 3.98 20 5 C20.99 5 21.98 5 23 5 C23 5.66 23 6.32 23 7 C23.66 7.33 24.32 7.66 25 8 C24.01 8 23.02 8 22 8 C22 9.32 22 10.64 22 12 C21.34 12 20.68 12 20 12 C20 10.68 20 9.36 20 8 C18.35 8 16.7 8 15 8 C15 8.66 15 9.32 15 10 C11.7 10 8.4 10 5 10 C5 10.66 5 11.32 5 12 C3.35 12 1.7 12 0 12 C0 11.34 0 10.68 0 10 C0.66 10 1.32 10 2 10 C2 9.01 2 8.02 2 7 C6.29 7 10.58 7 15 7 C15 6.34 15 5.68 15 5 C10.05 5 5.1 5 0 5 C0 3.35 0 1.7 0 0 Z " fill="#EF880F" transform="translate(16,9)"/>
<path d="M0 0 C2.31 0 4.62 0 7 0 C7 0.66 7 1.32 7 2 C5.35 2 3.7 2 2 2 C2 2.66 2 3.32 2 4 C1.34 4 0.68 4 0 4 C0 4.99 0 5.98 0 7 C-1.65 7 -3.3 7 -5 7 C-5 7.99 -5 8.98 -5 10 C-10.94 10 -16.88 10 -23 10 C-23 9.01 -23 8.02 -23 7 C-22.01 7 -21.02 7 -20 7 C-20 6.34 -20 5.68 -20 5 C-14.39 5 -8.78 5 -3 5 C-3 4.34 -3 3.68 -3 3 C-2.01 3 -1.02 3 0 3 C0 2.01 0 1.02 0 0 Z " fill="#D95E14" transform="translate(31,34)"/>
<path d="M0 0 C0.99 0 1.98 0 3 0 C3 2.31 3 4.62 3 7 C3.66 7 4.32 7 5 7 C5 8.65 5 10.3 5 12 C5.99 12 6.98 12 8 12 C8 12.66 8 13.32 8 14 C8.66 14.33 9.32 14.66 10 15 C9.34 15 8.68 15 8 15 C8 15.66 8 16.32 8 17 C6.35 17 4.7 17 3 17 C3 16.34 3 15.68 3 15 C2.01 15 1.02 15 0 15 C0 14.01 0 13.02 0 12 C-0.66 12 -1.32 12 -2 12 C-2 10.35 -2 8.7 -2 7 C-1.34 7 -0.68 7 0 7 C0 4.69 0 2.38 0 0 Z " fill="#EF7B05" transform="translate(3,24)"/>
<path d="M0 0 C0.99 0 1.98 0 3 0 C3 1.65 3 3.3 3 5 C4.65 5 6.3 5 8 5 C8 6.65 8 8.3 8 10 C7.01 10 6.02 10 5 10 C5 10.66 5 11.32 5 12 C3.35 12 1.7 12 0 12 C0 10.68 0 9.36 0 8 C-1.65 8 -3.3 8 -5 8 C-5 7.01 -5 6.02 -5 5 C-4.01 5 -3.02 5 -2 5 C-2 4.34 -2 3.68 -2 3 C-1.34 3 -0.68 3 0 3 C0 2.01 0 1.02 0 0 Z " fill="#FE9D00" transform="translate(33,21)"/>
<path d="M0 0 C0.99 0 1.98 0 3 0 C3 1.32 3 2.64 3 4 C3.66 4 4.32 4 5 4 C5 4.99 5 5.98 5 7 C5.99 7 6.98 7 8 7 C8 8.65 8 10.3 8 12 C7.01 12 6.02 12 5 12 C5 12.66 5 13.32 5 14 C4.34 14 3.68 14 3 14 C3 12.35 3 10.7 3 9 C1.35 9 -0.3 9 -2 9 C-2 7.35 -2 5.7 -2 4 C-1.34 4 -0.68 4 0 4 C0 2.68 0 1.36 0 0 Z " fill="#E76701" transform="translate(38,17)"/>
<path d="M0 0 C0.99 0 1.98 0 3 0 C3 0.99 3 1.98 3 3 C3.66 3 4.32 3 5 3 C5 3.66 5 4.32 5 5 C8.63 5 12.26 5 16 5 C16 5.66 16 6.32 16 7 C12.10835652 8.29721449 9.10570774 8.13033993 5 8 C4.34 7.67 3.68 7.34 3 7 C3 6.34 3 5.68 3 5 C2.01 5 1.02 5 0 5 C0 3.35 0 1.7 0 0 Z " fill="#FD8D00" transform="translate(8,31)"/>
<path d="M0 0 C1.65 0 3.3 0 5 0 C5 1.65 5 3.3 5 5 C7.31 5 9.62 5 12 5 C12 5.99 12 6.98 12 8 C5.375 8.125 5.375 8.125 2 7 C2 6.34 2 5.68 2 5 C1.34 5 0.68 5 0 5 C0 3.35 0 1.7 0 0 Z " fill="#FE9500" transform="translate(11,26)"/>
<path d="M0 0 C4.29 0 8.58 0 13 0 C13 0.99 13 1.98 13 3 C9.7 3 6.4 3 3 3 C3 3.66 3 4.32 3 5 C1.35 5 -0.3 5 -2 5 C-2 4.34 -2 3.68 -2 3 C-1.34 3 -0.68 3 0 3 C0 2.01 0 1.02 0 0 Z " fill="#FEAB0C" transform="translate(18,16)"/>
<path d="M0 0 C0.66 0 1.32 0 2 0 C2 0.66 2 1.32 2 2 C5.3 2.33 8.6 2.66 12 3 C12 2.01 12 1.02 12 0 C12.66 0 13.32 0 14 0 C14 0.99 14 1.98 14 3 C14.99 3 15.98 3 17 3 C17 3.66 17 4.32 17 5 C12.05 5 7.1 5 2 5 C2 4.34 2 3.68 2 3 C1.34 3 0.68 3 0 3 C0 2.01 0 1.02 0 0 Z " fill="#E05700" transform="translate(11,31)"/>
<path d="M0 0 C0.66 0 1.32 0 2 0 C2 1.32 2 2.64 2 4 C1.34 4 0.68 4 0 4 C0 5.98 0 7.96 0 10 C-0.99 10 -1.98 10 -3 10 C-3 10.66 -3 11.32 -3 12 C-5.31 12 -7.62 12 -10 12 C-10 11.34 -10 10.68 -10 10 C-8.35 10 -6.7 10 -5 10 C-5 9.01 -5 8.02 -5 7 C-4.01 7 -3.02 7 -2 7 C-2 5.68 -2 4.36 -2 3 C-1.34 3 -0.68 3 0 3 C0 2.01 0 1.02 0 0 Z " fill="#D75207" transform="translate(46,29)"/>
<path d="M0 0 C0.99 0 1.98 0 3 0 C3 2.31 3 4.62 3 7 C3.66 7 4.32 7 5 7 C5 8.65 5 10.3 5 12 C4.34 12 3.68 12 3 12 C3 10.68 3 9.36 3 8 C2.01 8 1.02 8 0 8 C0 9.32 0 10.64 0 12 C-0.66 12 -1.32 12 -2 12 C-2 10.35 -2 8.7 -2 7 C-1.34 7 -0.68 7 0 7 C0 4.69 0 2.38 0 0 Z " fill="#DF5B05" transform="translate(3,24)"/>
<path d="M0 0 C3.3 0 6.6 0 10 0 C10 0.99 10 1.98 10 3 C7.36 3 4.72 3 2 3 C2 5.31 2 7.62 2 10 C1.34 10 0.68 10 0 10 C0 6.7 0 3.4 0 0 Z " fill="#FB9D0D" transform="translate(6,21)"/>
<path d="M0 0 C1.65 0 3.3 0 5 0 C5 1.65 5 3.3 5 5 C4.01 5 3.02 5 2 5 C2 5.66 2 6.32 2 7 C0.35 7 -1.3 7 -3 7 C-3 5.68 -3 4.36 -3 3 C-2.01 3 -1.02 3 0 3 C0 2.01 0 1.02 0 0 Z " fill="#FE9D00" transform="translate(36,26)"/>
<path d="M0 0 C1.65 0.33 3.3 0.66 5 1 C4.01 1.495 4.01 1.495 3 2 C3 3.98 3 5.96 3 8 C1.35 8 -0.3 8 -2 8 C-2 6.02 -2 4.04 -2 2 C-1.34 2 -0.68 2 0 2 C0 1.34 0 0.68 0 0 Z " fill="#E8730C" transform="translate(33,36)"/>
<path d="M0 0 C1.65 0 3.3 0 5 0 C5 0.66 5 1.32 5 2 C4.01 2 3.02 2 2 2 C2 2.99 2 3.98 2 5 C3.65 5 5.3 5 7 5 C7 5.66 7 6.32 7 7 C6.34 7 5.68 7 5 7 C5 7.66 5 8.32 5 9 C4.01 9 3.02 9 2 9 C2 8.34 2 7.68 2 7 C1.34 7 0.68 7 0 7 C0 4.69 0 2.38 0 0 Z " fill="#DD5000" transform="translate(26,24)"/>
<path d="M0 0 C2.64 0 5.28 0 8 0 C8 0.66 8 1.32 8 2 C6.35 2 4.7 2 3 2 C3 3.65 3 5.3 3 7 C2.01 7 1.02 7 0 7 C0 4.69 0 2.38 0 0 Z " fill="#E86000" transform="translate(8,24)"/>
<path d="M0 0 C0.66 0 1.32 0 2 0 C2 2.31 2 4.62 2 7 C-0.31 7 -2.62 7 -5 7 C-5 5.35 -5 3.7 -5 2 C-4.34 2 -3.68 2 -3 2 C-3 2.99 -3 3.98 -3 5 C-2.01 5 -1.02 5 0 5 C0 3.35 0 1.7 0 0 Z " fill="#E15700" transform="translate(21,24)"/>
<path d="M0 0 C0.99 0 1.98 0 3 0 C3 0.99 3 1.98 3 3 C2.34 3 1.68 3 1 3 C1 4.32 1 5.64 1 7 C-0.65 7 -2.3 7 -4 7 C-4 6.34 -4 5.68 -4 5 C-3.34 5 -2.68 5 -2 5 C-2 4.01 -2 3.02 -2 2 C-1.34 2 -0.68 2 0 2 C0 1.34 0 0.68 0 0 Z " fill="#F99100" transform="translate(43,29)"/>
<path d="M0 0 C2.31 0 4.62 0 7 0 C7 0.66 7 1.32 7 2 C5.35 2 3.7 2 2 2 C2 2.66 2 3.32 2 4 C1.34 4 0.68 4 0 4 C-0.33 4.99 -0.66 5.98 -1 7 C-1 6.34 -1 5.68 -1 5 C-1.66 5 -2.32 5 -3 5 C-3 4.34 -3 3.68 -3 3 C-2.01 3 -1.02 3 0 3 C0 2.01 0 1.02 0 0 Z " fill="#DA4F00" transform="translate(31,34)"/>
<path d="M0 0 C0.66 0 1.32 0 2 0 C2 0.66 2 1.32 2 2 C2.99 2 3.98 2 5 2 C5 1.34 5 0.68 5 0 C6.32 0 7.64 0 9 0 C9 0.66 9 1.32 9 2 C8.34 2 7.68 2 7 2 C7 2.66 7 3.32 7 4 C4.69 4 2.38 4 0 4 C0 2.68 0 1.36 0 0 Z " fill="#E15800" transform="translate(9,17)"/>
<path d="M0 0 C0.99 0 1.98 0 3 0 C3 1.65 3 3.3 3 5 C2.01 5 1.02 5 0 5 C0 5.66 0 6.32 0 7 C-0.66 7 -1.32 7 -2 7 C-2 5.35 -2 3.7 -2 2 C-1.34 2 -0.68 2 0 2 C0 1.34 0 0.68 0 0 Z " fill="#E25A00" transform="translate(43,24)"/>
<path d="M0 0 C3.3 0 6.6 0 10 0 C10 0.66 10 1.32 10 2 C8.02 2 6.04 2 4 2 C4 2.66 4 3.32 4 4 C3.34 4 2.68 4 2 4 C2 3.34 2 2.68 2 2 C1.34 2 0.68 2 0 2 C0 1.34 0 0.68 0 0 Z " fill="#E05400" transform="translate(21,19)"/>
<path d="M0 0 C0.99 0.33 1.98 0.66 3 1 C2.67 2.32 2.34 3.64 2 5 C-0.31 5 -2.62 5 -5 5 C-5 4.34 -5 3.68 -5 3 C-3.35 3 -1.7 3 0 3 C0 2.01 0 1.02 0 0 Z " fill="#CC4500" transform="translate(41,36)"/>
<path d="M0 0 C0.99 0 1.98 0 3 0 C3 2.31 3 4.62 3 7 C2.01 7 1.02 7 0 7 C0 4.69 0 2.38 0 0 Z " fill="#FD9700" transform="translate(23,24)"/>
<path d="M0 0 C0.99 0 1.98 0 3 0 C3 0.66 3 1.32 3 2 C3.66 2 4.32 2 5 2 C5 1.34 5 0.68 5 0 C5.99 0 6.98 0 8 0 C8 0.99 8 1.98 8 3 C5.36 3 2.72 3 0 3 C0 2.01 0 1.02 0 0 Z " fill="#F37600" transform="translate(28,26)"/>
<path d="M0 0 C0.99 0 1.98 0 3 0 C3 0.99 3 1.98 3 3 C3.66 3 4.32 3 5 3 C5 3.66 5 4.32 5 5 C3.35 5 1.7 5 0 5 C0 3.35 0 1.7 0 0 Z " fill="#FF9C00" transform="translate(8,31)"/>
<path d="M0 0 C1.65 0 3.3 0 5 0 C5 1.65 5 3.3 5 5 C4.01 5 3.02 5 2 5 C2 4.01 2 3.02 2 2 C1.34 2 0.68 2 0 2 C0 1.34 0 0.68 0 0 Z " fill="#FD9300" transform="translate(16,24)"/>
<path d="M0 0 C2.31 0 4.62 0 7 0 C6.01 0.33 5.02 0.66 4 1 C4 1.66 4 2.32 4 3 C1.69 3 -0.62 3 -3 3 C-2.01 2.67 -1.02 2.34 0 2 C0 1.34 0 0.68 0 0 Z " fill="#F26E00" transform="translate(24,36)"/>
</svg>
