<?xml version="1.0" encoding="UTF-8"?>
<svg version="1.1" xmlns="http://www.w3.org/2000/svg" width="50" height="50">
<path d="M0 0 C0.86238281 0.0103125 1.72476562 0.020625 2.61328125 0.03125 C8.9396569 0.1896569 8.9396569 0.1896569 11.25 2.5 C13.75055504 3.55941183 16.28799689 4.47405778 18.83984375 5.40234375 C21.32507221 6.5341901 22.52440812 7.41550444 24.25 9.5 C25.35372728 16.58932524 26.04608195 24.26467357 22.48046875 30.6875 C19.65743966 33.6884713 17.16346667 36.03203261 13.09375 37.02734375 C11.1875 37.0625 11.1875 37.0625 8.25 36.5 C8.25 37.16 8.25 37.82 8.25 38.5 C-4.18805152 39.0746533 -13.4147652 39.45460871 -23.46875 31.29296875 C-26.40976103 27.69224462 -26.42102445 25.6024445 -26.375 21 C-26.38789063 19.7109375 -26.40078125 18.421875 -26.4140625 17.09375 C-25.60303778 12.70467503 -24.1896399 11.25068363 -20.75 8.5 C-19.945625 8.190625 -19.14125 7.88125 -18.3125 7.5625 C-15.43706942 6.60085609 -15.43706942 6.60085609 -13.19921875 3.46484375 C-9.25137262 -0.57986718 -5.38637573 -0.26235011 0 0 Z " fill="#F9DA99" transform="translate(25.75,5.5)"/>
<path d="M0 0 C0.86238281 0.0103125 1.72476562 0.020625 2.61328125 0.03125 C8.9396569 0.1896569 8.9396569 0.1896569 11.25 2.5 C13.75055504 3.55941183 16.28799689 4.47405778 18.83984375 5.40234375 C21.29077676 6.51857094 22.66605753 7.33057385 24.25 9.5 C24.25 10.82 24.25 12.14 24.25 13.5 C23.59 13.5 22.93 13.5 22.25 13.5 C22.25 12.51 22.25 11.52 22.25 10.5 C21.26 10.5 20.27 10.5 19.25 10.5 C19.25 9.84 19.25 9.18 19.25 8.5 C17.6 8.5 15.95 8.5 14.25 8.5 C14.25 7.51 14.25 6.52 14.25 5.5 C12.6 5.5 10.95 5.5 9.25 5.5 C9.25 4.84 9.25 4.18 9.25 3.5 C2.98 3.5 -3.29 3.5 -9.75 3.5 C-9.75 4.16 -9.75 4.82 -9.75 5.5 C-10.41 5.5 -11.07 5.5 -11.75 5.5 C-11.75 6.49 -11.75 7.48 -11.75 8.5 C-12.74 8.5 -13.73 8.5 -14.75 8.5 C-14.75 9.16 -14.75 9.82 -14.75 10.5 C-16.4 10.5 -18.05 10.5 -19.75 10.5 C-19.75 11.49 -19.75 12.48 -19.75 13.5 C-20.41 13.5 -21.07 13.5 -21.75 13.5 C-21.75 14.49 -21.75 15.48 -21.75 16.5 C-22.74 16.5 -23.73 16.5 -24.75 16.5 C-24.75 19.8 -24.75 23.1 -24.75 26.5 C-23.76 26.5 -22.77 26.5 -21.75 26.5 C-21.75 27.16 -21.75 27.82 -21.75 28.5 C-21.09 28.5 -20.43 28.5 -19.75 28.5 C-19.75 29.49 -19.75 30.48 -19.75 31.5 C-18.1 31.5 -16.45 31.5 -14.75 31.5 C-14.75 32.16 -14.75 32.82 -14.75 33.5 C-12.77 33.5 -10.79 33.5 -8.75 33.5 C-8.75 34.49 -8.75 35.48 -8.75 36.5 C-3.8 36.5 1.15 36.5 6.25 36.5 C6.25 35.51 6.25 34.52 6.25 33.5 C8.89 33.5 11.53 33.5 14.25 33.5 C14.25 32.84 14.25 32.18 14.25 31.5 C15.24 31.5 16.23 31.5 17.25 31.5 C17.25 30.51 17.25 29.52 17.25 28.5 C17.91 28.5 18.57 28.5 19.25 28.5 C19.25 27.84 19.25 27.18 19.25 26.5 C19.91 26.5 20.57 26.5 21.25 26.5 C21.25 25.51 21.25 24.52 21.25 23.5 C22.24 23.5 23.23 23.5 24.25 23.5 C23.59417854 28.84962936 21.24383549 31.25502831 17.4609375 34.89453125 C15.14767137 36.57430577 14.063767 37.01722714 11.25 37 C10.26 36.835 9.27 36.67 8.25 36.5 C8.25 37.16 8.25 37.82 8.25 38.5 C-4.18805152 39.0746533 -13.4147652 39.45460871 -23.46875 31.29296875 C-26.40976103 27.69224462 -26.42102445 25.6024445 -26.375 21 C-26.38789063 19.7109375 -26.40078125 18.421875 -26.4140625 17.09375 C-25.60303778 12.70467503 -24.1896399 11.25068363 -20.75 8.5 C-19.945625 8.190625 -19.14125 7.88125 -18.3125 7.5625 C-15.43706942 6.60085609 -15.43706942 6.60085609 -13.19921875 3.46484375 C-9.25137262 -0.57986718 -5.38637573 -0.26235011 0 0 Z " fill="#FCF8F3" transform="translate(25.75,5.5)"/>
<path d="M0 0 C2.64 0 5.28 0 8 0 C8 0.66 8 1.32 8 2 C8.66 2 9.32 2 10 2 C10 2.99 10 3.98 10 5 C10.99 5 11.98 5 13 5 C13 6.65 13 8.3 13 10 C12.01 10 11.02 10 10 10 C10 10.99 10 11.98 10 13 C9.34 13 8.68 13 8 13 C8 13.66 8 14.32 8 15 C5.36 15 2.72 15 0 15 C0 14.34 0 13.68 0 13 C-0.99 13 -1.98 13 -3 13 C-3 12.01 -3 11.02 -3 10 C-3.66 10 -4.32 10 -5 10 C-5 8.35 -5 6.7 -5 5 C-4.34 5 -3.68 5 -3 5 C-3 4.01 -3 3.02 -3 2 C-2.01 2 -1.02 2 0 2 C0 1.34 0 0.68 0 0 Z " fill="#FCAA0B" transform="translate(22,14)"/>
<path d="M0 0 C0.99 0 1.98 0 3 0 C3 2.97 3 5.94 3 9 C5.31 9.33 7.62 9.66 10 10 C10 10.66 10 11.32 10 12 C11.98 12 13.96 12 16 12 C16 13.65 16 15.3 16 17 C14.02 17 12.04 17 10 17 C10 16.34 10 15.68 10 15 C8.35 15 6.7 15 5 15 C5 14.01 5 13.02 5 12 C4.34 12 3.68 12 3 12 C3 11.34 3 10.68 3 10 C2.01 10 1.02 10 0 10 C0 6.7 0 3.4 0 0 Z " fill="#C7823A" transform="translate(1,22)"/>
<path d="M0 0 C1.65 0 3.3 0 5 0 C5 0.99 5 1.98 5 3 C6.65 3 8.3 3 10 3 C10 3.66 10 4.32 10 5 C10.99 5 11.98 5 13 5 C13 5.99 13 6.98 13 8 C13.66 8 14.32 8 15 8 C15 11.3 15 14.6 15 18 C14.01 18 13.02 18 12 18 C12 14.7 12 11.4 12 8 C11.34 8 10.68 8 10 8 C10 7.34 10 6.68 10 6 C8.35 6 6.7 6 5 6 C4.67 5.01 4.34 4.02 4 3 C2.68 3 1.36 3 0 3 C0 2.01 0 1.02 0 0 Z " fill="#C58A4B" transform="translate(35,11)"/>
<path d="M0 0 C0.99 0 1.98 0 3 0 C3 1.65 3 3.3 3 5 C2.01 5 1.02 5 0 5 C0 5.99 0 6.98 0 8 C-0.66 8 -1.32 8 -2 8 C-2 8.66 -2 9.32 -2 10 C-4.64 10 -7.28 10 -10 10 C-10 9.34 -10 8.68 -10 8 C-10.99 8 -11.98 8 -13 8 C-13 7.01 -13 6.02 -13 5 C-12.01 5 -11.02 5 -10 5 C-9.67 5.66 -9.34 6.32 -9 7 C-7.35 7 -5.7 7 -4 7 C-3.34 5.35 -2.68 3.7 -2 2 C-1.34 2 -0.68 2 0 2 C0 1.34 0 0.68 0 0 Z " fill="#F48208" transform="translate(32,19)"/>
<path d="M0 0 C4.95 0 9.9 0 15 0 C15 0.99 15 1.98 15 3 C10.05 3 5.1 3 0 3 C0 2.01 0 1.02 0 0 Z " fill="#B6712E" transform="translate(17,39)"/>
<path d="M0 0 C0.99 0 1.98 0 3 0 C3 0.99 3 1.98 3 3 C2.34 3 1.68 3 1 3 C1 3.66 1 4.32 1 5 C0.34 5 -0.32 5 -1 5 C-1 5.99 -1 6.98 -1 8 C-1.99 8 -2.98 8 -4 8 C-4 8.66 -4 9.32 -4 10 C-6.64 10 -9.28 10 -12 10 C-12 9.34 -12 8.68 -12 8 C-9.69 8 -7.38 8 -5 8 C-5 7.01 -5 6.02 -5 5 C-4.01 5 -3.02 5 -2 5 C-1.34 3.35 -0.68 1.7 0 0 Z " fill="#C2803B" transform="translate(44,29)"/>
<path d="M0 0 C0.99 0 1.98 0 3 0 C3 0.99 3 1.98 3 3 C2.34 3 1.68 3 1 3 C1 3.99 1 4.98 1 6 C-0.65 6 -2.3 6 -4 6 C-4 6.66 -4 7.32 -4 8 C-4.99 8 -5.98 8 -7 8 C-7 7.01 -7 6.02 -7 5 C-6.34 5 -5.68 5 -5 5 C-5 4.01 -5 3.02 -5 2 C-3.35 2 -1.7 2 0 2 C0 1.34 0 0.68 0 0 Z " fill="#CD9255" transform="translate(11,14)"/>
<path d="M0 0 C2.64 0 5.28 0 8 0 C8 0.66 8 1.32 8 2 C8.66 2 9.32 2 10 2 C10 2.99 10 3.98 10 5 C9.34 5 8.68 5 8 5 C8 4.34 8 3.68 8 3 C5.36 3 2.72 3 0 3 C0 3.66 0 4.32 0 5 C-0.99 5 -1.98 5 -3 5 C-3 4.01 -3 3.02 -3 2 C-2.01 2 -1.02 2 0 2 C0 1.34 0 0.68 0 0 Z " fill="#FD8F04" transform="translate(22,14)"/>
<path d="M0 0 C0.99 0 1.98 0 3 0 C3 3.3 3 6.6 3 10 C2.01 10 1.02 10 0 10 C0 6.7 0 3.4 0 0 Z " fill="#B46E2B" transform="translate(47,19)"/>
<path d="M0 0 C0.99 0 1.98 0 3 0 C3.33 0.66 3.66 1.32 4 2 C6.32156597 2.40729228 8.6568787 2.74438677 11 3 C11 3.66 11 4.32 11 5 C8.36 5 5.72 5 3 5 C3 4.34 3 3.68 3 3 C2.01 3 1.02 3 0 3 C0 2.01 0 1.02 0 0 Z " fill="#EF7A03" transform="translate(19,24)"/>
<path d="M0 0 C2.31 0 4.62 0 7 0 C7 0.99 7 1.98 7 3 C4.69 3 2.38 3 0 3 C0 2.01 0 1.02 0 0 Z " fill="#F8B75D" transform="translate(32,34)"/>
<path d="M0 0 C1.98 0 3.96 0 6 0 C5.67 1.32 5.34 2.64 5 4 C3.35 4 1.7 4 0 4 C0 2.68 0 1.36 0 0 Z " fill="#FFEFBA" transform="translate(22,30)"/>
<path d="M0 0 C2.31 0 4.62 0 7 0 C6.67 0.99 6.34 1.98 6 3 C4.35 3 2.7 3 1 3 C0.67 2.01 0.34 1.02 0 0 Z " fill="#FF9700" transform="translate(22,24)"/>
<path d="M0 0 C0.99 0 1.98 0 3 0 C3 0.66 3 1.32 3 2 C5.64 2 8.28 2 11 2 C11 2.33 11 2.66 11 3 C7.37 3 3.74 3 0 3 C0 2.01 0 1.02 0 0 Z " fill="#FDBD6C" transform="translate(19,27)"/>
<path d="M0 0 C0.33 0.66 0.66 1.32 1 2 C2.98 2 4.96 2 7 2 C7 2.33 7 2.66 7 3 C5.02 3 3.04 3 1 3 C1 3.66 1 4.32 1 5 C0.01 5 -0.98 5 -2 5 C-2 4.01 -2 3.02 -2 2 C-1.34 2 -0.68 2 0 2 C0 1.34 0 0.68 0 0 Z " fill="#D7A46D" transform="translate(16,9)"/>
</svg>
