<?xml version="1.0" encoding="UTF-8"?>
<svg version="1.1" xmlns="http://www.w3.org/2000/svg" width="50" height="50">
<path d="M0 0 C1.09248047 0.01160156 1.09248047 0.01160156 2.20703125 0.0234375 C2.92761719 0.01570312 3.64820313 0.00796875 4.390625 0 C8.23003473 0.01414147 11.14758123 0.06164376 14.33203125 2.2734375 C15.39035156 2.923125 16.44867188 3.5728125 17.5390625 4.2421875 C20.34711772 6.6564247 20.81175649 8.52537931 21.09375 12.1796875 C21.10036254 14.04442323 21.07465443 15.90950497 21.01953125 17.7734375 C21.03435547 18.71058594 21.04917969 19.64773437 21.06445312 20.61328125 C21.00833396 25.26787054 20.91857852 27.53905344 17.9453125 31.26171875 C16.65173828 32.25751953 16.65173828 32.25751953 15.33203125 33.2734375 C14.50703125 34.1603125 13.68203125 35.0471875 12.83203125 35.9609375 C10.28672532 38.31534549 8.5368224 39.10095293 5.33203125 40.2734375 C4.52636719 40.93988281 3.72070312 41.60632812 2.890625 42.29296875 C-1.68489647 45.38980278 -6.83052205 44.9321761 -12.16796875 44.8984375 C-13.18761719 44.93066406 -14.20726562 44.96289062 -15.2578125 44.99609375 C-19.9163247 45.00215163 -23.6666343 44.95632146 -27.3359375 41.859375 C-30.67771155 37.76202717 -30.58898676 33.36255797 -30.48046875 28.2734375 C-30.51205078 27.396875 -30.54363281 26.5203125 -30.57617188 25.6171875 C-30.55691078 21.96308221 -30.54013273 19.32793492 -28.15332031 16.44213867 C-26.38230776 14.95084549 -24.55305105 13.61526919 -22.66796875 12.2734375 C-21.02204914 10.35397796 -21.02204914 10.35397796 -19.79296875 8.5859375 C-16.90107286 5.03750308 -13.9920279 3.98650691 -9.62109375 2.87890625 C-0.33833415 0.00125077 -0.33833415 0.00125077 0 0 Z " fill="#FDA109" transform="translate(29.66796875,3.7265625)"/>
<path d="M0 0 C0.99 0 1.98 0 3 0 C3 0.99 3 1.98 3 3 C3.66 3 4.32 3 5 3 C5 7.29 5 11.58 5 16 C4.34 16 3.68 16 3 16 C3 16.99 3 17.98 3 19 C2.01 19 1.02 19 0 19 C0 19.99 0 20.98 0 22 C-0.99 22 -1.98 22 -3 22 C-3 22.99 -3 23.98 -3 25 C-3.66 25 -4.32 25 -5 25 C-5 25.66 -5 26.32 -5 27 C-6.98 27 -8.96 27 -11 27 C-11 27.99 -11 28.98 -11 30 C-12.65 30 -14.3 30 -16 30 C-16 30.99 -16 31.98 -16 33 C-23.26 33 -30.52 33 -38 33 C-38 32.01 -38 31.02 -38 30 C-38.66 30 -39.32 30 -40 30 C-40 29.01 -40 28.02 -40 27 C-40.99 27 -41.98 27 -43 27 C-43 22.71 -43 18.42 -43 14 C-42.01 14 -41.02 14 -40 14 C-40 16.64 -40 19.28 -40 22 C-39.34 22 -38.68 22 -38 22 C-38 22.66 -38 23.32 -38 24 C-32.39 24 -26.78 24 -21 24 C-21 23.34 -21 22.68 -21 22 C-19.35 22 -17.7 22 -16 22 C-16 21.01 -16 20.02 -16 19 C-14.35 19 -12.7 19 -11 19 C-11 18.01 -11 17.02 -11 16 C-10.01 16 -9.02 16 -8 16 C-8 15.34 -8 14.68 -8 14 C-7.01 14 -6.02 14 -5 14 C-5 13.01 -5 12.02 -5 11 C-4.34 11 -3.68 11 -3 11 C-3 10.01 -3 9.02 -3 8 C-2.01 8 -1.02 8 0 8 C0 5.36 0 2.72 0 0 Z " fill="#F88109" transform="translate(44,12)"/>
<path d="M0 0 C1.09248047 0.01160156 1.09248047 0.01160156 2.20703125 0.0234375 C2.92761719 0.01570312 3.64820313 0.00796875 4.390625 0 C8.23003473 0.01414147 11.14758123 0.06164376 14.33203125 2.2734375 C15.39035156 2.923125 16.44867188 3.5728125 17.5390625 4.2421875 C20.34711772 6.6564247 20.81175649 8.52537931 21.09375 12.1796875 C21.10036254 14.04442323 21.07465443 15.90950497 21.01953125 17.7734375 C21.03435547 18.71058594 21.04917969 19.64773437 21.06445312 20.61328125 C21.00833396 25.26787054 20.91857852 27.53905344 17.9453125 31.26171875 C16.65173828 32.25751953 16.65173828 32.25751953 15.33203125 33.2734375 C14.50703125 34.1603125 13.68203125 35.0471875 12.83203125 35.9609375 C10.28672532 38.31534549 8.5368224 39.10095293 5.33203125 40.2734375 C4.52636719 40.93988281 3.72070312 41.60632812 2.890625 42.29296875 C-1.68489647 45.38980278 -6.83052205 44.9321761 -12.16796875 44.8984375 C-13.18761719 44.93066406 -14.20726562 44.96289062 -15.2578125 44.99609375 C-19.9163247 45.00215163 -23.6666343 44.95632146 -27.3359375 41.859375 C-30.67771155 37.76202717 -30.58898676 33.36255797 -30.48046875 28.2734375 C-30.51205078 27.396875 -30.54363281 26.5203125 -30.57617188 25.6171875 C-30.55691078 21.96308221 -30.54013273 19.32793492 -28.15332031 16.44213867 C-26.38230776 14.95084549 -24.55305105 13.61526919 -22.66796875 12.2734375 C-21.02204914 10.35397796 -21.02204914 10.35397796 -19.79296875 8.5859375 C-16.90107286 5.03750308 -13.9920279 3.98650691 -9.62109375 2.87890625 C-0.33833415 0.00125077 -0.33833415 0.00125077 0 0 Z M-4.66796875 2.2734375 C-4.66796875 3.2634375 -4.66796875 4.2534375 -4.66796875 5.2734375 C-6.31796875 5.2734375 -7.96796875 5.2734375 -9.66796875 5.2734375 C-9.66796875 6.2634375 -9.66796875 7.2534375 -9.66796875 8.2734375 C-11.64796875 8.2734375 -13.62796875 8.2734375 -15.66796875 8.2734375 C-15.66796875 9.2634375 -15.66796875 10.2534375 -15.66796875 11.2734375 C-16.65796875 11.2734375 -17.64796875 11.2734375 -18.66796875 11.2734375 C-18.66796875 11.9334375 -18.66796875 12.5934375 -18.66796875 13.2734375 C-19.32796875 13.2734375 -19.98796875 13.2734375 -20.66796875 13.2734375 C-20.66796875 14.2634375 -20.66796875 15.2534375 -20.66796875 16.2734375 C-21.65796875 16.2734375 -22.64796875 16.2734375 -23.66796875 16.2734375 C-23.66796875 17.2634375 -23.66796875 18.2534375 -23.66796875 19.2734375 C-24.32796875 19.2734375 -24.98796875 19.2734375 -25.66796875 19.2734375 C-25.66796875 20.2634375 -25.66796875 21.2534375 -25.66796875 22.2734375 C-26.65796875 22.2734375 -27.64796875 22.2734375 -28.66796875 22.2734375 C-28.66796875 26.5634375 -28.66796875 30.8534375 -28.66796875 35.2734375 C-27.67796875 35.2734375 -26.68796875 35.2734375 -25.66796875 35.2734375 C-25.66796875 36.2634375 -25.66796875 37.2534375 -25.66796875 38.2734375 C-25.00796875 38.2734375 -24.34796875 38.2734375 -23.66796875 38.2734375 C-23.66796875 39.2634375 -23.66796875 40.2534375 -23.66796875 41.2734375 C-16.40796875 41.2734375 -9.14796875 41.2734375 -1.66796875 41.2734375 C-1.66796875 40.2834375 -1.66796875 39.2934375 -1.66796875 38.2734375 C-0.01796875 38.2734375 1.63203125 38.2734375 3.33203125 38.2734375 C3.33203125 37.2834375 3.33203125 36.2934375 3.33203125 35.2734375 C5.31203125 35.2734375 7.29203125 35.2734375 9.33203125 35.2734375 C9.33203125 34.6134375 9.33203125 33.9534375 9.33203125 33.2734375 C9.99203125 33.2734375 10.65203125 33.2734375 11.33203125 33.2734375 C11.33203125 32.2834375 11.33203125 31.2934375 11.33203125 30.2734375 C12.32203125 30.2734375 13.31203125 30.2734375 14.33203125 30.2734375 C14.33203125 29.2834375 14.33203125 28.2934375 14.33203125 27.2734375 C15.32203125 27.2734375 16.31203125 27.2734375 17.33203125 27.2734375 C17.33203125 26.2834375 17.33203125 25.2934375 17.33203125 24.2734375 C17.99203125 24.2734375 18.65203125 24.2734375 19.33203125 24.2734375 C19.33203125 19.9834375 19.33203125 15.6934375 19.33203125 11.2734375 C18.67203125 11.2734375 18.01203125 11.2734375 17.33203125 11.2734375 C17.33203125 10.2834375 17.33203125 9.2934375 17.33203125 8.2734375 C16.34203125 8.2734375 15.35203125 8.2734375 14.33203125 8.2734375 C14.33203125 7.2834375 14.33203125 6.2934375 14.33203125 5.2734375 C12.68203125 5.2734375 11.03203125 5.2734375 9.33203125 5.2734375 C9.33203125 4.2834375 9.33203125 3.2934375 9.33203125 2.2734375 C4.71203125 2.2734375 0.09203125 2.2734375 -4.66796875 2.2734375 Z " fill="#FCF7F1" transform="translate(29.66796875,3.7265625)"/>
<path d="M0 0 C4.62 0 9.24 0 14 0 C14 0.99 14 1.98 14 3 C15.65 3 17.3 3 19 3 C19 3.33 19 3.66 19 4 C17.35 4 15.7 4 14 4 C14 4.66 14 5.32 14 6 C7.565 6.495 7.565 6.495 1 7 C1 7.33 1 7.66 1 8 C-2.63 8.33 -6.26 8.66 -10 9 C-10 9.66 -10 10.32 -10 11 C-10.99 11 -11.98 11 -13 11 C-13 10.34 -13 9.68 -13 9 C-12.34 9 -11.68 9 -11 9 C-11 8.01 -11 7.02 -11 6 C-9.02 6 -7.04 6 -5 6 C-5 5.01 -5 4.02 -5 3 C-3.35 3 -1.7 3 0 3 C0 2.01 0 1.02 0 0 Z " fill="#D78D37" transform="translate(25,6)"/>
<path d="M0 0 C0.99 0 1.98 0 3 0 C3 3.63 3 7.26 3 11 C3.99 11 4.98 11 6 11 C6 12.65 6 14.3 6 16 C12.6 16 19.2 16 26 16 C26 16.66 26 17.32 26 18 C19.07 18 12.14 18 5 18 C5 17.34 5 16.68 5 16 C4.34 16 3.68 16 3 16 C3 15.01 3 14.02 3 13 C2.01 13 1.02 13 0 13 C0 8.71 0 4.42 0 0 Z " fill="#A13A04" transform="translate(1,26)"/>
<path d="M0 0 C0.99 0 1.98 0 3 0 C3 0.99 3 1.98 3 3 C3.66 3 4.32 3 5 3 C5 7.29 5 11.58 5 16 C4.34 16 3.68 16 3 16 C3 16.99 3 17.98 3 19 C2.01 19 1.02 19 0 19 C0 12.73 0 6.46 0 0 Z " fill="#DE6305" transform="translate(44,12)"/>
<path d="M0 0 C0 0.99 0 1.98 0 3 C1.65 3 3.3 3 5 3 C5 3.99 5 4.98 5 6 C3.02 6 1.04 6 -1 6 C-1 5.34 -1 4.68 -1 4 C-2.75032844 4.14183696 -4.50025534 4.28863429 -6.25 4.4375 C-7.71179688 4.55931641 -7.71179688 4.55931641 -9.203125 4.68359375 C-11.56461753 4.95074584 -13.71901065 5.35371968 -16 6 C-16 5.34 -16 4.68 -16 4 C-16.99 3.67 -17.98 3.34 -19 3 C-18.34 3 -17.68 3 -17 3 C-16.67 2.34 -16.34 1.68 -16 1 C-16 1.66 -16 2.32 -16 3 C-15.01 3 -14.02 3 -13 3 C-13 2.34 -13 1.68 -13 1 C-8.59085217 -0.10228696 -4.51617599 -0.07654536 0 0 Z " fill="#FCBC38" transform="translate(28,14)"/>
<path d="M0 0 C0.66 0 1.32 0 2 0 C2 0.66 2 1.32 2 2 C7.28 2 12.56 2 18 2 C18 1.34 18 0.68 18 0 C20.64 0 23.28 0 26 0 C26 0.99 26 1.98 26 3 C24.35 3 22.7 3 21 3 C21 3.99 21 4.98 21 6 C13.74 6 6.48 6 -1 6 C-1 5.67 -1 5.34 -1 5 C5.93 5 12.86 5 20 5 C20 4.34 20 3.68 20 3 C13.4 3 6.8 3 0 3 C0 2.01 0 1.02 0 0 Z " fill="#D17733" transform="translate(7,39)"/>
<path d="M0 0 C2.97 0 5.94 0 9 0 C9 0.66 9 1.32 9 2 C10.65 2 12.3 2 14 2 C14 3.32 14 4.64 14 6 C12.02 6 10.04 6 8 6 C8 5.01 8 4.02 8 3 C5.36 3 2.72 3 0 3 C0 2.01 0 1.02 0 0 Z " fill="#FFBE3C" transform="translate(9,23)"/>
<path d="M0 0 C1.65 0 3.3 0 5 0 C5.33 1.32 5.66 2.64 6 4 C2.37 4.33 -1.26 4.66 -5 5 C-5 5.66 -5 6.32 -5 7 C-5.99 7 -6.98 7 -8 7 C-8 6.34 -8 5.68 -8 5 C-7.34 5 -6.68 5 -6 5 C-6 4.01 -6 3.02 -6 2 C-4.02 2 -2.04 2 0 2 C0 1.34 0 0.68 0 0 Z " fill="#B95F1E" transform="translate(20,10)"/>
<path d="M0 0 C0.66 0 1.32 0 2 0 C2 4.29 2 8.58 2 13 C1.34 13 0.68 13 0 13 C0 13.99 0 14.98 0 16 C-0.99 16 -1.98 16 -3 16 C-3 14.35 -3 12.7 -3 11 C-2.01 11 -1.02 11 0 11 C0 7.37 0 3.74 0 0 Z " fill="#AB3F06" transform="translate(47,15)"/>
<path d="M0 0 C0.99 0 1.98 0 3 0 C3 0.66 3 1.32 3 2 C4.65 2.33 6.3 2.66 8 3 C8 3.33 8 3.66 8 4 C4.7 4.33 1.4 4.66 -2 5 C-2 5.99 -2 6.98 -2 8 C-2.99 8 -3.98 8 -5 8 C-5 7.01 -5 6.02 -5 5 C-4.34 5 -3.68 5 -3 5 C-3 4.01 -3 3.02 -3 2 C-2.01 2 -1.02 2 0 2 C0 1.34 0 0.68 0 0 Z " fill="#E57203" transform="translate(9,18)"/>
<path d="M0 0 C1.65 0 3.3 0 5 0 C5 0.99 5 1.98 5 3 C4.01 3 3.02 3 2 3 C2 3.66 2 4.32 2 5 C1.01 5 0.02 5 -1 5 C-1 5.66 -1 6.32 -1 7 C-2.65 7 -4.3 7 -6 7 C-6 6.34 -6 5.68 -6 5 C-5.01 5 -4.02 5 -3 5 C-3 4.34 -3 3.68 -3 3 C-2.01 3 -1.02 3 0 3 C0 2.01 0 1.02 0 0 Z " fill="#C04E06" transform="translate(39,31)"/>
<path d="M0 0 C1.65 0 3.3 0 5 0 C5 0.99 5 1.98 5 3 C5.99 3 6.98 3 8 3 C8 3.66 8 4.32 8 5 C6.35 5 4.7 5 3 5 C3 4.34 3 3.68 3 3 C0.03 3 -2.94 3 -6 3 C-6 2.67 -6 2.34 -6 2 C-4.02 1.67 -2.04 1.34 0 1 C0 0.67 0 0.34 0 0 Z " fill="#FD890A" transform="translate(15,20)"/>
<path d="M0 0 C1.65 0 3.3 0 5 0 C5 0.99 5 1.98 5 3 C5.99 3 6.98 3 8 3 C8 3.66 8 4.32 8 5 C6.35 5 4.7 5 3 5 C3 4.01 3 3.02 3 2 C2.01 1.67 1.02 1.34 0 1 C0 0.67 0 0.34 0 0 Z " fill="#FE8706" transform="translate(25,12)"/>
<path d="M0 0 C1.65 0 3.3 0 5 0 C5.33 1.32 5.66 2.64 6 4 C4.02 4 2.04 4 0 4 C0 2.68 0 1.36 0 0 Z " fill="#D16201" transform="translate(20,10)"/>
<path d="M0 0 C0.99 0 1.98 0 3 0 C3 0.99 3 1.98 3 3 C2.34 3 1.68 3 1 3 C1 3.99 1 4.98 1 6 C0.01 6 -0.98 6 -2 6 C-2 5.01 -2 4.02 -2 3 C-1.34 3 -0.68 3 0 3 C0 2.01 0 1.02 0 0 Z " fill="#BE5B11" transform="translate(6,20)"/>
<path d="M0 0 C0.99 0 1.98 0 3 0 C3 2.31 3 4.62 3 7 C2.67 6.34 2.34 5.68 2 5 C1.34 5 0.68 5 0 5 C0 3.35 0 1.7 0 0 Z " fill="#BE5711" transform="translate(4,37)"/>
</svg>
