<?xml version="1.0" encoding="UTF-8"?>
<svg version="1.1" xmlns="http://www.w3.org/2000/svg" width="50" height="50">
<path d="M0 0 C2.64 0 5.28 0 8 0 C8.66 2.31 9.32 4.62 10 7 C10.66 6.484375 11.32 5.96875 12 5.4375 C16.14659826 3.45058833 18.53020565 4.16664851 23 5 C23 3.35 23 1.7 23 0 C25.33294775 -0.04241723 27.66702567 -0.04092937 30 0 C31 1 31 1 31.09765625 2.84765625 C31.06510417 4.8984375 31.03255208 6.94921875 31 9 C32.98 9 34.96 9 37 9 C37 11.97 37 14.94 37 18 C34.69 18 32.38 18 30 18 C30.061875 18.94875 30.12375 19.8975 30.1875 20.875 C30.0946875 22.421875 30.0946875 22.421875 30 24 C29.01 24.66 28.02 25.32 27 26 C27 26.66 27 27.32 27 28 C28.32 28.66 29.64 29.32 31 30 C31 31.98 31 33.96 31 36 C28.36 36.66 25.72 37.32 23 38 C23 40.64 23 43.28 23 46 C21.02090602 46.02686553 19.04171029 46.04633375 17.0625 46.0625 C15.96035156 46.07410156 14.85820312 46.08570313 13.72265625 46.09765625 C11 46 11 46 10 45 C8.48530552 44.76807135 6.96245438 44.58784762 5.4375 44.4375 C4.61121094 44.35371094 3.78492187 44.26992188 2.93359375 44.18359375 C1.97646484 44.09271484 1.97646484 44.09271484 1 44 C0.505 42.515 0.505 42.515 0 41 C-0.99 41 -1.98 41 -3 41 C-3 40.34 -3 39.68 -3 39 C-4.32 38.67 -5.64 38.34 -7 38 C-7 37.34 -7 36.68 -7 36 C-7.66 36 -8.32 36 -9 36 C-9.33 34.02 -9.66 32.04 -10 30 C-10.99 29.67 -11.98 29.34 -13 29 C-13 25.04 -13 21.08 -13 17 C-12.34 16.67 -11.68 16.34 -11 16 C-11.33 14.35 -11.66 12.7 -12 11 C-10.02 10.01 -8.04 9.02 -6 8 C-5.34 8.66 -4.68 9.32 -4 10 C-2.68 9.34 -1.36 8.68 0 8 C-0.185625 7.05125 -0.37125 6.1025 -0.5625 5.125 C-1 2 -1 2 0 0 Z " fill="#480400" transform="translate(13,2)"/>
<path d="M0 0 C2.33294775 -0.04241723 4.66702567 -0.04092937 7 0 C8 1 8 1 8.09765625 2.84765625 C8.06510417 4.8984375 8.03255208 6.94921875 8 9 C9.98 9 11.96 9 14 9 C14 11.97 14 14.94 14 18 C11.69 18 9.38 18 7 18 C7.061875 18.94875 7.12375 19.8975 7.1875 20.875 C7.0946875 22.421875 7.0946875 22.421875 7 24 C6.01 24.66 5.02 25.32 4 26 C4 26.66 4 27.32 4 28 C5.32 28.66 6.64 29.32 8 30 C8 31.98 8 33.96 8 36 C5.36 36.66 2.72 37.32 0 38 C0 40.64 0 43.28 0 46 C-1.97909398 46.02686553 -3.95828971 46.04633375 -5.9375 46.0625 C-7.03964844 46.07410156 -8.14179688 46.08570313 -9.27734375 46.09765625 C-12 46 -12 46 -13 45 C-14.51469448 44.76807135 -16.03754562 44.58784762 -17.5625 44.4375 C-18.38878906 44.35371094 -19.21507813 44.26992188 -20.06640625 44.18359375 C-21.02353516 44.09271484 -21.02353516 44.09271484 -22 44 C-22.495 42.515 -22.495 42.515 -23 41 C-23.99 41 -24.98 41 -26 41 C-26 40.34 -26 39.68 -26 39 C-27.32 38.67 -28.64 38.34 -30 38 C-30 37.34 -30 36.68 -30 36 C-30.66 36 -31.32 36 -32 36 C-32.33 34.02 -32.66 32.04 -33 30 C-33.99 29.67 -34.98 29.34 -36 29 C-36 25.04 -36 21.08 -36 17 C-35.34 16.67 -34.68 16.34 -34 16 C-34.33 14.35 -34.66 12.7 -35 11 C-34.01 10.67 -33.02 10.34 -32 10 C-32 10.99 -32 11.98 -32 13 C-31.34 13 -30.68 13 -30 13 C-30 13.99 -30 14.98 -30 16 C-30.66 16 -31.32 16 -32 16 C-32 16.99 -32 17.98 -32 19 C-31.01 19 -30.02 19 -29 19 C-29 19.99 -29 20.98 -29 22 C-28.34 22 -27.68 22 -27 22 C-27 22.99 -27 23.98 -27 25 C-27.66 25 -28.32 25 -29 25 C-28.34 25.99 -27.68 26.98 -27 28 C-26.74239721 30.69452521 -26.91099947 33.28548375 -27 36 C-26.01 36 -25.02 36 -24 36 C-24 36.99 -24 37.98 -24 39 C-23.01 39 -22.02 39 -21 39 C-21 39.66 -21 40.32 -21 41 C-18.36 41 -15.72 41 -13 41 C-13 40.01 -13 39.02 -13 38 C-12.01 38 -11.02 38 -10 38 C-10 37.34 -10 36.68 -10 36 C-9.01 36 -8.02 36 -7 36 C-7 35.34 -7 34.68 -7 34 C-3.04 34 0.92 34 5 34 C5 33.01 5 32.02 5 31 C1.7 31 -1.6 31 -5 31 C-5 30.01 -5 29.02 -5 28 C-3.35 28 -1.7 28 0 28 C0 27.01 0 26.02 0 25 C0.99 25 1.98 25 3 25 C3 22.03 3 19.06 3 16 C6.3 16 9.6 16 13 16 C13 15.01 13 14.02 13 13 C9.37 13 5.74 13 2 13 C2 12.01 2 11.02 2 10 C2.99 10 3.98 10 5 10 C5 7.36 5 4.72 5 2 C4.34 2 3.68 2 3 2 C3 3.65 3 5.3 3 7 C2.34 7 1.68 7 1 7 C0.505 3.535 0.505 3.535 0 0 Z " fill="#220703" transform="translate(36,2)"/>
<path d="M0 0 C2.64 0 5.28 0 8 0 C8 3.3 8 6.6 8 10 C8.66 10 9.32 10 10 10 C10 10.99 10 11.98 10 13 C9.34 13 8.68 13 8 13 C8 13.99 8 14.98 8 16 C7.01 16 6.02 16 5 16 C5 15.01 5 14.02 5 13 C4.01 13 3.02 13 2 13 C2 13.99 2 14.98 2 16 C0.02 16 -1.96 16 -4 16 C-4 14.68 -4 13.36 -4 12 C-4.66 12 -5.32 12 -6 12 C-6 11.34 -6 10.68 -6 10 C-4.02 9.34 -2.04 8.68 0 8 C-0.185625 7.05125 -0.37125 6.1025 -0.5625 5.125 C-1 2 -1 2 0 0 Z " fill="#200703" transform="translate(13,2)"/>
<path d="M0 0 C0.33 0.99 0.66 1.98 1 3 C1.66 3 2.32 3 3 3 C3 3.99 3 4.98 3 6 C2.34 6 1.68 6 1 6 C1 6.99 1 7.98 1 9 C1.99 9 2.98 9 4 9 C4 9.99 4 10.98 4 12 C4.66 12 5.32 12 6 12 C6 12.99 6 13.98 6 15 C5.34 15 4.68 15 4 15 C4.99 16.485 4.99 16.485 6 18 C6.125 21.1875 6.125 21.1875 6 24 C5.01 24 4.02 24 3 24 C3 21.03 3 18.06 3 15 C2.01 15.495 2.01 15.495 1 16 C0.67 16.99 0.34 17.98 0 19 C-0.99 19 -1.98 19 -3 19 C-3 15.04 -3 11.08 -3 7 C-2.34 6.67 -1.68 6.34 -1 6 C-1.33 4.35 -1.66 2.7 -2 1 C-1.34 0.67 -0.68 0.34 0 0 Z " fill="#390301" transform="translate(3,12)"/>
<path d="M0 0 C0.99 0 1.98 0 3 0 C3 0.99 3 1.98 3 3 C2.34 3 1.68 3 1 3 C1 4.65 1 6.3 1 8 C1.66 8 2.32 8 3 8 C3 7.34 3 6.68 3 6 C3.66 6 4.32 6 5 6 C5 6.99 5 7.98 5 9 C4.34 9 3.68 9 3 9 C3 9.99 3 10.98 3 12 C2.01 12 1.02 12 0 12 C0 12.99 0 13.98 0 15 C-0.66 15 -1.32 15 -2 15 C-2 15.66 -2 16.32 -2 17 C-0.35 17 1.3 17 3 17 C3 17.66 3 18.32 3 19 C1.02 19 -0.96 19 -3 19 C-3 18.34 -3 17.68 -3 17 C-3.66 17 -4.32 17 -5 17 C-5 14.36 -5 11.72 -5 9 C-4.34 9 -3.68 9 -3 9 C-3 7.02 -3 5.04 -3 3 C-2.01 3 -1.02 3 0 3 C0 2.01 0 1.02 0 0 Z " fill="#B9732B" transform="translate(15,21)"/>
<path d="M0 0 C1.32 0 2.64 0 4 0 C4 2.64 4 5.28 4 8 C2.68 8 1.36 8 0 8 C0 9.98 0 11.96 0 14 C-1.98 14 -3.96 14 -6 14 C-6 12.68 -6 11.36 -6 10 C-6.66 10 -7.32 10 -8 10 C-8 9.34 -8 8.68 -8 8 C-6.02253397 7.26919734 -4.01927511 6.60578253 -2 6 C-1.34 6.33 -0.68 6.66 0 7 C0 4.69 0 2.38 0 0 Z " fill="#400200" transform="translate(15,4)"/>
<path d="M0 0 C0.99 0 1.98 0 3 0 C3 0.99 3 1.98 3 3 C3.66 3 4.32 3 5 3 C5 3.99 5 4.98 5 6 C5.99 6 6.98 6 8 6 C8 6.99 8 7.98 8 9 C8.66 9 9.32 9 10 9 C10 9.66 10 10.32 10 11 C8.35 11 6.7 11 5 11 C5 10.34 5 9.68 5 9 C4.34 9 3.68 9 3 9 C3 8.01 3 7.02 3 6 C2.01 6 1.02 6 0 6 C0 4.02 0 2.04 0 0 Z " fill="#790300" transform="translate(23,15)"/>
<path d="M0 0 C-0.33 1.65 -0.66 3.3 -1 5 C-1.99 5 -2.98 5 -4 5 C-4 4.01 -4 3.02 -4 2 C-6.3431213 2.25561323 -8.67843403 2.59270772 -11 3 C-11.33 3.66 -11.66 4.32 -12 5 C-13.32 5 -14.64 5 -16 5 C-16 3.35 -16 1.7 -16 0 C-15.34 0.66 -14.68 1.32 -14 2 C-13.0409375 1.2265625 -13.0409375 1.2265625 -12.0625 0.4375 C-7.81927818 -1.55421636 -4.50813085 -0.81519577 0 0 Z " fill="#3B1003" transform="translate(37,7)"/>
<path d="M0 0 C0.33 0.66 0.66 1.32 1 2 C1.66 2 2.32 2 3 2 C3 4.31 3 6.62 3 9 C1.02 9.33 -0.96 9.66 -3 10 C-3 7.36 -3 4.72 -3 2 C-2.01 2 -1.02 2 0 2 C0 1.34 0 0.68 0 0 Z " fill="#390200" transform="translate(29,36)"/>
<path d="M0 0 C0.66 0 1.32 0 2 0 C2 0.99 2 1.98 2 3 C2.99 3 3.98 3 5 3 C5 3.99 5 4.98 5 6 C4.34 6 3.68 6 3 6 C3 6.66 3 7.32 3 8 C4.65 8 6.3 8 8 8 C8 8.66 8 9.32 8 10 C6.02 10 4.04 10 2 10 C2 9.34 2 8.68 2 8 C1.34 8 0.68 8 0 8 C0 5.36 0 2.72 0 0 Z " fill="#EEA63D" transform="translate(10,30)"/>
<path d="M0 0 C0.99 0 1.98 0 3 0 C3 0.99 3 1.98 3 3 C2.34 3 1.68 3 1 3 C0.67 3.99 0.34 4.98 0 6 C-1.32 6 -2.64 6 -4 6 C-4 6.66 -4 7.32 -4 8 C-4.99 8 -5.98 8 -7 8 C-7 7.01 -7 6.02 -7 5 C-6.34 5 -5.68 5 -5 5 C-5 4.34 -5 3.68 -5 3 C-3.35 3 -1.7 3 0 3 C0 2.01 0 1.02 0 0 Z " fill="#D18D35" transform="translate(25,30)"/>
<path d="M0 0 C0.33 0.99 0.66 1.98 1 3 C1.66 3 2.32 3 3 3 C3 3.99 3 4.98 3 6 C2.34 6 1.68 6 1 6 C1 6.99 1 7.98 1 9 C0.01 9 -0.98 9 -2 9 C-2 11.31 -2 13.62 -2 16 C-2.33 16 -2.66 16 -3 16 C-3 13.03 -3 10.06 -3 7 C-2.34 6.67 -1.68 6.34 -1 6 C-1.33 4.35 -1.66 2.7 -2 1 C-1.34 0.67 -0.68 0.34 0 0 Z " fill="#200703" transform="translate(3,12)"/>
<path d="M0 0 C1.65 0 3.3 0 5 0 C5 0.99 5 1.98 5 3 C5.99 3 6.98 3 8 3 C8 3.99 8 4.98 8 6 C6.02 6 4.04 6 2 6 C2 4.68 2 3.36 2 2 C1.34 2 0.68 2 0 2 C0 1.34 0 0.68 0 0 Z " fill="#210703" transform="translate(7,12)"/>
<path d="M0 0 C1.98 0 3.96 0 6 0 C6 0.99 6 1.98 6 3 C4.02 3 2.04 3 0 3 C0 2.01 0 1.02 0 0 Z " fill="#A56022" transform="translate(12,30)"/>
<path d="M0 0 C0.99 0 1.98 0 3 0 C3 1.98 3 3.96 3 6 C2.01 6 1.02 6 0 6 C0 4.02 0 2.04 0 0 Z " fill="#EBA43E" transform="translate(12,24)"/>
</svg>
