<?xml version="1.0" encoding="UTF-8"?>
<svg version="1.1" xmlns="http://www.w3.org/2000/svg" width="50" height="50">
<path d="M0 0 C13.86 0 27.72 0 42 0 C42 14.52 42 29.04 42 44 C28.14 44 14.28 44 0 44 C0 29.48 0 14.96 0 0 Z " fill="#003858" transform="translate(4,4)"/>
<path d="M0 0 C4.29 0 8.58 0 13 0 C13 0.66 13 1.32 13 2 C14.32 2 15.64 2 17 2 C17 2.66 17 3.32 17 4 C17.66 4 18.32 4 19 4 C19 5.32 19 6.64 19 8 C18.34 8 17.68 8 17 8 C17 8.66 17 9.32 17 10 C14.36 10 11.72 10 9 10 C9 9.34 9 8.68 9 8 C7.35 8 5.7 8 4 8 C4 8.66 4 9.32 4 10 C2.68 10 1.36 10 0 10 C0 12.64 0 15.28 0 18 C1.32 18 2.64 18 4 18 C4 18.99 4 19.98 4 21 C5.65 21 7.3 21 9 21 C9 20.01 9 19.02 9 18 C10.32 18 11.64 18 13 18 C13 18.99 13 19.98 13 21 C14.32 21 15.64 21 17 21 C17 22.65 17 24.3 17 26 C15.68 26 14.36 26 13 26 C13 26.99 13 27.98 13 29 C8.71 29 4.42 29 0 29 C0 28.01 0 27.02 0 26 C-1.32 26 -2.64 26 -4 26 C-4 25.34 -4 24.68 -4 24 C-4.66 24 -5.32 24 -6 24 C-6 23.01 -6 22.02 -6 21 C-6.99 21 -7.98 21 -9 21 C-9 16.38 -9 11.76 -9 7 C-8.01 7 -7.02 7 -6 7 C-6 6.01 -6 5.02 -6 4 C-5.34 4 -4.68 4 -4 4 C-4 3.34 -4 2.68 -4 2 C-2.68 2 -1.36 2 0 2 C0 1.34 0 0.68 0 0 Z " fill="#EDCB78" transform="translate(18,11)"/>
<path d="M0 0 C0.99 0 1.98 0 3 0 C3 0.99 3 1.98 3 3 C3.66 3 4.32 3 5 3 C5 3.66 5 4.32 5 5 C6.32 5 7.64 5 9 5 C9 5.99 9 6.98 9 8 C13.29 8 17.58 8 22 8 C22 7.01 22 6.02 22 5 C23.32 5 24.64 5 26 5 C26 4.34 26 3.68 26 3 C26.66 3 27.32 3 28 3 C28 3.66 28 4.32 28 5 C28.99 5 29.98 5 31 5 C31 5.99 31 6.98 31 8 C32.32 8 33.64 8 35 8 C35 5.36 35 2.72 35 0 C35.66 0 36.32 0 37 0 C37 5.28 37 10.56 37 16 C23.14 16 9.28 16 -5 16 C-5 12.04 -5 8.08 -5 4 C-3.35 4 -1.7 4 0 4 C0 2.68 0 1.36 0 0 Z " fill="#041F34" transform="translate(9,32)"/>
<path d="M0 0 C1.65 0 3.3 0 5 0 C5 0.66 5 1.32 5 2 C6.423125 1.938125 6.423125 1.938125 7.875 1.875 C12.70727658 1.85515492 17.30627004 2.94225804 22 4 C22.144375 5.11375 22.28875 6.2275 22.4375 7.375 C22.78372035 10.82142047 22.78372035 10.82142047 24 13 C23.34 13 22.68 13 22 13 C22 15.64 22 18.28 22 21 C20.68 21 19.36 21 18 21 C18 20.01 18 19.02 18 18 C17.01 18 16.02 18 15 18 C15 17.34 15 16.68 15 16 C14.34 16 13.68 16 13 16 C13 15.01 13 14.02 13 13 C11.68 13 10.36 13 9 13 C9 12.01 9 11.02 9 10 C7.68 10 6.36 10 5 10 C5 10.99 5 11.98 5 13 C3.35 13 1.7 13 0 13 C0 12.01 0 11.02 0 10 C-1.32 10 -2.64 10 -4 10 C-4 7.36 -4 4.72 -4 2 C-2.68 2 -1.36 2 0 2 C0 1.34 0 0.68 0 0 Z " fill="#063754" transform="translate(22,19)"/>
<path d="M0 0 C11.55 0 23.1 0 35 0 C35 2.64 35 5.28 35 8 C32.03 8 29.06 8 26 8 C26 7.34 26 6.68 26 6 C24.68 6 23.36 6 22 6 C22 5.34 22 4.68 22 4 C17.71 4 13.42 4 9 4 C9 4.66 9 5.32 9 6 C7.68 6 6.36 6 5 6 C5 6.66 5 7.32 5 8 C4.34 8 3.68 8 3 8 C3 8.99 3 9.98 3 11 C2.01 11 1.02 11 0 11 C0 15.62 0 20.24 0 25 C-0.66 25 -1.32 25 -2 25 C-2 17.41 -2 9.82 -2 2 C-1.34 2 -0.68 2 0 2 C0 1.34 0 0.68 0 0 Z " fill="#005176" transform="translate(9,7)"/>
<path d="M0 0 C3.3 0 6.6 0 10 0 C10.144375 1.11375 10.28875 2.2275 10.4375 3.375 C10.78372035 6.82142047 10.78372035 6.82142047 12 9 C11.34 9 10.68 9 10 9 C10 11.64 10 14.28 10 17 C8.68 17 7.36 17 6 17 C6 16.01 6 15.02 6 14 C5.01 14 4.02 14 3 14 C3 13.34 3 12.68 3 12 C2.34 12 1.68 12 1 12 C0.67 10.68 0.34 9.36 0 8 C0.639375 7.71125 1.27875 7.4225 1.9375 7.125 C4.15206079 6.17176549 4.15206079 6.17176549 5 4 C4.34 4 3.68 4 3 4 C3 4.66 3 5.32 3 6 C2.34 6 1.68 6 1 6 C1 5.34 1 4.68 1 4 C0.01 4 -0.98 4 -2 4 C-2 3.34 -2 2.68 -2 2 C-1.34 2 -0.68 2 0 2 C0 1.34 0 0.68 0 0 Z " fill="#063A57" transform="translate(34,23)"/>
<path d="M0 0 C1.65 0 3.3 0 5 0 C5 0.66 5 1.32 5 2 C6.65 2 8.3 2 10 2 C10 2.66 10 3.32 10 4 C8.02 4 6.04 4 4 4 C4 4.66 4 5.32 4 6 C3.01 6 2.02 6 1 6 C1 6.66 1 7.32 1 8 C-0.65 8 -2.3 8 -4 8 C-4 6.02 -4 4.04 -4 2 C-2.68 2 -1.36 2 0 2 C0 1.34 0 0.68 0 0 Z " fill="#004F75" transform="translate(22,19)"/>
<path d="M0 0 C0.33 0.66 0.66 1.32 1 2 C1.99 2 2.98 2 4 2 C4 2.66 4 3.32 4 4 C4.66 4 5.32 4 6 4 C6 3.34 6 2.68 6 2 C6.66 2 7.32 2 8 2 C7 5 7 5 5.125 6.1875 C3 7 3 7 0 7 C0 6.01 0 5.02 0 4 C-0.66 3.67 -1.32 3.34 -2 3 C-1.34 3 -0.68 3 0 3 C0 2.01 0 1.02 0 0 Z " fill="#164359" transform="translate(31,25)"/>
<path d="M0 0 C0.99 0 1.98 0 3 0 C3 0.66 3 1.32 3 2 C3.66 2 4.32 2 5 2 C5 2.66 5 3.32 5 4 C4.34 4 3.68 4 3 4 C3 4.66 3 5.32 3 6 C2.34 6 1.68 6 1 6 C1 5.34 1 4.68 1 4 C0.01 4 -0.98 4 -2 4 C-2 3.34 -2 2.68 -2 2 C-1.34 2 -0.68 2 0 2 C0 1.34 0 0.68 0 0 Z " fill="#E8C775" transform="translate(34,23)"/>
<path d="M0 0 C0.99 0 1.98 0 3 0 C4.125 3.75 4.125 3.75 3 6 C2.01 6 1.02 6 0 6 C-1.125 2.25 -1.125 2.25 0 0 Z " fill="#ECC573" transform="translate(41,23)"/>
</svg>
