<?xml version="1.0" encoding="UTF-8"?>
<svg version="1.1" xmlns="http://www.w3.org/2000/svg" width="50" height="50">
<path d="M0 0 C15.84 0 31.68 0 48 0 C48 10.11535823 47.9860369 19.81079186 47.0625 29.8125 C46.97548828 30.84697266 46.88847656 31.88144531 46.79882812 32.94726562 C45.97636963 42.33547703 45.97636963 42.33547703 45 45 C42.67133454 46.16894699 40.64980868 46.98860057 38.1875 47.75 C37.50896973 47.96390381 36.83043945 48.17780762 36.13134766 48.39819336 C25.17449077 51.62919328 15.54986056 50.31442059 5 46 C2.16361287 43.16361287 2.4996079 40.94137287 2.1484375 36.97265625 C2.08467926 36.26910507 2.02092102 35.56555389 1.95523071 34.84068298 C1.82166335 33.34558127 1.69250337 31.85008033 1.56738281 30.35424805 C1.37828597 28.10164386 1.17476974 25.85072166 0.96875 23.59960938 C0.27061797 15.67205463 0 7.9977028 0 0 Z " fill="#022481" transform="translate(1,0)"/>
<path d="M0 0 C15.84 0 31.68 0 48 0 C48 10.11535823 47.9860369 19.81079186 47.0625 29.8125 C46.97548828 30.84697266 46.88847656 31.88144531 46.79882812 32.94726562 C45.97636963 42.33547703 45.97636963 42.33547703 45 45 C42.67133454 46.16894699 40.64980868 46.98860057 38.1875 47.75 C37.50896973 47.96390381 36.83043945 48.17780762 36.13134766 48.39819336 C25.17449077 51.62919328 15.54986056 50.31442059 5 46 C2.16361287 43.16361287 2.4996079 40.94137287 2.1484375 36.97265625 C2.08467926 36.26910507 2.02092102 35.56555389 1.95523071 34.84068298 C1.82166335 33.34558127 1.69250337 31.85008033 1.56738281 30.35424805 C1.37828597 28.10164386 1.17476974 25.85072166 0.96875 23.59960938 C0.27061797 15.67205463 0 7.9977028 0 0 Z M3 2 C3.144375 5.361875 3.28875 8.72375 3.4375 12.1875 C3.48060303 13.23832764 3.52370605 14.28915527 3.56811523 15.37182617 C3.60622314 16.21205322 3.64433105 17.05228027 3.68359375 17.91796875 C3.72025146 18.77156982 3.75690918 19.6251709 3.79467773 20.50463867 C4.0055076 23.066936 4.47697737 25.48499664 5 28 C5.21698487 30.43505237 5.40290745 32.87301384 5.5625 35.3125 C5.64628906 36.56675781 5.73007813 37.82101563 5.81640625 39.11328125 C5.87699219 40.06589844 5.93757812 41.01851562 6 42 C9.30294102 43.42047151 12.63656364 44.72979136 16 46 C16.69480469 46.29261719 17.38960937 46.58523437 18.10546875 46.88671875 C23.5365639 48.70408715 28.08280581 47.57722886 33.4375 46.0625 C34.1485791 45.8756665 34.8596582 45.68883301 35.59228516 45.49633789 C37.92097925 44.82250312 37.92097925 44.82250312 41 43 C44.13191241 36.71872721 43.69103226 28.83474132 44.125 21.9375 C44.21136719 20.68388672 44.29773437 19.43027344 44.38671875 18.13867188 C44.74877529 12.7336849 45 7.42253744 45 2 C31.14 2 17.28 2 3 2 Z " fill="#1F0806" transform="translate(1,0)"/>
<path d="M0 0 C9.24 0 18.48 0 28 0 C27.34 8.25 26.68 16.5 26 25 C16.74315218 28.70273913 12.70569977 29.97952849 3.9375 26.9375 C3.298125 26.628125 2.65875 26.31875 2 26 C2 23.69 2 21.38 2 19 C3.65 19 5.3 19 7 19 C7 19.99 7 20.98 7 22 C12.02125926 22.77916092 15.97703996 23.13016601 21 22 C21 19.69 21 17.38 21 15 C14.4 15 7.8 15 1 15 C1 13.35 1 11.7 1 10 C7.93 10 14.86 10 22 10 C22 8.35 22 6.7 22 5 C14.74 5 7.48 5 0 5 C0 3.35 0 1.7 0 0 Z " fill="#E4C076" transform="translate(11,10)"/>
<path d="M0 0 C5.61 0 11.22 0 17 0 C16.1107229 19.318126 16.1107229 19.318126 15.5625 26.5625 C15.47162109 27.77099609 15.47162109 27.77099609 15.37890625 29.00390625 C15 31 15 31 13 34 C8.88807246 35.77560507 5.45466612 36.21212696 1 36 C1 35.34 1 34.68 1 34 C0.34 33.67 -0.32 33.34 -1 33 C2.96 31.68 6.92 30.36 11 29 C11.13277344 27.53046875 11.26554687 26.0609375 11.40234375 24.546875 C11.58056621 22.6145683 11.7589606 20.68227745 11.9375 18.75 C12.02451172 17.78191406 12.11152344 16.81382813 12.20117188 15.81640625 C12.33168945 14.41455078 12.33168945 14.41455078 12.46484375 12.984375 C12.543396 12.12553711 12.62194824 11.26669922 12.70288086 10.38183594 C13 8 13 8 14 4 C9.38 4 4.76 4 0 4 C0 2.68 0 1.36 0 0 Z " fill="#034398" transform="translate(25,6)"/>
<path d="M0 0 C-0.11053009 4.1880122 -0.2410057 8.37517803 -0.375 12.5625 C-0.42140625 14.33463867 -0.42140625 14.33463867 -0.46875 16.14257812 C-0.66857974 22.08751275 -0.97239097 27.38698477 -3 33 C-5.475 33.495 -5.475 33.495 -8 34 C-7.125 29.25 -7.125 29.25 -6 27 C-5.81401159 25.22401084 -5.67890727 23.44255249 -5.5703125 21.66015625 C-5.49683594 20.59732422 -5.42335937 19.53449219 -5.34765625 18.43945312 C-5.19950818 16.19254067 -5.05885222 13.94512139 -4.92578125 11.69726562 C-4.84972656 10.63314453 -4.77367187 9.56902344 -4.6953125 8.47265625 C-4.6027417 7.00711304 -4.6027417 7.00711304 -4.50830078 5.51196289 C-4.0205514 3.10156262 -2.97231895 0 0 0 Z " fill="#002481" transform="translate(45,10)"/>
<path d="M0 0 C6.6 0 13.2 0 20 0 C20.33 0.66 20.66 1.32 21 2 C20.67 2.66 20.34 3.32 20 4 C13.4 4 6.8 4 0 4 C0 2.68 0 1.36 0 0 Z " fill="#FCC862" transform="translate(12,20)"/>
<path d="M0 0 C1.65 0 3.3 0 5 0 C5 0.99 5 1.98 5 3 C7.97 3.495 7.97 3.495 11 4 C11.33 5.98 11.66 7.96 12 10 C10.3743193 9.69106068 8.74947252 9.3777305 7.125 9.0625 C6.22007813 8.88847656 5.31515625 8.71445312 4.3828125 8.53515625 C2 8 2 8 0 7 C0 4.69 0 2.38 0 0 Z " fill="#ECB862" transform="translate(13,29)"/>
<path d="M0 0 C0.33 0 0.66 0 1 0 C1.25 5.625 1.25 5.625 -1 9 C-5.11192754 10.77560507 -8.54533388 11.21212696 -13 11 C-13 10.34 -13 9.68 -13 9 C-13.66 8.67 -14.32 8.34 -15 8 C-14.15695313 7.74605469 -13.31390625 7.49210937 -12.4453125 7.23046875 C-11.34960938 6.88628906 -10.25390625 6.54210938 -9.125 6.1875 C-8.03445312 5.85105469 -6.94390625 5.51460937 -5.8203125 5.16796875 C-2.72701275 4.19339495 -2.72701275 4.19339495 -1 1 C-0.67 0.67 -0.34 0.34 0 0 Z " fill="#014298" transform="translate(39,31)"/>
<path d="M0 0 C8.58 0 17.16 0 26 0 C21.93099469 3.05175398 21.46322489 3.37435857 16.796875 3.29296875 C15.32734375 3.2784668 15.32734375 3.2784668 13.828125 3.26367188 C12.30445313 3.2259668 12.30445313 3.2259668 10.75 3.1875 C9.71875 3.17396484 8.6875 3.16042969 7.625 3.14648438 C5.08280208 3.11117607 2.54166777 3.06186036 0 3 C0 2.01 0 1.02 0 0 Z " fill="#FFCC64" transform="translate(12,11)"/>
<path d="M0 0 C2.31 0 4.62 0 7 0 C7 2.31 7 4.62 7 7 C4.36 7.66 1.72 8.32 -1 9 C-0.67 6.03 -0.34 3.06 0 0 Z " fill="#054699" transform="translate(25,25)"/>
<path d="M0 0 C2.64 0 5.28 0 8 0 C8 1.65 8 3.3 8 5 C1.07 5 -5.86 5 -13 5 C-13 4.67 -13 4.34 -13 4 C-8.71 4 -4.42 4 0 4 C0 2.68 0 1.36 0 0 Z " fill="#214E8F" transform="translate(25,15)"/>
<path d="M0 0 C-0.33 8.58 -0.66 17.16 -1 26 C-1.33 26 -1.66 26 -2 26 C-2.33 17.75 -2.66 9.5 -3 1 C-1 0 -1 0 0 0 Z " fill="#051B62" transform="translate(45,10)"/>
<path d="M0 0 C2.31 0 4.62 0 7 0 C7.33 0.66 7.66 1.32 8 2 C7.67 2.66 7.34 3.32 7 4 C4.69 4 2.38 4 0 4 C0 2.68 0 1.36 0 0 Z " fill="#FFD873" transform="translate(25,20)"/>
<path d="M0 0 C4.29 0 8.58 0 13 0 C8.5 3.375 8.5 3.375 4.25 3.1875 C3.45078125 3.16042969 2.6515625 3.13335937 1.828125 3.10546875 C1.22484375 3.07066406 0.6215625 3.03585937 0 3 C0 2.01 0 1.02 0 0 Z " fill="#FFD871" transform="translate(25,11)"/>
<path d="M0 0 C-0.928125 0.4021875 -0.928125 0.4021875 -1.875 0.8125 C-4.2995233 1.95556848 -4.2995233 1.95556848 -6 5 C-6.99 5 -7.98 5 -9 5 C-9 4.34 -9 3.68 -9 3 C-9.66 2.67 -10.32 2.34 -11 2 C-9.54494642 1.47007308 -8.08581873 0.9513211 -6.625 0.4375 C-5.81289063 0.14746094 -5.00078125 -0.14257812 -4.1640625 -0.44140625 C-2 -1 -2 -1 0 0 Z " fill="#275A93" transform="translate(35,37)"/>
</svg>
