<?xml version="1.0" encoding="UTF-8"?>
<svg version="1.1" xmlns="http://www.w3.org/2000/svg" width="50" height="50">
<path d="M0 0 C16.5 0 33 0 50 0 C50 11.22912947 49.88554056 21.61556961 48.5 32.625 C48.35691406 33.8315625 48.21382812 35.038125 48.06640625 36.28125 C47.72027336 39.18876624 47.36485008 42.09478423 47 45 C44.35837585 45.84920179 41.71299891 46.67934343 39.0625 47.5 C38.32708984 47.73847656 37.59167969 47.97695313 36.83398438 48.22265625 C27.75415631 50.99814955 20.42868585 50.2380566 11.4375 47.5 C10.61958984 47.26152344 9.80167969 47.02304687 8.95898438 46.77734375 C6.96948911 46.19561999 4.98425811 45.59934441 3 45 C1.13882121 30.0021515 0.47960544 15.10757131 0 0 Z " fill="#C41C00" transform="translate(0,0)"/>
<path d="M0 0 C16.5 0 33 0 50 0 C50 11.22912947 49.88554056 21.61556961 48.5 32.625 C48.35691406 33.8315625 48.21382812 35.038125 48.06640625 36.28125 C47.72027336 39.18876624 47.36485008 42.09478423 47 45 C44.35837585 45.84920179 41.71299891 46.67934343 39.0625 47.5 C38.32708984 47.73847656 37.59167969 47.97695313 36.83398438 48.22265625 C27.75415631 50.99814955 20.42868585 50.2380566 11.4375 47.5 C10.61958984 47.26152344 9.80167969 47.02304687 8.95898438 46.77734375 C6.96948911 46.19561999 4.98425811 45.59934441 3 45 C1.13882121 30.0021515 0.47960544 15.10757131 0 0 Z M3 3 C2.9799502 11.15822388 2.9799502 11.15822388 3.40234375 19.234375 C3.48806641 20.30300781 3.57378906 21.37164063 3.66210938 22.47265625 C3.75298828 23.55417969 3.84386719 24.63570312 3.9375 25.75 C4.02451172 26.84699219 4.11152344 27.94398437 4.20117188 29.07421875 C4.61255968 34.10229192 5.12257745 39.02839805 6 44 C20.40445831 48.58975628 29.59005908 48.25273619 44 44 C45.7576344 30.33140627 46.50210514 16.77509099 47 3 C32.48 3 17.96 3 3 3 Z " fill="#240803" transform="translate(0,0)"/>
<path d="M0 0 C8.91 0 17.82 0 27 0 C27 1.65 27 3.3 27 5 C20.07 5 13.14 5 6 5 C6.33 6.65 6.66 8.3 7 10 C13.27 10 19.54 10 26 10 C26 15.28 26 20.56 26 26 C17.1917674 29.2522705 11.02527215 29.53340973 2 27 C2 24.36 2 21.72 2 19 C3.65 19 5.3 19 7 19 C7.33 19.99 7.66 20.98 8 22 C12.04141194 22.63394697 15.9065307 23.12404452 20 23 C19.979375 22.05125 19.95875 21.1025 19.9375 20.125 C20 17 20 17 21 15 C14.4 15 7.8 15 1 15 C0 11 0 11 0 0 Z " fill="#FFC053" transform="translate(11,11)"/>
<path d="M0 0 C5.94 0 11.88 0 18 0 C18.10576249 7.96523741 17.71874759 15.75699445 17 23.6875 C16.90460937 24.78255859 16.80921875 25.87761719 16.7109375 27.00585938 C16.47817894 29.6709449 16.23969535 32.33552941 16 35 C10.72 36.32 5.44 37.64 0 39 C-0.33 37.35 -0.66 35.7 -1 34 C2.96 33.01 6.92 32.02 11 31 C11.33 25.72 11.66 20.44 12 15 C5.73 15 -0.54 15 -7 15 C-7.33 13.35 -7.66 11.7 -8 10 C-1.07 10 5.86 10 13 10 C13 8.35 13 6.7 13 5 C4.09 5 -4.82 5 -14 5 C-14 4.67 -14 4.34 -14 4 C-9.38 4 -4.76 4 0 4 C0 2.68 0 1.36 0 0 Z " fill="#FD3D01" transform="translate(25,6)"/>
<path d="M0 0 C8.91 0 17.82 0 27 0 C27 1.65 27 3.3 27 5 C20.07 5 13.14 5 6 5 C6.33 6.65 6.66 8.3 7 10 C9.31 10 11.62 10 14 10 C14 11.65 14 13.3 14 15 C9.71 15 5.42 15 1 15 C0 11 0 11 0 0 Z " fill="#FEA422" transform="translate(11,11)"/>
<path d="M0 0 C1.65 0 3.3 0 5 0 C5.33 0.99 5.66 1.98 6 3 C9.00847418 4.22520264 9.00847418 4.22520264 12 5 C12 6.65 12 8.3 12 10 C7.97007218 9.44687265 3.97977076 8.8441938 0 8 C0 5.36 0 2.72 0 0 Z " fill="#FEA521" transform="translate(13,30)"/>
<path d="M0 0 C6.6 0 13.2 0 20 0 C19.67 2.64 19.34 5.28 19 8 C14.545 8.495 14.545 8.495 10 9 C10.99 8.67 11.98 8.34 13 8 C13 5.69 13 3.38 13 1 C8.71 1 4.42 1 0 1 C0 0.67 0 0.34 0 0 Z " fill="#F94906" transform="translate(12,26)"/>
<path d="M0 0 C4.29 0 8.58 0 13 0 C13 1.65 13 3.3 13 5 C8.71 5 4.42 5 0 5 C0 3.35 0 1.7 0 0 Z " fill="#FFC959" transform="translate(25,11)"/>
<path d="M0 0 C0 1.98 0 3.96 0 6 C-1.98 6 -3.96 6 -6 6 C-6.33 4.68 -6.66 3.36 -7 2 C-8.65 2 -10.3 2 -12 2 C-12.33 3.32 -12.66 4.64 -13 6 C-13 4.35 -13 2.7 -13 1 C-8.61414671 0.29826347 -4.44209357 -0.10834375 0 0 Z " fill="#CE2B00" transform="translate(25,28)"/>
<path d="M0 0 C2.64 0 5.28 0 8 0 C8 1.65 8 3.3 8 5 C5.69 5 3.38 5 1 5 C0.67 3.35 0.34 1.7 0 0 Z " fill="#C92000" transform="translate(17,16)"/>
<path d="M0 0 C0.33 0 0.66 0 1 0 C1 3.96 1 7.92 1 12 C-0.32 12 -1.64 12 -3 12 C-3 9.36 -3 6.72 -3 4 C-2.34 3.67 -1.68 3.34 -1 3 C-0.67 2.01 -0.34 1.02 0 0 Z " fill="#330A03" transform="translate(49,3)"/>
<path d="M0 0 C1.53166168 4.08443115 0.63081652 7.79455657 0 12 C-1.5625 10.8125 -1.5625 10.8125 -3 9 C-2.73865785 5.602552 -1.64391844 2.95905318 0 0 Z " fill="#B21A00" transform="translate(44,32)"/>
</svg>
