<?xml version="1.0" encoding="UTF-8"?>
<svg version="1.1" xmlns="http://www.w3.org/2000/svg" width="50" height="50">
<path d="M0 0 C0.94875 0.350625 1.8975 0.70125 2.875 1.0625 C2.875 3.0425 2.875 5.0225 2.875 7.0625 C-2.57904158 10.68404155 -6.56952256 11.69009597 -13.0625 11.8125 C-14.23135742 11.85697266 -14.23135742 11.85697266 -15.42382812 11.90234375 C-17.32368177 11.97227701 -19.2243406 12.01974051 -21.125 12.0625 C-20.36574219 12.05089844 -19.60648438 12.03929687 -18.82421875 12.02734375 C-17.83035156 12.01832031 -16.83648437 12.00929688 -15.8125 12 C-14.82636719 11.98839844 -13.84023438 11.97679687 -12.82421875 11.96484375 C-10.125 12.0625 -10.125 12.0625 -7.125 13.0625 C-7.125 13.7225 -7.125 14.3825 -7.125 15.0625 C-13.75847695 16.62190688 -18.70031738 17.63237305 -25.125 15.0625 C-25.125 14.0725 -25.125 13.0825 -25.125 12.0625 C-24.465 12.0625 -23.805 12.0625 -23.125 12.0625 C-23.125 11.4025 -23.125 10.7425 -23.125 10.0625 C-24.445 9.7325 -25.765 9.4025 -27.125 9.0625 C-26.795 8.0725 -26.465 7.0825 -26.125 6.0625 C-28.6 5.0725 -28.6 5.0725 -31.125 4.0625 C-31.125 3.4025 -31.125 2.7425 -31.125 2.0625 C-27.7230513 -0.03100689 -25.07227588 -0.11692163 -21.125 0.0625 C-21.125 0.7225 -21.125 1.3825 -21.125 2.0625 C-15.845 2.0625 -10.565 2.0625 -5.125 2.0625 C-5.125 1.4025 -5.125 0.7425 -5.125 0.0625 C-3.125 -0.9375 -3.125 -0.9375 0 0 Z M-4.125 2.0625 C-4.785 2.7225 -5.445 3.3825 -6.125 4.0625 C-9.0157496 4.5298667 -11.84160569 4.89949342 -14.75 5.1875 C-15.55179688 5.27386719 -16.35359375 5.36023437 -17.1796875 5.44921875 C-19.16063635 5.66146327 -21.14272718 5.86299931 -23.125 6.0625 C-22.795 6.7225 -22.465 7.3825 -22.125 8.0625 C-21.14917969 8.05089844 -20.17335938 8.03929687 -19.16796875 8.02734375 C-17.89566406 8.01832031 -16.62335937 8.00929688 -15.3125 8 C-14.04792969 7.98839844 -12.78335937 7.97679687 -11.48046875 7.96484375 C-8.125 8.0625 -8.125 8.0625 -5.125 9.0625 C-2.36996542 7.3918081 -2.36996542 7.3918081 -0.125 5.0625 C-0.125 4.0725 -0.125 3.0825 -0.125 2.0625 C-1.445 2.0625 -2.765 2.0625 -4.125 2.0625 Z " fill="#2D83A4" transform="translate(41.125,26.9375)"/>
<path d="M0 0 C1.4540625 0.0309375 1.4540625 0.0309375 2.9375 0.0625 C2.9375 0.7225 2.9375 1.3825 2.9375 2.0625 C9.61879548 5.40314774 20.00958638 3.11688131 26.9375 1.0625 C27.9275 0.7325 28.9175 0.4025 29.9375 0.0625 C30.60416667 2.0625 31.27083333 4.0625 31.9375 6.0625 C27.75987097 7.63660012 24.34025519 8.30376552 19.8828125 8.2578125 C18.77421875 8.25136719 17.665625 8.24492188 16.5234375 8.23828125 C15.38132812 8.22152344 14.23921875 8.20476563 13.0625 8.1875 C11.8971875 8.17847656 10.731875 8.16945313 9.53125 8.16015625 C6.66645423 8.13667432 3.80208465 8.10383141 0.9375 8.0625 C0.9375 7.4025 0.9375 6.7425 0.9375 6.0625 C-2.0325 5.5675 -2.0325 5.5675 -5.0625 5.0625 C-3.9375 0.08035714 -3.9375 0.08035714 0 0 Z M20.9375 5.0625 C24.9375 6.0625 24.9375 6.0625 24.9375 6.0625 Z M6.9375 6.0625 C6.9375 6.3925 6.9375 6.7225 6.9375 7.0625 C10.2375 7.0625 13.5375 7.0625 16.9375 7.0625 C16.9375 6.7325 16.9375 6.4025 16.9375 6.0625 C13.6375 6.0625 10.3375 6.0625 6.9375 6.0625 Z " fill="#2D83A4" transform="translate(12.0625,41.9375)"/>
<path d="M0 0 C0.66 0 1.32 0 2 0 C2.56191279 3.85311627 2.75343265 5.89852497 0.51171875 9.17578125 C-1.26619453 11.18927724 -3.08580841 13.11612366 -5 15 C-7.22081212 16.81493293 -7.22081212 16.81493293 -7.3125 19.375 C-6.94676087 22.4472087 -5.9403706 23.65538552 -4 26 C-4 26.66 -4 27.32 -4 28 C-8.21708244 26.49389913 -9.94467452 23.88228147 -12 20 C-11.84188156 16.68478345 -11.37191759 15.37118977 -9.00390625 13.0078125 C-7.79541016 12.07582031 -7.79541016 12.07582031 -6.5625 11.125 C-2.34189494 7.60112975 -0.7892543 5.41202949 0 0 Z " fill="#FF9900" transform="translate(30,0)"/>
<path d="M0 0 C-1.49097658 3.7952131 -3.75700849 5.61042731 -7 8 C-6.855625 8.556875 -6.71125 9.11375 -6.5625 9.6875 C-6.2840625 10.8321875 -6.2840625 10.8321875 -6 12 C-5.773125 12.845625 -5.54625 13.69125 -5.3125 14.5625 C-5 17 -5 17 -7 20 C-8.32 19.67 -9.64 19.34 -11 19 C-10.67 18.01 -10.34 17.02 -10 16 C-10.66 15.01 -11.32 14.02 -12 13 C-12.4375 10.0625 -12.4375 10.0625 -12 7 C-9.8125 4.8125 -9.8125 4.8125 -7 3 C-6.113125 2.4225 -5.22625 1.845 -4.3125 1.25 C-2 0 -2 0 0 0 Z " fill="#FF9900" transform="translate(37,9)"/>
</svg>
