<?xml version="1.0" encoding="UTF-8"?>
<svg version="1.1" xmlns="http://www.w3.org/2000/svg" width="50" height="50">
<path d="M0 0 C3.8125 0.9375 3.8125 0.9375 5.8125 2.9375 C8.82555957 2.54871812 10.20935311 1.67293126 12.8125 -0.0625 C19.13508065 -0.5141129 19.13508065 -0.5141129 22.8125 1.9375 C23.359375 4.21484375 23.359375 4.21484375 23.5625 6.875 C23.63984375 7.75027344 23.7171875 8.62554687 23.796875 9.52734375 C23.8125 11.9375 23.8125 11.9375 22.8125 14.9375 C23.92625 15.0921875 23.92625 15.0921875 25.0625 15.25 C28.23073924 16.04205981 29.69194524 16.42424992 31.8125 18.9375 C32.15128788 21.96508055 32.04142133 24.90429232 31.8125 27.9375 C25.0625 31.9375 25.0625 31.9375 22.8125 31.9375 C22.85890625 32.69675781 22.9053125 33.45601562 22.953125 34.23828125 C23.00726563 35.72908203 23.00726563 35.72908203 23.0625 37.25 C23.10890625 38.23613281 23.1553125 39.22226562 23.203125 40.23828125 C22.8125 42.9375 22.8125 42.9375 20.98046875 44.765625 C17.99930565 46.37706451 16.15907595 46.41558228 12.8125 45.9375 C9.9375 43.9375 9.9375 43.9375 7.8125 41.9375 C7.235 42.22625 6.6575 42.515 6.0625 42.8125 C5.32 43.18375 4.5775 43.555 3.8125 43.9375 C3.19375 44.329375 2.575 44.72125 1.9375 45.125 C-1.09907652 46.28604396 -3.09248816 45.7935671 -6.1875 44.9375 C-7.859375 43.6796875 -7.859375 43.6796875 -9.1875 41.9375 C-9.48046875 39.67578125 -9.48046875 39.67578125 -9.375 37.25 C-9.34792969 36.44175781 -9.32085937 35.63351563 -9.29296875 34.80078125 C-9.25816406 34.18589844 -9.22335937 33.57101563 -9.1875 32.9375 C-10.30125 32.36 -11.415 31.7825 -12.5625 31.1875 C-14.75936222 29.91820183 -16.06970019 29.09115192 -17.625 27.0625 C-18.39431292 24.15620673 -18.5618742 21.93249363 -18.1875 18.9375 C-15.98693285 15.80592368 -14.68591035 15.05251777 -10.9375 14.1875 C-10.03 14.105 -9.1225 14.0225 -8.1875 13.9375 C-8.5175 13.2775 -8.8475 12.6175 -9.1875 11.9375 C-9.67596856 7.62269437 -9.62551339 5.59452008 -7.1875 1.9375 C-4.05827648 -0.14864901 -3.51414585 -0.35205468 0 0 Z M-3.1875 4.9375 C-4.54368499 6.06284105 -4.54368499 6.06284105 -4.25 9 C-4.229375 9.969375 -4.20875 10.93875 -4.1875 11.9375 C-2.2075 11.9375 -0.2275 11.9375 1.8125 11.9375 C2.4725 10.6175 3.1325 9.2975 3.8125 7.9375 C2.5636573 6.3541747 2.5636573 6.3541747 0.8125 4.9375 C-0.5075 4.9375 -1.8275 4.9375 -3.1875 4.9375 Z M10.8125 6.9375 C11.31006092 9.69391416 11.31006092 9.69391416 12.8125 11.9375 C15.3125 12.10416667 15.3125 12.10416667 17.8125 11.9375 C19.10883621 10.87104885 19.10883621 10.87104885 18.875 8.375 C18.854375 7.570625 18.83375 6.76625 18.8125 5.9375 C15.40995511 4.7223054 13.87998874 5.07509612 10.8125 6.9375 Z M3.8125 16.9375 C3.8125 17.2675 3.8125 17.5975 3.8125 17.9375 C6.1225 17.9375 8.4325 17.9375 10.8125 17.9375 C10.8125 17.6075 10.8125 17.2775 10.8125 16.9375 C8.5025 16.9375 6.1925 16.9375 3.8125 16.9375 Z M-7.1875 17.9375 C-9.1675 18.9275 -11.1475 19.9175 -13.1875 20.9375 C-12.91132467 22.87824861 -12.91132467 22.87824861 -12.1875 24.9375 C-9.37240007 27.2148501 -9.37240007 27.2148501 -6.1875 26.9375 C-5.37782562 24.02267222 -4.96904007 22.47636783 -6.125 19.625 C-6.475625 19.068125 -6.82625 18.51125 -7.1875 17.9375 Z M1.8125 18.9375 C1.1246764 21.29117713 1.1246764 21.29117713 0.8125 23.9375 C1.8025 25.4225 1.8025 25.4225 2.8125 26.9375 C2.8125 24.2975 2.8125 21.6575 2.8125 18.9375 C2.4825 18.9375 2.1525 18.9375 1.8125 18.9375 Z M20.8125 18.9375 C20.01296862 22.22446233 19.71591064 23.64773192 20.8125 26.9375 C23.77425123 26.32472388 25.19308783 25.68377478 27.8125 23.9375 C27.4825 22.9475 27.1525 21.9575 26.8125 20.9375 C23.80402582 19.71229736 23.80402582 19.71229736 20.8125 18.9375 Z M12.8125 21.9375 C13.8125 23.9375 13.8125 23.9375 13.8125 23.9375 Z M2.8125 26.9375 C3.1425 27.5975 3.4725 28.2575 3.8125 28.9375 C6.1225 28.9375 8.4325 28.9375 10.8125 28.9375 C10.8125 28.2775 10.8125 27.6175 10.8125 26.9375 C8.1725 26.9375 5.5325 26.9375 2.8125 26.9375 Z M-3.1875 32.9375 C-4.54368499 34.06284105 -4.54368499 34.06284105 -4.25 37 C-4.229375 37.969375 -4.20875 38.93875 -4.1875 39.9375 C-3.1975 40.4325 -3.1975 40.4325 -2.1875 40.9375 C-0.15605359 40.00303465 1.84783587 39.00525224 3.8125 37.9375 C3.17270151 35.90508273 3.17270151 35.90508273 1.8125 33.9375 C-0.69167589 33.03621362 -0.69167589 33.03621362 -3.1875 32.9375 Z M12.8125 32.9375 C12.1525 34.5875 11.4925 36.2375 10.8125 37.9375 C13.86830974 40.52527208 13.86830974 40.52527208 17.8125 40.9375 C17.8125 38.2975 17.8125 35.6575 17.8125 32.9375 C16.1625 32.9375 14.5125 32.9375 12.8125 32.9375 Z " fill="#009BA3" transform="translate(18.1875,2.0625)"/>
</svg>
