<?xml version="1.0" encoding="UTF-8"?>
<svg version="1.1" xmlns="http://www.w3.org/2000/svg" width="50" height="50">
<path d="M0 0 C1.69044434 0.00374634 1.69044434 0.00374634 3.41503906 0.00756836 C4.84041992 0.01667236 6.26580078 0.02577637 7.734375 0.03515625 C12.271875 0.05578125 16.809375 0.07640625 21.484375 0.09765625 C21.484375 16.59765625 21.484375 33.09765625 21.484375 50.09765625 C7.294375 50.09765625 -6.895625 50.09765625 -21.515625 50.09765625 C-21.515625 49.43765625 -21.515625 48.77765625 -21.515625 48.09765625 C-22.505625 48.09765625 -23.495625 48.09765625 -24.515625 48.09765625 C-24.845625 46.44765625 -25.175625 44.79765625 -25.515625 43.09765625 C-26.175625 43.09765625 -26.835625 43.09765625 -27.515625 43.09765625 C-27.61471436 33.70618722 -27.64561344 24.44023921 -26.515625 15.09765625 C-25.855625 15.09765625 -25.195625 15.09765625 -24.515625 15.09765625 C-24.515625 13.77765625 -24.515625 12.45765625 -24.515625 11.09765625 C-23.195625 11.09765625 -21.875625 11.09765625 -20.515625 11.09765625 C-20.515625 10.43765625 -20.515625 9.77765625 -20.515625 9.09765625 C-19.855625 9.09765625 -19.195625 9.09765625 -18.515625 9.09765625 C-18.515625 8.10765625 -18.515625 7.11765625 -18.515625 6.09765625 C-17.525625 6.09765625 -16.535625 6.09765625 -15.515625 6.09765625 C-15.515625 5.10765625 -15.515625 4.11765625 -15.515625 3.09765625 C-13.865625 3.09765625 -12.215625 3.09765625 -10.515625 3.09765625 C-10.515625 2.43765625 -10.515625 1.77765625 -10.515625 1.09765625 C-6.97374222 -0.00063144 -3.6946488 -0.01679386 0 0 Z " fill="#970A00" transform="translate(27.515625,-0.09765625)"/>
<path d="M0 0 C1.69044434 0.00374634 1.69044434 0.00374634 3.41503906 0.00756836 C4.84041992 0.01667236 6.26580078 0.02577637 7.734375 0.03515625 C12.271875 0.05578125 16.809375 0.07640625 21.484375 0.09765625 C21.484375 16.59765625 21.484375 33.09765625 21.484375 50.09765625 C7.294375 50.09765625 -6.895625 50.09765625 -21.515625 50.09765625 C-21.515625 49.43765625 -21.515625 48.77765625 -21.515625 48.09765625 C-22.505625 48.09765625 -23.495625 48.09765625 -24.515625 48.09765625 C-24.845625 46.44765625 -25.175625 44.79765625 -25.515625 43.09765625 C-26.175625 43.09765625 -26.835625 43.09765625 -27.515625 43.09765625 C-27.61471436 33.70618722 -27.64561344 24.44023921 -26.515625 15.09765625 C-25.855625 15.09765625 -25.195625 15.09765625 -24.515625 15.09765625 C-24.515625 13.77765625 -24.515625 12.45765625 -24.515625 11.09765625 C-23.195625 11.09765625 -21.875625 11.09765625 -20.515625 11.09765625 C-20.515625 10.43765625 -20.515625 9.77765625 -20.515625 9.09765625 C-19.855625 9.09765625 -19.195625 9.09765625 -18.515625 9.09765625 C-18.515625 8.10765625 -18.515625 7.11765625 -18.515625 6.09765625 C-17.525625 6.09765625 -16.535625 6.09765625 -15.515625 6.09765625 C-15.515625 5.10765625 -15.515625 4.11765625 -15.515625 3.09765625 C-13.865625 3.09765625 -12.215625 3.09765625 -10.515625 3.09765625 C-10.515625 2.43765625 -10.515625 1.77765625 -10.515625 1.09765625 C-6.97374222 -0.00063144 -3.6946488 -0.01679386 0 0 Z M-1.515625 1.09765625 C-1.515625 2.08765625 -1.515625 3.07765625 -1.515625 4.09765625 C-3.495625 4.09765625 -5.475625 4.09765625 -7.515625 4.09765625 C-7.515625 4.75765625 -7.515625 5.41765625 -7.515625 6.09765625 C-9.165625 6.09765625 -10.815625 6.09765625 -12.515625 6.09765625 C-12.515625 7.08765625 -12.515625 8.07765625 -12.515625 9.09765625 C-13.835625 9.09765625 -15.155625 9.09765625 -16.515625 9.09765625 C-16.515625 10.08765625 -16.515625 11.07765625 -16.515625 12.09765625 C-17.175625 12.09765625 -17.835625 12.09765625 -18.515625 12.09765625 C-18.515625 12.75765625 -18.515625 13.41765625 -18.515625 14.09765625 C-19.175625 14.09765625 -19.835625 14.09765625 -20.515625 14.09765625 C-20.515625 15.74765625 -20.515625 17.39765625 -20.515625 19.09765625 C-21.175625 19.09765625 -21.835625 19.09765625 -22.515625 19.09765625 C-22.515625 21.73765625 -22.515625 24.37765625 -22.515625 27.09765625 C-23.505625 27.09765625 -24.495625 27.09765625 -25.515625 27.09765625 C-25.515625 31.38765625 -25.515625 35.67765625 -25.515625 40.09765625 C-24.525625 40.09765625 -23.535625 40.09765625 -22.515625 40.09765625 C-22.515625 41.08765625 -22.515625 42.07765625 -22.515625 43.09765625 C-21.855625 43.09765625 -21.195625 43.09765625 -20.515625 43.09765625 C-20.515625 43.75765625 -20.515625 44.41765625 -20.515625 45.09765625 C-19.855625 45.09765625 -19.195625 45.09765625 -18.515625 45.09765625 C-18.515625 45.75765625 -18.515625 46.41765625 -18.515625 47.09765625 C-6.305625 46.76765625 5.904375 46.43765625 18.484375 46.09765625 C18.484375 38.83765625 18.484375 31.57765625 18.484375 24.09765625 C17.494375 24.09765625 16.504375 24.09765625 15.484375 24.09765625 C15.484375 25.08765625 15.484375 26.07765625 15.484375 27.09765625 C14.164375 27.09765625 12.844375 27.09765625 11.484375 27.09765625 C11.484375 25.11765625 11.484375 23.13765625 11.484375 21.09765625 C12.144375 21.09765625 12.804375 21.09765625 13.484375 21.09765625 C13.484375 20.43765625 13.484375 19.77765625 13.484375 19.09765625 C14.144375 19.09765625 14.804375 19.09765625 15.484375 19.09765625 C15.484375 16.78765625 15.484375 14.47765625 15.484375 12.09765625 C14.164375 12.09765625 12.844375 12.09765625 11.484375 12.09765625 C10.989375 9.12765625 10.989375 9.12765625 10.484375 6.09765625 C9.494375 6.09765625 8.504375 6.09765625 7.484375 6.09765625 C7.484375 5.43765625 7.484375 4.77765625 7.484375 4.09765625 C6.494375 4.09765625 5.504375 4.09765625 4.484375 4.09765625 C4.484375 3.10765625 4.484375 2.11765625 4.484375 1.09765625 C2.504375 1.09765625 0.524375 1.09765625 -1.515625 1.09765625 Z " fill="#200703" transform="translate(27.515625,-0.09765625)"/>
<path d="M0 0 C4.62 0 9.24 0 14 0 C14 0.66 14 1.32 14 2 C13.34 2 12.68 2 12 2 C12 2.66 12 3.32 12 4 C11.34 4 10.68 4 10 4 C10 5.98 10 7.96 10 10 C11.32 10 12.64 10 14 10 C14 9.01 14 8.02 14 7 C14.99 7 15.98 7 17 7 C17 14.26 17 21.52 17 29 C4.79 29.33 -7.42 29.66 -20 30 C-20 29.34 -20 28.68 -20 28 C-20.66 28 -21.32 28 -22 28 C-22 27.34 -22 26.68 -22 26 C-20.02 26 -18.04 26 -16 26 C-16 25.01 -16 24.02 -16 23 C-15.34 23 -14.68 23 -14 23 C-14 21.68 -14 20.36 -14 19 C-12.68 19 -11.36 19 -10 19 C-10 17.68 -10 16.36 -10 15 C-7.69 15 -5.38 15 -3 15 C-3 15.66 -3 16.32 -3 17 C-1.02 17 0.96 17 3 17 C3 15.02 3 13.04 3 11 C2.34 11 1.68 11 1 11 C0.67 7.37 0.34 3.74 0 0 Z " fill="#970900" transform="translate(29,17)"/>
<path d="M0 0 C0.66 0 1.32 0 2 0 C2 1.32 2 2.64 2 4 C2.66 4 3.32 4 4 4 C4 6.31 4 8.62 4 11 C4.66 11 5.32 11 6 11 C6 12.98 6 14.96 6 17 C4.02 17 2.04 17 0 17 C0 16.34 0 15.68 0 15 C-2.31 15 -4.62 15 -7 15 C-7 16.32 -7 17.64 -7 19 C-10.9813783 20.3271261 -14.85045227 20.06915913 -19 20 C-19 19.34 -19 18.68 -19 18 C-19.66 18 -20.32 18 -21 18 C-21 16.35 -21 14.7 -21 13 C-17.04 13 -13.08 13 -9 13 C-9 12.01 -9 11.02 -9 10 C-8.34 10 -7.68 10 -7 10 C-7 9.01 -7 8.02 -7 7 C-6.01 7 -5.02 7 -4 7 C-4 6.01 -4 5.02 -4 4 C-3.34 4 -2.68 4 -2 4 C-2 3.34 -2 2.68 -2 2 C-1.34 2 -0.68 2 0 2 C0 1.34 0 0.68 0 0 Z " fill="#C91600" transform="translate(26,17)"/>
<path d="M0 0 C1.32 0 2.64 0 4 0 C4 0.66 4 1.32 4 2 C5.32 2.33 6.64 2.66 8 3 C8 3.99 8 4.98 8 6 C8.66 6 9.32 6 10 6 C10 17.88 10 29.76 10 42 C-2.87 42 -15.74 42 -29 42 C-29 41.67 -29 41.34 -29 41 C-24.78866447 39.97638691 -20.83810136 39.88510717 -16.51171875 39.90234375 C-15.80852005 39.9037587 -15.10532135 39.90517365 -14.3808136 39.90663147 C-12.14966456 39.91219891 -9.91861836 39.92474525 -7.6875 39.9375 C-6.16862125 39.94251921 -4.64974091 39.94708138 -3.13085938 39.95117188 C0.57949793 39.96130393 4.28963476 39.98088535 8 40 C8 32.74 8 25.48 8 18 C7.01 18 6.02 18 5 18 C5 18.99 5 19.98 5 21 C3.68 21 2.36 21 1 21 C1 19.02 1 17.04 1 15 C1.66 15 2.32 15 3 15 C3 14.34 3 13.68 3 13 C3.66 13 4.32 13 5 13 C5 10.69 5 8.38 5 6 C3.68 6 2.36 6 1 6 C0.67 4.02 0.34 2.04 0 0 Z " fill="#520100" transform="translate(38,6)"/>
<path d="M0 0 C2.31 0 4.62 0 7 0 C7 0.66 7 1.32 7 2 C8.32 2 9.64 2 11 2 C11 2.99 11 3.98 11 5 C11.66 5.33 12.32 5.66 13 6 C12.34 6 11.68 6 11 6 C11 6.66 11 7.32 11 8 C9.68 8 8.36 8 7 8 C7 9.32 7 10.64 7 12 C13.6 12.33 20.2 12.66 27 13 C27 13.33 27 13.66 27 14 C14.79 14.33 2.58 14.66 -10 15 C-10 14.34 -10 13.68 -10 13 C-10.66 13 -11.32 13 -12 13 C-12 12.34 -12 11.68 -12 11 C-10.02 11 -8.04 11 -6 11 C-6 10.01 -6 9.02 -6 8 C-5.34 8 -4.68 8 -4 8 C-4 6.68 -4 5.36 -4 4 C-2.68 4 -1.36 4 0 4 C0 2.68 0 1.36 0 0 Z " fill="#940900" transform="translate(19,32)"/>
<path d="M0 0 C1.32 0 2.64 0 4 0 C4 1.32 4 2.64 4 4 C4.99 4 5.98 4 7 4 C7 7.63 7 11.26 7 15 C-0.92 15 -8.84 15 -17 15 C-15.68 14.67 -14.36 14.34 -13 14 C-13 12.68 -13 11.36 -13 10 C-11.68 10 -10.36 10 -9 10 C-9 9.34 -9 8.68 -9 8 C-5.535 7.505 -5.535 7.505 -2 7 C-2 7.99 -2 8.98 -2 10 C-1.34 10 -0.68 10 0 10 C0 6.7 0 3.4 0 0 Z " fill="#C61600" transform="translate(39,30)"/>
<path d="M0 0 C1.32 0 2.64 0 4 0 C4 0.66 4 1.32 4 2 C5.32 2.33 6.64 2.66 8 3 C8 3.99 8 4.98 8 6 C8.66 6 9.32 6 10 6 C10.05422947 7.4370809 10.09289723 8.87475462 10.125 10.3125 C10.14820313 11.11300781 10.17140625 11.91351563 10.1953125 12.73828125 C10 15 10 15 8 18 C7.01 18 6.02 18 5 18 C5 18.99 5 19.98 5 21 C3.68 21 2.36 21 1 21 C1 19.02 1 17.04 1 15 C1.66 15 2.32 15 3 15 C3 14.34 3 13.68 3 13 C3.66 13 4.32 13 5 13 C5 10.69 5 8.38 5 6 C3.68 6 2.36 6 1 6 C0.67 4.02 0.34 2.04 0 0 Z " fill="#5C0200" transform="translate(38,6)"/>
<path d="M0 0 C0.99 0 1.98 0 3 0 C3 2.31 3 4.62 3 7 C3.66 7 4.32 7 5 7 C5 7.66 5 8.32 5 9 C7.64 9 10.28 9 13 9 C13 9.99 13 10.98 13 12 C12.34 12 11.68 12 11 12 C11 12.99 11 13.98 11 15 C8.36 15 5.72 15 3 15 C3 14.01 3 13.02 3 12 C2.01 12 1.02 12 0 12 C0 8.04 0 4.08 0 0 Z " fill="#B91200" transform="translate(2,28)"/>
<path d="M0 0 C5.61 0 11.22 0 17 0 C16.67 1.32 16.34 2.64 16 4 C15.34 4 14.68 4 14 4 C14 4.66 14 5.32 14 6 C13.01 6 12.02 6 11 6 C10.67 6.66 10.34 7.32 10 8 C10 7.34 10 6.68 10 6 C7.69 6 5.38 6 3 6 C3 5.34 3 4.68 3 4 C2.01 4 1.02 4 0 4 C0 2.68 0 1.36 0 0 Z " fill="#280803" transform="translate(32,0)"/>
<path d="M0 0 C1.65 0 3.3 0 5 0 C5 0.66 5 1.32 5 2 C5.99 2 6.98 2 8 2 C8 2.66 8 3.32 8 4 C8.66 4 9.32 4 10 4 C10 4.99 10 5.98 10 7 C8.68 7 7.36 7 6 7 C6 9.31 6 11.62 6 14 C4.35 14 2.7 14 1 14 C0.67 9.38 0.34 4.76 0 0 Z " fill="#FB4101" transform="translate(27,2)"/>
<path d="M0 0 C0.66 0 1.32 0 2 0 C2 1.32 2 2.64 2 4 C2.66 4 3.32 4 4 4 C4 6.31 4 8.62 4 11 C0.37 11 -3.26 11 -7 11 C-7 11.66 -7 12.32 -7 13 C-7.66 13 -8.32 13 -9 13 C-9 12.01 -9 11.02 -9 10 C-8.34 10 -7.68 10 -7 10 C-7 9.01 -7 8.02 -7 7 C-6.01 7 -5.02 7 -4 7 C-4 6.01 -4 5.02 -4 4 C-3.34 4 -2.68 4 -2 4 C-2 3.34 -2 2.68 -2 2 C-1.34 2 -0.68 2 0 2 C0 1.34 0 0.68 0 0 Z " fill="#FD3600" transform="translate(26,17)"/>
<path d="M0 0 C2 3 2 3 2 6 C3.32 6 4.64 6 6 6 C6 7.65 6 9.3 6 11 C1.38 11 -3.24 11 -8 11 C-8.33 12.32 -8.66 13.64 -9 15 C-9 13.68 -9 12.36 -9 11 C-9.66 10.67 -10.32 10.34 -11 10 C-8.69 10 -6.38 10 -4 10 C-4 7.69 -4 5.38 -4 3 C-2.68 3 -1.36 3 0 3 C0 2.01 0 1.02 0 0 Z " fill="#C51900" transform="translate(37,6)"/>
<path d="M0 0 C0 0.99 0 1.98 0 3 C0.66 3 1.32 3 2 3 C2 3.66 2 4.32 2 5 C0.68 5 -0.64 5 -2 5 C-2 5.99 -2 6.98 -2 8 C-6.29 8 -10.58 8 -15 8 C-13.68 7.67 -12.36 7.34 -11 7 C-11 5.68 -11 4.36 -11 3 C-9.68 3 -8.36 3 -7 3 C-7 2.34 -7 1.68 -7 1 C-4.53721199 -0.231394 -2.7204945 -0.07159196 0 0 Z " fill="#C61600" transform="translate(37,37)"/>
<path d="M0 0 C3.96 0 7.92 0 12 0 C12 0.99 12 1.98 12 3 C11.34 3 10.68 3 10 3 C10 4.32 10 5.64 10 7 C7.36 7 4.72 7 2 7 C2 6.34 2 5.68 2 5 C1.34 5 0.68 5 0 5 C0 3.35 0 1.7 0 0 Z " fill="#FB6D27" transform="translate(5,30)"/>
<path d="M0 0 C1.32 0 2.64 0 4 0 C4 0.66 4 1.32 4 2 C5.32 2.33 6.64 2.66 8 3 C8 5.64 8 8.28 8 11 C7.01 11 6.02 11 5 11 C5 9.35 5 7.7 5 6 C3.68 6 2.36 6 1 6 C0.67 4.02 0.34 2.04 0 0 Z " fill="#7C0600" transform="translate(38,6)"/>
<path d="M0 0 C0.99 0 1.98 0 3 0 C3 0.66 3 1.32 3 2 C3.66 2 4.32 2 5 2 C5 2.99 5 3.98 5 5 C1.37 5 -2.26 5 -6 5 C-6 4.01 -6 3.02 -6 2 C-4.02 2 -2.04 2 0 2 C0 1.34 0 0.68 0 0 Z " fill="#FA3600" transform="translate(41,40)"/>
<path d="M0 0 C1.65 0 3.3 0 5 0 C5 0.66 5 1.32 5 2 C4.34 2 3.68 2 3 2 C3 2.66 3 3.32 3 4 C2.01 4 1.02 4 0 4 C-0.33 4.66 -0.66 5.32 -1 6 C-1 5.34 -1 4.68 -1 4 C-3.31 4 -5.62 4 -8 4 C-7.67 3.34 -7.34 2.68 -7 2 C-4.69 2 -2.38 2 0 2 C0 1.34 0 0.68 0 0 Z " fill="#560200" transform="translate(43,2)"/>
<path d="M0 0 C1.32 0 2.64 0 4 0 C4 2.64 4 5.28 4 8 C2.68 8 1.36 8 0 8 C0 5.36 0 2.72 0 0 Z " fill="#FEAF35" transform="translate(28,6)"/>
<path d="M0 0 C0.99 0 1.98 0 3 0 C3 0.99 3 1.98 3 3 C5.64 3 8.28 3 11 3 C11 3.33 11 3.66 11 4 C7.37 4 3.74 4 0 4 C0 4.66 0 5.32 0 6 C-0.66 6 -1.32 6 -2 6 C-2 5.01 -2 4.02 -2 3 C-1.34 3 -0.68 3 0 3 C0 2.01 0 1.02 0 0 Z " fill="#F38239" transform="translate(19,24)"/>
<path d="M0 0 C1.32 0 2.64 0 4 0 C4.33 1.98 4.66 3.96 5 6 C3.68 6 2.36 6 1 6 C0.67 4.02 0.34 2.04 0 0 Z " fill="#970900" transform="translate(38,6)"/>
<path d="M0 0 C0.99 0 1.98 0 3 0 C3 2.97 3 5.94 3 9 C2.01 9.495 2.01 9.495 1 10 C0.67 6.7 0.34 3.4 0 0 Z " fill="#CA1F00" transform="translate(2,28)"/>
<path d="M0 0 C0.66 0 1.32 0 2 0 C2 1.65 2 3.3 2 5 C0.68 5 -0.64 5 -2 5 C-2 5.66 -2 6.32 -2 7 C-2.66 7 -3.32 7 -4 7 C-4 6.01 -4 5.02 -4 4 C-3.34 4 -2.68 4 -2 4 C-2 3.34 -2 2.68 -2 2 C-1.34 2 -0.68 2 0 2 C0 1.34 0 0.68 0 0 Z " fill="#FBAC46" transform="translate(26,17)"/>
<path d="M0 0 C0.99 0 1.98 0 3 0 C3 3.3 3 6.6 3 10 C2.67 10 2.34 10 2 10 C1.67 8.02 1.34 6.04 1 4 C-0.65 4 -2.3 4 -4 4 C-2.68 3.67 -1.36 3.34 0 3 C0 2.01 0 1.02 0 0 Z " fill="#840500" transform="translate(43,24)"/>
</svg>
