<?xml version="1.0" encoding="UTF-8"?>
<svg version="1.1" xmlns="http://www.w3.org/2000/svg" width="50" height="50">
<path d="M0 0 C2.64 0 5.28 0 8 0 C8 0.66 8 1.32 8 2 C8.66 2 9.32 2 10 2 C10 2.99 10 3.98 10 5 C11.98 5 13.96 5 16 5 C16 5.99 16 6.98 16 8 C17.98 8 19.96 8 22 8 C22 8.99 22 9.98 22 11 C22.99 11 23.98 11 25 11 C25 11.99 25 12.98 25 14 C25.66 14 26.32 14 27 14 C27 23.9 27 33.8 27 44 C26.34 44 25.68 44 25 44 C25 44.99 25 45.98 25 47 C23.02 47 21.04 47 19 47 C19 47.99 19 48.98 19 50 C6.13 50 -6.74 50 -20 50 C-20 49.01 -20 48.02 -20 47 C-20.99 47 -21.98 47 -23 47 C-23 36.11 -23 25.22 -23 14 C-22.01 14 -21.02 14 -20 14 C-20 13.01 -20 12.02 -20 11 C-18.02 11 -16.04 11 -14 11 C-14 10.01 -14 9.02 -14 8 C-13.195625 7.87625 -12.39125 7.7525 -11.5625 7.625 C-10.716875 7.41875 -9.87125 7.2125 -9 7 C-8.67 6.34 -8.34 5.68 -8 5 C-6.35 5 -4.7 5 -3 5 C-3 4.01 -3 3.02 -3 2 C-2.01 2 -1.02 2 0 2 C0 1.34 0 0.68 0 0 Z " fill="#973014" transform="translate(23,0)"/>
<path d="M0 0 C0.66 0 1.32 0 2 0 C2.33 3.63 2.66 7.26 3 11 C3.99 11.33 4.98 11.66 6 12 C6 13.32 6 14.64 6 16 C5.01 16 4.02 16 3 16 C3 18.31 3 20.62 3 23 C15.21 23 27.42 23 40 23 C40 22.01 40 21.02 40 20 C41.98 20 43.96 20 46 20 C46 18.02 46 16.04 46 14 C45.01 14 44.02 14 43 14 C43 12.35 43 10.7 43 9 C44.98 9 46.96 9 49 9 C49 15.6 49 22.2 49 29 C48.01 29 47.02 29 46 29 C46 29.66 46 30.32 46 31 C44.02 31 42.04 31 40 31 C40 31.99 40 32.98 40 34 C27.79 34 15.58 34 3 34 C3 33.01 3 32.02 3 31 C2.01 31 1.02 31 0 31 C0 20.77 0 10.54 0 0 Z " fill="#7F2312" transform="translate(1,15)"/>
<path d="M0 0 C1.98 0 3.96 0 6 0 C6 0.99 6 1.98 6 3 C6.99 3 7.98 3 9 3 C9 3.99 9 4.98 9 6 C10.98 6 12.96 6 15 6 C15 5.01 15 4.02 15 3 C15.99 3 16.98 3 18 3 C18 2.01 18 1.02 18 0 C19.65 0 21.3 0 23 0 C23 0.99 23 1.98 23 3 C24.98 3 26.96 3 29 3 C29 3.99 29 4.98 29 6 C29.99 6 30.98 6 32 6 C32 8.64 32 11.28 32 14 C31.01 14 30.02 14 29 14 C29 13.01 29 12.02 29 11 C27.02 11 25.04 11 23 11 C23 11.99 23 12.98 23 14 C21.35 14 19.7 14 18 14 C18 14.99 18 15.98 18 17 C16.02 17 14.04 17 12 17 C12 16.01 12 15.02 12 14 C5.4 14 -1.2 14 -8 14 C-8 14.99 -8 15.98 -8 17 C-8.99 17 -9.98 17 -11 17 C-11 13.37 -11 9.74 -11 6 C-9.02 6 -7.04 6 -5 6 C-5 5.01 -5 4.02 -5 3 C-3.35 3 -1.7 3 0 3 C0 2.01 0 1.02 0 0 Z " fill="#FFA78C" transform="translate(15,9)"/>
<path d="M0 0 C1.98 0 3.96 0 6 0 C6 1.98 6 3.96 6 6 C4.02 6 2.04 6 0 6 C0 6.99 0 7.98 0 9 C-12.21 9 -24.42 9 -37 9 C-37 7.02 -37 5.04 -37 3 C-24.79 3 -12.58 3 0 3 C0 2.01 0 1.02 0 0 Z " fill="#FE644A" transform="translate(41,29)"/>
<path d="M0 0 C0.99 0 1.98 0 3 0 C3 1.98 3 3.96 3 6 C2.01 6 1.02 6 0 6 C0 6.66 0 7.32 0 8 C-11.22 8 -22.44 8 -34 8 C-34 6.35 -34 4.7 -34 3 C-22.78 3 -11.56 3 0 3 C0 2.01 0 1.02 0 0 Z " fill="#A1380F" transform="translate(41,35)"/>
<path d="M0 0 C0.99 0.33 1.98 0.66 3 1 C2.34 1 1.68 1 1 1 C1 2.98 1 4.96 1 7 C-0.98 7 -2.96 7 -5 7 C-5 7.99 -5 8.98 -5 10 C-6.65 10 -8.3 10 -10 10 C-10 10.99 -10 11.98 -10 13 C-11.98 13 -13.96 13 -16 13 C-16 16.63 -16 20.26 -16 24 C-16.33 24 -16.66 24 -17 24 C-17 20.37 -17 16.74 -17 13 C-17.66 13 -18.32 13 -19 13 C-19 23.23 -19 33.46 -19 44 C-18.01 44 -17.02 44 -16 44 C-16 44.99 -16 45.98 -16 47 C-3.79 47 8.42 47 21 47 C21 46.01 21 45.02 21 44 C22.98 44 24.96 44 27 44 C27.495 43.01 27.495 43.01 28 42 C28 42.99 28 43.98 28 45 C26.02 45 24.04 45 22 45 C22 45.99 22 46.98 22 48 C9.13 48 -3.74 48 -17 48 C-17 47.01 -17 46.02 -17 45 C-17.99 45 -18.98 45 -20 45 C-20 34.11 -20 23.22 -20 12 C-19.01 12 -18.02 12 -17 12 C-17 11.01 -17 10.02 -17 9 C-15.02 9 -13.04 9 -11 9 C-11 8.01 -11 7.02 -11 6 C-10.195625 5.87625 -9.39125 5.7525 -8.5625 5.625 C-7.716875 5.41875 -6.87125 5.2125 -6 5 C-5.67 4.34 -5.34 3.68 -5 3 C-3.35 3 -1.7 3 0 3 C0 2.01 0 1.02 0 0 Z " fill="#C05822" transform="translate(20,2)"/>
<path d="M0 0 C0.99 0 1.98 0 3 0 C3 2.64 3 5.28 3 8 C2.01 8 1.02 8 0 8 C0 7.01 0 6.02 0 5 C-1.98 5 -3.96 5 -6 5 C-6 5.99 -6 6.98 -6 8 C-7.65 8 -9.3 8 -11 8 C-11 8.99 -11 9.98 -11 11 C-12.98 11 -14.96 11 -17 11 C-17 10.01 -17 9.02 -17 8 C-23.6 8 -30.2 8 -37 8 C-37 8.99 -37 9.98 -37 11 C-37.99 11 -38.98 11 -40 11 C-40 9.02 -40 7.04 -40 5 C-24.16 5.495 -24.16 5.495 -8 6 C-8 5.01 -8 4.02 -8 3 C-5.36 3 -2.72 3 0 3 C0 2.01 0 1.02 0 0 Z " fill="#FD6549" transform="translate(44,15)"/>
<path d="M0 0 C2.31 0 4.62 0 7 0 C7 0.99 7 1.98 7 3 C7.66 3 8.32 3 9 3 C9 5.64 9 8.28 9 11 C8.34 11 7.68 11 7 11 C7 12.32 7 13.64 7 15 C5.02 15 3.04 15 1 15 C1 14.01 1 13.02 1 12 C0.01 12 -0.98 12 -2 12 C-2 9.03 -2 6.06 -2 3 C-1.34 3 -0.68 3 0 3 C0 2.01 0 1.02 0 0 Z " fill="#BF0D11" transform="translate(23,0)"/>
<path d="M0 0 C7.59 0.33 15.18 0.66 23 1 C23 1.99 23 2.98 23 4 C29.93 4.495 29.93 4.495 37 5 C37 5.33 37 5.66 37 6 C24.79 6 12.58 6 0 6 C0.99 5.67 1.98 5.34 3 5 C3 3.68 3 2.36 3 1 C2.01 0.67 1.02 0.34 0 0 Z " fill="#AE3E12" transform="translate(4,26)"/>
<path d="M0 0 C1.98 0 3.96 0 6 0 C6 0.99 6 1.98 6 3 C6.99 3 7.98 3 9 3 C9 4.32 9 5.64 9 7 C9.66 7.33 10.32 7.66 11 8 C5.72 8 0.44 8 -5 8 C-5 8.99 -5 9.98 -5 11 C-6.98 11 -8.96 11 -11 11 C-11 9.35 -11 7.7 -11 6 C-9.02 6 -7.04 6 -5 6 C-5 5.01 -5 4.02 -5 3 C-3.35 3 -1.7 3 0 3 C0 2.01 0 1.02 0 0 Z " fill="#FD9B80" transform="translate(15,9)"/>
<path d="M0 0 C11.22 0 22.44 0 34 0 C34 0.99 34 1.98 34 3 C22.78 3 11.56 3 0 3 C0 2.01 0 1.02 0 0 Z " fill="#FF9D85" transform="translate(4,32)"/>
<path d="M0 0 C0.33 0.66 0.66 1.32 1 2 C1.66 2 2.32 2 3 2 C3 2.99 3 3.98 3 5 C4.98 5 6.96 5 9 5 C9 5.99 9 6.98 9 8 C10.98 8 12.96 8 15 8 C15 8.99 15 9.98 15 11 C15.99 11 16.98 11 18 11 C18 11.99 18 12.98 18 14 C18.66 14.33 19.32 14.66 20 15 C18.02 15 16.04 15 14 15 C14 14.01 14 13.02 14 12 C12.02 12 10.04 12 8 12 C8 11.01 8 10.02 8 9 C6.35 9 4.7 9 3 9 C3 9.99 3 10.98 3 12 C2.01 11.67 1.02 11.34 0 11 C0.66 11 1.32 11 2 11 C2 8.36 2 5.72 2 3 C1.34 3 0.68 3 0 3 C0 2.01 0 1.02 0 0 Z " fill="#B03A1F" transform="translate(30,0)"/>
<path d="M0 0 C1.98 0 3.96 0 6 0 C6 6.27 6 12.54 6 19 C5.01 19 4.02 19 3 19 C3 14.38 3 9.76 3 5 C2.01 5 1.02 5 0 5 C0 3.35 0 1.7 0 0 Z " fill="#7B1E12" transform="translate(44,24)"/>
<path d="M0 0 C5.94 0 11.88 0 18 0 C18 0.66 18 1.32 18 2 C13.04657734 2.99550706 8.34489309 3.13097403 3.3203125 3.09765625 C2.50754852 3.0962413 1.69478455 3.09482635 0.85739136 3.09336853 C-1.72011101 3.08780335 -4.2975242 3.0752574 -6.875 3.0625 C-8.63020707 3.0574805 -10.38541552 3.05291838 -12.140625 3.04882812 C-16.42711732 3.03784534 -20.71354357 3.02060492 -25 3 C-25 2.67 -25 2.34 -25 2 C-12.625 1.505 -12.625 1.505 0 1 C0 0.67 0 0.34 0 0 Z " fill="#7D2113" transform="translate(29,44)"/>
<path d="M0 0 C0.99 0 1.98 0 3 0 C3 1.98 3 3.96 3 6 C-6.57 6 -16.14 6 -26 6 C-25.67 5.01 -25.34 4.02 -25 3 C-25 3.66 -25 4.32 -25 5 C-16.75 5 -8.5 5 0 5 C0 3.35 0 1.7 0 0 Z " fill="#A1380F" transform="translate(41,35)"/>
<path d="M0 0 C1.98 0 3.96 0 6 0 C6 1.98 6 3.96 6 6 C3.03 6 0.06 6 -3 6 C-3 5.01 -3 4.02 -3 3 C-2.01 3 -1.02 3 0 3 C0 2.01 0 1.02 0 0 Z " fill="#FC7756" transform="translate(41,29)"/>
<path d="M0 0 C2.31 0 4.62 0 7 0 C7 0.99 7 1.98 7 3 C5.02 3 3.04 3 1 3 C1 5.64 1 8.28 1 11 C0.01 11 -0.98 11 -2 11 C-2 8.36 -2 5.72 -2 3 C-1.34 3 -0.68 3 0 3 C0 2.01 0 1.02 0 0 Z " fill="#B01411" transform="translate(23,0)"/>
<path d="M0 0 C0.66 0 1.32 0 2 0 C2.33 3.63 2.66 7.26 3 11 C3.99 11.33 4.98 11.66 6 12 C6 13.32 6 14.64 6 16 C5.01 16 4.02 16 3 16 C3 15.34 3 14.68 3 14 C2.01 14 1.02 14 0 14 C0 9.38 0 4.76 0 0 Z " fill="#902912" transform="translate(1,15)"/>
<path d="M0 0 C0.99 0 1.98 0 3 0 C3 0.66 3 1.32 3 2 C13.89 2 24.78 2 36 2 C36 2.33 36 2.66 36 3 C24.12 3 12.24 3 0 3 C0 2.01 0 1.02 0 0 Z " fill="#EE6046" transform="translate(4,35)"/>
<path d="M0 0 C1.98 0 3.96 0 6 0 C6 1.98 6 3.96 6 6 C4.02 6 2.04 6 0 6 C0 4.02 0 2.04 0 0 Z " fill="#FE473A" transform="translate(24,3)"/>
<path d="M0 0 C0.99 0.33 1.98 0.66 3 1 C2.34 1 1.68 1 1 1 C1 2.98 1 4.96 1 7 C-0.98 7 -2.96 7 -5 7 C-5.33 6.01 -5.66 5.02 -6 4 C-5 3 -5 3 -2.4375 2.9375 C-1.2309375 2.9684375 -1.2309375 2.9684375 0 3 C0 2.01 0 1.02 0 0 Z " fill="#BD4621" transform="translate(20,2)"/>
<path d="M0 0 C0.99 0 1.98 0 3 0 C3 0.66 3 1.32 3 2 C9.6 2 16.2 2 23 2 C23 2.33 23 2.66 23 3 C15.41 3 7.82 3 0 3 C0 2.01 0 1.02 0 0 Z " fill="#FF8C73" transform="translate(4,32)"/>
<path d="M0 0 C1.98 0 3.96 0 6 0 C6 0.99 6 1.98 6 3 C6.99 3 7.98 3 9 3 C9 3.99 9 4.98 9 6 C9.66 6.33 10.32 6.66 11 7 C9.02 7 7.04 7 5 7 C5 5.02 5 3.04 5 1 C3.35 1 1.7 1 0 1 C0 0.67 0 0.34 0 0 Z " fill="#C65A26" transform="translate(39,8)"/>
<path d="M0 0 C1.98 0 3.96 0 6 0 C5.01 0.33 4.02 0.66 3 1 C3 2.65 3 4.3 3 6 C2.01 6 1.02 6 0 6 C0 4.02 0 2.04 0 0 Z " fill="#FC795D" transform="translate(4,20)"/>
<path d="M0 0 C0.66 0 1.32 0 2 0 C2.33 2.64 2.66 5.28 3 8 C2.01 8 1.02 8 0 8 C0 5.36 0 2.72 0 0 Z " fill="#AB030A" transform="translate(21,3)"/>
<path d="M0 0 C0.99 0 1.98 0 3 0 C3 2.97 3 5.94 3 9 C0 6 0 6 -0.1875 2.8125 C-0.125625 1.884375 -0.06375 0.95625 0 0 Z " fill="#812117" transform="translate(1,29)"/>
<path d="M0 0 C0.99 0 1.98 0 3 0 C3 1.98 3 3.96 3 6 C1.68 5.67 0.36 5.34 -1 5 C-0.67 3.35 -0.34 1.7 0 0 Z " fill="#F8211E" transform="translate(27,3)"/>
</svg>
