<?xml version="1.0" encoding="UTF-8"?>
<svg version="1.1" xmlns="http://www.w3.org/2000/svg" width="50" height="50">
<path d="M0 0 C4.62 0 9.24 0 14 0 C14.495 0.99 14.495 0.99 15 2 C16.65 2 18.3 2 20 2 C20 2.99 20 3.98 20 5 C20.99 5 21.98 5 23 5 C23 5.99 23 6.98 23 8 C23.66 8 24.32 8 25 8 C25 13.61 25 19.22 25 25 C24.34 25 23.68 25 23 25 C23 25.99 23 26.98 23 28 C22.01 28 21.02 28 20 28 C20 28.66 20 29.32 20 30 C16.37 30 12.74 30 9 30 C9 30.99 9 31.98 9 33 C7.35 33 5.7 33 4 33 C4 33.99 4 34.98 4 36 C2.35 36 0.7 36 -1 36 C-1.33 36.66 -1.66 37.32 -2 38 C-6.62 38 -11.24 38 -16 38 C-16 37.34 -16 36.68 -16 36 C-16.99 36 -17.98 36 -19 36 C-19 35.01 -19 34.02 -19 33 C-19.66 33 -20.32 33 -21 33 C-21 32.01 -21 31.02 -21 30 C-21.99 30 -22.98 30 -24 30 C-24 25.38 -24 20.76 -24 16 C-23.01 16 -22.02 16 -21 16 C-21 15.01 -21 14.02 -21 13 C-20.34 13 -19.68 13 -19 13 C-18.67 12.01 -18.34 11.02 -18 10 C-17.34 10 -16.68 10 -16 10 C-16 9.34 -16 8.68 -16 8 C-14.35 8 -12.7 8 -11 8 C-11 7.01 -11 6.02 -11 5 C-9.02 5 -7.04 5 -5 5 C-5 4.01 -5 3.02 -5 2 C-3.68 2 -2.36 2 -1 2 C-0.67 1.34 -0.34 0.68 0 0 Z " fill="#C52D0E" transform="translate(25,7)"/>
<path d="M0 0 C0.66 0 1.32 0 2 0 C2 4.95 2 9.9 2 15 C1.34 15 0.68 15 0 15 C0 15.99 0 16.98 0 18 C-0.99 18 -1.98 18 -3 18 C-3 18.99 -3 19.98 -3 21 C-6.3 21 -9.6 21 -13 21 C-13 21.99 -13 22.98 -13 24 C-14.65 24 -16.3 24 -18 24 C-18 24.99 -18 25.98 -18 27 C-19.65 27 -21.3 27 -23 27 C-23.33 27.66 -23.66 28.32 -24 29 C-28.62 29 -33.24 29 -38 29 C-38 28.34 -38 27.68 -38 27 C-38.99 27 -39.98 27 -41 27 C-41 26.01 -41 25.02 -41 24 C-41.66 24 -42.32 24 -43 24 C-43 23.01 -43 22.02 -43 21 C-43.66 21 -44.32 21 -45 21 C-45 16.71 -45 12.42 -45 8 C-44.34 8 -43.68 8 -43 8 C-43 9.65 -43 11.3 -43 13 C-42.01 13 -41.02 13 -40 13 C-40 13.99 -40 14.98 -40 16 C-39.34 16 -38.68 16 -38 16 C-36.39274365 19.21451269 -36.94251815 22.43612536 -37 26 C-33.7 26 -30.4 26 -27 26 C-27 23.36 -27 20.72 -27 18 C-25.02 18 -23.04 18 -21 18 C-21 17.34 -21 16.68 -21 16 C-19.35 16 -17.7 16 -16 16 C-16 15.01 -16 14.02 -16 13 C-12.7 13 -9.4 13 -6 13 C-6 12.01 -6 11.02 -6 10 C-5.01 10 -4.02 10 -3 10 C-3 9.34 -3 8.68 -3 8 C-2.01 8 -1.02 8 0 8 C0 5.36 0 2.72 0 0 Z " fill="#9A230C" transform="translate(47,16)"/>
<path d="M0 0 C4.62 0 9.24 0 14 0 C14 0.99 14 1.98 14 3 C9.71 3 5.42 3 1 3 C1 3.99 1 4.98 1 6 C5.29 6 9.58 6 14 6 C14 6.66 14 7.32 14 8 C15.65 8 17.3 8 19 8 C19 10.64 19 13.28 19 16 C18.01 16 17.02 16 16 16 C16 16.66 16 17.32 16 18 C12.7 18 9.4 18 6 18 C6 16.68 6 15.36 6 14 C6.66 14 7.32 14 8 14 C8 14.66 8 15.32 8 16 C9.98 16 11.96 16 14 16 C14 15.01 14 14.02 14 13 C12.35 13 10.7 13 9 13 C9 12.67 9 12.34 9 12 C10.65 12 12.3 12 14 12 C13.67 10.68 13.34 9.36 13 8 C11.02463255 8.34786708 11.02463255 8.34786708 9 9 C8.67 9.66 8.34 10.32 8 11 C4.7 11 1.4 11 -2 11 C-1.125 6.25 -1.125 6.25 0 4 C-1.65 4 -3.3 4 -5 4 C-5 3.34 -5 2.68 -5 2 C-3.68 2 -2.36 2 -1 2 C-0.67 1.34 -0.34 0.68 0 0 Z " fill="#C6260E" transform="translate(25,7)"/>
<path d="M0 0 C0 0.99 0 1.98 0 3 C0.99 3 1.98 3 3 3 C3 3.99 3 4.98 3 6 C3.66 6 4.32 6 5 6 C5 11.61 5 17.22 5 23 C4.34 23 3.68 23 3 23 C3 23.99 3 24.98 3 26 C2.01 26 1.02 26 0 26 C-0.33 26.66 -0.66 27.32 -1 28 C-1 27.01 -1 26.02 -1 25 C-0.01 25 0.98 25 2 25 C2 24.01 2 23.02 2 22 C2.66 22 3.32 22 4 22 C4 17.05 4 12.1 4 7 C3.34 7 2.68 7 2 7 C2 9.64 2 12.28 2 15 C1.01 15 0.02 15 -1 15 C-1 15.66 -1 16.32 -1 17 C-1.99 17 -2.98 17 -4 17 C-4 16.01 -4 15.02 -4 14 C-3.01 14 -2.02 14 -1 14 C-1 11.36 -1 8.72 -1 6 C-2.65 6 -4.3 6 -6 6 C-6 5.34 -6 4.68 -6 4 C-10.29 4 -14.58 4 -19 4 C-19 3.01 -19 2.02 -19 1 C-16.77100213 0.83109082 -14.54179338 0.66496313 -12.3125 0.5 C-10.45044922 0.36078125 -10.45044922 0.36078125 -8.55078125 0.21875 C-5.68500671 0.04220063 -2.86900043 -0.04388528 0 0 Z " fill="#CC4917" transform="translate(45,9)"/>
<path d="M0 0 C0.99 0.33 1.98 0.66 3 1 C3 2.32 3 3.64 3 5 C6.3 5 9.6 5 13 5 C13 5.99 13 6.98 13 8 C9.7 8 6.4 8 3 8 C3 8.99 3 9.98 3 11 C1.35 11 -0.3 11 -2 11 C-2 11.99 -2 12.98 -2 14 C-3.65 14 -5.3 14 -7 14 C-7.33 12.68 -7.66 11.36 -8 10 C-6.35 10 -4.7 10 -3 10 C-3 9.01 -3 8.02 -3 7 C-2.01 6.67 -1.02 6.34 0 6 C0 4.02 0 2.04 0 0 Z " fill="#92240B" transform="translate(31,29)"/>
<path d="M0 0 C4.62 0 9.24 0 14 0 C14 0.99 14 1.98 14 3 C9.71 3 5.42 3 1 3 C1 3.99 1 4.98 1 6 C1.66 6.33 2.32 6.66 3 7 C3 8.32 3 9.64 3 11 C1.35 11 -0.3 11 -2 11 C-1.125 6.25 -1.125 6.25 0 4 C-1.65 4 -3.3 4 -5 4 C-5 3.34 -5 2.68 -5 2 C-3.68 2 -2.36 2 -1 2 C-0.67 1.34 -0.34 0.68 0 0 Z " fill="#A62D11" transform="translate(25,7)"/>
<path d="M0 0 C0.99 0 1.98 0 3 0 C3 1.32 3 2.64 3 4 C3.99 4.33 4.98 4.66 6 5 C6 5.66 6 6.32 6 7 C10.95 7 15.9 7 21 7 C21 7.99 21 8.98 21 10 C15.72 10 10.44 10 5 10 C5 9.34 5 8.68 5 8 C4.34 8 3.68 8 3 8 C3 7.01 3 6.02 3 5 C2.01 5 1.02 5 0 5 C0 3.35 0 1.7 0 0 Z " fill="#F3571A" transform="translate(4,24)"/>
<path d="M0 0 C1.98 0 3.96 0 6 0 C6 1.32 6 2.64 6 4 C4.68 4 3.36 4 2 4 C2 4.99 2 5.98 2 7 C0.35 7 -1.3 7 -3 7 C-3 7.99 -3 8.98 -3 10 C-3.99 10 -4.98 10 -6 10 C-6 7.36 -6 4.72 -6 2 C-4.02 2 -2.04 2 0 2 C0 1.34 0 0.68 0 0 Z " fill="#B1230B" transform="translate(26,32)"/>
<path d="M0 0 C1.32 0 2.64 0 4 0 C4.59732819 2.76264289 5 5.16032769 5 8 C3.02 8 1.04 8 -1 8 C-1 7.34 -1 6.68 -1 6 C-2.65 6 -4.3 6 -6 6 C-6 5.01 -6 4.02 -6 3 C-4.35 3 -2.7 3 -1 3 C-0.67 2.01 -0.34 1.02 0 0 Z " fill="#E03512" transform="translate(34,15)"/>
<path d="M0 0 C3.3 0 6.6 0 10 0 C10 0.99 10 1.98 10 3 C6.7 3 3.4 3 0 3 C0 3.66 0 4.32 0 5 C-1.65 5 -3.3 5 -5 5 C-5 4.01 -5 3.02 -5 2 C-3.35 2 -1.7 2 0 2 C0 1.34 0 0.68 0 0 Z " fill="#F85B1C" transform="translate(31,26)"/>
<path d="M0 0 C1.98 0 3.96 0 6 0 C6 0.66 6 1.32 6 2 C7.65 2 9.3 2 11 2 C11 2.99 11 3.98 11 5 C9.35 5 7.7 5 6 5 C6 4.34 6 3.68 6 3 C4.02 3 2.04 3 0 3 C0 3.66 0 4.32 0 5 C-1.32 5 -2.64 5 -4 5 C-4 4.01 -4 3.02 -4 2 C-2.68 2 -1.36 2 0 2 C0 1.34 0 0.68 0 0 Z " fill="#E33911" transform="translate(14,21)"/>
<path d="M0 0 C4.29 0 8.58 0 13 0 C13 0.99 13 1.98 13 3 C8.71 3 4.42 3 0 3 C0 2.01 0 1.02 0 0 Z " fill="#F4561F" transform="translate(26,10)"/>
<path d="M0 0 C0.66 0 1.32 0 2 0 C2 0.99 2 1.98 2 3 C2.66 3 3.32 3 4 3 C3.67 4.65 3.34 6.3 3 8 C2.01 7.67 1.02 7.34 0 7 C0 4.69 0 2.38 0 0 Z " fill="#BB260D" transform="translate(5,29)"/>
<path d="M0 0 C1.32 0 2.64 0 4 0 C4 0.99 4 1.98 4 3 C3.01 3 2.02 3 1 3 C1 3.66 1 4.32 1 5 C0.01 5 -0.98 5 -2 5 C-2 4.01 -2 3.02 -2 2 C-1.34 2 -0.68 2 0 2 C0 1.34 0 0.68 0 0 Z " fill="#9E2E10" transform="translate(6,18)"/>
<path d="M0 0 C0.33 0 0.66 0 1 0 C1 2.31 1 4.62 1 7 C1.66 7 2.32 7 3 7 C3 7.99 3 8.98 3 10 C2.01 10 1.02 10 0 10 C0 9.34 0 8.68 0 8 C-0.66 7.67 -1.32 7.34 -2 7 C-1.34 7 -0.68 7 0 7 C0 4.69 0 2.38 0 0 Z " fill="#94200B" transform="translate(4,29)"/>
</svg>
