<?xml version="1.0" encoding="UTF-8"?>
<svg version="1.1" xmlns="http://www.w3.org/2000/svg" width="50" height="50">
<path d="M0 0 C5.94 0 11.88 0 18 0 C18 0.99 18 1.98 18 3 C22.62 3 27.24 3 32 3 C32 3.66 32 4.32 32 5 C32.99 5 33.98 5 35 5 C35 5.99 35 6.98 35 8 C35.99 8 36.98 8 38 8 C38 12.95 38 17.9 38 23 C37.01 23 36.02 23 35 23 C35 23.99 35 24.98 35 26 C34.01 26 33.02 26 32 26 C32 26.99 32 27.98 32 29 C30.35 29 28.7 29 27 29 C27 29.99 27 30.98 27 32 C19.08 32 11.16 32 3 32 C3 31.01 3 30.02 3 29 C0.03 29 -2.94 29 -6 29 C-6 28.01 -6 27.02 -6 26 C-6.99 26 -7.98 26 -9 26 C-9 25.01 -9 24.02 -9 23 C-9.66 23 -10.32 23 -11 23 C-11 18.05 -11 13.1 -11 8 C-10.34 8 -9.68 8 -9 8 C-8.67 7.01 -8.34 6.02 -8 5 C-7.34 5 -6.68 5 -6 5 C-6 4.34 -6 3.68 -6 3 C-4.02 3 -2.04 3 0 3 C0 2.01 0 1.02 0 0 Z " fill="#745300" transform="translate(12,18)"/>
<path d="M0 0 C5.28 0 10.56 0 16 0 C16 0.66 16 1.32 16 2 C20.95 2 25.9 2 31 2 C31 2.99 31 3.98 31 5 C31.66 5 32.32 5 33 5 C33 5.66 33 6.32 33 7 C32.34 7 31.68 7 31 7 C31 7.99 31 8.98 31 10 C29.02 10 27.04 10 25 10 C25 9.01 25 8.02 25 7 C25.99 7 26.98 7 28 7 C28 6.34 28 5.68 28 5 C26.02 5 24.04 5 22 5 C22 5.66 22 6.32 22 7 C21.01 7.495 21.01 7.495 20 8 C20 8.66 20 9.32 20 10 C22.475 10.495 22.475 10.495 25 11 C25 11.66 25 12.32 25 13 C24.01 13 23.02 13 22 13 C22 13.99 22 14.98 22 16 C17.38 16 12.76 16 8 16 C8 15.01 8 14.02 8 13 C5.36 13 2.72 13 0 13 C0 12.01 0 11.02 0 10 C-1.98 10 -3.96 10 -6 10 C-6 9.01 -6 8.02 -6 7 C-6.66 7 -7.32 7 -8 7 C-8 6.34 -8 5.68 -8 5 C-7.34 5 -6.68 5 -6 5 C-6 4.01 -6 3.02 -6 2 C-4.02 2 -2.04 2 0 2 C0 1.34 0 0.68 0 0 Z " fill="#947600" transform="translate(13,22)"/>
<path d="M0 0 C1.32 0 2.64 0 4 0 C4 0.99 4 1.98 4 3 C3.34 3 2.68 3 2 3 C2 3.66 2 4.32 2 5 C2.66 5 3.32 5 4 5 C4 5.99 4 6.98 4 8 C5.98 8 7.96 8 10 8 C10 8.99 10 9.98 10 11 C12.64 11 15.28 11 18 11 C18 12.98 18 14.96 18 17 C21.63 17 25.26 17 29 17 C29 18.65 29 20.3 29 22 C29.66 22.33 30.32 22.66 31 23 C27.04 23.495 27.04 23.495 23 24 C26.96 24.33 30.92 24.66 35 25 C35 24.01 35 23.02 35 22 C36.98 22 38.96 22 41 22 C41 22.33 41 22.66 41 23 C39.35 23 37.7 23 36 23 C36 23.99 36 24.98 36 26 C28.08 26 20.16 26 12 26 C12 25.01 12 24.02 12 23 C9.03 23 6.06 23 3 23 C3 22.01 3 21.02 3 20 C2.01 20 1.02 20 0 20 C0 19.01 0 18.02 0 17 C-0.66 17 -1.32 17 -2 17 C-2 12.05 -2 7.1 -2 2 C-1.34 2 -0.68 2 0 2 C0 1.34 0 0.68 0 0 Z " fill="#845900" transform="translate(3,24)"/>
<path d="M0 0 C0 1.32 0 2.64 0 4 C1.98 3.67 3.96 3.34 6 3 C6 4.98 6 6.96 6 9 C6.66 9 7.32 9 8 9 C8.125 15.625 8.125 15.625 7 19 C4.03 19 1.06 19 -2 19 C-2 18.01 -2 17.02 -2 16 C-3.98 16.33 -5.96 16.66 -8 17 C-8 15.02 -8 13.04 -8 11 C-8.66 11 -9.32 11 -10 11 C-10.33 8.69 -10.66 6.38 -11 4 C-10.01 4 -9.02 4 -8 4 C-8 3.01 -8 2.02 -8 1 C-5.10765685 0.17361624 -3.11257569 0 0 0 Z M-3 4 C-2 7 -2 7 -2 7 Z " fill="#967600" transform="translate(34,0)"/>
<path d="M0 0 C0.66 0 1.32 0 2 0 C2.495 6.93 2.495 6.93 3 14 C2.01 14 1.02 14 0 14 C0 14.99 0 15.98 0 17 C-0.99 17 -1.98 17 -3 17 C-3 17.66 -3 18.32 -3 19 C-4.98 19 -6.96 19 -9 19 C-9 19.99 -9 20.98 -9 22 C-21.66970387 22.18451025 -21.66970387 22.18451025 -27 21 C-27 20.67 -27 20.34 -27 20 C-22.38 19.67 -17.76 19.34 -13 19 C-12.67 18.01 -12.34 17.02 -12 16 C-10.02 16 -8.04 16 -6 16 C-6 15.34 -6 14.68 -6 14 C-5.01 14 -4.02 14 -3 14 C-3 13.01 -3 12.02 -3 11 C-2.01 11 -1.02 11 0 11 C0 7.37 0 3.74 0 0 Z " fill="#765000" transform="translate(47,27)"/>
<path d="M0 0 C0.66 0 1.32 0 2 0 C2 3.63 2 7.26 2 11 C2.99 11 3.98 11 5 11 C5 11.99 5 12.98 5 14 C6.98 14 8.96 14 11 14 C11 12.02 11 10.04 11 8 C13.64 8 16.28 8 19 8 C19 8.99 19 9.98 19 11 C17.35 11 15.7 11 14 11 C14 12.65 14 14.3 14 16 C14.99 16 15.98 16 17 16 C16.67 16.99 16.34 17.98 16 19 C16 18.34 16 17.68 16 17 C15.24074219 17.01160156 14.48148438 17.02320312 13.69921875 17.03515625 C12.70535156 17.04417969 11.71148437 17.05320312 10.6875 17.0625 C9.70136719 17.07410156 8.71523437 17.08570312 7.69921875 17.09765625 C5 17 5 17 2 16 C2 15.01 2 14.02 2 13 C1.34 13 0.68 13 0 13 C0 8.71 0 4.42 0 0 Z " fill="#654300" transform="translate(2,27)"/>
<path d="M0 0 C0.99 0 1.98 0 3 0 C3 0.99 3 1.98 3 3 C2.34 3 1.68 3 1 3 C1 3.66 1 4.32 1 5 C1.66 5 2.32 5 3 5 C3 5.99 3 6.98 3 8 C4.98 8 6.96 8 9 8 C9 10.97 9 13.94 9 17 C7.02 17 5.04 17 3 17 C3 16.01 3 15.02 3 14 C2.01 14 1.02 14 0 14 C0 9.38 0 4.76 0 0 Z " fill="#6D4C00" transform="translate(4,24)"/>
<path d="M0 0 C1.65 0 3.3 0 5 0 C5 0.99 5 1.98 5 3 C8.63 3 12.26 3 16 3 C16 4.65 16 6.3 16 8 C11.71 8 7.42 8 3 8 C3 7.01 3 6.02 3 5 C2.01 5 1.02 5 0 5 C0 3.35 0 1.7 0 0 Z " fill="#8C6800" transform="translate(16,38)"/>
<path d="M0 0 C1.32 0 2.64 0 4 0 C4 0.99 4 1.98 4 3 C4.99 3 5.98 3 7 3 C7 5.31 7 7.62 7 10 C6.01 10 5.02 10 4 10 C4 11.98 4 13.96 4 16 C2.68 16 1.36 16 0 16 C0 13.69 0 11.38 0 9 C0.99 9 1.98 9 3 9 C3 7.35 3 5.7 3 4 C2.01 4 1.02 4 0 4 C0 2.68 0 1.36 0 0 Z " fill="#957600" transform="translate(12,0)"/>
<path d="M0 0 C1.32 0 2.64 0 4 0 C4 1.98 4 3.96 4 6 C4.66 6 5.32 6 6 6 C6.125 12.625 6.125 12.625 5 16 C3.68 16 2.36 16 1 16 C1.33 13.03 1.66 10.06 2 7 C1.34 7 0.68 7 0 7 C0 4.69 0 2.38 0 0 Z " fill="#957600" transform="translate(36,3)"/>
<path d="M0 0 C1.32 0 2.64 0 4 0 C4 2.31 4 4.62 4 7 C3.34 7 2.68 7 2 7 C2.33 9.97 2.66 12.94 3 16 C1.68 16 0.36 16 -1 16 C-2.1577506 12.52674819 -2.06866652 9.63932552 -2 6 C-1.34 6 -0.68 6 0 6 C0 4.02 0 2.04 0 0 Z " fill="#957600" transform="translate(6,3)"/>
<path d="M0 0 C1.32 0 2.64 0 4 0 C4 1.98 4 3.96 4 6 C4.66 6 5.32 6 6 6 C6.20140476 9.62528568 5.85776765 11.86501708 4 15 C2.68 15 1.36 15 0 15 C0 14.01 0 13.02 0 12 C0.66 12 1.32 12 2 12 C2 9.69 2 7.38 2 5 C1.01 5 0.02 5 -1 5 C-0.67 3.35 -0.34 1.7 0 0 Z " fill="#BD8629" transform="translate(32,4)"/>
<path d="M0 0 C1.32 0 2.64 0 4 0 C4 0.66 4 1.32 4 2 C3.01 2 2.02 2 1 2 C1 4.31 1 6.62 1 9 C1.99 9 2.98 9 4 9 C4 11.31 4 13.62 4 16 C2.68 16 1.36 16 0 16 C0 14.02 0 12.04 0 10 C-0.66 10 -1.32 10 -2 10 C-2.33 7.69 -2.66 5.38 -3 3 C-2.01 3 -1.02 3 0 3 C0 2.01 0 1.02 0 0 Z " fill="#C28725" transform="translate(26,1)"/>
<path d="M0 0 C2.97 0 5.94 0 9 0 C9 0.66 9 1.32 9 2 C7.02 2 5.04 2 3 2 C3 2.99 3 3.98 3 5 C-9.66970387 5.18451025 -9.66970387 5.18451025 -15 4 C-15 3.67 -15 3.34 -15 3 C-14.00097656 2.95101562 -13.00195312 2.90203125 -11.97265625 2.8515625 C-10.68230469 2.77679688 -9.39195313 2.70203125 -8.0625 2.625 C-6.77472656 2.55539063 -5.48695312 2.48578125 -4.16015625 2.4140625 C-3.11730469 2.27742188 -2.07445312 2.14078125 -1 2 C-0.67 1.34 -0.34 0.68 0 0 Z " fill="#523700" transform="translate(35,44)"/>
<path d="M0 0 C0.66 0 1.32 0 2 0 C2 0.66 2 1.32 2 2 C3.98 2 5.96 2 8 2 C8 3.98 8 5.96 8 8 C6.02 8 4.04 8 2 8 C2 7.01 2 6.02 2 5 C1.34 5 0.68 5 0 5 C0 3.35 0 1.7 0 0 Z " fill="#896200" transform="translate(5,33)"/>
<path d="M0 0 C4.62 0 9.24 0 14 0 C14 0.99 14 1.98 14 3 C9.38 3 4.76 3 0 3 C0 2.01 0 1.02 0 0 Z " fill="#654600" transform="translate(21,38)"/>
<path d="M0 0 C1.98 0 3.96 0 6 0 C6 1.65 6 3.3 6 5 C3.36 5 0.72 5 -2 5 C-2 4.34 -2 3.68 -2 3 C-1.34 3 -0.68 3 0 3 C0 2.01 0 1.02 0 0 Z " fill="#705400" transform="translate(18,24)"/>
<path d="M0 0 C0.66 0 1.32 0 2 0 C2.19551338 1.60320974 2.38111983 3.20762986 2.5625 4.8125 C2.66691406 5.70582031 2.77132812 6.59914063 2.87890625 7.51953125 C3 10 3 10 2 13 C1.34 13 0.68 13 0 13 C0 8.71 0 4.42 0 0 Z " fill="#583C00" transform="translate(47,27)"/>
<path d="M0 0 C1.98 0 3.96 0 6 0 C6 0.66 6 1.32 6 2 C5.01 2 4.02 2 3 2 C3 2.99 3 3.98 3 5 C1.02 5 -0.96 5 -3 5 C-2.67 4.01 -2.34 3.02 -2 2 C-1.34 2 -0.68 2 0 2 C0 1.34 0 0.68 0 0 Z " fill="#6E5200" transform="translate(35,27)"/>
<path d="M0 0 C0.99 0 1.98 0 3 0 C3 0.99 3 1.98 3 3 C3.99 3 4.98 3 6 3 C6 5.64 6 8.28 6 11 C5.67 11 5.34 11 5 11 C5 8.69 5 6.38 5 4 C4.34 4 3.68 4 3 4 C2.67 4.66 2.34 5.32 2 6 C2 5.34 2 4.68 2 4 C1.34 4 0.68 4 0 4 C0 2.68 0 1.36 0 0 Z " fill="#875E00" transform="translate(44,23)"/>
<path d="M0 0 C0.66 0.99 1.32 1.98 2 3 C1.34 4.32 0.68 5.64 0 7 C-1.32 7 -2.64 7 -4 7 C-4 4 -4 4 -2 1.8125 C-1.34 1.214375 -0.68 0.61625 0 0 Z " fill="#A57E21" transform="translate(36,12)"/>
<path d="M0 0 C0.66 0.99 1.32 1.98 2 3 C-0.40545638 4.20272819 -1.94996953 4.10071472 -4.625 4.0625 C-5.85089844 4.04896484 -5.85089844 4.04896484 -7.1015625 4.03515625 C-8.04128906 4.01775391 -8.04128906 4.01775391 -9 4 C-9 3.67 -9 3.34 -9 3 C-7.02 3 -5.04 3 -3 3 C-3 2.34 -3 1.68 -3 1 C-2.01 0.67 -1.02 0.34 0 0 Z " fill="#644400" transform="translate(44,40)"/>
<path d="M0 0 C0.99 0 1.98 0 3 0 C3 1.98 3 3.96 3 6 C2.01 6 1.02 6 0 6 C0 4.02 0 2.04 0 0 Z " fill="#A97E2A" transform="translate(27,10)"/>
<path d="" fill="#CD910A" transform="translate(0,0)"/>
</svg>
