<?xml version="1.0" encoding="UTF-8"?>
<svg version="1.1" xmlns="http://www.w3.org/2000/svg" width="50" height="50">
<path d="M0 0 C6.93 0 13.86 0 21 0 C21 0.66 21 1.32 21 2 C22.98 2 24.96 2 27 2 C27 2.99 27 3.98 27 5 C27.99 5 28.98 5 30 5 C30 5.66 30 6.32 30 7 C30.66 7 31.32 7 32 7 C32 10.63 32 14.26 32 18 C32.99 18 33.98 18 35 18 C35 19.98 35 21.96 35 24 C34.01 24 33.02 24 32 24 C32 25.32 32 26.64 32 28 C32.99 28 33.98 28 35 28 C35 30.31 35 32.62 35 35 C34.01 35 33.02 35 32 35 C32 36.65 32 38.3 32 40 C31.01 40.495 31.01 40.495 30 41 C29.505 41.99 29.505 41.99 29 43 C10.685 42.505 10.685 42.505 -8 42 C-8 41.34 -8 40.68 -8 40 C-8.99 40 -9.98 40 -11 40 C-11 38.35 -11 36.7 -11 35 C-11.99 35 -12.98 35 -14 35 C-14 32.69 -14 30.38 -14 28 C-13.01 28 -12.02 28 -11 28 C-11 26.68 -11 25.36 -11 24 C-11.99 24 -12.98 24 -14 24 C-14 22.02 -14 20.04 -14 18 C-13.01 18 -12.02 18 -11 18 C-11 14.37 -11 10.74 -11 7 C-10.34 7 -9.68 7 -9 7 C-7.33333333 5.66666667 -7.33333333 5.66666667 -6 4 C-6 3.34 -6 2.68 -6 2 C-4.02 2 -2.04 2 0 2 C0 1.34 0 0.68 0 0 Z " fill="#BD5100" transform="translate(15,4)"/>
<path d="M0 0 C6.93 0 13.86 0 21 0 C21 0.66 21 1.32 21 2 C22.98 2 24.96 2 27 2 C27 2.99 27 3.98 27 5 C27.99 5 28.98 5 30 5 C30 5.66 30 6.32 30 7 C30.66 7 31.32 7 32 7 C32 9.97 32 12.94 32 16 C31.01 16 30.02 16 29 16 C29 16.66 29 17.32 29 18 C28.01 18 27.02 18 26 18 C26 18.99 26 19.98 26 21 C16.76 21 7.52 21 -2 21 C-2 20.01 -2 19.02 -2 18 C-3.65 18 -5.3 18 -7 18 C-7 17.34 -7 16.68 -7 16 C-8.32 16 -9.64 16 -11 16 C-11 13.03 -11 10.06 -11 7 C-10.34 7 -9.68 7 -9 7 C-7.33333333 5.66666667 -7.33333333 5.66666667 -6 4 C-6 3.34 -6 2.68 -6 2 C-4.02 2 -2.04 2 0 2 C0 1.34 0 0.68 0 0 Z " fill="#C95700" transform="translate(15,4)"/>
<path d="M0 0 C1.32 0 2.64 0 4 0 C4 0.66 4 1.32 4 2 C5.65 2 7.3 2 9 2 C9 2.99 9 3.98 9 5 C18.24 5 27.48 5 37 5 C37 4.01 37 3.02 37 2 C37.99 2 38.98 2 40 2 C40 1.34 40 0.68 40 0 C40.99 0 41.98 0 43 0 C43 0.66 43 1.32 43 2 C43.66 2 44.32 2 45 2 C45 3.65 45 5.3 45 7 C44.01 7 43.02 7 42 7 C42 8.98 42 10.96 42 13 C41.34 13 40.68 13 40 13 C40 13.66 40 14.32 40 15 C28.12 15 16.24 15 4 15 C4 14.34 4 13.68 4 13 C3.01 13 2.02 13 1 13 C1 11.35 1 9.7 1 8 C1.66 8 2.32 8 3 8 C3 8.66 3 9.32 3 10 C3.99 10 4.98 10 6 10 C6 8.35 6 6.7 6 5 C5.34 5 4.68 5 4 5 C4 5.66 4 6.32 4 7 C2.02 7 0.04 7 -2 7 C-2 5.35 -2 3.7 -2 2 C-1.34 2 -0.68 2 0 2 C0 1.34 0 0.68 0 0 Z " fill="#5B4900" transform="translate(4,20)"/>
<path d="M0 0 C6.93 0 13.86 0 21 0 C21 0.99 21 1.98 21 3 C22.65 3 24.3 3 26 3 C26 5.31 26 7.62 26 10 C25.34 10 24.68 10 24 10 C24 10.99 24 11.98 24 13 C14.43 13 4.86 13 -5 13 C-5 12.01 -5 11.02 -5 10 C-5.66 10 -6.32 10 -7 10 C-7 8.35 -7 6.7 -7 5 C-6.34 5 -5.68 5 -5 5 C-5 4.34 -5 3.68 -5 3 C-3.35 3 -1.7 3 0 3 C0 2.01 0 1.02 0 0 Z " fill="#FEA00C" transform="translate(15,7)"/>
<path d="M0 0 C0.66 0 1.32 0 2 0 C2 0.99 2 1.98 2 3 C14.21 3 26.42 3 39 3 C39 3.66 39 4.32 39 5 C38.01 5 37.02 5 36 5 C36 5.66 36 6.32 36 7 C36.99 7 37.98 7 39 7 C39 7.99 39 8.98 39 10 C38.01 10 37.02 10 36 10 C36 9.34 36 8.68 36 8 C35.01 8 34.02 8 33 8 C33 8.66 33 9.32 33 10 C23.76 10 14.52 10 5 10 C5 9.34 5 8.68 5 8 C4.34 8 3.68 8 3 8 C3 7.01 3 6.02 3 5 C2.01 5 1.02 5 0 5 C0 3.35 0 1.7 0 0 Z " fill="#DB6D00" transform="translate(5,33)"/>
<path d="M0 0 C2.64 0 5.28 0 8 0 C8 1.98 8 3.96 8 6 C7.34 6 6.68 6 6 6 C6 6.66 6 7.32 6 8 C-5.88 8 -17.76 8 -30 8 C-30 7.34 -30 6.68 -30 6 C-30.99 6 -31.98 6 -33 6 C-33 4.35 -33 2.7 -33 1 C-32.34 1 -31.68 1 -31 1 C-31 1.66 -31 2.32 -31 3 C-20.77 3 -10.54 3 0 3 C0 2.01 0 1.02 0 0 Z " fill="#5F0D0B" transform="translate(38,27)"/>
<path d="M0 0 C0.99 0 1.98 0 3 0 C3 3.96 3 7.92 3 12 C2.01 12 1.02 12 0 12 C0 12.99 0 13.98 0 15 C-9.24 15 -18.48 15 -28 15 C-28 13.35 -28 11.7 -28 10 C-19.42 10 -10.84 10 -2 10 C-2 9.01 -2 8.02 -2 7 C-1.34 7 -0.68 7 0 7 C0 4.69 0 2.38 0 0 Z " fill="#D55800" transform="translate(41,10)"/>
<path d="M0 0 C1.98 0 3.96 0 6 0 C6 0.99 6 1.98 6 3 C4.35 3 2.7 3 1 3 C1 3.99 1 4.98 1 6 C-8.57 6 -18.14 6 -28 6 C-28 5.01 -28 4.02 -28 3 C-18.76 3 -9.52 3 0 3 C0 2.01 0 1.02 0 0 Z " fill="#9C2B05" transform="translate(38,27)"/>
<path d="M0 0 C1.11826172 0.00322266 2.23652344 0.00644531 3.38867188 0.00976562 C4.55591797 0.01814453 5.72316406 0.02652344 6.92578125 0.03515625 C8.10462891 0.03966797 9.28347656 0.04417969 10.49804688 0.04882812 C13.41150914 0.06062352 16.32486988 0.07708355 19.23828125 0.09765625 C19.23828125 1.08765625 19.23828125 2.07765625 19.23828125 3.09765625 C9.99828125 3.09765625 0.75828125 3.09765625 -8.76171875 3.09765625 C-8.76171875 2.43765625 -8.76171875 1.77765625 -8.76171875 1.09765625 C-5.58384334 0.03836445 -3.33582932 -0.01693314 0 0 Z " fill="#602403" transform="translate(18.76171875,26.90234375)"/>
<path d="M0 0 C0.99 0 1.98 0 3 0 C3 0.66 3 1.32 3 2 C3.66 2 4.32 2 5 2 C5 3.65 5 5.3 5 7 C-0.28 7 -5.56 7 -11 7 C-11 6.34 -11 5.68 -11 5 C-8.36 5 -5.72 5 -3 5 C-3 4.01 -3 3.02 -3 2 C-2.01 2 -1.02 2 0 2 C0 1.34 0 0.68 0 0 Z " fill="#523F01" transform="translate(44,20)"/>
<path d="M0 0 C11.88 0 23.76 0 36 0 C36 0.66 36 1.32 36 2 C35.01 2 34.02 2 33 2 C33 2.66 33 3.32 33 4 C32.01 4 31.02 4 30 4 C30 3.34 30 2.68 30 2 C15.15 1.505 15.15 1.505 0 1 C0 0.67 0 0.34 0 0 Z " fill="#FF9C00" transform="translate(8,36)"/>
<path d="M0 0 C4.95 0 9.9 0 15 0 C15 0.99 15 1.98 15 3 C10.05 3 5.1 3 0 3 C0 2.01 0 1.02 0 0 Z " fill="#5F5900" transform="translate(18,25)"/>
<path d="M0 0 C0.66 0 1.32 0 2 0 C2.33 0.99 2.66 1.98 3 3 C10.26 3.33 17.52 3.66 25 4 C25 4.33 25 4.66 25 5 C18.4 5 11.8 5 5 5 C5 5.99 5 6.98 5 8 C4.34 8 3.68 8 3 8 C3 7.01 3 6.02 3 5 C2.01 5 1.02 5 0 5 C0 3.35 0 1.7 0 0 Z " fill="#F77D00" transform="translate(5,33)"/>
<path d="M0 0 C0.66 0 1.32 0 2 0 C2 1.65 2 3.3 2 5 C1.01 5 0.02 5 -1 5 C-1 6.65 -1 8.3 -1 10 C-1.66 10 -2.32 10 -3 10 C-3 9.01 -3 8.02 -3 7 C-3.99 7 -4.98 7 -6 7 C-6 6.34 -6 5.68 -6 5 C-5.01 5 -4.02 5 -3 5 C-3 4.34 -3 3.68 -3 3 C-2.01 3 -1.02 3 0 3 C0 2.01 0 1.02 0 0 Z " fill="#AF3E00" transform="translate(47,33)"/>
<path d="M0 0 C0.66 0 1.32 0 2 0 C2 1.98 2 3.96 2 6 C-0.31 6 -2.62 6 -5 6 C-5 5.01 -5 4.02 -5 3 C-3.35 3 -1.7 3 0 3 C0 2.01 0 1.02 0 0 Z " fill="#771E07" transform="translate(44,27)"/>
<path d="M0 0 C0.99 0 1.98 0 3 0 C3 0.99 3 1.98 3 3 C2.34 3 1.68 3 1 3 C1 3.66 1 4.32 1 5 C1.66 5 2.32 5 3 5 C3 5.66 3 6.32 3 7 C1.35 7 -0.3 7 -2 7 C-2 5.35 -2 3.7 -2 2 C-1.34 2 -0.68 2 0 2 C0 1.34 0 0.68 0 0 Z " fill="#4E3E02" transform="translate(4,20)"/>
<path d="M0 0 C0.99 0.33 1.98 0.66 3 1 C3 3.64 3 6.28 3 9 C2.01 9 1.02 9 0 9 C0 6.03 0 3.06 0 0 Z " fill="#BB4E03" transform="translate(4,11)"/>
<path d="M0 0 C0.33 0 0.66 0 1 0 C1 1.65 1 3.3 1 5 C2.98 5 4.96 5 7 5 C7 4.34 7 3.68 7 3 C7.66 3 8.32 3 9 3 C9 4.65 9 6.3 9 8 C8.01 8 7.02 8 6 8 C6 7.34 6 6.68 6 6 C4.02 6 2.04 6 0 6 C0 4.02 0 2.04 0 0 Z " fill="#943D0A" transform="translate(1,22)"/>
<path d="M0 0 C0.99 0 1.98 0 3 0 C3 2.64 3 5.28 3 8 C2.01 8 1.02 8 0 8 C0 5.36 0 2.72 0 0 Z " fill="#B84800" transform="translate(44,12)"/>
<path d="M0 0 C0.66 0 1.32 0 2 0 C2 0.66 2 1.32 2 2 C3.98 2 5.96 2 8 2 C8 2.99 8 3.98 8 5 C7.01 5 6.02 5 5 5 C5 4.34 5 3.68 5 3 C4.01 3 3.02 3 2 3 C2 3.66 2 4.32 2 5 C1.34 5 0.68 5 0 5 C0 3.35 0 1.7 0 0 Z " fill="#F17200" transform="translate(36,38)"/>
<path d="M0 0 C0.33 0 0.66 0 1 0 C1 3.3 1 6.6 1 10 C0.01 10 -0.98 10 -2 10 C-2 8.35 -2 6.7 -2 5 C-1.34 5 -0.68 5 0 5 C0 3.35 0 1.7 0 0 Z " fill="#B54503" transform="translate(4,28)"/>
<path d="M0 0 C0.66 0 1.32 0 2 0 C2 0.66 2 1.32 2 2 C2.99 2 3.98 2 5 2 C5 2.99 5 3.98 5 5 C3.35 5 1.7 5 0 5 C0 3.35 0 1.7 0 0 Z " fill="#741B0A" transform="translate(5,28)"/>
</svg>
