<?xml version="1.0" encoding="UTF-8"?>
<svg version="1.1" xmlns="http://www.w3.org/2000/svg" width="50" height="50">
<path d="M0 0 C5.28 0 10.56 0 16 0 C16 0.99 16 1.98 16 3 C17.65 3 19.3 3 21 3 C21 3.66 21 4.32 21 5 C21.99 5 22.98 5 24 5 C24 5.99 24 6.98 24 8 C24.66 8 25.32 8 26 8 C26 9.65 26 11.3 26 13 C26.99 13 27.98 13 29 13 C29 13.66 29 14.32 29 15 C29.66 15 30.32 15 31 15 C31 16.65 31 18.3 31 20 C31.99 20 32.98 20 34 20 C34 21.98 34 23.96 34 26 C33.01 26 32.02 26 31 26 C31.04125 26.94875 31.0825 27.8975 31.125 28.875 C31 32 31 32 29 34 C26.31160615 34.26991906 23.70858064 34.08737357 21 34 C20.67 34.99 20.34 35.98 20 37 C18.35 36.67 16.7 36.34 15 36 C15 35.34 15 34.68 15 34 C14.01 34 13.02 34 12 34 C11.67 34.99 11.34 35.98 11 37 C5.06 36.67 -0.88 36.34 -7 36 C-7 35.34 -7 34.68 -7 34 C-7.99 34 -8.98 34 -10 34 C-10.66 33.34 -11.32 32.68 -12 32 C-12 31.01 -12 30.02 -12 29 C-12.99 29 -13.98 29 -15 29 C-15 27.02 -15 25.04 -15 23 C-14.01 23 -13.02 23 -12 23 C-12 20.36 -12 17.72 -12 15 C-11.34 15 -10.68 15 -10 15 C-10 14.34 -10 13.68 -10 13 C-9.01 13 -8.02 13 -7 13 C-7 11.35 -7 9.7 -7 8 C-6.34 8 -5.68 8 -5 8 C-5 7.01 -5 6.02 -5 5 C-4.34 5 -3.68 5 -3 5 C-3 4.34 -3 3.68 -3 3 C-2.01 3 -1.02 3 0 3 C0 2.01 0 1.02 0 0 Z " fill="#EA7304" transform="translate(15,8)"/>
<path d="M0 0 C1.65 0 3.3 0 5 0 C5 0.66 5 1.32 5 2 C5.99 2 6.98 2 8 2 C8 2.99 8 3.98 8 5 C8.66 5 9.32 5 10 5 C10 6.65 10 8.3 10 10 C10.99 10 11.98 10 13 10 C13 10.66 13 11.32 13 12 C13.66 12 14.32 12 15 12 C15 13.65 15 15.3 15 17 C15.99 17 16.98 17 18 17 C18 18.98 18 20.96 18 23 C17.01 23 16.02 23 15 23 C15.04125 23.94875 15.0825 24.8975 15.125 25.875 C15 29 15 29 13 31 C10.31160615 31.26991906 7.70858064 31.08737357 5 31 C4.67 31.99 4.34 32.98 4 34 C2.35 33.67 0.7 33.34 -1 33 C-1 32.34 -1 31.68 -1 31 C-1.99 31 -2.98 31 -4 31 C-4.33 31.99 -4.66 32.98 -5 34 C-10.94 33.67 -16.88 33.34 -23 33 C-23 32.34 -23 31.68 -23 31 C-23.99 31 -24.98 31 -26 31 C-26.66 30.34 -27.32 29.68 -28 29 C-28 28.01 -28 27.02 -28 26 C-27.01 26 -26.02 26 -25 26 C-25 26.66 -25 27.32 -25 28 C-24.34 28 -23.68 28 -23 28 C-23 28.66 -23 29.32 -23 30 C-22.01 30 -21.02 30 -20 30 C-20 29.34 -20 28.68 -20 28 C-14.39 28 -8.78 28 -3 28 C-3 27.34 -3 26.68 -3 26 C-2.01 26 -1.02 26 0 26 C0 25.01 0 24.02 0 23 C2.31 23 4.62 23 7 23 C7 23.66 7 24.32 7 25 C5.35 25 3.7 25 2 25 C2 25.99 2 26.98 2 28 C1.34 28 0.68 28 0 28 C0 28.66 0 29.32 0 30 C1.65 30 3.3 30 5 30 C5 29.34 5 28.68 5 28 C6.65 28 8.3 28 10 28 C10 27.01 10 26.02 10 25 C10.99 25 11.98 25 13 25 C13 23.68 13 22.36 13 21 C13.66 21 14.32 21 15 21 C15 20.01 15 19.02 15 18 C14.01 18 13.02 18 12 18 C12 18.66 12 19.32 12 20 C11.34 20 10.68 20 10 20 C10 18.35 10 16.7 10 15 C10.66 15 11.32 15 12 15 C12 14.34 12 13.68 12 13 C11.34 13 10.68 13 10 13 C10 12.34 10 11.68 10 11 C9.34 11 8.68 11 8 11 C8.495 12.98 8.495 12.98 9 15 C7.68 15.33 6.36 15.66 5 16 C5 16.66 5 17.32 5 18 C4.01 18 3.02 18 2 18 C2 18.66 2 19.32 2 20 C1.34 20 0.68 20 0 20 C0 20.66 0 21.32 0 22 C-0.99 22 -1.98 22 -3 22 C-3 21.34 -3 20.68 -3 20 C-3.66 20 -4.32 20 -5 20 C-5 17.69 -5 15.38 -5 13 C-5.99 13 -6.98 13 -8 13 C-8 15.31 -8 17.62 -8 20 C-10.31 20 -12.62 20 -15 20 C-15 18.35 -15 16.7 -15 15 C-14.34 15 -13.68 15 -13 15 C-13 15.99 -13 16.98 -13 18 C-12.01 18 -11.02 18 -10 18 C-10.495 15.525 -10.495 15.525 -11 13 C-12.32 13 -13.64 13 -15 13 C-15 12.01 -15 11.02 -15 10 C-13.68 10 -12.36 10 -11 10 C-11 9.34 -11 8.68 -11 8 C-7.37 8 -3.74 8 0 8 C0 7.34 0 6.68 0 6 C1.65 6 3.3 6 5 6 C5 7.32 5 8.64 5 10 C5.66 10 6.32 10 7 10 C7 8.35 7 6.7 7 5 C6.34 5 5.68 5 5 5 C5 4.34 5 3.68 5 3 C3.35 3 1.7 3 0 3 C0 2.01 0 1.02 0 0 Z " fill="#F58400" transform="translate(31,11)"/>
<path d="M0 0 C0.66 0 1.32 0 2 0 C2 0.66 2 1.32 2 2 C2.66 2 3.32 2 4 2 C4 2.66 4 3.32 4 4 C3.34 4 2.68 4 2 4 C2 5.65 2 7.3 2 9 C2.66 9 3.32 9 4 9 C4 8.34 4 7.68 4 7 C4.99 7 5.98 7 7 7 C7 7.99 7 8.98 7 10 C6.34 10 5.68 10 5 10 C5 11.32 5 12.64 5 14 C4.01 14 3.02 14 2 14 C2 14.99 2 15.98 2 17 C0.35 17 -1.3 17 -3 17 C-3 17.66 -3 18.32 -3 19 C-4.65 19 -6.3 19 -8 19 C-8 18.34 -8 17.68 -8 17 C-7.34 17 -6.68 17 -6 17 C-6 16.01 -6 15.02 -6 14 C-4.35 14 -2.7 14 -1 14 C-1 13.34 -1 12.68 -1 12 C-3.31 12 -5.62 12 -8 12 C-8 12.99 -8 13.98 -8 15 C-8.99 15 -9.98 15 -11 15 C-11 15.66 -11 16.32 -11 17 C-15.62 17 -20.24 17 -25 17 C-25.33 16.34 -25.66 15.68 -26 15 C-22.71480525 13.90493508 -20.26336585 13.90039392 -16.8125 13.9375 C-15.18248047 13.95103516 -15.18248047 13.95103516 -13.51953125 13.96484375 C-12.68808594 13.97644531 -11.85664063 13.98804688 -11 14 C-11 13.34 -11 12.68 -11 12 C-11.99 12 -12.98 12 -14 12 C-14 11.34 -14 10.68 -14 10 C-14.66 10 -15.32 10 -16 10 C-16 10.66 -16 11.32 -16 12 C-20.54805635 12.17835515 -23.8794254 11.99785435 -28 10 C-28 10.66 -28 11.32 -28 12 C-27.34 12 -26.68 12 -26 12 C-26 12.66 -26 13.32 -26 14 C-27.65 14 -29.3 14 -31 14 C-31 12.35 -31 10.7 -31 9 C-30.01 9 -29.02 9 -28 9 C-28 7.35 -28 5.7 -28 4 C-26.35 4 -24.7 4 -23 4 C-23 5.65 -23 7.3 -23 9 C-20.69 9 -18.38 9 -16 9 C-16 6.69 -16 4.38 -16 2 C-15.01 2 -14.02 2 -13 2 C-13 4.31 -13 6.62 -13 9 C-12.34 9 -11.68 9 -11 9 C-11 9.66 -11 10.32 -11 11 C-10.01 11 -9.02 11 -8 11 C-8 10.34 -8 9.68 -8 9 C-7.34 9 -6.68 9 -6 9 C-6 8.34 -6 7.68 -6 7 C-5.01 7 -4.02 7 -3 7 C-3 6.34 -3 5.68 -3 5 C-1.68 4.67 -0.36 4.34 1 4 C0.67 2.68 0.34 1.36 0 0 Z " fill="#FC9000" transform="translate(39,22)"/>
<path d="M0 0 C0.99 0 1.98 0 3 0 C3 1.65 3 3.3 3 5 C2.01 5 1.02 5 0 5 C0.04125 5.94875 0.0825 6.8975 0.125 7.875 C0 11 0 11 -2 13 C-4.68839385 13.26991906 -7.29141936 13.08737357 -10 13 C-10.33 13.99 -10.66 14.98 -11 16 C-13.475 15.505 -13.475 15.505 -16 15 C-16 14.34 -16 13.68 -16 13 C-16.99 13 -17.98 13 -19 13 C-19.33 13.99 -19.66 14.98 -20 16 C-25.94 15.67 -31.88 15.34 -38 15 C-38 14.34 -38 13.68 -38 13 C-38.99 13 -39.98 13 -41 13 C-41.66 12.34 -42.32 11.68 -43 11 C-43 10.01 -43 9.02 -43 8 C-42.01 8 -41.02 8 -40 8 C-40 8.66 -40 9.32 -40 10 C-39.34 10 -38.68 10 -38 10 C-38 10.66 -38 11.32 -38 12 C-37.01 12 -36.02 12 -35 12 C-35 11.34 -35 10.68 -35 10 C-29.39 10 -23.78 10 -18 10 C-18 9.34 -18 8.68 -18 8 C-17.01 8 -16.02 8 -15 8 C-15 7.01 -15 6.02 -15 5 C-12.69 5 -10.38 5 -8 5 C-8 5.66 -8 6.32 -8 7 C-9.65 7 -11.3 7 -13 7 C-13 7.99 -13 8.98 -13 10 C-13.66 10 -14.32 10 -15 10 C-15 10.66 -15 11.32 -15 12 C-13.35 12 -11.7 12 -10 12 C-10 11.34 -10 10.68 -10 10 C-8.35 10 -6.7 10 -5 10 C-5 9.01 -5 8.02 -5 7 C-4.01 7 -3.02 7 -2 7 C-2 5.68 -2 4.36 -2 3 C-1.34 3 -0.68 3 0 3 C0 2.01 0 1.02 0 0 Z " fill="#D85400" transform="translate(46,29)"/>
<path d="M0 0 C0.99 0 1.98 0 3 0 C3 0.99 3 1.98 3 3 C2.34 3 1.68 3 1 3 C1 5.31 1 7.62 1 10 C1.66 10 2.32 10 3 10 C3 11.65 3 13.3 3 15 C4.65 15 6.3 15 8 15 C8 14.34 8 13.68 8 13 C7.34 13 6.68 13 6 13 C6 12.34 6 11.68 6 11 C11.94 11.99 11.94 11.99 18 13 C18 12.34 18 11.68 18 11 C18.66 11 19.32 11 20 11 C20 11.66 20 12.32 20 13 C20.99 13 21.98 13 23 13 C23 13.66 23 14.32 23 15 C22.15695313 15.04898438 21.31390625 15.09796875 20.4453125 15.1484375 C19.34960938 15.22320312 18.25390625 15.29796875 17.125 15.375 C15.48917969 15.47941406 15.48917969 15.47941406 13.8203125 15.5859375 C10.86953526 15.73253491 10.86953526 15.73253491 9 18 C8.01 18 7.02 18 6 18 C6 18.66 6 19.32 6 20 C5.01 20 4.02 20 3 20 C3 19.34 3 18.68 3 18 C2.34 18 1.68 18 1 18 C1 17.34 1 16.68 1 16 C-0.98 16 -2.96 16 -5 16 C-5 14.02 -5 12.04 -5 10 C-4.01 10 -3.02 10 -2 10 C-2 7.36 -2 4.72 -2 2 C-1.34 2 -0.68 2 0 2 C0 1.34 0 0.68 0 0 Z " fill="#F47800" transform="translate(5,21)"/>
<path d="M0 0 C1.65 0 3.3 0 5 0 C5 0.66 5 1.32 5 2 C5.99 2 6.98 2 8 2 C8 2.99 8 3.98 8 5 C8.66 5 9.32 5 10 5 C10 6.65 10 8.3 10 10 C10.99 10 11.98 10 13 10 C13 10.66 13 11.32 13 12 C13.66 12 14.32 12 15 12 C15 13.65 15 15.3 15 17 C15.99 17.33 16.98 17.66 18 18 C16.02 18 14.04 18 12 18 C12 18.66 12 19.32 12 20 C11.34 20 10.68 20 10 20 C10 18.35 10 16.7 10 15 C10.66 15 11.32 15 12 15 C12 14.34 12 13.68 12 13 C11.34 13 10.68 13 10 13 C10 12.34 10 11.68 10 11 C9.34 11 8.68 11 8 11 C8.33 12.32 8.66 13.64 9 15 C7.68 15.33 6.36 15.66 5 16 C5 16.66 5 17.32 5 18 C4.01 18 3.02 18 2 18 C2 17.01 2 16.02 2 15 C2.99 15 3.98 15 5 15 C5 13.35 5 11.7 5 10 C5.66 10 6.32 10 7 10 C7 8.35 7 6.7 7 5 C6.34 5 5.68 5 5 5 C5 4.34 5 3.68 5 3 C3.35 3 1.7 3 0 3 C0 2.01 0 1.02 0 0 Z " fill="#E56000" transform="translate(31,11)"/>
<path d="M0 0 C3.63 0 7.26 0 11 0 C11 0.66 11 1.32 11 2 C9.02 2 7.04 2 5 2 C4.34 5.3 3.68 8.6 3 12 C0.69 12 -1.62 12 -4 12 C-4 10.35 -4 8.7 -4 7 C-3.34 7 -2.68 7 -2 7 C-2 7.99 -2 8.98 -2 10 C-1.01 10 -0.02 10 1 10 C0.67 8.35 0.34 6.7 0 5 C-1.32 5 -2.64 5 -4 5 C-4 4.01 -4 3.02 -4 2 C-2.68 2 -1.36 2 0 2 C0 1.34 0 0.68 0 0 Z " fill="#EF7400" transform="translate(20,19)"/>
<path d="M0 0 C0.99 0 1.98 0 3 0 C3 0.99 3 1.98 3 3 C2.34 3 1.68 3 1 3 C1 4.32 1 5.64 1 7 C0.01 7 -0.98 7 -2 7 C-2 7.99 -2 8.98 -2 10 C-3.65 10 -5.3 10 -7 10 C-7 10.66 -7 11.32 -7 12 C-8.65 12 -10.3 12 -12 12 C-12 11.34 -12 10.68 -12 10 C-11.34 10 -10.68 10 -10 10 C-10 9.01 -10 8.02 -10 7 C-8.35 7 -6.7 7 -5 7 C-5 5.35 -5 3.7 -5 2 C-3.35 2 -1.7 2 0 2 C0 1.34 0 0.68 0 0 Z " fill="#F57700" transform="translate(43,29)"/>
<path d="M0 0 C1.65 0 3.3 0 5 0 C5 0.66 5 1.32 5 2 C5.66 2 6.32 2 7 2 C7 3.65 7 5.3 7 7 C6.34 7 5.68 7 5 7 C5 5.68 5 4.36 5 3 C3.35 3 1.7 3 0 3 C0 3.66 0 4.32 0 5 C-3.63 5 -7.26 5 -11 5 C-11 5.66 -11 6.32 -11 7 C-12.32 7 -13.64 7 -15 7 C-15 6.34 -15 5.68 -15 5 C-14.34 5 -13.68 5 -13 5 C-13 4.01 -13 3.02 -13 2 C-8.71 2 -4.42 2 0 2 C0 1.34 0 0.68 0 0 Z " fill="#FEAE0D" transform="translate(31,14)"/>
<path d="M0 0 C0.99 0 1.98 0 3 0 C3 0.99 3 1.98 3 3 C2.34 3 1.68 3 1 3 C1 5.31 1 7.62 1 10 C1.66 10 2.32 10 3 10 C3 11.65 3 13.3 3 15 C2.34 15 1.68 15 1 15 C1 13.68 1 12.36 1 11 C0.01 11 -0.98 11 -2 11 C-2 12.32 -2 13.64 -2 15 C-2.66 15 -3.32 15 -4 15 C-4 13.35 -4 11.7 -4 10 C-3.34 10 -2.68 10 -2 10 C-2 7.36 -2 4.72 -2 2 C-1.34 2 -0.68 2 0 2 C0 1.34 0 0.68 0 0 Z " fill="#E25D00" transform="translate(5,21)"/>
<path d="M0 0 C0.66 0 1.32 0 2 0 C2 0.66 2 1.32 2 2 C2.66 2 3.32 2 4 2 C4 2.66 4 3.32 4 4 C3.34 4 2.68 4 2 4 C2 5.65 2 7.3 2 9 C-0.90600261 10.25664978 -2.79604584 11 -6 11 C-6 9.68 -6 8.36 -6 7 C-5.01 7 -4.02 7 -3 7 C-3 6.34 -3 5.68 -3 5 C-1.68 4.67 -0.36 4.34 1 4 C0.67 2.68 0.34 1.36 0 0 Z " fill="#FD9B00" transform="translate(39,22)"/>
<path d="M0 0 C1.65 0 3.3 0 5 0 C5 0.66 5 1.32 5 2 C4.01 2 3.02 2 2 2 C2 2.99 2 3.98 2 5 C3.65 5 5.3 5 7 5 C7 5.66 7 6.32 7 7 C6.34 7 5.68 7 5 7 C5 7.66 5 8.32 5 9 C4.01 9 3.02 9 2 9 C2 8.34 2 7.68 2 7 C1.34 7 0.68 7 0 7 C0 4.69 0 2.38 0 0 Z " fill="#DD5100" transform="translate(26,24)"/>
<path d="M0 0 C0.99 0 1.98 0 3 0 C3 0.99 3 1.98 3 3 C3.99 3 4.98 3 6 3 C6 2.34 6 1.68 6 1 C7.32 1 8.64 1 10 1 C10 1.66 10 2.32 10 3 C9.34 3 8.68 3 8 3 C8 3.66 8 4.32 8 5 C5.36 5 2.72 5 0 5 C0 3.35 0 1.7 0 0 Z " fill="#E35A00" transform="translate(8,16)"/>
<path d="M0 0 C0.66 0 1.32 0 2 0 C2 0.66 2 1.32 2 2 C2.99 2 3.98 2 5 2 C5 2.66 5 3.32 5 4 C0.38 4 -4.24 4 -9 4 C-9 3.34 -9 2.68 -9 2 C-6.03 2 -3.06 2 0 2 C0 1.34 0 0.68 0 0 Z " fill="#DD5100" transform="translate(23,32)"/>
<path d="M0 0 C0.66 0 1.32 0 2 0 C2 2.31 2 4.62 2 7 C-0.31 7 -2.62 7 -5 7 C-5 5.35 -5 3.7 -5 2 C-4.34 2 -3.68 2 -3 2 C-3 2.99 -3 3.98 -3 5 C-2.01 5 -1.02 5 0 5 C0 3.35 0 1.7 0 0 Z " fill="#E25700" transform="translate(21,24)"/>
<path d="M0 0 C0.33 0 0.66 0 1 0 C1 1.65 1 3.3 1 5 C1.66 5 2.32 5 3 5 C3 3.68 3 2.36 3 1 C3.99 1 4.98 1 6 1 C6 2.32 6 3.64 6 5 C6.66 5 7.32 5 8 5 C8 5.99 8 6.98 8 8 C7.34 8 6.68 8 6 8 C6 7.34 6 6.68 6 6 C4.02 6 2.04 6 0 6 C0 4.02 0 2.04 0 0 Z " fill="#FA8D00" transform="translate(0,31)"/>
<path d="M0 0 C0.99 0 1.98 0 3 0 C3 0.99 3 1.98 3 3 C2.34 3 1.68 3 1 3 C1 4.32 1 5.64 1 7 C-0.65 7 -2.3 7 -4 7 C-4 6.34 -4 5.68 -4 5 C-3.34 5 -2.68 5 -2 5 C-2 4.01 -2 3.02 -2 2 C-1.34 2 -0.68 2 0 2 C0 1.34 0 0.68 0 0 Z " fill="#FA9300" transform="translate(43,29)"/>
<path d="M0 0 C5.28 0 10.56 0 16 0 C16 0.33 16 0.66 16 1 C11.05 1 6.1 1 1 1 C1 2.65 1 4.3 1 6 C0.01 6 -0.98 6 -2 6 C-2 5.01 -2 4.02 -2 3 C-1.34 3 -0.68 3 0 3 C0 2.01 0 1.02 0 0 Z " fill="#F27600" transform="translate(15,8)"/>
<path d="M0 0 C2 3 2 3 2 5 C3.32 5.33 4.64 5.66 6 6 C4.68 6 3.36 6 2 6 C2 6.66 2 7.32 2 8 C1.01 8 0.02 8 -1 8 C-1.33 6.02 -1.66 4.04 -2 2 C-1.34 2 -0.68 2 0 2 C0 1.34 0 0.68 0 0 Z " fill="#F58501" transform="translate(12,11)"/>
<path d="M0 0 C2.64 0 5.28 0 8 0 C8 0.99 8 1.98 8 3 C5.36 3 2.72 3 0 3 C0 2.01 0 1.02 0 0 Z " fill="#FEA615" transform="translate(8,21)"/>
<path d="M0 0 C2.64 0 5.28 0 8 0 C8 0.99 8 1.98 8 3 C5.36 3 2.72 3 0 3 C0 2.01 0 1.02 0 0 Z " fill="#FE9F06" transform="translate(23,11)"/>
<path d="M0 0 C3.3 0 6.6 0 10 0 C10 0.66 10 1.32 10 2 C8.02 2 6.04 2 4 2 C3.67 2.66 3.34 3.32 3 4 C3 3.34 3 2.68 3 2 C2.01 2 1.02 2 0 2 C0 1.34 0 0.68 0 0 Z " fill="#DE5000" transform="translate(21,19)"/>
<path d="M0 0 C0 0.99 0 1.98 0 3 C-2.31 3 -4.62 3 -7 3 C-7.33 2.34 -7.66 1.68 -8 1 C-5.07175348 0.02391783 -3.04386724 -0.08226668 0 0 Z " fill="#FF9800" transform="translate(21,36)"/>
<path d="M0 0 C1.65 0.33 3.3 0.66 5 1 C4.01 1.495 4.01 1.495 3 2 C3 2.99 3 3.98 3 5 C1.35 5 -0.3 5 -2 5 C-2 4.34 -2 3.68 -2 3 C-1.34 3 -0.68 3 0 3 C0 2.01 0 1.02 0 0 Z " fill="#FC8400" transform="translate(33,36)"/>
<path d="M0 0 C0.66 0.33 1.32 0.66 2 1 C2 1.99 2 2.98 2 4 C-0.31 4 -2.62 4 -5 4 C-5 3.34 -5 2.68 -5 2 C-3.35 2 -1.7 2 0 2 C0 1.34 0 0.68 0 0 Z " fill="#CA4300" transform="translate(41,37)"/>
<path d="M0 0 C1.32 0 2.64 0 4 0 C4.33 1.65 4.66 3.3 5 5 C4.01 5 3.02 5 2 5 C2 4.01 2 3.02 2 2 C1.34 2 0.68 2 0 2 C0 1.34 0 0.68 0 0 Z " fill="#FE9800" transform="translate(16,24)"/>
</svg>
