<?xml version="1.0" encoding="UTF-8"?>
<svg version="1.1" xmlns="http://www.w3.org/2000/svg" width="50" height="50">
<path d="M0 0 C6.27 0 12.54 0 19 0 C19 0.66 19 1.32 19 2 C20.65 2 22.3 2 24 2 C24 2.99 24 3.98 24 5 C25.65 5 27.3 5 29 5 C29 5.66 29 6.32 29 7 C29.66 7 30.32 7 31 7 C31 7.99 31 8.98 31 10 C31.99 10 32.98 10 34 10 C34 13.63 34 17.26 34 21 C33.01 21 32.02 21 31 21 C31 21.66 31 22.32 31 23 C30.34 23 29.68 23 29 23 C29 23.99 29 24.98 29 26 C28.34 26 27.68 26 27 26 C27 26.66 27 27.32 27 28 C26.01 28 25.02 28 24 28 C24 28.99 24 29.98 24 31 C21.36 31 18.72 31 16 31 C16 31.66 16 32.32 16 33 C10.72 33 5.44 33 0 33 C0 32.34 0 31.68 0 31 C-1.65 31 -3.3 31 -5 31 C-5 30.01 -5 29.02 -5 28 C-6.65 28 -8.3 28 -10 28 C-10 27.34 -10 26.68 -10 26 C-10.66 26 -11.32 26 -12 26 C-12 25.01 -12 24.02 -12 23 C-12.66 23 -13.32 23 -14 23 C-14.33 19.7 -14.66 16.4 -15 13 C-14.01 12.67 -13.02 12.34 -12 12 C-12 11.34 -12 10.68 -12 10 C-11.34 10 -10.68 10 -10 10 C-10 9.01 -10 8.02 -10 7 C-8.35 7 -6.7 7 -5 7 C-5 6.34 -5 5.68 -5 5 C-4.01 5 -3.02 5 -2 5 C-2 4.01 -2 3.02 -2 2 C-1.34 2 -0.68 2 0 2 C0 1.34 0 0.68 0 0 Z " fill="#FDDA95" transform="translate(15,8)"/>
<path d="M0 0 C6.27 0 12.54 0 19 0 C19 0.66 19 1.32 19 2 C20.65 2 22.3 2 24 2 C24 2.99 24 3.98 24 5 C25.65 5 27.3 5 29 5 C29 5.66 29 6.32 29 7 C29.66 7 30.32 7 31 7 C31 7.99 31 8.98 31 10 C31.99 10 32.98 10 34 10 C34 13.63 34 17.26 34 21 C33.01 21 32.02 21 31 21 C31 21.66 31 22.32 31 23 C30.34 23 29.68 23 29 23 C29 23.99 29 24.98 29 26 C28.34 26 27.68 26 27 26 C27 26.66 27 27.32 27 28 C26.01 28 25.02 28 24 28 C24 28.99 24 29.98 24 31 C21.36 31 18.72 31 16 31 C16 31.66 16 32.32 16 33 C10.72 33 5.44 33 0 33 C0 32.34 0 31.68 0 31 C-1.65 31 -3.3 31 -5 31 C-5 30.01 -5 29.02 -5 28 C-6.65 28 -8.3 28 -10 28 C-10 27.34 -10 26.68 -10 26 C-10.66 26 -11.32 26 -12 26 C-12 25.01 -12 24.02 -12 23 C-12.66 23 -13.32 23 -14 23 C-14.33 19.7 -14.66 16.4 -15 13 C-14.01 12.67 -13.02 12.34 -12 12 C-12 11.34 -12 10.68 -12 10 C-11.34 10 -10.68 10 -10 10 C-10 9.01 -10 8.02 -10 7 C-8.35 7 -6.7 7 -5 7 C-5 6.34 -5 5.68 -5 5 C-4.01 5 -3.02 5 -2 5 C-2 4.01 -2 3.02 -2 2 C-1.34 2 -0.68 2 0 2 C0 1.34 0 0.68 0 0 Z M1 3 C1 3.99 1 4.98 1 6 C0.34 6 -0.32 6 -1 6 C-1 6.66 -1 7.32 -1 8 C-1.99 8 -2.98 8 -4 8 C-4 8.99 -4 9.98 -4 11 C-5.65 11 -7.3 11 -9 11 C-9 11.66 -9 12.32 -9 13 C-9.66 13 -10.32 13 -11 13 C-11 16.3 -11 19.6 -11 23 C-10.34 23 -9.68 23 -9 23 C-9 23.66 -9 24.32 -9 25 C-5.7 25 -2.4 25 1 25 C1 26.65 1 28.3 1 30 C5.95 30 10.9 30 16 30 C16 29.34 16 28.68 16 28 C18.31 28 20.62 28 23 28 C23 27.01 23 26.02 23 25 C23.99 25 24.98 25 26 25 C26 24.34 26 23.68 26 23 C26.66 23 27.32 23 28 23 C28 22.01 28 21.02 28 20 C28.66 20 29.32 20 30 20 C30 17.03 30 14.06 30 11 C29.34 11 28.68 11 28 11 C28 10.01 28 9.02 28 8 C26.35 8 24.7 8 23 8 C23 7.34 23 6.68 23 6 C21.35 6 19.7 6 18 6 C18 5.01 18 4.02 18 3 C12.39 3 6.78 3 1 3 Z " fill="#C87E31" transform="translate(15,8)"/>
<path d="M0 0 C5.61 0 11.22 0 17 0 C17 0.99 17 1.98 17 3 C18.65 3 20.3 3 22 3 C22 3.66 22 4.32 22 5 C23.65 5 25.3 5 27 5 C27 5.99 27 6.98 27 8 C27.66 8 28.32 8 29 8 C29 10.97 29 13.94 29 17 C28.34 17 27.68 17 27 17 C27 17.99 27 18.98 27 20 C26.34 20 25.68 20 25 20 C25 20.66 25 21.32 25 22 C21.7 22 18.4 22 15 22 C15 22.66 15 23.32 15 24 C11.7 24 8.4 24 5 24 C5 22.02 5 20.04 5 18 C8.63 18 12.26 18 16 18 C16.33 14.7 16.66 11.4 17 8 C16.34 8 15.68 8 15 8 C15 7.01 15 6.02 15 5 C14.34 5 13.68 5 13 5 C13 4.01 13 3.02 13 2 C8.71 2 4.42 2 0 2 C0 1.34 0 0.68 0 0 Z " fill="#FEE5A7" transform="translate(16,11)"/>
<path d="M0 0 C2.64 0 5.28 0 8 0 C8 0.99 8 1.98 8 3 C8.66 3 9.32 3 10 3 C10 3.99 10 4.98 10 6 C10.66 6 11.32 6 12 6 C12 7.32 12 8.64 12 10 C11.34 10 10.68 10 10 10 C10 10.99 10 11.98 10 13 C9.01 13 8.02 13 7 13 C7 13.66 7 14.32 7 15 C4.69 15 2.38 15 0 15 C0 14.34 0 13.68 0 13 C-0.99 13 -1.98 13 -3 13 C-3 12.01 -3 11.02 -3 10 C-3.66 10 -4.32 10 -5 10 C-5 8.35 -5 6.7 -5 5 C-4.34 5 -3.68 5 -3 5 C-3 4.34 -3 3.68 -3 3 C-2.01 3 -1.02 3 0 3 C0 2.01 0 1.02 0 0 Z " fill="#FEB312" transform="translate(21,13)"/>
<path d="M0 0 C5.28 0 10.56 0 16 0 C16 0.66 16 1.32 16 2 C17.65 2 19.3 2 21 2 C21 2.99 21 3.98 21 5 C22.65 5 24.3 5 26 5 C26 5.66 26 6.32 26 7 C26.66 7 27.32 7 28 7 C28 7.99 28 8.98 28 10 C28.99 10 29.98 10 31 10 C31 13.63 31 17.26 31 21 C29.68 20.67 28.36 20.34 27 20 C27 17.03 27 14.06 27 11 C26.34 11 25.68 11 25 11 C25 10.01 25 9.02 25 8 C23.35 8 21.7 8 20 8 C20 7.34 20 6.68 20 6 C18.35 6 16.7 6 15 6 C15 4.35 15 2.7 15 1 C10.05 1 5.1 1 0 1 C0 0.67 0 0.34 0 0 Z " fill="#C68134" transform="translate(18,8)"/>
<path d="M0 0 C0.99 0 1.98 0 3 0 C3 0.99 3 1.98 3 3 C2.34 3 1.68 3 1 3 C1 3.99 1 4.98 1 6 C0.34 6 -0.32 6 -1 6 C-1 6.66 -1 7.32 -1 8 C-1.99 8 -2.98 8 -4 8 C-4 8.99 -4 9.98 -4 11 C-11.65083958 12.24911667 -19.27440986 12.09053426 -27 12 C-27 11.34 -27 10.68 -27 10 C-22.05 10 -17.1 10 -12 10 C-12 9.34 -12 8.68 -12 8 C-9.69 8 -7.38 8 -5 8 C-5 7.01 -5 6.02 -5 5 C-4.01 5 -3.02 5 -2 5 C-2 4.34 -2 3.68 -2 3 C-1.34 3 -0.68 3 0 3 C0 2.01 0 1.02 0 0 Z " fill="#BB7023" transform="translate(43,28)"/>
<path d="M0 0 C0.99 0.33 1.98 0.66 3 1 C3 1.99 3 2.98 3 4 C5.97 4 8.94 4 12 4 C12 3.34 12 2.68 12 2 C12.99 2 13.98 2 15 2 C15 1.34 15 0.68 15 0 C15.66 0 16.32 0 17 0 C17 1.32 17 2.64 17 4 C16.34 4 15.68 4 15 4 C15 4.99 15 5.98 15 7 C14.01 7 13.02 7 12 7 C12 7.66 12 8.32 12 9 C9.69 9 7.38 9 5 9 C5 8.34 5 7.68 5 7 C4.01 7 3.02 7 2 7 C2 6.01 2 5.02 2 4 C1.34 4 0.68 4 0 4 C0 2.68 0 1.36 0 0 Z " fill="#F58401" transform="translate(16,19)"/>
<path d="M0 0 C4.29 0 8.58 0 13 0 C13 2.31 13 4.62 13 7 C17.95 7 22.9 7 28 7 C28 7.33 28 7.66 28 8 C22.72 8 17.44 8 12 8 C12 7.34 12 6.68 12 6 C10.35 6 8.7 6 7 6 C7 5.01 7 4.02 7 3 C5.35 3 3.7 3 2 3 C2 2.34 2 1.68 2 1 C1.34 0.67 0.68 0.34 0 0 Z " fill="#CC812E" transform="translate(3,33)"/>
<path d="M0 0 C2.64 0 5.28 0 8 0 C8 0.99 8 1.98 8 3 C8.66 3 9.32 3 10 3 C10 3.99 10 4.98 10 6 C9.01 6 8.02 6 7 6 C7 5.34 7 4.68 7 4 C4.03 4.66 1.06 5.32 -2 6 C-2 5.01 -2 4.02 -2 3 C-1.34 3 -0.68 3 0 3 C0 2.01 0 1.02 0 0 Z " fill="#FE990E" transform="translate(21,13)"/>
<path d="M0 0 C5.94 0.33 11.88 0.66 18 1 C18 1.66 18 2.32 18 3 C12.39 3 6.78 3 1 3 C0.67 2.01 0.34 1.02 0 0 Z " fill="#B16824" transform="translate(15,8)"/>
<path d="M0 0 C5.28 0 10.56 0 16 0 C16 0.66 16 1.32 16 2 C17.65 2 19.3 2 21 2 C21 2.99 21 3.98 21 5 C19.02 5 17.04 5 15 5 C15 3.68 15 2.36 15 1 C10.05 1 5.1 1 0 1 C0 0.67 0 0.34 0 0 Z " fill="#CB7F27" transform="translate(18,8)"/>
<path d="M0 0 C0.33 0 0.66 0 1 0 C1.33 3.3 1.66 6.6 2 10 C2.66 10 3.32 10 4 10 C4 10.66 4 11.32 4 12 C3.01 12 2.02 12 1 12 C1 11.34 1 10.68 1 10 C0.34 10 -0.32 10 -1 10 C-1.02689216 8.52093108 -1.04634621 7.04172517 -1.0625 5.5625 C-1.07410156 4.73878906 -1.08570312 3.91507813 -1.09765625 3.06640625 C-1 1 -1 1 0 0 Z " fill="#B16620" transform="translate(2,21)"/>
<path d="M0 0 C0.66 0 1.32 0 2 0 C1.67 1.98 1.34 3.96 1 6 C-2.63 6 -6.26 6 -10 6 C-10 5.67 -10 5.34 -10 5 C-7.69 5 -5.38 5 -3 5 C-3 4.34 -3 3.68 -3 3 C-2.01 3 -1.02 3 0 3 C0 2.01 0 1.02 0 0 Z " fill="#FDC574" transform="translate(31,23)"/>
<path d="M0 0 C2.31 0 4.62 0 7 0 C6.01 0.495 6.01 0.495 5 1 C5 1.99 5 2.98 5 4 C3.35 4 1.7 4 0 4 C0 2.68 0 1.36 0 0 Z " fill="#FFEEBA" transform="translate(21,29)"/>
<path d="M0 0 C2.31 0 4.62 0 7 0 C7 0.99 7 1.98 7 3 C4.69 3 2.38 3 0 3 C0 2.01 0 1.02 0 0 Z " fill="#F5B45A" transform="translate(31,33)"/>
</svg>
