<?xml version="1.0" encoding="UTF-8"?>
<svg version="1.1" xmlns="http://www.w3.org/2000/svg" width="50" height="50">
<path d="M0 0 C4.95 0 9.9 0 15 0 C15 0.66 15 1.32 15 2 C16.65 2 18.3 2 20 2 C20 2.99 20 3.98 20 5 C20.99 5 21.98 5 23 5 C23 5.99 23 6.98 23 8 C23.66 8 24.32 8 25 8 C25 12.95 25 17.9 25 23 C24.34 23 23.68 23 23 23 C23 23.66 23 24.32 23 25 C22.01 25 21.02 25 20 25 C20 25.99 20 26.98 20 28 C19.34 28 18.68 28 18 28 C18 28.99 18 29.98 18 31 C17.01 31 16.02 31 15 31 C15 31.99 15 32.98 15 34 C13.02 34 11.04 34 9 34 C9 34.66 9 35.32 9 36 C7.35 36 5.7 36 4 36 C4 36.99 4 37.98 4 39 C-3.59 39 -11.18 39 -19 39 C-19 38.01 -19 37.02 -19 36 C-19.99 36 -20.98 36 -22 36 C-22.33 35.34 -22.66 34.68 -23 34 C-23.66 34 -24.32 34 -25 34 C-25 29.05 -25 24.1 -25 19 C-24.01 19 -23.02 19 -22 19 C-22 18.01 -22 17.02 -22 16 C-21.01 16 -20.02 16 -19 16 C-19 15.01 -19 14.02 -19 13 C-18.34 13 -17.68 13 -17 13 C-17 12.01 -17 11.02 -17 10 C-16.01 10 -15.02 10 -14 10 C-14 9.34 -14 8.68 -14 8 C-13.01 8 -12.02 8 -11 8 C-11 7.01 -11 6.02 -11 5 C-9.35 5 -7.7 5 -6 5 C-6 4.01 -6 3.02 -6 2 C-4.02 2 -2.04 2 0 2 C0 1.34 0 0.68 0 0 Z " fill="#FEA60D" transform="translate(25,7)"/>
<path d="M0 0 C4.95 0 9.9 0 15 0 C15 0.66 15 1.32 15 2 C16.65 2 18.3 2 20 2 C20 2.99 20 3.98 20 5 C20.99 5 21.98 5 23 5 C23 5.99 23 6.98 23 8 C23.66 8 24.32 8 25 8 C25 12.95 25 17.9 25 23 C24.34 23 23.68 23 23 23 C23 23.66 23 24.32 23 25 C22.01 25 21.02 25 20 25 C20 25.99 20 26.98 20 28 C19.34 28 18.68 28 18 28 C18 28.99 18 29.98 18 31 C17.01 31 16.02 31 15 31 C15 31.99 15 32.98 15 34 C13.02 34 11.04 34 9 34 C9 34.66 9 35.32 9 36 C7.35 36 5.7 36 4 36 C4 36.99 4 37.98 4 39 C-3.59 39 -11.18 39 -19 39 C-19 38.01 -19 37.02 -19 36 C-19.99 36 -20.98 36 -22 36 C-22.33 35.34 -22.66 34.68 -23 34 C-23.66 34 -24.32 34 -25 34 C-25 29.05 -25 24.1 -25 19 C-24.01 19 -23.02 19 -22 19 C-22 18.01 -22 17.02 -22 16 C-21.01 16 -20.02 16 -19 16 C-19 15.01 -19 14.02 -19 13 C-18.34 13 -17.68 13 -17 13 C-17 12.01 -17 11.02 -17 10 C-16.01 10 -15.02 10 -14 10 C-14 9.34 -14 8.68 -14 8 C-13.01 8 -12.02 8 -11 8 C-11 7.01 -11 6.02 -11 5 C-9.35 5 -7.7 5 -6 5 C-6 4.01 -6 3.02 -6 2 C-4.02 2 -2.04 2 0 2 C0 1.34 0 0.68 0 0 Z M0 3 C0 3.99 0 4.98 0 6 C-1.65 6 -3.3 6 -5 6 C-5 6.66 -5 7.32 -5 8 C-6.65 8 -8.3 8 -10 8 C-10 8.99 -10 9.98 -10 11 C-10.99 11 -11.98 11 -13 11 C-13 11.99 -13 12.98 -13 14 C-13.99 14 -14.98 14 -16 14 C-16 14.99 -16 15.98 -16 17 C-16.66 17 -17.32 17 -18 17 C-18 17.66 -18 18.32 -18 19 C-18.99 19 -19.98 19 -21 19 C-21 23.29 -21 27.58 -21 32 C-20.01 32 -19.02 32 -18 32 C-18 32.99 -18 33.98 -18 35 C-11.07 35 -4.14 35 3 35 C3 34.34 3 33.68 3 33 C4.65 32.67 6.3 32.34 8 32 C8 31.34 8 30.68 8 30 C9.32 30 10.64 30 12 30 C12 29.01 12 28.02 12 27 C12.66 27 13.32 27 14 27 C14 26.34 14 25.68 14 25 C15.65 24.67 17.3 24.34 19 24 C19.33 22.35 19.66 20.7 20 19 C20.66 19 21.32 19 22 19 C22.08121924 17.39667209 22.13929134 15.79215974 22.1875 14.1875 C22.22230469 13.29417969 22.25710937 12.40085937 22.29296875 11.48046875 C22.20381372 8.96095503 22.20381372 8.96095503 20.65625 7.1875 C18.39235443 5.56432959 16.71692729 5.7797086 14 6 C14 5.01 14 4.02 14 3 C9.38 3 4.76 3 0 3 Z " fill="#B54900" transform="translate(25,7)"/>
<path d="M0 0 C2 0 2 0 3.61328125 1.17578125 C5.47067046 3.61916368 5.30562266 5.15568518 5.1875 8.1875 C5.14689453 9.53908203 5.14689453 9.53908203 5.10546875 10.91796875 C5.07066406 11.60503906 5.03585938 12.29210938 5 13 C4.34 13 3.68 13 3 13 C2.67 14.65 2.34 16.3 2 18 C0.35 18.33 -1.3 18.66 -3 19 C-3 19.66 -3 20.32 -3 21 C-3.66 21 -4.32 21 -5 21 C-5 21.99 -5 22.98 -5 24 C-6.32 24 -7.64 24 -9 24 C-9 24.66 -9 25.32 -9 26 C-10.65 26.33 -12.3 26.66 -14 27 C-14 27.66 -14 28.32 -14 29 C-20.93 29 -27.86 29 -35 29 C-35 28.01 -35 27.02 -35 26 C-35.99 26 -36.98 26 -38 26 C-38 24.35 -38 22.7 -38 21 C-37.01 21 -36.02 21 -35 21 C-35 21.99 -35 22.98 -35 24 C-29.72 24 -24.44 24 -19 24 C-19 23.34 -19 22.68 -19 22 C-17.35 22 -15.7 22 -14 22 C-14 21.01 -14 20.02 -14 19 C-12.02 19 -10.04 19 -8 19 C-8 18.01 -8 17.02 -8 16 C-7.01 16 -6.02 16 -5 16 C-5 15.01 -5 14.02 -5 13 C-4.34 13 -3.68 13 -3 13 C-3 12.34 -3 11.68 -3 11 C-2.01 11 -1.02 11 0 11 C0 10.01 0 9.02 0 8 C0.66 8 1.32 8 2 8 C2 6.35 2 4.7 2 3 C1.34 3 0.68 3 0 3 C0 2.01 0 1.02 0 0 Z " fill="#F97F06" transform="translate(42,13)"/>
<path d="M0 0 C0.33 0 0.66 0 1 0 C1 1.98 1 3.96 1 6 C0.01 6 -0.98 6 -2 6 C-2 6.99 -2 7.98 -2 9 C-2.66 9 -3.32 9 -4 9 C-4 9.66 -4 10.32 -4 11 C-4.99 11 -5.98 11 -7 11 C-7 15.29 -7 19.58 -7 24 C-6.01 24 -5.02 24 -4 24 C-4 25.32 -4 26.64 -4 28 C2.93 28 9.86 28 17 28 C17 28.66 17 29.32 17 30 C9.74 30 2.48 30 -5 30 C-5 29.34 -5 28.68 -5 28 C-5.99 28 -6.98 28 -8 28 C-8.33 27.34 -8.66 26.68 -9 26 C-9.66 26 -10.32 26 -11 26 C-11 21.05 -11 16.1 -11 11 C-10.01 11 -9.02 11 -8 11 C-8 10.01 -8 9.02 -8 8 C-7.01 8 -6.02 8 -5 8 C-5 7.01 -5 6.02 -5 5 C-4.34 5 -3.68 5 -3 5 C-3 4.01 -3 3.02 -3 2 C-2.01 2 -1.02 2 0 2 C0 1.34 0 0.68 0 0 Z " fill="#BC5104" transform="translate(11,15)"/>
<path d="M0 0 C0.99 0 1.98 0 3 0 C3 0.66 3 1.32 3 2 C3.99 2.33 4.98 2.66 6 3 C5.34 3 4.68 3 4 3 C4 3.99 4 4.98 4 6 C3.01 6 2.02 6 1 6 C1 6.99 1 7.98 1 9 C-0.98 9 -2.96 9 -5 9 C-5 9.66 -5 10.32 -5 11 C-6.65 11 -8.3 11 -10 11 C-10 11.99 -10 12.98 -10 14 C-17.59 14 -25.18 14 -33 14 C-33 13.67 -33 13.34 -33 13 C-25.74 13 -18.48 13 -11 13 C-11 12.34 -11 11.68 -11 11 C-17.93 11 -24.86 11 -32 11 C-32 10.67 -32 10.34 -32 10 C-25.07 10 -18.14 10 -11 10 C-11 9.34 -11 8.68 -11 8 C-9.35 7.67 -7.7 7.34 -6 7 C-6 6.34 -6 5.68 -6 5 C-4.68 5 -3.36 5 -2 5 C-2 4.01 -2 3.02 -2 2 C-1.34 2 -0.68 2 0 2 C0 1.34 0 0.68 0 0 Z " fill="#C15500" transform="translate(39,32)"/>
<path d="M0 0 C0.99 0 1.98 0 3 0 C3 0.99 3 1.98 3 3 C9.93 3 16.86 3 24 3 C24 3.66 24 4.32 24 5 C16.74 5 9.48 5 2 5 C2 4.34 2 3.68 2 3 C1.34 3 0.68 3 0 3 C0 2.01 0 1.02 0 0 Z " fill="#9C3601" transform="translate(4,40)"/>
<path d="M0 0 C0.33 0.99 0.66 1.98 1 3 C2.65 3 4.3 3 6 3 C6 3.99 6 4.98 6 6 C6.99 6 7.98 6 9 6 C9 6.66 9 7.32 9 8 C7.02 8 5.04 8 3 8 C3 7.34 3 6.68 3 6 C-1.29 6 -5.58 6 -10 6 C-10 5.67 -10 5.34 -10 5 C-8.35 5 -6.7 5 -5 5 C-5 4.34 -5 3.68 -5 3 C-3.35 3 -1.7 3 0 3 C0 2.01 0 1.02 0 0 Z " fill="#F79213" transform="translate(25,10)"/>
<path d="M0 0 C2.97 0 5.94 0 9 0 C9 0.66 9 1.32 9 2 C10.65 2 12.3 2 14 2 C14 2.99 14 3.98 14 5 C12.02 5 10.04 5 8 5 C8 4.34 8 3.68 8 3 C5.36 3 2.72 3 0 3 C0 2.01 0 1.02 0 0 Z " fill="#FFC03E" transform="translate(9,24)"/>
<path d="M0 0 C3.63 0 7.26 0 11 0 C11 0.99 11 1.98 11 3 C11.99 3 12.98 3 14 3 C14 3.66 14 4.32 14 5 C12.35 5 10.7 5 9 5 C9 4.34 9 3.68 9 3 C6.03 3 3.06 3 0 3 C0 2.01 0 1.02 0 0 Z " fill="#FC8709" transform="translate(9,21)"/>
<path d="M0 0 C4.62 0 9.24 0 14 0 C14 0.99 14 1.98 14 3 C9.38 3 4.76 3 0 3 C0 2.01 0 1.02 0 0 Z " fill="#AE4502" transform="translate(25,7)"/>
<path d="M0 0 C2 0 2 0 3.61328125 1.17578125 C5.47067046 3.61916368 5.30562266 5.15568518 5.1875 8.1875 C5.16042969 9.08855469 5.13335937 9.98960938 5.10546875 10.91796875 C5.07066406 11.60503906 5.03585938 12.29210938 5 13 C4.34 13 3.68 13 3 13 C2.67 13.99 2.34 14.98 2 16 C2 11.71 2 7.42 2 3 C1.34 3 0.68 3 0 3 C0 2.01 0 1.02 0 0 Z " fill="#F07200" transform="translate(42,13)"/>
<path d="M0 0 C4.29 0 8.58 0 13 0 C13 0.99 13 1.98 13 3 C8.71 3 4.42 3 0 3 C0 2.01 0 1.02 0 0 Z " fill="#FFC53E" transform="translate(26,10)"/>
<path d="M0 0 C0.99 0 1.98 0 3 0 C3 0.66 3 1.32 3 2 C3.99 2.33 4.98 2.66 6 3 C5.34 3 4.68 3 4 3 C4 3.99 4 4.98 4 6 C3.01 6 2.02 6 1 6 C1 6.99 1 7.98 1 9 C-0.98 9 -2.96 9 -5 9 C-5 8.67 -5 8.34 -5 8 C-3.35 8 -1.7 8 0 8 C0 7.01 0 6.02 0 5 C-0.66 5 -1.32 5 -2 5 C-2 4.01 -2 3.02 -2 2 C-1.34 2 -0.68 2 0 2 C0 1.34 0 0.68 0 0 Z " fill="#DA6400" transform="translate(39,32)"/>
<path d="M0 0 C0.33 0.66 0.66 1.32 1 2 C2.65 2 4.3 2 6 2 C6 2.99 6 3.98 6 5 C6.99 5 7.98 5 9 5 C8.67 5.99 8.34 6.98 8 8 C8 7.34 8 6.68 8 6 C7.34 6 6.68 6 6 6 C5.67 6.66 5.34 7.32 5 8 C5 7.34 5 6.68 5 6 C3.35 6 1.7 6 0 6 C0 4.02 0 2.04 0 0 Z " fill="#C95C01" transform="translate(39,7)"/>
<path d="M0 0 C0.66 0 1.32 0 2 0 C2 0.99 2 1.98 2 3 C2.99 3.33 3.98 3.66 5 4 C4.34 4 3.68 4 3 4 C3 4.66 3 5.32 3 6 C2.01 6 1.02 6 0 6 C0 6.66 0 7.32 0 8 C-0.99 8 -1.98 8 -3 8 C-3 7.01 -3 6.02 -3 5 C-2.34 5 -1.68 5 -1 5 C-0.67 3.35 -0.34 1.7 0 0 Z " fill="#C34E00" transform="translate(45,26)"/>
<path d="M0 0 C1.98 0 3.96 0 6 0 C6 0.66 6 1.32 6 2 C4.35 2 2.7 2 1 2 C1 2.99 1 3.98 1 5 C0.01 5 -0.98 5 -2 5 C-2 4.01 -2 3.02 -2 2 C-1.34 2 -0.68 2 0 2 C0 1.34 0 0.68 0 0 Z " fill="#AA4202" transform="translate(14,13)"/>
<path d="M0 0 C0.33 0 0.66 0 1 0 C1 1.98 1 3.96 1 6 C-0.98 6 -2.96 6 -5 6 C-4.34 5.67 -3.68 5.34 -3 5 C-3 4.01 -3 3.02 -3 2 C-2.01 2 -1.02 2 0 2 C0 1.34 0 0.68 0 0 Z " fill="#D26601" transform="translate(11,15)"/>
<path d="M0 0 C1.98 0 3.96 0 6 0 C6 0.99 6 1.98 6 3 C4.02 3 2.04 3 0 3 C0 2.01 0 1.02 0 0 Z " fill="#FFC342" transform="translate(28,18)"/>
<path d="M0 0 C0.33 0.99 0.66 1.98 1 3 C1.99 3 2.98 3 4 3 C4 3.66 4 4.32 4 5 C2.02 5 0.04 5 -2 5 C-1.125 1.125 -1.125 1.125 0 0 Z " fill="#FE8A07" transform="translate(30,13)"/>
</svg>
