<?xml version="1.0" encoding="UTF-8"?>
<svg version="1.1" xmlns="http://www.w3.org/2000/svg" width="50" height="50">
<path d="M0 0 C13.86 0 27.72 0 42 0 C42 3.3 42 6.6 42 10 C41.01 10 40.02 10 39 10 C39 13.3 39 16.6 39 20 C38.01 20 37.02 20 36 20 C36 20.66 36 21.32 36 22 C35.34 22 34.68 22 34 22 C34 23.98 34 25.96 34 28 C34.66 28 35.32 28 36 28 C36 28.99 36 29.98 36 31 C36.99 31 37.98 31 39 31 C39 33.97 39 36.94 39 40 C39.99 40 40.98 40 42 40 C42 43.3 42 46.6 42 50 C27.48 50 12.96 50 -2 50 C-2 46.7 -2 43.4 -2 40 C-0.68 40 0.64 40 2 40 C2 37.03 2 34.06 2 31 C2.99 31 3.98 31 5 31 C5 30.01 5 29.02 5 28 C6.32 28 7.64 28 9 28 C9 26.02 9 24.04 9 22 C7.68 22 6.36 22 5 22 C5 21.01 5 20.02 5 19 C4.01 19 3.02 19 2 19 C2 16.03 2 13.06 2 10 C1.34 10 0.68 10 0 10 C0 6.7 0 3.4 0 0 Z " fill="#6C2E0C" transform="translate(4,0)"/>
<path d="M0 0 C9.57 0 19.14 0 29 0 C29 2.97 29 5.94 29 9 C28.01 9 27.02 9 26 9 C26 9.99 26 10.98 26 12 C25.01 12 24.02 12 23 12 C23 12.99 23 13.98 23 15 C22.01 15 21.02 15 20 15 C20 15.99 20 16.98 20 18 C21.98 18 23.96 18 26 18 C26 19.32 26 20.64 26 22 C26.99 22 27.98 22 29 22 C29 24.64 29 27.28 29 30 C19.43 30.33 9.86 30.66 0 31 C0 28.03 0 25.06 0 22 C0.99 22 1.98 22 3 22 C3 17.71 3 13.42 3 9 C2.01 9 1.02 9 0 9 C0 6.03 0 3.06 0 0 Z " fill="#F68F0A" transform="translate(10,10)"/>
<path d="M0 0 C1.32 0 2.64 0 4 0 C4 1.32 4 2.64 4 4 C3.01 4 2.02 4 1 4 C1 6.97 1 9.94 1 13 C10.9 13 20.8 13 31 13 C31 9.7 31 6.4 31 3 C31.99 3 32.98 3 34 3 C34 5.97 34 8.94 34 12 C34.99 12 35.98 12 37 12 C37 15.3 37 18.6 37 22 C22.48 22 7.96 22 -7 22 C-7 18.7 -7 15.4 -7 12 C-5.68 12 -4.36 12 -3 12 C-3 9.03 -3 6.06 -3 3 C-2.01 3 -1.02 3 0 3 C0 2.01 0 1.02 0 0 Z " fill="#5C331D" transform="translate(9,28)"/>
<path d="M0 0 C9.57 0 19.14 0 29 0 C29 2.97 29 5.94 29 9 C28.01 9 27.02 9 26 9 C26 9.99 26 10.98 26 12 C25.01 12 24.02 12 23 12 C23 12.99 23 13.98 23 15 C21.02 15 19.04 15 17 15 C17 14.01 17 13.02 17 12 C17.99 12 18.98 12 20 12 C20 11.01 20 10.02 20 9 C20.99 9 21.98 9 23 9 C23 8.01 23 7.02 23 6 C17.72 6 12.44 6 7 6 C7 6.66 7 7.32 7 8 C8.32 8.33 9.64 8.66 11 9 C10.67 9.66 10.34 10.32 10 11 C10.99 11 11.98 11 13 11 C13 14.3 13 17.6 13 21 C11.02 20.67 9.04 20.34 7 20 C7.66 19.67 8.32 19.34 9 19 C9 17.68 9 16.36 9 15 C8.01 15 7.02 15 6 15 C6 14.01 6 13.02 6 12 C5.01 12 4.02 12 3 12 C3 11.01 3 10.02 3 9 C2.01 9 1.02 9 0 9 C0 6.03 0 3.06 0 0 Z " fill="#FABD44" transform="translate(10,10)"/>
<path d="M0 0 C9.9 0 19.8 0 30 0 C30.33 1.65 30.66 3.3 31 5 C31.66 5 32.32 5 33 5 C33 6.98 33 8.96 33 11 C32.01 11 31.02 11 30 11 C30 11.66 30 12.32 30 13 C29.34 13 28.68 13 28 13 C28 14.98 28 16.96 28 19 C28.66 19 29.32 19 30 19 C30 23.29 30 27.58 30 32 C21.42 32 12.84 32 4 32 C4 31.67 4 31.34 4 31 C12.25 31 20.5 31 29 31 C29 28.36 29 25.72 29 23 C28.01 23 27.02 23 26 23 C26 21.68 26 20.36 26 19 C24.02 19 22.04 19 20 19 C20 18.01 20 17.02 20 16 C20.99 16 21.98 16 23 16 C23 15.01 23 14.02 23 13 C23.99 13 24.98 13 26 13 C26 12.01 26 11.02 26 10 C26.99 10 27.98 10 29 10 C29 7.03 29 4.06 29 1 C19.43 1 9.86 1 0 1 C0 0.67 0 0.34 0 0 Z " fill="#954D10" transform="translate(10,9)"/>
<path d="M0 0 C0.33 0.99 0.66 1.98 1 3 C11.89 3 22.78 3 34 3 C34 3.33 34 3.66 34 4 C23.11 4 12.22 4 1 4 C1 5.32 1 6.64 1 8 C12.88 8 24.76 8 37 8 C37 6.35 37 4.7 37 3 C37.66 3 38.32 3 39 3 C39 5.31 39 7.62 39 10 C25.47 10 11.94 10 -2 10 C-2 7.36 -2 4.72 -2 2 C-1.34 2 -0.68 2 0 2 C0 1.34 0 0.68 0 0 Z " fill="#692303" transform="translate(6,39)"/>
<path d="M0 0 C11.88 0 23.76 0 36 0 C36 1.32 36 2.64 36 4 C24.12 4 12.24 4 0 4 C0 2.68 0 1.36 0 0 Z " fill="#C26311" transform="translate(7,3)"/>
<path d="M0 0 C0.33 0.99 0.66 1.98 1 3 C12.55 3 24.1 3 36 3 C32.36693942 5.42204038 30.68180977 5.23302891 26.36328125 5.1953125 C24.41518555 5.18564453 24.41518555 5.18564453 22.42773438 5.17578125 C21.05598693 5.1590706 19.68424214 5.14214071 18.3125 5.125 C16.92904282 5.11496674 15.54557873 5.10584149 14.16210938 5.09765625 C10.77456548 5.07404967 7.38736928 5.04112037 4 5 C4 8.3 4 11.6 4 15 C4.99 15 5.98 15 7 15 C7 15.99 7 16.98 7 18 C5.68 18 4.36 18 3 18 C3 17.01 3 16.02 3 15 C2.01 15 1.02 15 0 15 C0 12.03 0 9.06 0 6 C-0.66 6 -1.32 6 -2 6 C-2 5.01 -2 4.02 -2 3 C-1.34 3 -0.68 3 0 3 C0 2.01 0 1.02 0 0 Z " fill="#6E2801" transform="translate(6,4)"/>
<path d="M0 0 C9.57 0 19.14 0 29 0 C29 2.97 29 5.94 29 9 C28.01 9 27.02 9 26 9 C26 7.02 26 5.04 26 3 C18.41 3 10.82 3 3 3 C3 4.98 3 6.96 3 9 C2.01 9 1.02 9 0 9 C0 6.03 0 3.06 0 0 Z " fill="#FCA41F" transform="translate(10,10)"/>
<path d="M0 0 C11.55 0 23.1 0 35 0 C35 0.99 35 1.98 35 3 C23.45 3 11.9 3 0 3 C0 2.01 0 1.02 0 0 Z " fill="#CE6A17" transform="translate(7,44)"/>
<path d="M0 0 C0.99 0 1.98 0 3 0 C3 0.99 3 1.98 3 3 C3.99 3 4.98 3 6 3 C6.33 5.97 6.66 8.94 7 12 C6.01 12 5.02 12 4 12 C4 12.99 4 13.98 4 15 C2.68 15 1.36 15 0 15 C0 10.05 0 5.1 0 0 Z " fill="#F9B540" transform="translate(13,22)"/>
<path d="M0 0 C0.99 0 1.98 0 3 0 C2.67 3.3 2.34 6.6 2 10 C2.99 10.33 3.98 10.66 5 11 C4.34 11 3.68 11 3 11 C3 12.65 3 14.3 3 16 C2.505 14.515 2.505 14.515 2 13 C-9.55 13 -21.1 13 -33 13 C-33 12.67 -33 12.34 -33 12 C-22.44 11.67 -11.88 11.34 -1 11 C-0.67 7.37 -0.34 3.74 0 0 Z " fill="#773208" transform="translate(40,31)"/>
<path d="M0 0 C1.98 0 3.96 0 6 0 C6 0.99 6 1.98 6 3 C6.99 3 7.98 3 9 3 C9 5.64 9 8.28 9 11 C8.01 11 7.02 11 6 11 C6 10.34 6 9.68 6 9 C5.01 9 4.02 9 3 9 C3 7.02 3 5.04 3 3 C2.01 3 1.02 3 0 3 C0 2.01 0 1.02 0 0 Z " fill="#FEBE46" transform="translate(30,29)"/>
<path d="M0 0 C0.99 0 1.98 0 3 0 C3 2.97 3 5.94 3 9 C2.34 9 1.68 9 1 9 C0.67 10.65 0.34 12.3 0 14 C-0.66 13.67 -1.32 13.34 -2 13 C-2.625 9.9375 -2.625 9.9375 -3 7 C-2.01 6.67 -1.02 6.34 0 6 C0.73323796 3.98491642 0.73323796 3.98491642 1 2 C0.34 1.67 -0.32 1.34 -1 1 C-0.67 0.67 -0.34 0.34 0 0 Z " fill="#611F03" transform="translate(42,1)"/>
<path d="M0 0 C0.33 0.99 0.66 1.98 1 3 C1.66 3 2.32 3 3 3 C3 3.99 3 4.98 3 6 C2.01 6 1.02 6 0 6 C0 6.99 0 7.98 0 9 C-1.98 9 -3.96 9 -6 9 C-6 8.01 -6 7.02 -6 6 C-5.01 6 -4.02 6 -3 6 C-3 5.01 -3 4.02 -3 3 C-2.01 3 -1.02 3 0 3 C0 2.01 0 1.02 0 0 Z " fill="#FAB744" transform="translate(33,16)"/>
<path d="M0 0 C1.65 0 3.3 0 5 0 C5 0.66 5 1.32 5 2 C5.99 2 6.98 2 8 2 C8 4.97 8 7.94 8 11 C6.35 10.67 4.7 10.34 3 10 C3.66 9.34 4.32 8.68 5 8 C5.6425235 5.93125966 5.6425235 5.93125966 6 4 C5.01 4 4.02 4 3 4 C3 3.01 3 2.02 3 1 C2.01 0.67 1.02 0.34 0 0 Z " fill="#FECC54" transform="translate(14,20)"/>
<path d="M0 0 C0.33 0.99 0.66 1.98 1 3 C1.99 3 2.98 3 4 3 C4 3.99 4 4.98 4 6 C5.98 6 7.96 6 10 6 C10 6.33 10 6.66 10 7 C8.02 7 6.04 7 4 7 C4 7.99 4 8.98 4 10 C3.01 10 2.02 10 1 10 C-0.1577506 6.52674819 -0.06866652 3.63932552 0 0 Z " fill="#F79C28" transform="translate(26,22)"/>
<path d="M0 0 C0.99 0 1.98 0 3 0 C3 1.65 3 3.3 3 5 C3.99 5.33 4.98 5.66 6 6 C5.01 6 4.02 6 3 6 C3 6.66 3 7.32 3 8 C2.01 8 1.02 8 0 8 C0 5.36 0 2.72 0 0 Z " fill="#FBA733" transform="translate(10,32)"/>
<path d="M0 0 C0.99 0 1.98 0 3 0 C3 2.64 3 5.28 3 8 C2.01 8 1.02 8 0 8 C0 7.34 0 6.68 0 6 C-0.99 5.67 -1.98 5.34 -3 5 C-2.01 5 -1.02 5 0 5 C0 3.35 0 1.7 0 0 Z " fill="#FAA331" transform="translate(36,32)"/>
<path d="M0 0 C0.99 0 1.98 0 3 0 C3 1.98 3 3.96 3 6 C1.02 6 -0.96 6 -3 6 C-3 5.01 -3 4.02 -3 3 C-2.01 3 -1.02 3 0 3 C0 2.01 0 1.02 0 0 Z " fill="#7B3006" transform="translate(33,22)"/>
<path d="M0 0 C0.99 0 1.98 0 3 0 C3 0.99 3 1.98 3 3 C3.99 3 4.98 3 6 3 C6 3.99 6 4.98 6 6 C4.02 6 2.04 6 0 6 C0 4.02 0 2.04 0 0 Z " fill="#7E2E01" transform="translate(13,22)"/>
<path d="M0 0 C0.33 0 0.66 0 1 0 C1 3.3 1 6.6 1 10 C1.99 10 2.98 10 4 10 C4 10.99 4 11.98 4 13 C2.68 13 1.36 13 0 13 C0 8.71 0 4.42 0 0 Z " fill="#7C3204" transform="translate(9,9)"/>
</svg>
