<?xml version="1.0" encoding="UTF-8"?>
<svg version="1.1" xmlns="http://www.w3.org/2000/svg" width="50" height="50">
<path d="M0 0 C4.95 0 9.9 0 15 0 C15 16.5 15 33 15 50 C2.46 50 -10.08 50 -23 50 C-23 41.42 -23 32.84 -23 24 C-18.71 24 -14.42 24 -10 24 C-10 20.7 -10 17.4 -10 14 C-6.7 14 -3.4 14 0 14 C0 9.38 0 4.76 0 0 Z " fill="#783A09" transform="translate(29,0)"/>
<path d="M0 0 C3.3 0 6.6 0 10 0 C10 10.23 10 20.46 10 31 C7.03 31 4.06 31 1 31 C0.67 20.77 0.34 10.54 0 0 Z " fill="#FD9912" transform="translate(19,14)"/>
<path d="M0 0 C1.98 0 3.96 0 6 0 C6 13.2 6 26.4 6 40 C4.02 40 2.04 40 0 40 C0 26.8 0 13.6 0 0 Z " fill="#CF5A05" transform="translate(34,5)"/>
<path d="M0 0 C0.33 0 0.66 0 1 0 C1 15.84 1 31.68 1 48 C-1.64 48 -4.28 48 -7 48 C-6.34 47.34 -5.68 46.68 -5 46 C-5.66 45.34 -6.32 44.68 -7 44 C-5.35 44 -3.7 44 -2 44 C-2 31.79 -2 19.58 -2 7 C-1.67 7 -1.34 7 -1 7 C-0.67 4.69 -0.34 2.38 0 0 Z " fill="#743001" transform="translate(42,2)"/>
<path d="M0 0 C2.475 0.99 2.475 0.99 5 2 C5.6875 4.0625 5.6875 4.0625 6 6 C6.66 6.33 7.32 6.66 8 7 C8 4.69 8 2.38 8 0 C8.33 0 8.66 0 9 0 C9 5.61 9 11.22 9 17 C6.03 17 3.06 17 0 17 C0 11.39 0 5.78 0 0 Z " fill="#EF861B" transform="translate(20,28)"/>
<path d="M0 0 C1.32 0 2.64 0 4 0 C4 4.95 4 9.9 4 15 C2.68 15 1.36 15 0 15 C0 10.05 0 5.1 0 0 Z " fill="#FE971A" transform="translate(11,30)"/>
<path d="M0 0 C0.33 0 0.66 0 1 0 C1 4.62 1 9.24 1 14 C1.99 14 2.98 14 4 14 C4 12.02 4 10.04 4 8 C5.65 8 7.3 8 9 8 C9 10.31 9 12.62 9 15 C6.03 15 3.06 15 0 15 C0 10.05 0 5.1 0 0 Z " fill="#E17A1A" transform="translate(20,30)"/>
<path d="M0 0 C4.62 0 9.24 0 14 0 C13.67 4.29 13.34 8.58 13 13 C11.11656068 9.23312136 10.77942165 7.97041037 11 4 C9.35 4 7.7 4 6 4 C6 3.67 6 3.34 6 3 C7.65 3 9.3 3 11 3 C11 2.34 11 1.68 11 1 C8.03 1 5.06 1 2 1 C2 2.32 2 3.64 2 5 C1.34 5 0.68 5 0 5 C0 3.35 0 1.7 0 0 Z " fill="#6C3B15" transform="translate(29,0)"/>
</svg>
