<?xml version="1.0" encoding="UTF-8"?>
<svg version="1.1" xmlns="http://www.w3.org/2000/svg" width="50" height="50">
<path d="M0 0 C1.65 0 3.3 0 5 0 C5 0.99 5 1.98 5 3 C6.32 3 7.64 3 9 3 C9 3.99 9 4.98 9 6 C9.66 6 10.32 6 11 6 C11 6.99 11 7.98 11 9 C12.32 9 13.64 9 15 9 C15 8.01 15 7.02 15 6 C15.66 6 16.32 6 17 6 C17 4.02 17 2.04 17 0 C18.32 0 19.64 0 21 0 C21 0.99 21 1.98 21 3 C21.66 3 22.32 3 23 3 C23 3.99 23 4.98 23 6 C23.99 6 24.98 6 26 6 C26 6.99 26 7.98 26 9 C26.99 9 27.98 9 29 9 C29 9.99 29 10.98 29 12 C29.99 12 30.98 12 32 12 C32 12.99 32 13.98 32 15 C32.99 15 33.98 15 35 15 C35 15.99 35 16.98 35 18 C35.99 18 36.98 18 38 18 C38 17.01 38 16.02 38 15 C39.98 15 41.96 15 44 15 C44 19.62 44 24.24 44 29 C44.66 29 45.32 29 46 29 C46 31.97 46 34.94 46 38 C30.82 38 15.64 38 0 38 C0 25.46 0 12.92 0 0 Z M8 15 C8 19.62 8 24.24 8 29 C13.94 29 19.88 29 26 29 C26 28.01 26 27.02 26 26 C26.99 26 27.98 26 29 26 C29 24.35 29 22.7 29 21 C28.01 21 27.02 21 26 21 C26 20.01 26 19.02 26 18 C25.01 18 24.02 18 23 18 C23 17.01 23 16.02 23 15 C21.02 15 19.04 15 17 15 C17 15.99 17 16.98 17 18 C15.35 18 13.7 18 12 18 C12 17.01 12 16.02 12 15 C10.68 15 9.36 15 8 15 Z " fill="#71350B" transform="translate(2,6)"/>
<path d="M0 0 C1.32 0 2.64 0 4 0 C4 0.99 4 1.98 4 3 C4.66 3 5.32 3 6 3 C6 3.99 6 4.98 6 6 C6.99 6 7.98 6 9 6 C9 6.99 9 7.98 9 9 C9.99 9 10.98 9 12 9 C12 9.99 12 10.98 12 12 C12.99 12 13.98 12 15 12 C15 12.99 15 13.98 15 15 C15.99 15 16.98 15 18 15 C18 15.99 18 16.98 18 18 C19.98 18 21.96 18 24 18 C24 21.63 24 25.26 24 29 C20.7 29 17.4 29 14 29 C14.33 26.36 14.66 23.72 15 21 C13.02 21 11.04 21 9 21 C9 20.01 9 19.02 9 18 C8.01 18 7.02 18 6 18 C6 17.01 6 16.02 6 15 C4.02 15 2.04 15 0 15 C0 15.99 0 16.98 0 18 C-1.65 18 -3.3 18 -5 18 C-5.33 16.02 -5.66 14.04 -6 12 C-6.66 12 -7.32 12 -8 12 C-8 11.01 -8 10.02 -8 9 C-6.02 9 -4.04 9 -2 9 C-2 8.01 -2 7.02 -2 6 C-1.34 6 -0.68 6 0 6 C0 4.02 0 2.04 0 0 Z " fill="#AD3F12" transform="translate(19,6)"/>
<path d="M0 0 C0.66 0 1.32 0 2 0 C2 11.55 2 23.1 2 35 C15.86 35 29.72 35 44 35 C44 33.35 44 31.7 44 30 C44.66 30 45.32 30 46 30 C46 32.64 46 35.28 46 38 C30.82 38 15.64 38 0 38 C0 25.46 0 12.92 0 0 Z " fill="#682707" transform="translate(2,6)"/>
<path d="M0 0 C0.99 0 1.98 0 3 0 C3 8.58 3 17.16 3 26 C15.87 26 28.74 26 42 26 C42 26.99 42 27.98 42 29 C28.14 29 14.28 29 0 29 C0 19.43 0 9.86 0 0 Z " fill="#F0C058" transform="translate(4,12)"/>
<path d="M0 0 C1.4540625 0.0309375 1.4540625 0.0309375 2.9375 0.0625 C2.9375 1.0525 2.9375 2.0425 2.9375 3.0625 C4.9175 3.0625 6.8975 3.0625 8.9375 3.0625 C8.9375 6.6925 8.9375 10.3225 8.9375 14.0625 C5.6375 14.0625 2.3375 14.0625 -1.0625 14.0625 C-0.7325 11.4225 -0.4025 8.7825 -0.0625 6.0625 C-1.0525 6.0625 -2.0425 6.0625 -3.0625 6.0625 C-3.44468767 4.40635343 -3.77645102 2.73792976 -4.0625 1.0625 C-3.0625 0.0625 -3.0625 0.0625 0 0 Z " fill="#DD501E" transform="translate(34.0625,20.9375)"/>
<path d="M0 0 C0.99 0 1.98 0 3 0 C3 0.99 3 1.98 3 3 C4.32 3 5.64 3 7 3 C7 3.99 7 4.98 7 6 C7.66 6 8.32 6 9 6 C9 6.99 9 7.98 9 9 C8.34 9 7.68 9 7 9 C7 9.99 7 10.98 7 12 C7.66 12 8.32 12 9 12 C9 12.99 9 13.98 9 15 C8.01 15 7.02 15 6 15 C6.02320313 15.56847656 6.04640625 16.13695313 6.0703125 16.72265625 C6.19191688 21.92558648 5.67723492 26.07312243 4 31 C3.67 31 3.34 31 3 31 C3 22.75 3 14.5 3 6 C2.01 6 1.02 6 0 6 C0 4.02 0 2.04 0 0 Z " fill="#7B3203" transform="translate(4,6)"/>
<path d="M0 0 C1.32 0 2.64 0 4 0 C4 0.99 4 1.98 4 3 C4.66 3 5.32 3 6 3 C6 3.99 6 4.98 6 6 C5.34 6 4.68 6 4 6 C4 6.99 4 7.98 4 9 C2.68 9 1.36 9 0 9 C0 9.99 0 10.98 0 12 C-1.65 12 -3.3 12 -5 12 C-5 11.01 -5 10.02 -5 9 C-4.01 9 -3.02 9 -2 9 C-2 8.01 -2 7.02 -2 6 C-1.34 6 -0.68 6 0 6 C0 4.02 0 2.04 0 0 Z " fill="#852E04" transform="translate(19,6)"/>
<path d="M0 0 C0.99 0 1.98 0 3 0 C3 0.99 3 1.98 3 3 C4.65 3 6.3 3 8 3 C8 4.98 8 6.96 8 9 C6.35 9 4.7 9 3 9 C2.67 7.02 2.34 5.04 2 3 C1.34 3 0.68 3 0 3 C0 2.01 0 1.02 0 0 Z " fill="#B14416" transform="translate(11,15)"/>
<path d="M0 0 C1.65 0 3.3 0 5 0 C5 3.3 5 6.6 5 10 C4.01 10.495 4.01 10.495 3 11 C3 8.36 3 5.72 3 3 C2.01 3 1.02 3 0 3 C0 2.01 0 1.02 0 0 Z " fill="#742A03" transform="translate(40,21)"/>
<path d="M0 0 C0.99 0 1.98 0 3 0 C3 0.99 3 1.98 3 3 C4.32 3 5.64 3 7 3 C7 3.99 7 4.98 7 6 C4.69 6 2.38 6 0 6 C0 4.02 0 2.04 0 0 Z " fill="#A34D1B" transform="translate(4,6)"/>
<path d="M0 0 C1.32 0 2.64 0 4 0 C3.67 1.98 3.34 3.96 3 6 C2.01 6 1.02 6 0 6 C0 4.02 0 2.04 0 0 Z " fill="#994B1B" transform="translate(19,6)"/>
<path d="M0 0 C0.99 0 1.98 0 3 0 C2.67 2.64 2.34 5.28 2 8 C1.34 8 0.68 8 0 8 C0 5.36 0 2.72 0 0 Z " fill="#792B02" transform="translate(31,27)"/>
<path d="M0 0 C1.98 0 3.96 0 6 0 C6 0.99 6 1.98 6 3 C4.02 3 2.04 3 0 3 C0 2.01 0 1.02 0 0 Z " fill="#7C2F09" transform="translate(19,18)"/>
</svg>
