<?xml version="1.0" encoding="UTF-8"?>
<svg version="1.1" xmlns="http://www.w3.org/2000/svg" width="50" height="50">
<path d="M0 0 C5.94 0 11.88 0 18 0 C18 0.66 18 1.32 18 2 C19.32 2 20.64 2 22 2 C22 3.32 22 4.64 22 6 C22.99 6 23.98 6 25 6 C25.495 7.485 25.495 7.485 26 9 C26.66 9 27.32 9 28 9 C28 14.28 28 19.56 28 25 C27.34 25 26.68 25 26 25 C26 25.99 26 26.98 26 28 C24.68 28 23.36 28 22 28 C22 30.64 22 33.28 22 36 C20.68 36 19.36 36 18 36 C18 39.63 18 43.26 18 47 C17.01 47 16.02 47 15 47 C15 47.99 15 48.98 15 50 C11.37 50 7.74 50 4 50 C4 49.01 4 48.02 4 47 C3.01 47 2.02 47 1 47 C1 43.04 1 39.08 1 35 C-0.65 35 -2.3 35 -4 35 C-4 32.69 -4 30.38 -4 28 C-4.99 28 -5.98 28 -7 28 C-7 26.68 -7 25.36 -7 24 C-7.99 24 -8.98 24 -10 24 C-10 19.05 -10 14.1 -10 9 C-9.34 9 -8.68 9 -8 9 C-7.67 8.01 -7.34 7.02 -7 6 C-6.01 6 -5.02 6 -4 6 C-4 5.01 -4 4.02 -4 3 C-2.68 3 -1.36 3 0 3 C0 2.01 0 1.02 0 0 Z " fill="#F89004" transform="translate(16,0)"/>
<path d="M0 0 C0.66 0 1.32 0 2 0 C2 5.28 2 10.56 2 16 C1.34 16 0.68 16 0 16 C0 16.99 0 17.98 0 19 C-1.32 19 -2.64 19 -4 19 C-4 21.64 -4 24.28 -4 27 C-5.32 27 -6.64 27 -8 27 C-8 30.63 -8 34.26 -8 38 C-8.99 38 -9.98 38 -11 38 C-11 38.99 -11 39.98 -11 41 C-14.63 41 -18.26 41 -22 41 C-22 40.01 -22 39.02 -22 38 C-22.99 38 -23.98 38 -25 38 C-25 34.04 -25 30.08 -25 26 C-24.01 26 -23.02 26 -22 26 C-22 26.99 -22 27.98 -22 29 C-18.7 29 -15.4 29 -12 29 C-12 28.01 -12 27.02 -12 26 C-10.68 26 -9.36 26 -8 26 C-8 23.69 -8 21.38 -8 19 C-7.01 18.67 -6.02 18.34 -5 18 C-4.67 17.01 -4.34 16.02 -4 15 C-3.01 15 -2.02 15 -1 15 C-1.01160156 14.00097656 -1.02320312 13.00195312 -1.03515625 11.97265625 C-1.04417969 10.68230469 -1.05320312 9.39195313 -1.0625 8.0625 C-1.07410156 6.77472656 -1.08570312 5.48695312 -1.09765625 4.16015625 C-1 1 -1 1 0 0 Z " fill="#722D07" transform="translate(42,9)"/>
<path d="M0 0 C5.94 0 11.88 0 18 0 C18 0.66 18 1.32 18 2 C19.32 2 20.64 2 22 2 C22 3.32 22 4.64 22 6 C22.99 6 23.98 6 25 6 C25 7.32 25 8.64 25 10 C23.68 10 22.36 10 21 10 C21 9.01 21 8.02 21 7 C20.01 7 19.02 7 18 7 C18 5.68 18 4.36 18 3 C12.39 3 6.78 3 1 3 C1 4.32 1 5.64 1 7 C0.01 7 -0.98 7 -2 7 C-2 7.99 -2 8.98 -2 10 C-3.32 10 -4.64 10 -6 10 C-6 14.29 -6 18.58 -6 23 C-5.01 23 -4.02 23 -3 23 C-2.896875 23.639375 -2.79375 24.27875 -2.6875 24.9375 C-2.3471875 25.9584375 -2.3471875 25.9584375 -2 27 C-1.01 27.33 -0.02 27.66 1 28 C1 30.31 1 32.62 1 35 C-0.65 35 -2.3 35 -4 35 C-4 32.69 -4 30.38 -4 28 C-4.99 28 -5.98 28 -7 28 C-7 26.68 -7 25.36 -7 24 C-7.99 24 -8.98 24 -10 24 C-10 19.05 -10 14.1 -10 9 C-9.34 9 -8.68 9 -8 9 C-7.67 8.01 -7.34 7.02 -7 6 C-6.01 6 -5.02 6 -4 6 C-4 5.01 -4 4.02 -4 3 C-2.68 3 -1.36 3 0 3 C0 2.01 0 1.02 0 0 Z " fill="#773D0F" transform="translate(16,0)"/>
<path d="M0 0 C3.63 0 7.26 0 11 0 C11 0.99 11 1.98 11 3 C11.99 3 12.98 3 14 3 C14 5.31 14 7.62 14 10 C13.01 10 12.02 10 11 10 C11 11.32 11 12.64 11 14 C9.68 14 8.36 14 7 14 C7 14.99 7 15.98 7 17 C6.01 17 5.02 17 4 17 C4 16.01 4 15.02 4 14 C2.68 14 1.36 14 0 14 C0 12.68 0 11.36 0 10 C-0.99 10 -1.98 10 -3 10 C-3 7.69 -3 5.38 -3 3 C-2.01 3 -1.02 3 0 3 C0 2.01 0 1.02 0 0 Z " fill="#FEC642" transform="translate(20,10)"/>
<path d="M0 0 C0.66 0 1.32 0 2 0 C2 5.28 2 10.56 2 16 C1.34 16 0.68 16 0 16 C0 16.99 0 17.98 0 19 C-1.32 19 -2.64 19 -4 19 C-4 17.68 -4 16.36 -4 15 C-3.01 15 -2.02 15 -1 15 C-1.01160156 14.00097656 -1.02320313 13.00195312 -1.03515625 11.97265625 C-1.04869141 10.03712891 -1.04869141 10.03712891 -1.0625 8.0625 C-1.07410156 6.77472656 -1.08570313 5.48695312 -1.09765625 4.16015625 C-1 1 -1 1 0 0 Z " fill="#6C2D05" transform="translate(42,9)"/>
<path d="M0 0 C0.99 0 1.98 0 3 0 C3 3.63 3 7.26 3 11 C2.01 11 1.02 11 0 11 C0 9.02 0 7.04 0 5 C-3.3 5 -6.6 5 -10 5 C-10 4.34 -10 3.68 -10 3 C-6.7 3 -3.4 3 0 3 C0 2.01 0 1.02 0 0 Z " fill="#602306" transform="translate(31,36)"/>
<path d="M0 0 C0 2.97 0 5.94 0 9 C-2.31 9 -4.62 9 -7 9 C-7 9.99 -7 10.98 -7 12 C-10.3 12 -13.6 12 -17 12 C-17 11.67 -17 11.34 -17 11 C-14.03 11 -11.06 11 -8 11 C-8 10.01 -8 9.02 -8 8 C-6.68 8 -5.36 8 -4 8 C-4 5.69 -4 3.38 -4 1 C-1 0 -1 0 0 0 Z " fill="#7F3A09" transform="translate(38,27)"/>
<path d="M0 0 C0.99 0.33 1.98 0.66 3 1 C3 5.62 3 10.24 3 15 C2.01 15 1.02 15 0 15 C0 10.05 0 5.1 0 0 Z " fill="#633214" transform="translate(6,9)"/>
<path d="M0 0 C0.33 0.99 0.66 1.98 1 3 C3.31 3.33 5.62 3.66 8 4 C8 6.31 8 8.62 8 11 C6.35 11 4.7 11 3 11 C3 8.69 3 6.38 3 4 C2.01 4 1.02 4 0 4 C0 2.68 0 1.36 0 0 Z " fill="#4F4436" transform="translate(9,24)"/>
<path d="M0 0 C2.97 0 5.94 0 9 0 C9 1.32 9 2.64 9 4 C6.03 4 3.06 4 0 4 C0 2.68 0 1.36 0 0 Z " fill="#CB691B" transform="translate(21,42)"/>
<path d="M0 0 C1.32 0 2.64 0 4 0 C4 0.66 4 1.32 4 2 C4.99 2 5.98 2 7 2 C7 3.32 7 4.64 7 6 C5.68 6 4.36 6 3 6 C3 5.01 3 4.02 3 3 C2.01 3 1.02 3 0 3 C0 2.01 0 1.02 0 0 Z " fill="#893C01" transform="translate(34,4)"/>
<path d="M0 0 C0.33 0 0.66 0 1 0 C1 4.29 1 8.58 1 13 C1.99 13 2.98 13 4 13 C4 14.32 4 15.64 4 17 C3.01 17 2.02 17 1 17 C-0.18681726 13.43954823 -0.09689832 10.56191663 -0.0625 6.8125 C-0.05347656 5.54019531 -0.04445313 4.26789062 -0.03515625 2.95703125 C-0.02355469 1.98121094 -0.01195312 1.00539063 0 0 Z " fill="#8D4406" transform="translate(9,10)"/>
<path d="M0 0 C0.99 0 1.98 0 3 0 C3 2.31 3 4.62 3 7 C2.01 7 1.02 7 0 7 C0 4.69 0 2.38 0 0 Z " fill="#6D2A01" transform="translate(14,28)"/>
<path d="M0 0 C1.98 0 3.96 0 6 0 C5.01 0.495 5.01 0.495 4 1 C4 1.99 4 2.98 4 4 C2.68 4 1.36 4 0 4 C0 2.68 0 1.36 0 0 Z " fill="#584835" transform="translate(38,24)"/>
</svg>
