<?xml version="1.0" encoding="UTF-8"?>
<svg version="1.1" xmlns="http://www.w3.org/2000/svg" width="50" height="50">
<path d="M0 0 C5.61 0 11.22 0 17 0 C17 0.99 17 1.98 17 3 C20.3 3 23.6 3 27 3 C27 2.01 27 1.02 27 0 C32.28 0 37.56 0 43 0 C43 0.66 43 1.32 43 2 C44.32 2 45.64 2 47 2 C47 14.54 47 27.08 47 40 C45.68 40 44.36 40 43 40 C43 40.99 43 41.98 43 43 C38.05 43 33.1 43 28 43 C28 43.99 28 44.98 28 46 C24.04 46 20.08 46 16 46 C16 45.01 16 44.02 16 43 C10.72 43 5.44 43 0 43 C0 42.01 0 41.02 0 40 C-0.99 40 -1.98 40 -3 40 C-3 27.46 -3 14.92 -3 2 C-2.01 2 -1.02 2 0 2 C0 1.34 0 0.68 0 0 Z " fill="#6D2E0C" transform="translate(3,3)"/>
<path d="M0 0 C5.61 0 11.22 0 17 0 C17 0.99 17 1.98 17 3 C17.99 3 18.98 3 20 3 C20 11.91 20 20.82 20 30 C13.4 30 6.8 30 0 30 C0 20.1 0 10.2 0 0 Z " fill="#FCB04F" transform="translate(3,6)"/>
<path d="M0 0 C5.28 0 10.56 0 16 0 C16 9.9 16 19.8 16 30 C9.73 30 3.46 30 -3 30 C-3 21.09 -3 12.18 -3 3 C-2.01 3 -1.02 3 0 3 C0 2.01 0 1.02 0 0 Z " fill="#F2A448" transform="translate(30,6)"/>
<path d="M0 0 C6.93 0 13.86 0 21 0 C21 1.32 21 2.64 21 4 C21.66 4 22.32 4 23 4 C23 3.01 23 2.02 23 1 C29.6 1 36.2 1 43 1 C43 3.31 43 5.62 43 8 C38.05 8 33.1 8 28 8 C28 8.99 28 9.98 28 11 C24.04 11 20.08 11 16 11 C16 10.01 16 9.02 16 8 C10.72 8 5.44 8 0 8 C0 5.36 0 2.72 0 0 Z " fill="#863002" transform="translate(3,38)"/>
<path d="M0 0 C5.61 0 11.22 0 17 0 C17 0.99 17 1.98 17 3 C17.99 3.33 18.98 3.66 20 4 C17.69 4.66 15.38 5.32 13 6 C13 5.01 13 4.02 13 3 C9.7 3 6.4 3 3 3 C3 4.32 3 5.64 3 7 C3.67546875 6.97679687 4.3509375 6.95359375 5.046875 6.9296875 C6.38492187 6.90261719 6.38492187 6.90261719 7.75 6.875 C8.63171875 6.85179687 9.5134375 6.82859375 10.421875 6.8046875 C13 7 13 7 17 9 C12.38 9 7.76 9 3 9 C3 10.32 3 11.64 3 13 C3.84304688 12.97679687 4.68609375 12.95359375 5.5546875 12.9296875 C7.19824219 12.90261719 7.19824219 12.90261719 8.875 12.875 C10.51082031 12.84019531 10.51082031 12.84019531 12.1796875 12.8046875 C15 13 15 13 17 15 C12.38 15.33 7.76 15.66 3 16 C3 17.32 3 18.64 3 20 C6.63 20 10.26 20 14 20 C12 22 12 22 9.8359375 22.1953125 C9.02382812 22.17210938 8.21171875 22.14890625 7.375 22.125 C6.55773437 22.10695313 5.74046875 22.08890625 4.8984375 22.0703125 C4.27195312 22.04710938 3.64546875 22.02390625 3 22 C3 23.65 3 25.3 3 27 C8.61 27.33 14.22 27.66 20 28 C20 28.66 20 29.32 20 30 C13.4 30 6.8 30 0 30 C0 20.1 0 10.2 0 0 Z " fill="#FFBA56" transform="translate(3,6)"/>
<path d="M0 0 C4.95 0 9.9 0 15 0 C15 0.66 15 1.32 15 2 C10.71 2 6.42 2 2 2 C2 3.32 2 4.64 2 6 C9.92 5.505 9.92 5.505 18 5 C18 6.65 18 8.3 18 10 C12.72 9.67 7.44 9.34 2 9 C2.33 9.99 2.66 10.98 3 12 C9.93 12.495 9.93 12.495 17 13 C16.01 14.485 16.01 14.485 15 16 C11.9609375 16.29296875 11.9609375 16.29296875 8.375 16.1875 C7.18648437 16.16042969 5.99796875 16.13335938 4.7734375 16.10546875 C3.85820312 16.07066406 2.94296875 16.03585938 2 16 C2.33 16.99 2.66 17.98 3 19 C3.85464844 19.04898438 4.70929687 19.09796875 5.58984375 19.1484375 C6.69457031 19.22320312 7.79929687 19.29796875 8.9375 19.375 C10.03964844 19.44460937 11.14179687 19.51421875 12.27734375 19.5859375 C13.17582031 19.72257812 14.07429688 19.85921875 15 20 C15.33 20.66 15.66 21.32 16 22 C10.72 22 5.44 22 0 22 C0 14.74 0 7.48 0 0 Z " fill="#FDB653" transform="translate(27,13)"/>
<path d="M0 0 C3.3 0 6.6 0 10 0 C10 0.99 10 1.98 10 3 C9.01 3 8.02 3 7 3 C7 11.91 7 20.82 7 30 C4.05868109 30.98043964 2.17498335 31.11621202 -0.88671875 31.09765625 C-1.82451172 31.09443359 -2.76230469 31.09121094 -3.72851562 31.08789062 C-4.70498047 31.07951172 -5.68144531 31.07113281 -6.6875 31.0625 C-7.67556641 31.05798828 -8.66363281 31.05347656 -9.68164062 31.04882812 C-12.12115474 31.03704303 -14.56054689 31.02059011 -17 31 C-17 30.67 -17 30.34 -17 30 C-10.4 30 -3.8 30 3 30 C3 21.09 3 12.18 3 3 C2.01 3 1.02 3 0 3 C0 2.01 0 1.02 0 0 Z " fill="#88400F" transform="translate(20,6)"/>
<path d="M0 0 C5.28 0 10.56 0 16 0 C16 3.3 16 6.6 16 10 C14.68 9.67 13.36 9.34 12 9 C12 8.34 12 7.68 12 7 C7.38 7.33 2.76 7.66 -2 8 C-2.33 6.35 -2.66 4.7 -3 3 C-2.01 3 -1.02 3 0 3 C0 2.01 0 1.02 0 0 Z " fill="#F9AD4D" transform="translate(30,6)"/>
<path d="M0 0 C5.61 0 11.22 0 17 0 C17 0.99 17 1.98 17 3 C20.3 3 23.6 3 27 3 C27 2.01 27 1.02 27 0 C32.28 0 37.56 0 43 0 C43 0.99 43 1.98 43 3 C38.05 3 33.1 3 28 3 C28 3.99 28 4.98 28 6 C24.04 6 20.08 6 16 6 C16 5.01 16 4.02 16 3 C10.72 3 5.44 3 0 3 C0 2.01 0 1.02 0 0 Z " fill="#692302" transform="translate(3,43)"/>
<path d="M0 0 C3.3 0 6.6 0 10 0 C10 0.99 10 1.98 10 3 C10.99 2.34 11.98 1.68 13 1 C14.32 1 15.64 1 17 1 C16.25 7.75 16.25 7.75 14 10 C10.7421875 10.1953125 10.7421875 10.1953125 6.875 10.125 C4.95300781 10.09792969 4.95300781 10.09792969 2.9921875 10.0703125 C1.51105469 10.03550781 1.51105469 10.03550781 0 10 C0 8.68 0 7.36 0 6 C3.3 5.67 6.6 5.34 10 5 C6.7 4.67 3.4 4.34 0 4 C0 2.68 0 1.36 0 0 Z " fill="#F8AD4E" transform="translate(6,9)"/>
<path d="M0 0 C5.61 0 11.22 0 17 0 C17 0.99 17 1.98 17 3 C17.99 3.33 18.98 3.66 20 4 C17.69 4.66 15.38 5.32 13 6 C13 5.01 13 4.02 13 3 C9.04 3 5.08 3 1 3 C1 11.58 1 20.16 1 29 C7.27 29 13.54 29 20 29 C20 29.33 20 29.66 20 30 C13.4 30 6.8 30 0 30 C0 20.1 0 10.2 0 0 Z " fill="#E49843" transform="translate(3,6)"/>
<path d="M0 0 C6.6 0 13.2 0 20 0 C20 1.32 20 2.64 20 4 C20.99 4 21.98 4 23 4 C23 4.99 23 5.98 23 7 C21.02 7 19.04 7 17 7 C17 6.01 17 5.02 17 4 C11.39 4 5.78 4 0 4 C0 2.68 0 1.36 0 0 Z " fill="#A43D02" transform="translate(3,39)"/>
<path d="M0 0 C5.61 0 11.22 0 17 0 C17 0.99 17 1.98 17 3 C10.73 3 4.46 3 -2 3 C-2 15.21 -2 27.42 -2 40 C-2.33 40 -2.66 40 -3 40 C-3 27.46 -3 14.92 -3 2 C-2.01 2 -1.02 2 0 2 C0 1.34 0 0.68 0 0 Z " fill="#6A2C0B" transform="translate(3,3)"/>
<path d="M0 0 C4.62 0 9.24 0 14 0 C14 1.32 14 2.64 14 4 C9.38 4 4.76 4 0 4 C0 2.68 0 1.36 0 0 Z " fill="#CE7A2D" transform="translate(6,22)"/>
<path d="M0 0 C4.62 0 9.24 0 14 0 C14 1.32 14 2.64 14 4 C9.71 4 5.42 4 1 4 C0.67 2.68 0.34 1.36 0 0 Z " fill="#CD782A" transform="translate(29,29)"/>
<path d="M0 0 C4.62 0 9.24 0 14 0 C14 1.32 14 2.64 14 4 C9.71 4 5.42 4 1 4 C0.67 2.68 0.34 1.36 0 0 Z " fill="#CC772A" transform="translate(29,22)"/>
<path d="M0 0 C4.62 0 9.24 0 14 0 C14 0.99 14 1.98 14 3 C14.99 3.33 15.98 3.66 17 4 C14.69 4.66 12.38 5.32 10 6 C10 5.01 10 4.02 10 3 C6.7 3 3.4 3 0 3 C0 2.01 0 1.02 0 0 Z " fill="#F8B04F" transform="translate(6,6)"/>
<path d="M0 0 C5.28 0 10.56 0 16 0 C16 0.99 16 1.98 16 3 C10.72 3 5.44 3 0 3 C0 2.01 0 1.02 0 0 Z " fill="#D65201" transform="translate(30,39)"/>
<path d="M0 0 C5.28 0 10.56 0 16 0 C16 0.99 16 1.98 16 3 C10.72 3 5.44 3 0 3 C0 2.01 0 1.02 0 0 Z " fill="#D75301" transform="translate(4,39)"/>
<path d="M0 0 C5.28 0 10.56 0 16 0 C16 0.99 16 1.98 16 3 C10.72 3 5.44 3 0 3 C0 2.01 0 1.02 0 0 Z " fill="#752E04" transform="translate(30,3)"/>
<path d="M0 0 C4.62 0 9.24 0 14 0 C14 0.99 14 1.98 14 3 C9.38 3 4.76 3 0 3 C0 2.01 0 1.02 0 0 Z " fill="#C36C24" transform="translate(6,29)"/>
<path d="M0 0 C4.62 0 9.24 0 14 0 C14 0.99 14 1.98 14 3 C9.38 3 4.76 3 0 3 C0 2.01 0 1.02 0 0 Z " fill="#C87327" transform="translate(29,16)"/>
<path d="M0 0 C4.62 0 9.24 0 14 0 C14 0.99 14 1.98 14 3 C9.38 3 4.76 3 0 3 C0 2.01 0 1.02 0 0 Z " fill="#C77328" transform="translate(6,16)"/>
<path d="M0 0 C3.3 0 6.6 0 10 0 C10 0.99 10 1.98 10 3 C8.68 3 7.36 3 6 3 C5.67 3.66 5.34 4.32 5 5 C2.525 4.01 2.525 4.01 0 3 C0 2.01 0 1.02 0 0 Z " fill="#6E2601" transform="translate(20,6)"/>
<path d="M0 0 C0.99 0 1.98 0 3 0 C3 0.99 3 1.98 3 3 C8.28 3 13.56 3 19 3 C19 3.33 19 3.66 19 4 C13.39 4 7.78 4 2 4 C2 4.66 2 5.32 2 6 C1.34 6 0.68 6 0 6 C0 4.02 0 2.04 0 0 Z " fill="#A63D02" transform="translate(27,39)"/>
<path d="M0 0 C3.3 0 6.6 0 10 0 C10 0.99 10 1.98 10 3 C6.7 3 3.4 3 0 3 C0 2.01 0 1.02 0 0 Z " fill="#C77127" transform="translate(33,9)"/>
<path d="M0 0 C3.3 0 6.6 0 10 0 C10 0.99 10 1.98 10 3 C6.7 3 3.4 3 0 3 C0 2.01 0 1.02 0 0 Z " fill="#C67127" transform="translate(6,9)"/>
<path d="M0 0 C0.33 0.66 0.66 1.32 1 2 C1.99 2 2.98 2 4 2 C4 2.99 4 3.98 4 5 C2.02 5 0.04 5 -2 5 C-1.34 3.35 -0.68 1.7 0 0 Z " fill="#9A3502" transform="translate(22,41)"/>
<path d="M0 0 C0.99 0 1.98 0 3 0 C3 1.98 3 3.96 3 6 C2.01 6 1.02 6 0 6 C0 4.02 0 2.04 0 0 Z " fill="#E8923A" transform="translate(43,6)"/>
</svg>
