<?xml version="1.0" encoding="UTF-8"?>
<svg version="1.1" xmlns="http://www.w3.org/2000/svg" width="50" height="50">
<path d="M0 0 C16.5 0 33 0 50 0 C50 16.5 50 33 50 50 C33.5 50 17 50 0 50 C0 33.5 0 17 0 0 Z " fill="#FDCD5E" transform="translate(0,0)"/>
<path d="M0 0 C12.21 0 24.42 0 37 0 C37 10.89 37 21.78 37 33 C24.79 33 12.58 33 0 33 C0 22.11 0 11.22 0 0 Z " fill="#CC8030" transform="translate(6,10)"/>
<path d="M0 0 C15.51 0 31.02 0 47 0 C47 16.17 47 32.34 47 49 C30.83 49 14.66 49 -2 49 C-2 33.82 -2 18.64 -2 3 C-1.01 3 -0.02 3 1 3 C1 16.86 1 30.72 1 45 C15.19 45 29.38 45 44 45 C44 30.81 44 16.62 44 2 C29.81 2 15.62 2 1 2 C0.67 1.34 0.34 0.68 0 0 Z " fill="#613117" transform="translate(2,1)"/>
<path d="M0 0 C9.57 0 19.14 0 29 0 C29.020625 3.733125 29.04125 7.46625 29.0625 11.3125 C29.071604 12.48594971 29.08070801 13.65939941 29.09008789 14.8684082 C29.09258545 15.79484131 29.09508301 16.72127441 29.09765625 17.67578125 C29.10551147 19.0975769 29.10551147 19.0975769 29.11352539 20.5480957 C29 23 29 23 28 26 C24.7 26 21.4 26 18 26 C18.33 25.34 18.66 24.68 19 24 C20.98 23.67 22.96 23.34 25 23 C25.33 16.4 25.66 9.8 26 3 C23.36 3 20.72 3 18 3 C18 9.6 18 16.2 18 23 C17.34 23 16.68 23 16 23 C16 18.71 16 14.42 16 10 C13.69 10 11.38 10 9 10 C9 14.62 9 19.24 9 24 C10.32 24.33 11.64 24.66 13 25 C12 26 12 26 8.9375 26.0625 C7.968125 26.041875 6.99875 26.02125 6 26 C6.33 25.01 6.66 24.02 7 23 C7.03920815 21.00038436 7.04443347 18.99950636 7 17 C5.35 17 3.7 17 2 17 C2 18.98 2 20.96 2 23 C1.34 23 0.68 23 0 23 C0 15.41 0 7.82 0 0 Z " fill="#FBD06F" transform="translate(10,13)"/>
<path d="M0 0 C2.64 0 5.28 0 8 0 C8 6.6 8 13.2 8 20 C5.69 20.66 3.38 21.32 1 22 C3.97 22.33 6.94 22.66 10 23 C10.33 22.01 10.66 21.02 11 20 C11 21.32 11 22.64 11 24 C1.43 24 -8.14 24 -18 24 C-18 22.68 -18 21.36 -18 20 C-17.34 20 -16.68 20 -16 20 C-16 18.02 -16 16.04 -16 14 C-14.35 14 -12.7 14 -11 14 C-10.61936779 16.3260857 -10.28730055 18.66055264 -10 21 C-10.33 21.33 -10.66 21.66 -11 22 C-9.35 22 -7.7 22 -6 22 C-6.99 21.67 -7.98 21.34 -9 21 C-9 16.38 -9 11.76 -9 7 C-6.69 7 -4.38 7 -2 7 C-2 11.29 -2 15.58 -2 20 C-1.34 20 -0.68 20 0 20 C0 13.4 0 6.8 0 0 Z " fill="#B9A24B" transform="translate(28,16)"/>
<path d="M0 0 C16.5 0 33 0 50 0 C50 16.5 50 33 50 50 C49.67 50 49.34 50 49 50 C49 33.83 49 17.66 49 1 C33.82 1.33 18.64 1.66 3 2 C17.19 2.33 31.38 2.66 46 3 C46 3.33 46 3.66 46 4 C44.02 4.33 42.04 4.66 40 5 C40.66 5.33 41.32 5.66 42 6 C42 6.99 42 7.98 42 9 C30.12 9 18.24 9 6 9 C6 7.35 6 5.7 6 4 C4.02 4 2.04 4 0 4 C0 2.68 0 1.36 0 0 Z " fill="#FFDA7B" transform="translate(0,0)"/>
<path d="M0 0 C0.99 0 1.98 0 3 0 C3 14.19 3 28.38 3 43 C16.86 43 30.72 43 45 43 C45 43.33 45 43.66 45 44 C30.15 44.33 15.3 44.66 0 45 C0 30.15 0 15.3 0 0 Z " fill="#6D2804" transform="translate(0,4)"/>
<path d="M0 0 C0.33 0 0.66 0 1 0 C1.33 8.58 1.66 17.16 2 26 C11.57 26.33 21.14 26.66 31 27 C31 18.09 31 9.18 31 0 C31.33 0 31.66 0 32 0 C32.495 8.415 32.495 8.415 33 17 C33.33 17 33.66 17 34 17 C34 21.29 34 25.58 34 30 C22.45 30 10.9 30 -1 30 C-0.67 20.1 -0.34 10.2 0 0 Z " fill="#BF6821" transform="translate(8,13)"/>
<path d="M0 0 C15.51 0 31.02 0 47 0 C47.020625 6.14625 47.04125 12.2925 47.0625 18.625 C47.071604 20.55424316 47.08070801 22.48348633 47.09008789 24.47119141 C47.0930108 26.01464773 47.09555848 27.55810483 47.09765625 29.1015625 C47.10277222 29.89135498 47.10788818 30.68114746 47.11315918 31.49487305 C47.11383096 35.779468 46.8530004 39.77927139 46 44 C45.67 44 45.34 44 45 44 C44.67 30.47 44.34 16.94 44 3 C29.81 2.67 15.62 2.34 1 2 C0.67 1.34 0.34 0.68 0 0 Z " fill="#6E2401" transform="translate(2,1)"/>
<path d="M0 0 C16.5 0 33 0 50 0 C50 16.5 50 33 50 50 C49.67 50 49.34 50 49 50 C49 33.83 49 17.66 49 1 C33.82 1.33 18.64 1.66 3 2 C17.19 2.33 31.38 2.66 46 3 C46 3.33 46 3.66 46 4 C30.82 4 15.64 4 0 4 C0 2.68 0 1.36 0 0 Z " fill="#A3927F" transform="translate(0,0)"/>
<path d="M0 0 C0.33 0 0.66 0 1 0 C1 13.86 1 27.72 1 42 C-13.19 42 -27.38 42 -42 42 C-42 40.35 -42 38.7 -42 37 C-41.34 37 -40.68 37 -40 37 C-40 37.66 -40 38.32 -40 39 C-38.34230591 38.98428955 -38.34230591 38.98428955 -36.65112305 38.96826172 C-32.55301144 38.93207593 -28.45491397 38.90910471 -24.35668945 38.89013672 C-22.58257676 38.88007589 -20.80848065 38.86642578 -19.03442383 38.84912109 C-16.48514716 38.82487622 -13.93608963 38.81351782 -11.38671875 38.8046875 C-10.19594978 38.78920364 -10.19594978 38.78920364 -8.98112488 38.77340698 C-5.11776957 38.7726189 -3.29160554 38.80559631 0 41 C0 27.47 0 13.94 0 0 Z " fill="#EFB44B" transform="translate(45,4)"/>
<path d="M0 0 C1.98 0 3.96 0 6 0 C6 6.27 6 12.54 6 19 C4.02 19 2.04 19 0 19 C0 12.73 0 6.46 0 0 Z " fill="#316834" transform="translate(29,17)"/>
<path d="M0 0 C8.91 0 17.82 0 27 0 C27 8.25 27 16.5 27 25 C23.7 25 20.4 25 17 25 C17.33 24.34 17.66 23.68 18 23 C19.98 22.67 21.96 22.34 24 22 C24.33 15.4 24.66 8.8 25 2 C16.75 1.67 8.5 1.34 0 1 C0 0.67 0 0.34 0 0 Z " fill="#FDDF7F" transform="translate(11,14)"/>
<path d="M0 0 C0.66 0 1.32 0 2 0 C2.33 3.96 2.66 7.92 3 12 C16.86 12.33 30.72 12.66 45 13 C45 13.33 45 13.66 45 14 C30.15 14.33 15.3 14.66 0 15 C0 10.05 0 5.1 0 0 Z " fill="#641D00" transform="translate(0,34)"/>
<path d="M0 0 C1.98 0 3.96 0 6 0 C6 4.29 6 8.58 6 13 C4.02 13 2.04 13 0 13 C0 8.71 0 4.42 0 0 Z " fill="#386A33" transform="translate(19,23)"/>
<path d="M0 0 C1.65 0 3.3 0 5 0 C5.625 3.375 5.625 3.375 6 7 C4 9 4 9 0.875 9.125 C-0.548125 9.063125 -0.548125 9.063125 -2 9 C-2 8.01 -2 7.02 -2 6 C-1.34 6 -0.68 6 0 6 C0 4.02 0 2.04 0 0 Z " fill="#E7BD55" transform="translate(12,30)"/>
<path d="M0 0 C0.99 0 1.98 0 3 0 C3 3.96 3 7.92 3 12 C2.67 12 2.34 12 2 12 C1.67 13.65 1.34 15.3 1 17 C0.67 17 0.34 17 0 17 C0 11.39 0 5.78 0 0 Z " fill="#F7C256" transform="translate(3,4)"/>
<path d="M0 0 C0.33 0 0.66 0 1 0 C1 4.62 1 9.24 1 14 C2.32 14.33 3.64 14.66 5 15 C4 16 4 16 0.9375 16.0625 C-0.031875 16.041875 -1.00125 16.02125 -2 16 C-1.67 15.34 -1.34 14.68 -1 14 C-0.76970044 11.62876754 -0.58880058 9.25258057 -0.4375 6.875 C-0.35371094 5.59367187 -0.26992188 4.31234375 -0.18359375 2.9921875 C-0.09271484 1.51105469 -0.09271484 1.51105469 0 0 Z " fill="#F2CC62" transform="translate(18,23)"/>
<path d="M0 0 C1.32 0 2.64 0 4 0 C4 1.98 4 3.96 4 6 C2.68 6 1.36 6 0 6 C0 4.02 0 2.04 0 0 Z " fill="#3F7137" transform="translate(12,30)"/>
<path d="M0 0 C0 0.99 0 1.98 0 3 C-3.3 3 -6.6 3 -10 3 C-9.67 2.34 -9.34 1.68 -9 1 C-5.93090555 0.33280556 -3.14213983 0 0 0 Z " fill="#FECF5B" transform="translate(38,36)"/>
<path d="M0 0 C1.65 0 3.3 0 5 0 C4.67 1.32 4.34 2.64 4 4 C2.68 4 1.36 4 0 4 C0 2.68 0 1.36 0 0 Z " fill="#F3CB61" transform="translate(12,26)"/>
</svg>
