<?xml version="1.0" encoding="UTF-8"?>
<svg version="1.1" xmlns="http://www.w3.org/2000/svg" width="50" height="50">
<path d="M0 0 C12.87 0 25.74 0 39 0 C39 0.66 39 1.32 39 2 C39.66 2 40.32 2 41 2 C41 17.51 41 33.02 41 49 C27.47 49 13.94 49 0 49 C0 32.83 0 16.66 0 0 Z " fill="#C36E28" transform="translate(5,1)"/>
<path d="M0 0 C1.98 0 3.96 0 6 0 C6 0.99 6 1.98 6 3 C10.62 3 15.24 3 20 3 C20 2.01 20 1.02 20 0 C22.64 0 25.28 0 28 0 C28 11.88 28 23.76 28 36 C18.76 36 9.52 36 0 36 C0 24.12 0 12.24 0 0 Z " fill="#FDD270" transform="translate(12,7)"/>
<path d="M0 0 C5.28 0 10.56 0 16 0 C16 0.66 16 1.32 16 2 C15.01 2.33 14.02 2.66 13 3 C12.67 3.66 12.34 4.32 12 5 C11.34 5 10.68 5 10 5 C10 4.34 10 3.68 10 3 C7.69 3 5.38 3 3 3 C3 17.19 3 31.38 3 46 C14.55 46 26.1 46 38 46 C38 32.8 38 19.6 38 6 C34.7 5.67 31.4 5.34 28 5 C27.67 4.34 27.34 3.68 27 3 C26.01 2.67 25.02 2.34 24 2 C24 1.34 24 0.68 24 0 C28.95 0 33.9 0 39 0 C39 0.66 39 1.32 39 2 C39.66 2 40.32 2 41 2 C41 17.51 41 33.02 41 49 C27.47 49 13.94 49 0 49 C0 32.83 0 16.66 0 0 Z " fill="#632003" transform="translate(5,1)"/>
<path d="M0 0 C2.31 0 4.62 0 7 0 C7 11.88 7 23.76 7 36 C-1.91 36 -10.82 36 -20 36 C-20 33.36 -20 30.72 -20 28 C-19.34 28.66 -18.68 29.32 -18 30 C-15.10032243 30.30675232 -12.28216822 30.51173371 -9.375 30.625 C-8.57320312 30.66367187 -7.77140625 30.70234375 -6.9453125 30.7421875 C-4.96392444 30.83653931 -2.98199355 30.91936215 -1 31 C-1 29.68 -1 28.36 -1 27 C-4.3 27 -7.6 27 -11 27 C-11 26.34 -11 25.68 -11 25 C-13.31 24.67 -15.62 24.34 -18 24 C-18 22.02 -18 20.04 -18 18 C-10.74 17.67 -3.48 17.34 4 17 C4.28295823 10.44464865 4.28295823 10.44464865 3 6 C-3.27 5.67 -9.54 5.34 -16 5 C-16 4.67 -16 4.34 -16 4 C-8.08 3.505 -8.08 3.505 0 3 C0 2.01 0 1.02 0 0 Z " fill="#FACD6F" transform="translate(33,7)"/>
<path d="M0 0 C5.28 0 10.56 0 16 0 C16 0.66 16 1.32 16 2 C15.01 2.33 14.02 2.66 13 3 C12.67 3.66 12.34 4.32 12 5 C11.34 5 10.68 5 10 5 C10 4.34 10 3.68 10 3 C7.69 3 5.38 3 3 3 C3 17.19 3 31.38 3 46 C6.66956597 47.22318866 10.12321003 47.23116124 13.94921875 47.31640625 C14.72183548 47.33718735 15.49445221 47.35796844 16.29048157 47.37937927 C18.7560648 47.44471038 21.22175361 47.50368315 23.6875 47.5625 C25.36003691 47.60570087 27.03256319 47.64931566 28.70507812 47.69335938 C32.8032775 47.8003749 36.90158296 47.90168857 41 48 C41 48.33 41 48.66 41 49 C27.47 49 13.94 49 0 49 C0 32.83 0 16.66 0 0 Z " fill="#61280E" transform="translate(5,1)"/>
<path d="M0 0 C0.99 0 1.98 0 3 0 C3 13.2 3 26.4 3 40 C-8.55 40 -20.1 40 -32 40 C-27.61555651 36.71166738 -26.69979315 36.63591191 -21.484375 36.70703125 C-19.79393066 36.71827026 -19.79393066 36.71827026 -18.06933594 36.72973633 C-16.64395508 36.75704834 -15.21857422 36.78436035 -13.75 36.8125 C-9.2125 36.874375 -4.675 36.93625 0 37 C0 24.79 0 12.58 0 0 Z " fill="#BB621E" transform="translate(40,7)"/>
<path d="M0 0 C2.64 0 5.28 0 8 0 C8 0.66 8 1.32 8 2 C9.32 2.33 10.64 2.66 12 3 C12 3.66 12 4.32 12 5 C14.31 5 16.62 5 19 5 C19 5.33 19 5.66 19 6 C16.36 6 13.72 6 11 6 C11 6.99 11 7.98 11 9 C6.38 9 1.76 9 -3 9 C-3 8.01 -3 7.02 -3 6 C-4.98 6 -6.96 6 -9 6 C-9 17.88 -9 29.76 -9 42 C-9.33 42 -9.66 42 -10 42 C-10.33 29.13 -10.66 16.26 -11 3 C-9.35 3 -7.7 3 -6 3 C-6 3.66 -6 4.32 -6 5 C-5.34 5 -4.68 5 -4 5 C-3.67 4.01 -3.34 3.02 -3 2 C-2.01 2 -1.02 2 0 2 C0 1.34 0 0.68 0 0 Z " fill="#CC6D1A" transform="translate(21,1)"/>
<path d="M0 0 C2.97 0.495 2.97 0.495 6 1 C6 7.27 6 13.54 6 20 C2.96865616 21.01044795 1.25604057 21.05032949 -1.88671875 20.87890625 C-2.82451172 20.83056641 -3.76230469 20.78222656 -4.72851562 20.73242188 C-5.70498047 20.67634766 -6.68144531 20.62027344 -7.6875 20.5625 C-8.67556641 20.51029297 -9.66363281 20.45808594 -10.68164062 20.40429688 C-13.12141676 20.27464694 -15.56078105 20.13968258 -18 20 C-18 19.34 -18 18.68 -18 18 C-10.74 17.67 -3.48 17.34 4 17 C4.28295823 10.44464865 4.28295823 10.44464865 3 6 C-3.27 5.67 -9.54 5.34 -16 5 C-16 4.67 -16 4.34 -16 4 C-8.08 3.505 -8.08 3.505 0 3 C0 2.01 0 1.02 0 0 Z " fill="#FEDC7B" transform="translate(33,7)"/>
<path d="M0 0 C1.98 0 3.96 0 6 0 C5.67 0.99 5.34 1.98 5 3 C5 2.34 5 1.68 5 1 C3.68 1 2.36 1 1 1 C1 9.25 1 17.5 1 26 C7.27 26.33 13.54 26.66 20 27 C20 28.32 20 29.64 20 31 C17.18743719 31.02684312 14.37512759 31.04676188 11.5625 31.0625 C10.76005859 31.07087891 9.95761719 31.07925781 9.13085938 31.08789062 C7.08704779 31.0965143 5.04316098 31.0522815 3 31 C2.67 30.67 2.34 30.34 2 30 C1.67 31.98 1.34 33.96 1 36 C0.67 36 0.34 36 0 36 C0 24.12 0 12.24 0 0 Z " fill="#F8C462" transform="translate(12,7)"/>
<path d="M0 0 C6.93 0 13.86 0 21 0 C21 1.32 21 2.64 21 4 C14.07 4 7.14 4 0 4 C0 2.68 0 1.36 0 0 Z " fill="#CC8135" transform="translate(15,20)"/>
<path d="M0 0 C6.93 0 13.86 0 21 0 C21 1.32 21 2.64 21 4 C14.07 4 7.14 4 0 4 C0 2.68 0 1.36 0 0 Z " fill="#C97C31" transform="translate(15,13)"/>
<path d="M0 0 C0.33 0 0.66 0 1 0 C1 2.64 1 5.28 1 8 C-10.55 8 -22.1 8 -34 8 C-29.61555651 4.71166738 -28.69979315 4.63591191 -23.484375 4.70703125 C-22.23398437 4.71669922 -20.98359375 4.72636719 -19.6953125 4.73632812 C-17.74238281 4.7740332 -17.74238281 4.7740332 -15.75 4.8125 C-14.43257812 4.82603516 -13.11515625 4.83957031 -11.7578125 4.85351562 C-8.50479679 4.88887449 -5.252604 4.93822967 -2 5 C-1.855625 4.360625 -1.71125 3.72125 -1.5625 3.0625 C-1 1 -1 1 0 0 Z " fill="#AA5316" transform="translate(42,39)"/>
<path d="M0 0 C1.81242052 -0.02687279 3.62495233 -0.04633715 5.4375 -0.0625 C6.44683594 -0.07410156 7.45617188 -0.08570313 8.49609375 -0.09765625 C11 0 11 0 12 1 C12.08874135 4.10251201 12.11518455 7.1826812 12.09765625 10.28515625 C12.0962413 11.21597519 12.09482635 12.14679413 12.09336853 13.1058197 C12.08775172 16.09141191 12.0751964 19.07693029 12.0625 22.0625 C12.05748716 24.08137913 12.05292388 26.10025943 12.04882812 28.11914062 C12.03777683 33.07945572 12.02050095 38.03971532 12 43 C11.67 43 11.34 43 11 43 C11 30.13 11 17.26 11 4 C7.7 3.67 4.4 3.34 1 3 C0.67 2.01 0.34 1.02 0 0 Z " fill="#783008" transform="translate(32,3)"/>
<path d="M0 0 C0.66 0 1.32 0 2 0 C3.27861615 2.55723229 3.11336609 4.36737102 3.09765625 7.2265625 C3.09282227 8.7734375 3.09282227 8.7734375 3.08789062 10.3515625 C3.07951172 11.43179687 3.07113281 12.51203125 3.0625 13.625 C3.05798828 14.71296875 3.05347656 15.8009375 3.04882812 16.921875 C3.03701776 19.61463789 3.02054778 22.30729188 3 25 C2.34 25 1.68 25 1 25 C0.67 25.66 0.34 26.32 0 27 C0 18.09 0 9.18 0 0 Z " fill="#BF6520" transform="translate(8,4)"/>
<path d="M0 0 C6.6 0 13.2 0 20 0 C20 0.99 20 1.98 20 3 C13.4 3 6.8 3 0 3 C0 2.01 0 1.02 0 0 Z " fill="#C3732A" transform="translate(15,28)"/>
<path d="M0 0 C2.64 0 5.28 0 8 0 C8 0.66 8 1.32 8 2 C8.99 2 9.98 2 11 2 C11 2.99 11 3.98 11 5 C6.38 5 1.76 5 -3 5 C-3 4.01 -3 3.02 -3 2 C-2.01 2 -1.02 2 0 2 C0 1.34 0 0.68 0 0 Z " fill="#E28220" transform="translate(21,1)"/>
<path d="M0 0 C0.33 0 0.66 0 1 0 C1 14.52 1 29.04 1 44 C-0.98 44 -2.96 44 -5 44 C-5 43.34 -5 42.68 -5 42 C-2.525 41.505 -2.525 41.505 0 41 C0 27.47 0 13.94 0 0 Z " fill="#621400" transform="translate(45,5)"/>
<path d="M0 0 C0.66 1.32 1.32 2.64 2 4 C5.3 4 8.6 4 12 4 C12 4.66 12 5.32 12 6 C14.97 6 17.94 6 21 6 C21 6.33 21 6.66 21 7 C14.07 7 7.14 7 0 7 C0 4.69 0 2.38 0 0 Z " fill="#FEDA78" transform="translate(13,35)"/>
<path d="M0 0 C5.61 0 11.22 0 17 0 C17 0.99 17 1.98 17 3 C11.39 3 5.78 3 0 3 C0 2.01 0 1.02 0 0 Z " fill="#C27229" transform="translate(15,35)"/>
<path d="M0 0 C4.62 0 9.24 0 14 0 C14 0.99 14 1.98 14 3 C9.38 3 4.76 3 0 3 C0 2.01 0 1.02 0 0 Z " fill="#B7611D" transform="translate(18,7)"/>
<path d="M0 0 C3.63 0 7.26 0 11 0 C11 1.32 11 2.64 11 4 C7.7 3.67 4.4 3.34 1 3 C0.67 2.01 0.34 1.02 0 0 Z " fill="#893303" transform="translate(32,3)"/>
<path d="M0 0 C1.32 0 2.64 0 4 0 C4 0.99 4 1.98 4 3 C3.34 3 2.68 3 2 3 C2 5.64 2 8.28 2 11 C1.67 11 1.34 11 1 11 C0.67 7.37 0.34 3.74 0 0 Z " fill="#D57623" transform="translate(10,4)"/>
</svg>
