<?xml version="1.0" encoding="UTF-8"?>
<svg xmlns="http://www.w3.org/2000/svg" xmlns:xlink="http://www.w3.org/1999/xlink" width="50px" height="50px" viewBox="0 0 50 50" version="1.1">
<g id="surface1">
<path style=" stroke:none;fill-rule:nonzero;fill:rgb(25.098041%,30.980393%,56.470591%);fill-opacity:1;" d="M 50 0 C 50 1.179688 50 2.355469 50 3.570312 C 49.527344 3.570312 49.058594 3.570312 48.570312 3.570312 C 48.570312 4.042969 48.570312 4.515625 48.570312 5 C 48.101562 5 47.628906 5 47.144531 5 C 47.144531 5.472656 47.144531 5.941406 47.144531 6.429688 C 46.671875 6.429688 46.199219 6.429688 45.714844 6.429688 C 45.714844 6.898438 45.714844 7.371094 45.714844 7.855469 C 44.417969 9.375 44.417969 9.375 42.855469 10.714844 C 42.148438 10.714844 41.441406 10.714844 40.714844 10.714844 C 40.714844 11.1875 40.714844 11.65625 40.714844 12.144531 C 40.242188 12.144531 39.769531 12.144531 39.285156 12.144531 C 39.640625 13.558594 39.640625 13.558594 40 15 C 39.292969 15 38.585938 15 37.855469 15 C 37.855469 16.886719 37.855469 18.769531 37.855469 20.714844 C 37.386719 20.714844 36.914062 20.714844 36.429688 20.714844 C 36.429688 21.1875 36.429688 21.65625 36.429688 22.144531 C 35.957031 22.144531 35.484375 22.144531 35 22.144531 C 35 22.613281 35 23.085938 35 23.570312 C 34.527344 23.570312 34.058594 23.570312 33.570312 23.570312 C 33.570312 24.042969 33.570312 24.515625 33.570312 25 C 33.101562 25 32.628906 25 32.144531 25 C 32.144531 25.472656 32.144531 25.941406 32.144531 26.429688 C 31.671875 26.429688 31.199219 26.429688 30.714844 26.429688 C 30.714844 26.898438 30.714844 27.371094 30.714844 27.855469 C 30.242188 27.855469 29.769531 27.855469 29.285156 27.855469 C 29.285156 28.328125 29.285156 28.800781 29.285156 29.285156 C 28.8125 29.285156 28.34375 29.285156 27.855469 29.285156 C 27.855469 29.757812 27.855469 30.230469 27.855469 30.714844 C 27.386719 30.714844 26.914062 30.714844 26.429688 30.714844 C 26.429688 31.1875 26.429688 31.65625 26.429688 32.144531 C 25.957031 32.144531 25.484375 32.144531 25 32.144531 C 25 32.613281 25 33.085938 25 33.570312 C 24.527344 33.570312 24.058594 33.570312 23.570312 33.570312 C 23.570312 34.042969 23.570312 34.515625 23.570312 35 C 23.101562 35 22.628906 35 22.144531 35 C 22.144531 35.472656 22.144531 35.941406 22.144531 36.429688 C 21.671875 36.429688 21.199219 36.429688 20.714844 36.429688 C 20.714844 38.3125 20.714844 40.199219 20.714844 42.144531 C 20.242188 42.144531 19.769531 42.144531 19.285156 42.144531 C 19.285156 42.613281 19.285156 43.085938 19.285156 43.570312 C 18.105469 43.570312 16.929688 43.570312 15.714844 43.570312 C 15.714844 43.101562 15.714844 42.628906 15.714844 42.144531 C 15.242188 42.144531 14.769531 42.144531 14.285156 42.144531 C 14.285156 41.671875 14.285156 41.199219 14.285156 40.714844 C 13.105469 40.714844 11.929688 40.714844 10.714844 40.714844 C 10.714844 41.1875 10.714844 41.65625 10.714844 42.144531 C 10.242188 42.144531 9.769531 42.144531 9.285156 42.144531 C 9.285156 43.320312 9.285156 44.5 9.285156 45.714844 C 9.757812 45.714844 10.230469 45.714844 10.714844 45.714844 C 10.714844 46.894531 10.714844 48.070312 10.714844 49.285156 C 9.0625 49.285156 7.414062 49.285156 5.714844 49.285156 C 5.714844 48.8125 5.714844 48.34375 5.714844 47.855469 C 5.242188 47.855469 4.769531 47.855469 4.285156 47.855469 C 4.285156 47.386719 4.285156 46.914062 4.285156 46.429688 C 3.8125 46.429688 3.34375 46.429688 2.855469 46.429688 C 2.855469 45.957031 2.855469 45.484375 2.855469 45 C 2.386719 45 1.914062 45 1.429688 45 C 1.429688 44.527344 1.429688 44.058594 1.429688 43.570312 C 0.957031 43.570312 0.484375 43.570312 0 43.570312 C 0 41.921875 0 40.269531 0 38.570312 C 1.179688 38.570312 2.355469 38.570312 3.570312 38.570312 C 3.570312 39.042969 3.570312 39.515625 3.570312 40 C 4.75 40 5.929688 40 7.144531 40 C 7.144531 39.527344 7.144531 39.058594 7.144531 38.570312 C 7.613281 38.570312 8.085938 38.570312 8.570312 38.570312 C 8.570312 37.394531 8.570312 36.214844 8.570312 35 C 8.101562 35 7.628906 35 7.144531 35 C 7.144531 34.527344 7.144531 34.058594 7.144531 33.570312 C 6.671875 33.570312 6.199219 33.570312 5.714844 33.570312 C 5.714844 32.394531 5.714844 31.214844 5.714844 30 C 6.1875 30 6.65625 30 7.144531 30 C 7.144531 29.527344 7.144531 29.058594 7.144531 28.570312 C 9.027344 28.570312 10.914062 28.570312 12.855469 28.570312 C 12.855469 28.101562 12.855469 27.628906 12.855469 27.144531 C 13.328125 27.144531 13.800781 27.144531 14.285156 27.144531 C 14.285156 26.671875 14.285156 26.199219 14.285156 25.714844 C 14.757812 25.714844 15.230469 25.714844 15.714844 25.714844 C 15.714844 25.242188 15.714844 24.769531 15.714844 24.285156 C 16.1875 24.285156 16.65625 24.285156 17.144531 24.285156 C 17.144531 23.8125 17.144531 23.34375 17.144531 22.855469 C 17.613281 22.855469 18.085938 22.855469 18.570312 22.855469 C 18.570312 22.386719 18.570312 21.914062 18.570312 21.429688 C 19.042969 21.429688 19.515625 21.429688 20 21.429688 C 20 20.957031 20 20.484375 20 20 C 20.472656 20 20.941406 20 21.429688 20 C 21.429688 19.527344 21.429688 19.058594 21.429688 18.570312 C 21.898438 18.570312 22.371094 18.570312 22.855469 18.570312 C 22.855469 18.101562 22.855469 17.628906 22.855469 17.144531 C 23.328125 17.144531 23.800781 17.144531 24.285156 17.144531 C 24.285156 16.671875 24.285156 16.199219 24.285156 15.714844 C 24.757812 15.714844 25.230469 15.714844 25.714844 15.714844 C 25.714844 15.242188 25.714844 14.769531 25.714844 14.285156 C 26.1875 14.285156 26.65625 14.285156 27.144531 14.285156 C 27.144531 13.8125 27.144531 13.34375 27.144531 12.855469 C 27.613281 12.855469 28.085938 12.855469 28.570312 12.855469 C 28.570312 12.386719 28.570312 11.914062 28.570312 11.429688 C 30.457031 11.429688 32.34375 11.429688 34.285156 11.429688 C 34.285156 10.957031 34.285156 10.484375 34.285156 10 C 35.230469 10 36.171875 10 37.144531 10 C 37.144531 9.527344 37.144531 9.058594 37.144531 8.570312 C 37.613281 8.570312 38.085938 8.570312 38.570312 8.570312 C 38.570312 8.101562 38.570312 7.628906 38.570312 7.144531 C 39.042969 7.144531 39.515625 7.144531 40 7.144531 C 40.234375 6.4375 40.472656 5.730469 40.714844 5 C 41.742188 3.4375 41.742188 3.4375 42.855469 2.144531 C 43.328125 2.144531 43.800781 2.144531 44.285156 2.144531 C 44.285156 1.671875 44.285156 1.199219 44.285156 0.714844 C 46.21875 -0.253906 47.863281 -0.046875 50 0 Z M 50 0 "/>
<path style=" stroke:none;fill-rule:nonzero;fill:rgb(35.294119%,42.352942%,60.392159%);fill-opacity:1;" d="M 12.855469 27.144531 C 13.328125 27.378906 13.800781 27.613281 14.285156 27.855469 C 14.050781 28.328125 13.8125 28.800781 13.570312 29.285156 C 13.101562 29.285156 12.628906 29.285156 12.144531 29.285156 C 12.144531 30.464844 12.144531 31.644531 12.144531 32.855469 C 12.613281 32.855469 13.085938 32.855469 13.570312 32.855469 C 14.042969 34.035156 14.515625 35.214844 15 36.429688 C 15.472656 36.429688 15.941406 36.429688 16.429688 36.429688 C 18.386719 38.539062 18.570312 39.125 18.570312 42.144531 C 17.863281 42.144531 17.15625 42.144531 16.429688 42.144531 C 16.191406 42.613281 15.957031 43.085938 15.714844 43.570312 C 15.714844 43.101562 15.714844 42.628906 15.714844 42.144531 C 15.242188 42.144531 14.769531 42.144531 14.285156 42.144531 C 14.285156 41.671875 14.285156 41.199219 14.285156 40.714844 C 13.105469 40.714844 11.929688 40.714844 10.714844 40.714844 C 10.714844 41.1875 10.714844 41.65625 10.714844 42.144531 C 10.242188 42.144531 9.769531 42.144531 9.285156 42.144531 C 9.285156 43.320312 9.285156 44.5 9.285156 45.714844 C 9.757812 45.714844 10.230469 45.714844 10.714844 45.714844 C 10.714844 46.894531 10.714844 48.070312 10.714844 49.285156 C 9.0625 49.285156 7.414062 49.285156 5.714844 49.285156 C 5.714844 48.8125 5.714844 48.34375 5.714844 47.855469 C 5.242188 47.855469 4.769531 47.855469 4.285156 47.855469 C 4.285156 47.386719 4.285156 46.914062 4.285156 46.429688 C 3.8125 46.429688 3.34375 46.429688 2.855469 46.429688 C 2.855469 45.957031 2.855469 45.484375 2.855469 45 C 2.386719 45 1.914062 45 1.429688 45 C 1.429688 44.527344 1.429688 44.058594 1.429688 43.570312 C 0.957031 43.570312 0.484375 43.570312 0 43.570312 C 0 41.921875 0 40.269531 0 38.570312 C 1.179688 38.570312 2.355469 38.570312 3.570312 38.570312 C 3.570312 39.042969 3.570312 39.515625 3.570312 40 C 4.75 40 5.929688 40 7.144531 40 C 7.144531 39.527344 7.144531 39.058594 7.144531 38.570312 C 7.613281 38.570312 8.085938 38.570312 8.570312 38.570312 C 8.570312 37.394531 8.570312 36.214844 8.570312 35 C 8.101562 35 7.628906 35 7.144531 35 C 7.144531 34.527344 7.144531 34.058594 7.144531 33.570312 C 6.671875 33.570312 6.199219 33.570312 5.714844 33.570312 C 5.714844 32.394531 5.714844 31.214844 5.714844 30 C 6.1875 30 6.65625 30 7.144531 30 C 7.144531 29.527344 7.144531 29.058594 7.144531 28.570312 C 9.027344 28.570312 10.914062 28.570312 12.855469 28.570312 C 12.855469 28.101562 12.855469 27.628906 12.855469 27.144531 Z M 13.570312 39.285156 C 14.277344 39.640625 14.277344 39.640625 15 40 C 15 40.472656 15 40.941406 15 41.429688 C 15.472656 41.429688 15.941406 41.429688 16.429688 41.429688 C 16.429688 40.722656 16.429688 40.015625 16.429688 39.285156 C 15.484375 39.285156 14.542969 39.285156 13.570312 39.285156 Z M 13.570312 39.285156 "/>
<path style=" stroke:none;fill-rule:nonzero;fill:rgb(21.568628%,53.725493%,80.784315%);fill-opacity:1;" d="M 29.285156 13.570312 C 31.464844 13.382812 32.816406 13.554688 34.867188 14.375 C 36.429688 15.714844 36.429688 15.714844 36.652344 17.992188 C 36.578125 18.652344 36.503906 19.316406 36.429688 20 C 35.957031 20 35.484375 20 35 20 C 35 19.527344 35 19.058594 35 18.570312 C 34.058594 18.570312 33.113281 18.570312 32.144531 18.570312 C 32.144531 19.277344 32.144531 19.984375 32.144531 20.714844 C 31.199219 20.949219 30.257812 21.1875 29.285156 21.429688 C 29.285156 21.898438 29.285156 22.371094 29.285156 22.855469 C 28.8125 22.855469 28.34375 22.855469 27.855469 22.855469 C 27.855469 23.328125 27.855469 23.800781 27.855469 24.285156 C 27.386719 24.285156 26.914062 24.285156 26.429688 24.285156 C 26.429688 24.992188 26.429688 25.699219 26.429688 26.429688 C 25.246094 27.15625 24.054688 27.871094 22.855469 28.570312 C 22.621094 29.277344 22.386719 29.984375 22.144531 30.714844 C 21.671875 30.714844 21.199219 30.714844 20.714844 30.714844 C 20.714844 31.1875 20.714844 31.65625 20.714844 32.144531 C 20.242188 32.144531 19.769531 32.144531 19.285156 32.144531 C 19.285156 32.613281 19.285156 33.085938 19.285156 33.570312 C 17.859375 33.601562 16.429688 33.601562 15 33.570312 C 14.285156 32.855469 14.285156 32.855469 13.929688 30.9375 C 14.394531 27.855469 15.554688 27.160156 17.945312 25.324219 C 19.457031 24.203125 19.457031 24.203125 21.25 22.277344 C 22.855469 20.714844 22.855469 20.714844 25 20 C 25.863281 18.570312 25.863281 18.570312 26.429688 17.144531 C 26.898438 17.144531 27.371094 17.144531 27.855469 17.144531 C 27.855469 16.671875 27.855469 16.199219 27.855469 15.714844 C 28.328125 15.714844 28.800781 15.714844 29.285156 15.714844 C 29.285156 15.007812 29.285156 14.300781 29.285156 13.570312 Z M 29.285156 13.570312 "/>
<path style=" stroke:none;fill-rule:nonzero;fill:rgb(36.862746%,44.313726%,60.784316%);fill-opacity:1;" d="M 50 0 C 50 1.179688 50 2.355469 50 3.570312 C 49.527344 3.570312 49.058594 3.570312 48.570312 3.570312 C 48.570312 4.042969 48.570312 4.515625 48.570312 5 C 48.101562 5 47.628906 5 47.144531 5 C 47.144531 5.472656 47.144531 5.941406 47.144531 6.429688 C 46.671875 6.429688 46.199219 6.429688 45.714844 6.429688 C 45.714844 6.898438 45.714844 7.371094 45.714844 7.855469 C 44.417969 9.375 44.417969 9.375 42.855469 10.714844 C 42.148438 10.714844 41.441406 10.714844 40.714844 10.714844 C 40.714844 11.1875 40.714844 11.65625 40.714844 12.144531 C 40.242188 12.144531 39.769531 12.144531 39.285156 12.144531 C 39.519531 13.085938 39.757812 14.027344 40 15 C 35.675781 15.699219 35.675781 15.699219 34.285156 15.714844 C 33.8125 15.242188 33.34375 14.769531 32.855469 14.285156 C 31.019531 13.824219 31.019531 13.824219 29.285156 13.570312 C 29.285156 14.277344 29.285156 14.984375 29.285156 15.714844 C 27.855469 15 27.855469 15 27.144531 12.855469 C 27.613281 12.855469 28.085938 12.855469 28.570312 12.855469 C 28.570312 12.386719 28.570312 11.914062 28.570312 11.429688 C 30.457031 11.429688 32.34375 11.429688 34.285156 11.429688 C 34.285156 10.957031 34.285156 10.484375 34.285156 10 C 35.230469 10 36.171875 10 37.144531 10 C 37.144531 9.527344 37.144531 9.058594 37.144531 8.570312 C 37.613281 8.570312 38.085938 8.570312 38.570312 8.570312 C 38.570312 8.101562 38.570312 7.628906 38.570312 7.144531 C 39.042969 7.144531 39.515625 7.144531 40 7.144531 C 40.234375 6.4375 40.472656 5.730469 40.714844 5 C 41.742188 3.4375 41.742188 3.4375 42.855469 2.144531 C 43.328125 2.144531 43.800781 2.144531 44.285156 2.144531 C 44.285156 1.671875 44.285156 1.199219 44.285156 0.714844 C 46.21875 -0.253906 47.863281 -0.046875 50 0 Z M 50 0 "/>
<path style=" stroke:none;fill-rule:nonzero;fill:rgb(19.607843%,52.941179%,80.392158%);fill-opacity:1;" d="M 22.855469 23.570312 C 23.734375 27.441406 23.734375 27.441406 22.902344 29.554688 C 22.652344 29.9375 22.402344 30.320312 22.144531 30.714844 C 21.671875 30.714844 21.199219 30.714844 20.714844 30.714844 C 20.714844 31.1875 20.714844 31.65625 20.714844 32.144531 C 20.242188 32.144531 19.769531 32.144531 19.285156 32.144531 C 19.285156 32.613281 19.285156 33.085938 19.285156 33.570312 C 17.859375 33.601562 16.429688 33.601562 15 33.570312 C 14.285156 32.855469 14.285156 32.855469 13.929688 30.9375 C 14.398438 27.832031 15.660156 27.019531 18.050781 25.140625 C 19.875 23.878906 20.574219 23.570312 22.855469 23.570312 Z M 22.855469 23.570312 "/>
<path style=" stroke:none;fill-rule:nonzero;fill:rgb(36.470589%,48.627451%,65.098041%);fill-opacity:1;" d="M 0 38.570312 C 1.179688 38.570312 2.355469 38.570312 3.570312 38.570312 C 3.570312 39.042969 3.570312 39.515625 3.570312 40 C 4.042969 40 4.515625 40 5 40 C 5.234375 41.648438 5.472656 43.300781 5.714844 45 C 6.1875 45 6.65625 45 7.144531 45 C 7.378906 44.527344 7.613281 44.058594 7.855469 43.570312 C 8.328125 43.808594 8.800781 44.042969 9.285156 44.285156 C 9.285156 44.757812 9.285156 45.230469 9.285156 45.714844 C 9.757812 45.714844 10.230469 45.714844 10.714844 45.714844 C 10.714844 46.894531 10.714844 48.070312 10.714844 49.285156 C 9.0625 49.285156 7.414062 49.285156 5.714844 49.285156 C 5.714844 48.8125 5.714844 48.34375 5.714844 47.855469 C 5.242188 47.855469 4.769531 47.855469 4.285156 47.855469 C 4.285156 47.386719 4.285156 46.914062 4.285156 46.429688 C 3.8125 46.429688 3.34375 46.429688 2.855469 46.429688 C 2.855469 45.957031 2.855469 45.484375 2.855469 45 C 2.386719 45 1.914062 45 1.429688 45 C 1.429688 44.527344 1.429688 44.058594 1.429688 43.570312 C 0.957031 43.570312 0.484375 43.570312 0 43.570312 C 0 41.921875 0 40.269531 0 38.570312 Z M 0 38.570312 "/>
<path style=" stroke:none;fill-rule:nonzero;fill:rgb(22.745098%,57.647061%,83.137256%);fill-opacity:1;" d="M 29.285156 13.570312 C 31.464844 13.382812 32.816406 13.554688 34.867188 14.375 C 36.429688 15.714844 36.429688 15.714844 36.652344 17.992188 C 36.542969 18.984375 36.542969 18.984375 36.429688 20 C 35.957031 20 35.484375 20 35 20 C 35 19.527344 35 19.058594 35 18.570312 C 34.058594 18.570312 33.113281 18.570312 32.144531 18.570312 C 32.144531 19.042969 32.144531 19.515625 32.144531 20 C 30.492188 20.234375 28.84375 20.472656 27.144531 20.714844 C 27.378906 19.0625 27.613281 17.414062 27.855469 15.714844 C 28.328125 15.714844 28.800781 15.714844 29.285156 15.714844 C 29.285156 15.007812 29.285156 14.300781 29.285156 13.570312 Z M 29.285156 13.570312 "/>
<path style=" stroke:none;fill-rule:nonzero;fill:rgb(29.803923%,33.333334%,55.29412%);fill-opacity:1;" d="M 35 15 C 35.941406 15 36.886719 15 37.855469 15 C 37.855469 16.886719 37.855469 18.769531 37.855469 20.714844 C 37.386719 20.714844 36.914062 20.714844 36.429688 20.714844 C 36.429688 21.1875 36.429688 21.65625 36.429688 22.144531 C 35.957031 22.144531 35.484375 22.144531 35 22.144531 C 35 22.613281 35 23.085938 35 23.570312 C 34.527344 23.570312 34.058594 23.570312 33.570312 23.570312 C 33.570312 24.042969 33.570312 24.515625 33.570312 25 C 33.101562 25 32.628906 25 32.144531 25 C 32.144531 25.472656 32.144531 25.941406 32.144531 26.429688 C 31.671875 26.429688 31.199219 26.429688 30.714844 26.429688 C 30.714844 26.898438 30.714844 27.371094 30.714844 27.855469 C 30.242188 27.855469 29.769531 27.855469 29.285156 27.855469 C 29.285156 28.328125 29.285156 28.800781 29.285156 29.285156 C 28.8125 29.285156 28.34375 29.285156 27.855469 29.285156 C 27.621094 29.757812 27.386719 30.230469 27.144531 30.714844 C 27.144531 30.007812 27.144531 29.300781 27.144531 28.570312 C 27.613281 28.570312 28.085938 28.570312 28.570312 28.570312 C 28.570312 28.101562 28.570312 27.628906 28.570312 27.144531 C 29.042969 27.144531 29.515625 27.144531 30 27.144531 C 30 26.671875 30 26.199219 30 25.714844 C 30.472656 25.714844 30.941406 25.714844 31.429688 25.714844 C 31.191406 24.0625 30.957031 22.414062 30.714844 20.714844 C 31.1875 20.714844 31.65625 20.714844 32.144531 20.714844 C 32.144531 20.007812 32.144531 19.300781 32.144531 18.570312 C 33.085938 18.570312 34.027344 18.570312 35 18.570312 C 35 19.042969 35 19.515625 35 20 C 35.472656 20 35.941406 20 36.429688 20 C 36.429688 18.585938 36.429688 17.171875 36.429688 15.714844 C 35.957031 15.480469 35.484375 15.242188 35 15 Z M 35 15 "/>
<path style=" stroke:none;fill-rule:nonzero;fill:rgb(37.64706%,39.607844%,58.039218%);fill-opacity:1;" d="M 27.855469 13.570312 C 28.09375 14.042969 28.328125 14.515625 28.570312 15 C 27.761719 17.421875 26.992188 18.09375 25.089844 19.730469 C 24.589844 20.167969 24.089844 20.605469 23.578125 21.054688 C 22.144531 22.144531 22.144531 22.144531 20 22.855469 C 19.808594 23.3125 19.617188 23.769531 19.417969 24.242188 C 18.570312 25.714844 18.570312 25.714844 16.339844 26.605469 C 15.660156 26.785156 14.984375 26.960938 14.285156 27.144531 C 14.285156 26.671875 14.285156 26.199219 14.285156 25.714844 C 14.757812 25.714844 15.230469 25.714844 15.714844 25.714844 C 15.714844 25.242188 15.714844 24.769531 15.714844 24.285156 C 16.1875 24.285156 16.65625 24.285156 17.144531 24.285156 C 17.144531 23.8125 17.144531 23.34375 17.144531 22.855469 C 17.613281 22.855469 18.085938 22.855469 18.570312 22.855469 C 18.570312 22.386719 18.570312 21.914062 18.570312 21.429688 C 19.042969 21.429688 19.515625 21.429688 20 21.429688 C 20 20.957031 20 20.484375 20 20 C 20.472656 20 20.941406 20 21.429688 20 C 21.429688 19.527344 21.429688 19.058594 21.429688 18.570312 C 21.898438 18.570312 22.371094 18.570312 22.855469 18.570312 C 22.855469 18.101562 22.855469 17.628906 22.855469 17.144531 C 23.328125 17.144531 23.800781 17.144531 24.285156 17.144531 C 24.285156 16.671875 24.285156 16.199219 24.285156 15.714844 C 24.757812 15.714844 25.230469 15.714844 25.714844 15.714844 C 25.714844 15.242188 25.714844 14.769531 25.714844 14.285156 C 26.421875 14.050781 27.128906 13.8125 27.855469 13.570312 Z M 27.855469 13.570312 "/>
<path style=" stroke:none;fill-rule:nonzero;fill:rgb(38.431373%,43.529412%,60.000002%);fill-opacity:1;" d="M 38.570312 7.144531 C 38.808594 7.851562 39.042969 8.558594 39.285156 9.285156 C 38.8125 9.285156 38.34375 9.285156 37.855469 9.285156 C 37.855469 10.9375 37.855469 12.585938 37.855469 14.285156 C 38.5625 14.050781 39.269531 13.8125 40 13.570312 C 40 14.042969 40 14.515625 40 15 C 35.675781 15.699219 35.675781 15.699219 34.285156 15.714844 C 33.8125 15.242188 33.34375 14.769531 32.855469 14.285156 C 31.019531 13.824219 31.019531 13.824219 29.285156 13.570312 C 29.285156 14.277344 29.285156 14.984375 29.285156 15.714844 C 27.855469 15 27.855469 15 27.144531 12.855469 C 27.613281 12.855469 28.085938 12.855469 28.570312 12.855469 C 28.570312 12.386719 28.570312 11.914062 28.570312 11.429688 C 30.457031 11.429688 32.34375 11.429688 34.285156 11.429688 C 34.285156 10.957031 34.285156 10.484375 34.285156 10 C 35.230469 10 36.171875 10 37.144531 10 C 37.144531 9.527344 37.144531 9.058594 37.144531 8.570312 C 37.613281 8.570312 38.085938 8.570312 38.570312 8.570312 C 38.570312 8.101562 38.570312 7.628906 38.570312 7.144531 Z M 38.570312 7.144531 "/>
<path style=" stroke:none;fill-rule:nonzero;fill:rgb(52.941179%,58.431375%,69.803923%);fill-opacity:1;" d="M 50 0 C 50 1.179688 50 2.355469 50 3.570312 C 49.527344 3.570312 49.058594 3.570312 48.570312 3.570312 C 48.570312 4.042969 48.570312 4.515625 48.570312 5 C 48.101562 5 47.628906 5 47.144531 5 C 47.144531 5.472656 47.144531 5.941406 47.144531 6.429688 C 46.671875 6.429688 46.199219 6.429688 45.714844 6.429688 C 45.714844 6.898438 45.714844 7.371094 45.714844 7.855469 C 45.007812 7.621094 44.300781 7.386719 43.570312 7.144531 C 44.042969 7.144531 44.515625 7.144531 45 7.144531 C 45 6.671875 45 6.199219 45 5.714844 C 44.527344 5.714844 44.058594 5.714844 43.570312 5.714844 C 43.335938 4.535156 43.101562 3.355469 42.855469 2.144531 C 43.328125 2.144531 43.800781 2.144531 44.285156 2.144531 C 44.285156 1.671875 44.285156 1.199219 44.285156 0.714844 C 46.21875 -0.253906 47.863281 -0.046875 50 0 Z M 50 0 "/>
<path style=" stroke:none;fill-rule:nonzero;fill:rgb(41.960785%,75.686276%,89.803922%);fill-opacity:1;" d="M 7.855469 30.714844 C 9.980469 31.066406 9.980469 31.066406 12.144531 31.429688 C 12.144531 31.898438 12.144531 32.371094 12.144531 32.855469 C 12.613281 32.855469 13.085938 32.855469 13.570312 32.855469 C 14.042969 34.035156 14.515625 35.214844 15 36.429688 C 15.472656 36.429688 15.941406 36.429688 16.429688 36.429688 C 16.429688 37.371094 16.429688 38.3125 16.429688 39.285156 C 11.761719 38.316406 11.761719 38.316406 10.132812 36.070312 C 9.855469 35.480469 9.574219 34.894531 9.285156 34.285156 C 8.8125 33.8125 8.34375 33.34375 7.855469 32.855469 C 7.855469 32.148438 7.855469 31.441406 7.855469 30.714844 Z M 7.855469 30.714844 "/>
<path style=" stroke:none;fill-rule:nonzero;fill:rgb(36.078432%,40.000001%,57.254905%);fill-opacity:1;" d="M 12.855469 27.144531 C 13.328125 27.378906 13.800781 27.613281 14.285156 27.855469 C 14.050781 28.328125 13.8125 28.800781 13.570312 29.285156 C 13.101562 29.285156 12.628906 29.285156 12.144531 29.285156 C 12.144531 29.757812 12.144531 30.230469 12.144531 30.714844 C 10.730469 30.714844 9.3125 30.714844 7.855469 30.714844 C 8.210938 31.273438 8.5625 31.832031 8.929688 32.410156 C 10 34.285156 10 34.285156 10 35.714844 C 9.058594 35.480469 8.113281 35.242188 7.144531 35 C 7.144531 34.527344 7.144531 34.058594 7.144531 33.570312 C 6.671875 33.570312 6.199219 33.570312 5.714844 33.570312 C 5.714844 32.394531 5.714844 31.214844 5.714844 30 C 6.1875 30 6.65625 30 7.144531 30 C 7.144531 29.527344 7.144531 29.058594 7.144531 28.570312 C 9.027344 28.570312 10.914062 28.570312 12.855469 28.570312 C 12.855469 28.101562 12.855469 27.628906 12.855469 27.144531 Z M 12.855469 27.144531 "/>
<path style=" stroke:none;fill-rule:nonzero;fill:rgb(20.392157%,47.058824%,75.686276%);fill-opacity:1;" d="M 16.429688 27.855469 C 16.429688 29.035156 16.429688 30.214844 16.429688 31.429688 C 17.605469 31.429688 18.785156 31.429688 20 31.429688 C 20 30.957031 20 30.484375 20 30 C 20.707031 30.234375 21.414062 30.472656 22.144531 30.714844 C 21.671875 30.714844 21.199219 30.714844 20.714844 30.714844 C 20.714844 31.1875 20.714844 31.65625 20.714844 32.144531 C 20.242188 32.144531 19.769531 32.144531 19.285156 32.144531 C 19.285156 32.613281 19.285156 33.085938 19.285156 33.570312 C 17.859375 33.601562 16.429688 33.601562 15 33.570312 C 14.285156 32.855469 14.285156 32.855469 14.242188 30.667969 C 14.253906 29.976562 14.269531 29.285156 14.285156 28.570312 C 15.714844 27.855469 15.714844 27.855469 16.429688 27.855469 Z M 16.429688 27.855469 "/>
<path style=" stroke:none;fill-rule:nonzero;fill:rgb(54.509807%,87.450981%,95.294118%);fill-opacity:1;" d="M 29.285156 13.570312 C 31.464844 13.382812 32.816406 13.554688 34.867188 14.375 C 36.429688 15.714844 36.429688 15.714844 36.652344 17.992188 C 36.542969 18.984375 36.542969 18.984375 36.429688 20 C 35.957031 20 35.484375 20 35 20 C 35 19.527344 35 19.058594 35 18.570312 C 34.527344 18.570312 34.058594 18.570312 33.570312 18.570312 C 33.570312 18.101562 33.570312 17.628906 33.570312 17.144531 C 33.101562 17.144531 32.628906 17.144531 32.144531 17.144531 C 32.144531 16.671875 32.144531 16.199219 32.144531 15.714844 C 31.671875 15.714844 31.199219 15.714844 30.714844 15.714844 C 30.714844 15.242188 30.714844 14.769531 30.714844 14.285156 C 30.242188 14.050781 29.769531 13.8125 29.285156 13.570312 Z M 29.285156 13.570312 "/>
<path style=" stroke:none;fill-rule:nonzero;fill:rgb(19.607843%,50.588238%,78.823531%);fill-opacity:1;" d="M 24.464844 20.9375 C 25.082031 21.179688 25.082031 21.179688 25.714844 21.429688 C 25.242188 21.429688 24.769531 21.429688 24.285156 21.429688 C 24.285156 21.898438 24.285156 22.371094 24.285156 22.855469 C 24.992188 23.09375 25.699219 23.328125 26.429688 23.570312 C 25.722656 24.277344 25.015625 24.984375 24.285156 25.714844 C 24.992188 25.949219 25.699219 26.1875 26.429688 26.429688 C 25.484375 26.664062 24.542969 26.898438 23.570312 27.144531 C 23.570312 26.671875 23.570312 26.199219 23.570312 25.714844 C 23.101562 25.480469 22.628906 25.242188 22.144531 25 C 22.378906 24.527344 22.613281 24.058594 22.855469 23.570312 C 21.914062 23.808594 20.972656 24.042969 20 24.285156 C 20 23.8125 20 23.34375 20 22.855469 C 22.300781 20.636719 22.300781 20.636719 24.464844 20.9375 Z M 24.464844 20.9375 "/>
<path style=" stroke:none;fill-rule:nonzero;fill:rgb(23.137255%,33.725491%,64.313728%);fill-opacity:1;" d="M 29.285156 21.429688 C 29.992188 21.664062 30.699219 21.898438 31.429688 22.144531 C 31.429688 22.851562 31.429688 23.558594 31.429688 24.285156 C 28.953125 25.347656 28.953125 25.347656 26.429688 26.429688 C 26.429688 25.722656 26.429688 25.015625 26.429688 24.285156 C 26.898438 24.285156 27.371094 24.285156 27.855469 24.285156 C 27.855469 23.8125 27.855469 23.34375 27.855469 22.855469 C 28.328125 22.855469 28.800781 22.855469 29.285156 22.855469 C 29.285156 22.386719 29.285156 21.914062 29.285156 21.429688 Z M 25 26.429688 C 25.472656 26.664062 25.941406 26.898438 26.429688 27.144531 C 25.484375 27.851562 24.542969 28.558594 23.570312 29.285156 C 23.101562 29.050781 22.628906 28.8125 22.144531 28.570312 C 23.085938 27.863281 24.027344 27.15625 25 26.429688 Z M 25 26.429688 "/>
<path style=" stroke:none;fill-rule:nonzero;fill:rgb(34.509805%,50.196081%,70.980394%);fill-opacity:1;" d="M 12.855469 37.855469 C 13.5625 38.328125 14.269531 38.800781 15 39.285156 C 15 39.992188 15 40.699219 15 41.429688 C 15.472656 41.429688 15.941406 41.429688 16.429688 41.429688 C 16.664062 40.25 16.898438 39.070312 17.144531 37.855469 C 18.570312 39.285156 18.570312 39.285156 18.570312 42.144531 C 17.863281 42.144531 17.15625 42.144531 16.429688 42.144531 C 16.191406 42.613281 15.957031 43.085938 15.714844 43.570312 C 15.714844 43.101562 15.714844 42.628906 15.714844 42.144531 C 15.242188 42.144531 14.769531 42.144531 14.285156 42.144531 C 14.285156 41.671875 14.285156 41.199219 14.285156 40.714844 C 13.34375 40.714844 12.398438 40.714844 11.429688 40.714844 C 11.429688 40.007812 11.429688 39.300781 11.429688 38.570312 C 11.898438 38.335938 12.371094 38.101562 12.855469 37.855469 Z M 12.855469 37.855469 "/>
<path style=" stroke:none;fill-rule:nonzero;fill:rgb(27.058825%,30.588236%,53.333336%);fill-opacity:1;" d="M 27.855469 13.570312 C 28.09375 14.042969 28.328125 14.515625 28.570312 15 C 27.777344 17.382812 26.804688 18.3125 25 20 C 24.292969 19.765625 23.585938 19.527344 22.855469 19.285156 C 22.855469 18.578125 22.855469 17.871094 22.855469 17.144531 C 23.328125 17.144531 23.800781 17.144531 24.285156 17.144531 C 24.285156 16.671875 24.285156 16.199219 24.285156 15.714844 C 24.757812 15.714844 25.230469 15.714844 25.714844 15.714844 C 25.714844 15.242188 25.714844 14.769531 25.714844 14.285156 C 26.421875 14.050781 27.128906 13.8125 27.855469 13.570312 Z M 27.855469 13.570312 "/>
<path style=" stroke:none;fill-rule:nonzero;fill:rgb(19.215687%,23.921569%,51.372552%);fill-opacity:1;" d="M 15 26.429688 C 15.472656 26.429688 15.941406 26.429688 16.429688 26.429688 C 16.191406 27.136719 15.957031 27.84375 15.714844 28.570312 C 15.242188 28.570312 14.769531 28.570312 14.285156 28.570312 C 14.519531 30.457031 14.757812 32.34375 15 34.285156 C 14.527344 34.285156 14.058594 34.285156 13.570312 34.285156 C 13.570312 33.8125 13.570312 33.34375 13.570312 32.855469 C 13.101562 32.855469 12.628906 32.855469 12.144531 32.855469 C 12.144531 32.386719 12.144531 31.914062 12.144531 31.429688 C 11.4375 31.191406 10.730469 30.957031 10 30.714844 C 10.707031 30.714844 11.414062 30.714844 12.144531 30.714844 C 12.144531 30.242188 12.144531 29.769531 12.144531 29.285156 C 12.613281 29.285156 13.085938 29.285156 13.570312 29.285156 C 14.042969 28.34375 14.515625 27.398438 15 26.429688 Z M 15 26.429688 "/>
<path style=" stroke:none;fill-rule:nonzero;fill:rgb(22.745098%,27.843139%,49.803922%);fill-opacity:1;" d="M 3.570312 45 C 4.042969 45 4.515625 45 5 45 C 5 45.472656 5 45.941406 5 46.429688 C 6.648438 46.429688 8.300781 46.429688 10 46.429688 C 10 47.371094 10 48.3125 10 49.285156 C 8.585938 49.285156 7.171875 49.285156 5.714844 49.285156 C 5.714844 48.8125 5.714844 48.34375 5.714844 47.855469 C 5.242188 47.855469 4.769531 47.855469 4.285156 47.855469 C 4.050781 46.914062 3.8125 45.972656 3.570312 45 Z M 3.570312 45 "/>
<path style=" stroke:none;fill-rule:nonzero;fill:rgb(29.411766%,60.784316%,81.568629%);fill-opacity:1;" d="M 7.855469 30.714844 C 9.980469 31.066406 9.980469 31.066406 12.144531 31.429688 C 12.144531 31.898438 12.144531 32.371094 12.144531 32.855469 C 12.613281 32.855469 13.085938 32.855469 13.570312 32.855469 C 13.808594 33.5625 14.042969 34.269531 14.285156 35 C 13.8125 35 13.34375 35 12.855469 35 C 12.855469 34.527344 12.855469 34.058594 12.855469 33.570312 C 11.441406 34.277344 11.441406 34.277344 10 35 C 8.929688 34.0625 8.929688 34.0625 7.855469 32.855469 C 7.855469 32.148438 7.855469 31.441406 7.855469 30.714844 Z M 7.855469 30.714844 "/>
<path style=" stroke:none;fill-rule:nonzero;fill:rgb(22.352941%,31.37255%,54.11765%);fill-opacity:1;" d="M 40.714844 8.570312 C 40.714844 9.75 40.714844 10.929688 40.714844 12.144531 C 40.242188 12.144531 39.769531 12.144531 39.285156 12.144531 C 39.285156 12.851562 39.285156 13.558594 39.285156 14.285156 C 38.8125 14.285156 38.34375 14.285156 37.855469 14.285156 C 37.855469 13.34375 37.855469 12.398438 37.855469 11.429688 C 36.914062 11.191406 35.972656 10.957031 35 10.714844 C 35.941406 10.714844 36.886719 10.714844 37.855469 10.714844 C 37.855469 10.242188 37.855469 9.769531 37.855469 9.285156 C 39.285156 8.570312 39.285156 8.570312 40.714844 8.570312 Z M 40.714844 8.570312 "/>
<path style=" stroke:none;fill-rule:nonzero;fill:rgb(40.784314%,65.882355%,81.568629%);fill-opacity:1;" d="M 35 11.429688 C 35.941406 11.429688 36.886719 11.429688 37.855469 11.429688 C 37.855469 12.371094 37.855469 13.3125 37.855469 14.285156 C 38.5625 14.050781 39.269531 13.8125 40 13.570312 C 40 14.042969 40 14.515625 40 15 C 38.113281 15.234375 36.230469 15.472656 34.285156 15.714844 C 34.050781 15.242188 33.8125 14.769531 33.570312 14.285156 C 34.042969 14.285156 34.515625 14.285156 35 14.285156 C 35 13.34375 35 12.398438 35 11.429688 Z M 35 11.429688 "/>
<path style=" stroke:none;fill-rule:nonzero;fill:rgb(40.000001%,53.725493%,71.764708%);fill-opacity:1;" d="M 7.144531 43.570312 C 7.851562 43.808594 8.558594 44.042969 9.285156 44.285156 C 9.285156 44.757812 9.285156 45.230469 9.285156 45.714844 C 9.757812 45.714844 10.230469 45.714844 10.714844 45.714844 C 10.714844 46.894531 10.714844 48.070312 10.714844 49.285156 C 10.480469 48.34375 10.242188 47.398438 10 46.429688 C 9.441406 46.574219 8.878906 46.722656 8.304688 46.875 C 7.683594 46.964844 7.066406 47.050781 6.429688 47.144531 C 5.957031 46.671875 5.484375 46.199219 5 45.714844 C 5.707031 45.480469 6.414062 45.242188 7.144531 45 C 7.144531 44.527344 7.144531 44.058594 7.144531 43.570312 Z M 7.144531 43.570312 "/>
<path style=" stroke:none;fill-rule:nonzero;fill:rgb(24.313726%,59.215689%,84.313726%);fill-opacity:1;" d="M 22.855469 23.570312 C 23.09375 24.984375 23.328125 26.398438 23.570312 27.855469 C 22.15625 27.386719 20.742188 26.914062 19.285156 26.429688 C 19.285156 25.722656 19.285156 25.015625 19.285156 24.285156 C 20.714844 23.570312 20.714844 23.570312 22.855469 23.570312 Z M 22.855469 23.570312 "/>
<path style=" stroke:none;fill-rule:nonzero;fill:rgb(22.352941%,28.235295%,50.196081%);fill-opacity:1;" d="M 46.429688 0 C 47.371094 0 48.3125 0 49.285156 0 C 49.285156 0.941406 49.285156 1.886719 49.285156 2.855469 C 48.8125 2.855469 48.34375 2.855469 47.855469 2.855469 C 47.855469 3.328125 47.855469 3.800781 47.855469 4.285156 C 47.386719 4.285156 46.914062 4.285156 46.429688 4.285156 C 46.429688 3.8125 46.429688 3.34375 46.429688 2.855469 C 45.957031 2.621094 45.484375 2.386719 45 2.144531 C 45.472656 1.4375 45.941406 0.730469 46.429688 0 Z M 46.429688 0 "/>
<path style=" stroke:none;fill-rule:nonzero;fill:rgb(18.431373%,29.803923%,54.901963%);fill-opacity:1;" d="M 10.714844 36.429688 C 10.949219 36.898438 11.1875 37.371094 11.429688 37.855469 C 11.898438 38.09375 12.371094 38.328125 12.855469 38.570312 C 12.386719 38.570312 11.914062 38.570312 11.429688 38.570312 C 11.429688 39.277344 11.429688 39.984375 11.429688 40.714844 C 10.484375 40.949219 9.542969 41.1875 8.570312 41.429688 C 8.335938 40.722656 8.101562 40.015625 7.855469 39.285156 C 8.328125 39.285156 8.800781 39.285156 9.285156 39.285156 C 9.285156 38.8125 9.285156 38.34375 9.285156 37.855469 C 9.757812 37.855469 10.230469 37.855469 10.714844 37.855469 C 10.714844 37.386719 10.714844 36.914062 10.714844 36.429688 Z M 10.714844 36.429688 "/>
<path style=" stroke:none;fill-rule:nonzero;fill:rgb(30.588236%,32.941177%,55.29412%);fill-opacity:1;" d="M 19.285156 22.144531 C 19.757812 22.378906 20.230469 22.613281 20.714844 22.855469 C 17.039062 26.835938 17.039062 26.835938 14.285156 27.144531 C 14.285156 26.671875 14.285156 26.199219 14.285156 25.714844 C 14.757812 25.714844 15.230469 25.714844 15.714844 25.714844 C 15.714844 25.242188 15.714844 24.769531 15.714844 24.285156 C 16.894531 24.050781 18.070312 23.8125 19.285156 23.570312 C 19.285156 23.101562 19.285156 22.628906 19.285156 22.144531 Z M 19.285156 22.144531 "/>
</g>
</svg>
