<?xml version="1.0" encoding="UTF-8"?>
<svg xmlns="http://www.w3.org/2000/svg" xmlns:xlink="http://www.w3.org/1999/xlink" width="50px" height="50px" viewBox="0 0 50 50" version="1.1">
<g id="surface1">
<path style=" stroke:none;fill-rule:nonzero;fill:rgb(31.764707%,32.941177%,40.392157%);fill-opacity:1;" d="M 18.570312 0 C 22.578125 0 26.585938 0 30.714844 0 C 30.714844 0.941406 30.714844 1.886719 30.714844 2.855469 C 31.65625 2.855469 32.601562 2.855469 33.570312 2.855469 C 33.570312 4.742188 33.570312 6.628906 33.570312 8.570312 C 34.277344 8.570312 34.984375 8.570312 35.714844 8.570312 C 35.714844 6.6875 35.714844 4.800781 35.714844 2.855469 C 36.894531 2.855469 38.070312 2.855469 39.285156 2.855469 C 39.285156 5.214844 39.285156 7.570312 39.285156 10 C 38.578125 10 37.871094 10 37.144531 10 C 37.144531 10.941406 37.144531 11.886719 37.144531 12.855469 C 37.851562 12.855469 38.558594 12.855469 39.285156 12.855469 C 39.285156 20.636719 39.285156 28.414062 39.285156 36.429688 C 38.578125 36.429688 37.871094 36.429688 37.144531 36.429688 C 37.144531 37.371094 37.144531 38.3125 37.144531 39.285156 C 35.730469 39.640625 35.730469 39.640625 34.285156 40 C 34.285156 40.707031 34.285156 41.414062 34.285156 42.144531 C 30.394531 42.496094 30.394531 42.496094 26.429688 42.855469 C 26.429688 44.980469 26.429688 47.101562 26.429688 49.285156 C 25.015625 49.285156 23.601562 49.285156 22.144531 49.285156 C 22.144531 46.929688 22.144531 44.570312 22.144531 42.144531 C 20.019531 42.144531 17.898438 42.144531 15.714844 42.144531 C 15.714844 41.199219 15.714844 40.257812 15.714844 39.285156 C 14.769531 39.285156 13.828125 39.285156 12.855469 39.285156 C 12.855469 38.578125 12.855469 37.871094 12.855469 37.144531 C 12.148438 36.90625 11.441406 36.671875 10.714844 36.429688 C 10.714844 28.648438 10.714844 20.871094 10.714844 12.855469 C 11.421875 12.855469 12.128906 12.855469 12.855469 12.855469 C 12.855469 11.679688 12.855469 10.5 12.855469 9.285156 C 13.800781 9.285156 14.742188 9.285156 15.714844 9.285156 C 15.714844 7.164062 15.714844 5.042969 15.714844 2.855469 C 16.65625 2.855469 17.601562 2.855469 18.570312 2.855469 C 18.570312 1.914062 18.570312 0.972656 18.570312 0 Z M 18.570312 0 "/>
<path style=" stroke:none;fill-rule:nonzero;fill:rgb(96.078432%,41.176471%,22.352941%);fill-opacity:1;" d="M 18.570312 0 C 22.578125 0 26.585938 0 30.714844 0 C 30.714844 0.941406 30.714844 1.886719 30.714844 2.855469 C 31.65625 2.855469 32.601562 2.855469 33.570312 2.855469 C 33.570312 4.742188 33.570312 6.628906 33.570312 8.570312 C 34.277344 8.570312 34.984375 8.570312 35.714844 8.570312 C 35.714844 6.6875 35.714844 4.800781 35.714844 2.855469 C 36.894531 2.855469 38.070312 2.855469 39.285156 2.855469 C 38.34375 3.09375 37.398438 3.328125 36.429688 3.570312 C 36.429688 5.457031 36.429688 7.34375 36.429688 9.285156 C 35.25 9.285156 34.070312 9.285156 32.855469 9.285156 C 32.855469 7.398438 32.855469 5.515625 32.855469 3.570312 C 32.148438 3.570312 31.441406 3.570312 30.714844 3.570312 C 30.714844 4.75 30.714844 5.929688 30.714844 7.144531 C 27.886719 7.144531 25.058594 7.144531 22.144531 7.144531 C 22.144531 8.085938 22.144531 9.027344 22.144531 10 C 21.4375 10 20.730469 10 20 10 C 20 11.886719 20 13.769531 20 15.714844 C 20.816406 15.707031 21.632812 15.699219 22.476562 15.6875 C 23.539062 15.683594 24.605469 15.675781 25.667969 15.667969 C 26.207031 15.664062 26.746094 15.65625 27.304688 15.652344 C 28.679688 15.644531 30.054688 15.675781 31.429688 15.714844 C 32.144531 16.429688 32.144531 16.429688 32.222656 17.886719 C 32.21875 18.511719 32.214844 19.136719 32.210938 19.78125 C 32.210938 20.386719 32.210938 20.996094 32.207031 21.621094 C 32.199219 22.394531 32.195312 23.171875 32.1875 23.972656 C 32.171875 26.433594 32.15625 28.894531 32.144531 31.429688 C 26.722656 31.429688 21.300781 31.429688 15.714844 31.429688 C 15.480469 29.308594 15.242188 27.1875 15 25 C 14.527344 24.765625 14.058594 24.527344 13.570312 24.285156 C 13.570312 20.75 13.570312 17.214844 13.570312 13.570312 C 14.515625 13.570312 15.457031 13.570312 16.429688 13.570312 C 16.429688 12.394531 16.429688 11.214844 16.429688 10 C 17.371094 10 18.3125 10 19.285156 10 C 19.285156 7.878906 19.285156 5.757812 19.285156 3.570312 C 22.820312 3.570312 26.355469 3.570312 30 3.570312 C 30 2.628906 30 1.6875 30 0.714844 C 26.230469 0.714844 22.457031 0.714844 18.570312 0.714844 C 18.570312 0.480469 18.570312 0.242188 18.570312 0 Z M 18.570312 0 "/>
<path style=" stroke:none;fill-rule:nonzero;fill:rgb(60.392159%,16.078432%,6.666667%);fill-opacity:1;" d="M 22.144531 7.144531 C 24.972656 7.144531 27.800781 7.144531 30.714844 7.144531 C 30.714844 8.085938 30.714844 9.027344 30.714844 10 C 31.65625 10 32.601562 10 33.570312 10 C 33.570312 11.179688 33.570312 12.355469 33.570312 13.570312 C 34.515625 13.570312 35.457031 13.570312 36.429688 13.570312 C 36.429688 20.878906 36.429688 28.1875 36.429688 35.714844 C 35.25 35.714844 34.070312 35.714844 32.855469 35.714844 C 32.855469 36.65625 32.855469 37.601562 32.855469 38.570312 C 30.5 38.570312 28.144531 38.570312 25.714844 38.570312 C 25.714844 39.515625 25.714844 40.457031 25.714844 41.429688 C 24.769531 41.429688 23.828125 41.429688 22.855469 41.429688 C 22.855469 40.484375 22.855469 39.542969 22.855469 38.570312 C 20.972656 38.570312 19.085938 38.570312 17.144531 38.570312 C 17.144531 37.628906 17.144531 36.6875 17.144531 35.714844 C 15.964844 35.714844 14.785156 35.714844 13.570312 35.714844 C 13.570312 31.941406 13.570312 28.171875 13.570312 24.285156 C 14.277344 24.050781 14.984375 23.8125 15.714844 23.570312 C 15.714844 26.164062 15.714844 28.757812 15.714844 31.429688 C 21.136719 31.429688 26.558594 31.429688 32.144531 31.429688 C 31.90625 26.480469 31.671875 21.527344 31.429688 16.429688 C 27.65625 16.191406 23.886719 15.957031 20 15.714844 C 20 13.828125 20 11.941406 20 10 C 20.707031 10 21.414062 10 22.144531 10 C 22.144531 9.058594 22.144531 8.113281 22.144531 7.144531 Z M 22.144531 7.144531 "/>
<path style=" stroke:none;fill-rule:nonzero;fill:rgb(100%,93.725491%,72.156864%);fill-opacity:1;" d="M 16.429688 16.429688 C 20.90625 16.429688 25.386719 16.429688 30 16.429688 C 30 16.664062 30 16.898438 30 17.144531 C 27.644531 17.144531 25.285156 17.144531 22.855469 17.144531 C 22.855469 18.320312 22.855469 19.5 22.855469 20.714844 C 24.980469 20.714844 27.101562 20.714844 29.285156 20.714844 C 29.285156 20.949219 29.285156 21.1875 29.285156 21.429688 C 26.222656 21.429688 23.15625 21.429688 20 21.429688 C 20 22.605469 20 23.785156 20 25 C 23.300781 25 26.601562 25 30 25 C 30.65625 22.375 31.066406 19.820312 31.429688 17.144531 C 31.664062 17.144531 31.898438 17.144531 32.144531 17.144531 C 32.144531 21.855469 32.144531 26.570312 32.144531 31.429688 C 26.957031 31.429688 21.769531 31.429688 16.429688 31.429688 C 16.429688 26.480469 16.429688 21.527344 16.429688 16.429688 Z M 16.429688 16.429688 "/>
<path style=" stroke:none;fill-rule:nonzero;fill:rgb(89.411765%,20%,5.882353%);fill-opacity:1;" d="M 15.714844 23.570312 C 15.714844 26.164062 15.714844 28.757812 15.714844 31.429688 C 21.136719 31.429688 26.558594 31.429688 32.144531 31.429688 C 32.144531 32.84375 32.144531 34.257812 32.144531 35.714844 C 31.4375 35.714844 30.730469 35.714844 30 35.714844 C 30 36.65625 30 37.601562 30 38.570312 C 28.585938 38.570312 27.171875 38.570312 25.714844 38.570312 C 25.714844 39.515625 25.714844 40.457031 25.714844 41.429688 C 24.769531 41.429688 23.828125 41.429688 22.855469 41.429688 C 22.855469 40.484375 22.855469 39.542969 22.855469 38.570312 C 20.972656 38.570312 19.085938 38.570312 17.144531 38.570312 C 17.144531 37.628906 17.144531 36.6875 17.144531 35.714844 C 15.964844 35.714844 14.785156 35.714844 13.570312 35.714844 C 13.570312 31.941406 13.570312 28.171875 13.570312 24.285156 C 15 23.570312 15 23.570312 15.714844 23.570312 Z M 15.714844 23.570312 "/>
<path style=" stroke:none;fill-rule:nonzero;fill:rgb(17.647059%,21.568628%,29.803923%);fill-opacity:1;" d="M 30.714844 3.570312 C 31.421875 3.570312 32.128906 3.570312 32.855469 3.570312 C 32.855469 5.457031 32.855469 7.34375 32.855469 9.285156 C 34.035156 9.285156 35.214844 9.285156 36.429688 9.285156 C 36.429688 7.398438 36.429688 5.515625 36.429688 3.570312 C 37.371094 3.570312 38.3125 3.570312 39.285156 3.570312 C 39.285156 5.691406 39.285156 7.8125 39.285156 10 C 38.578125 10 37.871094 10 37.144531 10 C 37.144531 10.941406 37.144531 11.886719 37.144531 12.855469 C 37.851562 12.855469 38.558594 12.855469 39.285156 12.855469 C 39.363281 20.519531 39.257812 28.074219 38.570312 35.714844 C 37.863281 35.714844 37.15625 35.714844 36.429688 35.714844 C 36.429688 28.40625 36.429688 21.101562 36.429688 13.570312 C 35.484375 13.570312 34.542969 13.570312 33.570312 13.570312 C 33.570312 12.394531 33.570312 11.214844 33.570312 10 C 32.628906 10 31.6875 10 30.714844 10 C 30.714844 7.878906 30.714844 5.757812 30.714844 3.570312 Z M 30.714844 3.570312 "/>
<path style=" stroke:none;fill-rule:nonzero;fill:rgb(99.607843%,86.274511%,63.529414%);fill-opacity:1;" d="M 32.144531 17.144531 C 32.0625 18.320312 31.96875 19.496094 31.875 20.667969 C 31.824219 21.324219 31.777344 21.980469 31.722656 22.652344 C 31.625 23.191406 31.527344 23.730469 31.429688 24.285156 C 29.285156 25.359375 27.292969 25.066406 24.910156 25.042969 C 23.996094 25.039062 23.082031 25.03125 22.136719 25.023438 C 21.078125 25.011719 21.078125 25.011719 20 25 C 20 23.820312 20 22.644531 20 21.429688 C 20.941406 21.191406 21.886719 20.957031 22.855469 20.714844 C 22.855469 19.535156 22.855469 18.355469 22.855469 17.144531 C 24.003906 17.003906 25.148438 16.871094 26.292969 16.742188 C 26.933594 16.667969 27.570312 16.59375 28.226562 16.515625 C 30 16.429688 30 16.429688 32.144531 17.144531 Z M 32.144531 17.144531 "/>
<path style=" stroke:none;fill-rule:nonzero;fill:rgb(93.725491%,17.254902%,3.921569%);fill-opacity:1;" d="M 22.144531 7.144531 C 23.792969 7.144531 25.441406 7.144531 27.144531 7.144531 C 27.144531 9.027344 27.144531 10.914062 27.144531 12.855469 C 28.558594 12.855469 29.972656 12.855469 31.429688 12.855469 C 31.429688 13.800781 31.429688 14.742188 31.429688 15.714844 C 27.65625 15.714844 23.886719 15.714844 20 15.714844 C 20 13.828125 20 11.941406 20 10 C 20.707031 10 21.414062 10 22.144531 10 C 22.144531 9.058594 22.144531 8.113281 22.144531 7.144531 Z M 22.144531 7.144531 "/>
<path style=" stroke:none;fill-rule:nonzero;fill:rgb(77.254903%,74.901962%,69.01961%);fill-opacity:1;" d="M 18.570312 0 C 22.578125 0 26.585938 0 30.714844 0 C 30.714844 0.941406 30.714844 1.886719 30.714844 2.855469 C 31.65625 2.855469 32.601562 2.855469 33.570312 2.855469 C 33.570312 4.742188 33.570312 6.628906 33.570312 8.570312 C 34.277344 8.570312 34.984375 8.570312 35.714844 8.570312 C 35.714844 6.6875 35.714844 4.800781 35.714844 2.855469 C 36.894531 2.855469 38.070312 2.855469 39.285156 2.855469 C 38.34375 3.09375 37.398438 3.328125 36.429688 3.570312 C 36.429688 5.457031 36.429688 7.34375 36.429688 9.285156 C 35.25 9.285156 34.070312 9.285156 32.855469 9.285156 C 32.855469 7.398438 32.855469 5.515625 32.855469 3.570312 C 32.148438 3.570312 31.441406 3.570312 30.714844 3.570312 C 30.714844 4.75 30.714844 5.929688 30.714844 7.144531 C 26.941406 7.144531 23.171875 7.144531 19.285156 7.144531 C 19.285156 5.964844 19.285156 4.785156 19.285156 3.570312 C 22.820312 3.570312 26.355469 3.570312 30 3.570312 C 30 2.628906 30 1.6875 30 0.714844 C 26.230469 0.714844 22.457031 0.714844 18.570312 0.714844 C 18.570312 0.480469 18.570312 0.242188 18.570312 0 Z M 18.570312 0 "/>
<path style=" stroke:none;fill-rule:nonzero;fill:rgb(99.607843%,89.411765%,65.882355%);fill-opacity:1;" d="M 30 22.144531 C 32 25.144531 31.53125 27.144531 31.429688 30.714844 C 27.894531 30.714844 24.355469 30.714844 20.714844 30.714844 C 20.480469 28.828125 20.242188 26.941406 20 25 C 23.300781 25 26.601562 25 30 25 C 30 24.058594 30 23.113281 30 22.144531 Z M 30 22.144531 "/>
<path style=" stroke:none;fill-rule:nonzero;fill:rgb(9.411765%,21.176471%,31.764707%);fill-opacity:1;" d="M 18.570312 0.714844 C 22.34375 0.714844 26.113281 0.714844 30 0.714844 C 30 1.65625 30 2.601562 30 3.570312 C 26.464844 3.570312 22.929688 3.570312 19.285156 3.570312 C 19.285156 5.691406 19.285156 7.8125 19.285156 10 C 18.34375 10 17.398438 10 16.429688 10 C 16.191406 7.644531 15.957031 5.285156 15.714844 2.855469 C 16.65625 2.855469 17.601562 2.855469 18.570312 2.855469 C 18.570312 2.148438 18.570312 1.441406 18.570312 0.714844 Z M 18.570312 0.714844 "/>
<path style=" stroke:none;fill-rule:nonzero;fill:rgb(38.82353%,39.215687%,44.705883%);fill-opacity:1;" d="M 38.570312 25.714844 C 38.808594 25.714844 39.042969 25.714844 39.285156 25.714844 C 39.285156 29.25 39.285156 32.785156 39.285156 36.429688 C 38.578125 36.429688 37.871094 36.429688 37.144531 36.429688 C 37.144531 37.371094 37.144531 38.3125 37.144531 39.285156 C 36.199219 39.519531 35.257812 39.757812 34.285156 40 C 34.285156 40.707031 34.285156 41.414062 34.285156 42.144531 C 31.457031 42.144531 28.628906 42.144531 25.714844 42.144531 C 25.714844 40.964844 25.714844 39.785156 25.714844 38.570312 C 28.070312 38.570312 30.429688 38.570312 32.855469 38.570312 C 32.855469 37.628906 32.855469 36.6875 32.855469 35.714844 C 34.742188 35.714844 36.628906 35.714844 38.570312 35.714844 C 38.570312 32.414062 38.570312 29.113281 38.570312 25.714844 Z M 38.570312 25.714844 "/>
<path style=" stroke:none;fill-rule:nonzero;fill:rgb(80.784315%,17.647059%,4.705882%);fill-opacity:1;" d="M 13.570312 24.285156 C 13.808594 24.285156 14.042969 24.285156 14.285156 24.285156 C 14.519531 26.878906 14.757812 29.472656 15 32.144531 C 17.59375 32.378906 20.1875 32.613281 22.855469 32.855469 C 22.855469 34.742188 22.855469 36.628906 22.855469 38.570312 C 20.972656 38.570312 19.085938 38.570312 17.144531 38.570312 C 17.144531 37.628906 17.144531 36.6875 17.144531 35.714844 C 15.964844 35.714844 14.785156 35.714844 13.570312 35.714844 C 13.570312 31.941406 13.570312 28.171875 13.570312 24.285156 Z M 13.570312 24.285156 "/>
<path style=" stroke:none;fill-rule:nonzero;fill:rgb(0%,14.509805%,27.843139%);fill-opacity:1;" d="M 11.429688 13.570312 C 12.136719 13.570312 12.84375 13.570312 13.570312 13.570312 C 13.570312 20.878906 13.570312 28.1875 13.570312 35.714844 C 12.863281 35.714844 12.15625 35.714844 11.429688 35.714844 C 11.429688 28.40625 11.429688 21.101562 11.429688 13.570312 Z M 11.429688 13.570312 "/>
<path style=" stroke:none;fill-rule:nonzero;fill:rgb(99.607843%,94.117647%,76.862746%);fill-opacity:1;" d="M 16.429688 16.429688 C 20.90625 16.429688 25.386719 16.429688 30 16.429688 C 30 16.664062 30 16.898438 30 17.144531 C 27.644531 17.144531 25.285156 17.144531 22.855469 17.144531 C 22.855469 18.320312 22.855469 19.5 22.855469 20.714844 C 24.980469 20.714844 27.101562 20.714844 29.285156 20.714844 C 29.285156 20.949219 29.285156 21.1875 29.285156 21.429688 C 28.632812 21.445312 27.976562 21.464844 27.304688 21.484375 C 26.03125 21.546875 26.03125 21.546875 24.730469 21.605469 C 23.886719 21.640625 23.042969 21.671875 22.171875 21.707031 C 21.453125 21.851562 20.738281 21.996094 20 22.144531 C 19.527344 23.085938 19.058594 24.027344 18.570312 25 C 18.570312 22.40625 18.570312 19.8125 18.570312 17.144531 C 18.101562 17.144531 17.628906 17.144531 17.144531 17.144531 C 17.144531 20.914062 17.144531 24.6875 17.144531 28.570312 C 16.90625 28.570312 16.671875 28.570312 16.429688 28.570312 C 16.429688 24.5625 16.429688 20.558594 16.429688 16.429688 Z M 16.429688 16.429688 "/>
<path style=" stroke:none;fill-rule:nonzero;fill:rgb(3.921569%,17.254902%,30.19608%);fill-opacity:1;" d="M 37.144531 12.855469 C 37.851562 12.855469 38.558594 12.855469 39.285156 12.855469 C 39.363281 20.519531 39.257812 28.074219 38.570312 35.714844 C 38.101562 35.714844 37.628906 35.714844 37.144531 35.714844 C 37.144531 28.171875 37.144531 20.628906 37.144531 12.855469 Z M 37.144531 12.855469 "/>
<path style=" stroke:none;fill-rule:nonzero;fill:rgb(32.941177%,38.039216%,45.882353%);fill-opacity:1;" d="M 20 41.429688 C 21.886719 41.429688 23.769531 41.429688 25.714844 41.429688 C 26.574219 43.148438 26.5 44.25 26.472656 46.160156 C 26.464844 46.746094 26.460938 47.328125 26.453125 47.929688 C 26.445312 48.378906 26.4375 48.824219 26.429688 49.285156 C 25.015625 49.285156 23.601562 49.285156 22.144531 49.285156 C 22.144531 46.929688 22.144531 44.570312 22.144531 42.144531 C 21.4375 41.90625 20.730469 41.671875 20 41.429688 Z M 20 41.429688 "/>
<path style=" stroke:none;fill-rule:nonzero;fill:rgb(57.254905%,12.941177%,4.705882%);fill-opacity:1;" d="M 27.144531 7.144531 C 28.320312 7.144531 29.5 7.144531 30.714844 7.144531 C 30.714844 8.085938 30.714844 9.027344 30.714844 10 C 31.65625 10 32.601562 10 33.570312 10 C 33.335938 11.179688 33.101562 12.355469 32.855469 13.570312 C 30.972656 13.335938 29.085938 13.101562 27.144531 12.855469 C 27.144531 10.972656 27.144531 9.085938 27.144531 7.144531 Z M 27.144531 7.144531 "/>
<path style=" stroke:none;fill-rule:nonzero;fill:rgb(99.607843%,87.058824%,72.549021%);fill-opacity:1;" d="M 17.144531 17.144531 C 17.613281 17.144531 18.085938 17.144531 18.570312 17.144531 C 18.808594 18.792969 19.042969 20.441406 19.285156 22.144531 C 19.519531 22.144531 19.757812 22.144531 20 22.144531 C 20.167969 25.585938 19.609375 28.1875 18.570312 31.429688 C 17.863281 31.429688 17.15625 31.429688 16.429688 31.429688 C 16.664062 26.714844 16.898438 22 17.144531 17.144531 Z M 17.144531 17.144531 "/>
<path style=" stroke:none;fill-rule:nonzero;fill:rgb(96.078432%,17.254902%,3.137255%);fill-opacity:1;" d="M 20 22.144531 C 23.0625 22.144531 26.128906 22.144531 29.285156 22.144531 C 29.285156 23.085938 29.285156 24.027344 29.285156 25 C 26.222656 25 23.15625 25 20 25 C 20 24.058594 20 23.113281 20 22.144531 Z M 20 22.144531 "/>
<path style=" stroke:none;fill-rule:nonzero;fill:rgb(0%,14.117648%,27.450982%);fill-opacity:1;" d="M 20 0.714844 C 23.300781 0.714844 26.601562 0.714844 30 0.714844 C 30 1.421875 30 2.128906 30 2.855469 C 26.464844 2.855469 22.929688 2.855469 19.285156 2.855469 C 19.519531 2.148438 19.757812 1.441406 20 0.714844 Z M 20 0.714844 "/>
<path style=" stroke:none;fill-rule:nonzero;fill:rgb(41.176471%,43.137255%,48.627451%);fill-opacity:1;" d="M 15.714844 5 C 15.949219 5 16.1875 5 16.429688 5 C 16.429688 7.828125 16.429688 10.65625 16.429688 13.570312 C 14.542969 13.570312 12.65625 13.570312 10.714844 13.570312 C 11.421875 13.335938 12.128906 13.101562 12.855469 12.855469 C 12.855469 11.679688 12.855469 10.5 12.855469 9.285156 C 13.800781 9.285156 14.742188 9.285156 15.714844 9.285156 C 15.714844 7.871094 15.714844 6.457031 15.714844 5 Z M 15.714844 5 "/>
<path style=" stroke:none;fill-rule:nonzero;fill:rgb(2.352941%,14.117648%,25.882354%);fill-opacity:1;" d="M 16.429688 39.285156 C 18.550781 39.285156 20.671875 39.285156 22.855469 39.285156 C 22.855469 39.992188 22.855469 40.699219 22.855469 41.429688 C 19.675781 41.78125 19.675781 41.78125 16.429688 42.144531 C 16.429688 41.199219 16.429688 40.257812 16.429688 39.285156 Z M 16.429688 39.285156 "/>
<path style=" stroke:none;fill-rule:nonzero;fill:rgb(0%,12.54902%,26.274511%);fill-opacity:1;" d="M 25.714844 39.285156 C 28.070312 39.285156 30.429688 39.285156 32.855469 39.285156 C 32.855469 39.992188 32.855469 40.699219 32.855469 41.429688 C 30.5 41.429688 28.144531 41.429688 25.714844 41.429688 C 25.714844 40.722656 25.714844 40.015625 25.714844 39.285156 Z M 25.714844 39.285156 "/>
<path style=" stroke:none;fill-rule:nonzero;fill:rgb(100%,93.725491%,73.725492%);fill-opacity:1;" d="M 20 4.285156 C 22.355469 4.285156 24.714844 4.285156 27.144531 4.285156 C 27.144531 4.992188 27.144531 5.699219 27.144531 6.429688 C 24.785156 6.429688 22.429688 6.429688 20 6.429688 C 20 5.722656 20 5.015625 20 4.285156 Z M 20 4.285156 "/>
<path style=" stroke:none;fill-rule:nonzero;fill:rgb(0.392157%,12.941177%,26.666668%);fill-opacity:1;" d="M 30.714844 3.570312 C 31.421875 3.570312 32.128906 3.570312 32.855469 3.570312 C 33.09375 5.691406 33.328125 7.8125 33.570312 10 C 32.628906 10 31.6875 10 30.714844 10 C 30.714844 7.878906 30.714844 5.757812 30.714844 3.570312 Z M 30.714844 3.570312 "/>
<path style=" stroke:none;fill-rule:nonzero;fill:rgb(82.352942%,17.647059%,3.921569%);fill-opacity:1;" d="M 25.714844 35.714844 C 27.128906 35.714844 28.542969 35.714844 30 35.714844 C 30 36.65625 30 37.601562 30 38.570312 C 28.820312 38.570312 27.644531 38.570312 26.429688 38.570312 C 26.191406 37.628906 25.957031 36.6875 25.714844 35.714844 Z M 25.714844 35.714844 "/>
<path style=" stroke:none;fill-rule:nonzero;fill:rgb(0%,12.941177%,25.882354%);fill-opacity:1;" d="M 36.429688 3.570312 C 37.136719 3.570312 37.84375 3.570312 38.570312 3.570312 C 38.570312 5.457031 38.570312 7.34375 38.570312 9.285156 C 38.101562 9.285156 37.628906 9.285156 37.144531 9.285156 C 36.90625 7.398438 36.671875 5.515625 36.429688 3.570312 Z M 36.429688 3.570312 "/>
<path style=" stroke:none;fill-rule:nonzero;fill:rgb(69.01961%,15.686275%,3.921569%);fill-opacity:1;" d="M 32.855469 35 C 32.855469 36.179688 32.855469 37.355469 32.855469 38.570312 C 31.914062 38.570312 30.972656 38.570312 30 38.570312 C 30 37.628906 30 36.6875 30 35.714844 C 32.144531 35 32.144531 35 32.855469 35 Z M 32.855469 35 "/>
</g>
</svg>
