<?xml version="1.0" encoding="UTF-8"?>
<svg xmlns="http://www.w3.org/2000/svg" xmlns:xlink="http://www.w3.org/1999/xlink" width="50px" height="50px" viewBox="0 0 50 50" version="1.1">
<g id="surface1">
<path style=" stroke:none;fill-rule:nonzero;fill:rgb(89.019608%,71.372551%,50.980395%);fill-opacity:1;" d="M 7.144531 2.144531 C 19.871094 2.144531 32.601562 2.144531 45.714844 2.144531 C 45.714844 17.9375 45.714844 33.730469 45.714844 50 C 32.042969 50 18.371094 50 4.285156 50 C 4.285156 35.386719 4.285156 20.769531 4.285156 5.714844 C 5.230469 5.714844 6.171875 5.714844 7.144531 5.714844 C 7.144531 4.535156 7.144531 3.355469 7.144531 2.144531 Z M 7.144531 2.144531 "/>
<path style=" stroke:none;fill-rule:nonzero;fill:rgb(94.509804%,19.607843%,5.098039%);fill-opacity:1;" d="M 20.714844 9.285156 C 23.777344 9.285156 26.84375 9.285156 30 9.285156 C 30 12.820312 30 16.355469 30 20 C 33.0625 20 36.128906 20 39.285156 20 C 39.285156 23.535156 39.285156 27.070312 39.285156 30.714844 C 36.222656 30.714844 33.15625 30.714844 30 30.714844 C 30 34.722656 30 38.730469 30 42.855469 C 26.9375 42.855469 23.871094 42.855469 20.714844 42.855469 C 20.714844 38.851562 20.714844 34.84375 20.714844 30.714844 C 18.613281 30.738281 18.613281 30.738281 16.472656 30.757812 C 15.03125 30.773438 13.585938 30.765625 12.144531 30.714844 C 11.429688 30 11.429688 30 11.359375 27.742188 C 11.371094 26.363281 11.371094 26.363281 11.382812 24.957031 C 11.390625 24.035156 11.398438 23.113281 11.402344 22.164062 C 11.410156 21.449219 11.421875 20.734375 11.429688 20 C 14.492188 20 17.558594 20 20.714844 20 C 20.714844 16.464844 20.714844 12.929688 20.714844 9.285156 Z M 20.714844 9.285156 "/>
<path style=" stroke:none;fill-rule:nonzero;fill:rgb(100%,87.450981%,73.333335%);fill-opacity:1;" d="M 7.855469 6.429688 C 17.992188 6.429688 28.128906 6.429688 38.570312 6.429688 C 38.570312 10.671875 38.570312 14.914062 38.570312 19.285156 C 35.980469 19.285156 33.386719 19.285156 30.714844 19.285156 C 30.714844 15.984375 30.714844 12.6875 30.714844 9.285156 C 27.414062 9.285156 24.113281 9.285156 20.714844 9.285156 C 20.714844 12.820312 20.714844 16.355469 20.714844 20 C 17.648438 20 14.585938 20 11.429688 20 C 11.664062 23.300781 11.898438 26.601562 12.144531 30 C 14.972656 30.234375 17.800781 30.472656 20.714844 30.714844 C 20.714844 34.484375 20.714844 38.257812 20.714844 42.144531 C 16.707031 42.144531 12.699219 42.144531 8.570312 42.144531 C 8.570312 43.320312 8.570312 44.5 8.570312 45.714844 C 8.335938 45.714844 8.101562 45.714844 7.855469 45.714844 C 7.855469 32.75 7.855469 19.785156 7.855469 6.429688 Z M 7.855469 6.429688 "/>
<path style=" stroke:none;fill-rule:nonzero;fill:rgb(3.921569%,16.078432%,27.843139%);fill-opacity:1;" d="M 7.855469 2.855469 C 20.113281 2.855469 32.371094 2.855469 45 2.855469 C 45 18.179688 45 33.5 45 49.285156 C 41.050781 49.417969 37.105469 49.550781 33.035156 49.6875 C 31.824219 49.730469 30.609375 49.773438 29.363281 49.820312 C 21.132812 50.070312 13.289062 49.699219 5 49.285156 C 5 35.144531 5 21 5 6.429688 C 5.941406 6.429688 6.886719 6.429688 7.855469 6.429688 C 7.855469 19.394531 7.855469 32.355469 7.855469 45.714844 C 19.171875 45.714844 30.484375 45.714844 42.144531 45.714844 C 42.144531 32.515625 42.144531 19.3125 42.144531 5.714844 C 30.828125 5.714844 19.515625 5.714844 7.855469 5.714844 C 7.855469 4.769531 7.855469 3.828125 7.855469 2.855469 Z M 7.855469 2.855469 "/>
<path style=" stroke:none;fill-rule:nonzero;fill:rgb(59.215689%,56.862748%,52.941179%);fill-opacity:1;" d="M 7.144531 2.144531 C 19.871094 2.144531 32.601562 2.144531 45.714844 2.144531 C 45.714844 17.9375 45.714844 33.730469 45.714844 50 C 37.230469 50 28.742188 50 20 50 C 20 49.765625 20 49.527344 20 49.285156 C 28.25 49.285156 36.5 49.285156 45 49.285156 C 45 33.964844 45 18.644531 45 2.855469 C 32.742188 2.855469 20.484375 2.855469 7.855469 2.855469 C 7.855469 3.800781 7.855469 4.742188 7.855469 5.714844 C 19.171875 5.714844 30.484375 5.714844 42.144531 5.714844 C 42.144531 18.914062 42.144531 32.113281 42.144531 45.714844 C 31.0625 45.714844 19.984375 45.714844 8.570312 45.714844 C 8.570312 44.535156 8.570312 43.355469 8.570312 42.144531 C 12.578125 42.144531 16.585938 42.144531 20.714844 42.144531 C 20.714844 42.378906 20.714844 42.613281 20.714844 42.855469 C 16.472656 43.210938 16.472656 43.210938 12.144531 43.570312 C 12.144531 43.808594 12.144531 44.042969 12.144531 44.285156 C 26.640625 44.640625 26.640625 44.640625 41.429688 45 C 41.191406 34.394531 40.957031 23.785156 40.714844 12.855469 C 40.242188 12.855469 39.769531 12.855469 39.285156 12.855469 C 39.285156 14.980469 39.285156 17.101562 39.285156 19.285156 C 39.050781 19.285156 38.8125 19.285156 38.570312 19.285156 C 38.570312 15.042969 38.570312 10.800781 38.570312 6.429688 C 27.492188 6.429688 16.414062 6.429688 5 6.429688 C 5 20.570312 5 34.714844 5 49.285156 C 9.714844 49.285156 14.429688 49.285156 19.285156 49.285156 C 19.285156 49.519531 19.285156 49.757812 19.285156 50 C 14.335938 50 9.386719 50 4.285156 50 C 4.285156 35.386719 4.285156 20.769531 4.285156 5.714844 C 5.230469 5.714844 6.171875 5.714844 7.144531 5.714844 C 7.144531 4.535156 7.144531 3.355469 7.144531 2.144531 Z M 7.144531 2.144531 "/>
<path style=" stroke:none;fill-rule:nonzero;fill:rgb(99.607843%,90.588236%,66.666669%);fill-opacity:1;" d="M 12.855469 6.429688 C 21.34375 6.429688 29.828125 6.429688 38.570312 6.429688 C 38.570312 10.671875 38.570312 14.914062 38.570312 19.285156 C 35.980469 19.285156 33.386719 19.285156 30.714844 19.285156 C 30.714844 15.984375 30.714844 12.6875 30.714844 9.285156 C 27.414062 9.285156 24.113281 9.285156 20.714844 9.285156 C 20.714844 12.820312 20.714844 16.355469 20.714844 20 C 18.355469 20 16 20 13.570312 20 C 12.867188 15.335938 12.855469 11.265625 12.855469 6.429688 Z M 12.855469 6.429688 "/>
<path style=" stroke:none;fill-rule:nonzero;fill:rgb(86.666667%,16.862746%,3.529412%);fill-opacity:1;" d="M 30 20 C 33.0625 20 36.128906 20 39.285156 20 C 39.285156 23.535156 39.285156 27.070312 39.285156 30.714844 C 36.222656 30.714844 33.15625 30.714844 30 30.714844 C 30 27.179688 30 23.644531 30 20 Z M 30 20 "/>
<path style=" stroke:none;fill-rule:nonzero;fill:rgb(100%,90.588236%,66.274512%);fill-opacity:1;" d="M 30.714844 31.429688 C 33.308594 31.429688 35.898438 31.429688 38.570312 31.429688 C 38.570312 34.964844 38.570312 38.5 38.570312 42.144531 C 35.980469 42.144531 33.386719 42.144531 30.714844 42.144531 C 30.714844 38.605469 30.714844 35.070312 30.714844 31.429688 Z M 30.714844 31.429688 "/>
<path style=" stroke:none;fill-rule:nonzero;fill:rgb(100%,89.411765%,65.882355%);fill-opacity:1;" d="M 12.144531 30.714844 C 14.972656 30.714844 17.800781 30.714844 20.714844 30.714844 C 20.714844 34.484375 20.714844 38.257812 20.714844 42.144531 C 18.355469 42.144531 16 42.144531 13.570312 42.144531 C 13.570312 38.605469 13.570312 35.070312 13.570312 31.429688 C 13.101562 31.191406 12.628906 30.957031 12.144531 30.714844 Z M 12.144531 30.714844 "/>
<path style=" stroke:none;fill-rule:nonzero;fill:rgb(99.607843%,96.078432%,83.529413%);fill-opacity:1;" d="M 7.855469 6.429688 C 9.507812 6.429688 11.15625 6.429688 12.855469 6.429688 C 13.09375 10.90625 13.328125 15.386719 13.570312 20 C 12.863281 20 12.15625 20 11.429688 20 C 11.429688 23.0625 11.429688 26.128906 11.429688 29.285156 C 11.191406 29.285156 10.957031 29.285156 10.714844 29.285156 C 10.714844 21.980469 10.714844 14.671875 10.714844 7.144531 C 10.007812 7.144531 9.300781 7.144531 8.570312 7.144531 C 8.570312 19.871094 8.570312 32.601562 8.570312 45.714844 C 8.335938 45.714844 8.101562 45.714844 7.855469 45.714844 C 7.855469 32.75 7.855469 19.785156 7.855469 6.429688 Z M 7.855469 6.429688 "/>
<path style=" stroke:none;fill-rule:nonzero;fill:rgb(81.568629%,20%,5.490196%);fill-opacity:1;" d="M 20.714844 37.144531 C 23.777344 37.378906 26.84375 37.613281 30 37.855469 C 30 39.507812 30 41.15625 30 42.855469 C 26.9375 42.855469 23.871094 42.855469 20.714844 42.855469 C 20.714844 40.972656 20.714844 39.085938 20.714844 37.144531 Z M 20.714844 37.144531 "/>
<path style=" stroke:none;fill-rule:nonzero;fill:rgb(100%,94.117647%,77.64706%);fill-opacity:1;" d="M 10.714844 30.714844 C 11.65625 30.949219 12.601562 31.1875 13.570312 31.429688 C 13.570312 34.964844 13.570312 38.5 13.570312 42.144531 C 12.863281 42.144531 12.15625 42.144531 11.429688 42.144531 C 10.773438 38.296875 10.632812 34.613281 10.714844 30.714844 Z M 10.714844 30.714844 "/>
<path style=" stroke:none;fill-rule:nonzero;fill:rgb(83.529413%,79.607844%,63.137257%);fill-opacity:1;" d="M 38.570312 6.429688 C 39.75 6.429688 40.929688 6.429688 42.144531 6.429688 C 42.144531 8.078125 42.144531 9.730469 42.144531 11.429688 C 40.730469 12.136719 40.730469 12.136719 39.285156 12.855469 C 39.285156 14.980469 39.285156 17.101562 39.285156 19.285156 C 39.050781 19.285156 38.8125 19.285156 38.570312 19.285156 C 38.570312 15.042969 38.570312 10.800781 38.570312 6.429688 Z M 38.570312 6.429688 "/>
<path style=" stroke:none;fill-rule:nonzero;fill:rgb(75.294119%,73.725492%,61.56863%);fill-opacity:1;" d="M 39.285156 7.144531 C 39.992188 7.144531 40.699219 7.144531 41.429688 7.144531 C 41.429688 8.792969 41.429688 10.441406 41.429688 12.144531 C 40.722656 12.378906 40.015625 12.613281 39.285156 12.855469 C 39.285156 10.972656 39.285156 9.085938 39.285156 7.144531 Z M 39.285156 7.144531 "/>
<path style=" stroke:none;fill-rule:nonzero;fill:rgb(100%,81.960785%,65.098041%);fill-opacity:1;" d="M 8.570312 37.855469 C 9.277344 37.855469 9.984375 37.855469 10.714844 37.855469 C 10.714844 39.269531 10.714844 40.6875 10.714844 42.144531 C 10.007812 42.144531 9.300781 42.144531 8.570312 42.144531 C 8.570312 40.730469 8.570312 39.3125 8.570312 37.855469 Z M 8.570312 37.855469 "/>
</g>
</svg>
