<?xml version="1.0" encoding="UTF-8"?>
<svg xmlns="http://www.w3.org/2000/svg" xmlns:xlink="http://www.w3.org/1999/xlink" width="50px" height="50px" viewBox="0 0 50 50" version="1.1">
<g id="surface1">
<path style=" stroke:none;fill-rule:nonzero;fill:rgb(81.176472%,81.176472%,78.823531%);fill-opacity:1;" d="M 17.144531 0 C 21.621094 0 26.101562 0 30.714844 0 C 30.714844 0.941406 30.714844 1.886719 30.714844 2.855469 C 31.65625 2.855469 32.601562 2.855469 33.570312 2.855469 C 33.570312 6.394531 33.570312 9.929688 33.570312 13.570312 C 32.628906 13.570312 31.6875 13.570312 30.714844 13.570312 C 30.714844 14.277344 30.714844 14.984375 30.714844 15.714844 C 31.65625 15.714844 32.601562 15.714844 33.570312 15.714844 C 33.570312 16.894531 33.570312 18.070312 33.570312 19.285156 C 34.515625 19.285156 35.457031 19.285156 36.429688 19.285156 C 36.429688 19.992188 36.429688 20.699219 36.429688 21.429688 C 37.371094 21.429688 38.3125 21.429688 39.285156 21.429688 C 39.285156 25.4375 39.285156 29.441406 39.285156 33.570312 C 38.34375 33.570312 37.398438 33.570312 36.429688 33.570312 C 36.191406 34.75 35.957031 35.929688 35.714844 37.144531 C 35.007812 37.144531 34.300781 37.144531 33.570312 37.144531 C 33.570312 39.027344 33.570312 40.914062 33.570312 42.855469 C 34.515625 42.855469 35.457031 42.855469 36.429688 42.855469 C 36.429688 45.214844 36.429688 47.570312 36.429688 50 C 29.121094 50 21.8125 50 14.285156 50 C 14.285156 47.644531 14.285156 45.285156 14.285156 42.855469 C 15.230469 42.855469 16.171875 42.855469 17.144531 42.855469 C 17.144531 41.207031 17.144531 39.558594 17.144531 37.855469 C 16.6875 37.769531 16.230469 37.679688 15.757812 37.589844 C 15.273438 37.441406 14.785156 37.292969 14.285156 37.144531 C 14.050781 36.671875 13.8125 36.199219 13.570312 35.714844 C 13.808594 35.242188 14.042969 34.769531 14.285156 34.285156 C 13.34375 34.285156 12.398438 34.285156 11.429688 34.285156 C 10.589844 32.609375 10.632812 31.617188 10.644531 29.75 C 10.648438 29.140625 10.648438 28.535156 10.652344 27.90625 C 10.65625 27.273438 10.664062 26.636719 10.667969 25.980469 C 10.671875 25.339844 10.675781 24.699219 10.679688 24.039062 C 10.6875 22.457031 10.699219 20.871094 10.714844 19.285156 C 11.65625 19.050781 12.601562 18.8125 13.570312 18.570312 C 13.808594 17.628906 14.042969 16.6875 14.285156 15.714844 C 15.230469 15.714844 16.171875 15.714844 17.144531 15.714844 C 17.144531 15.007812 17.144531 14.300781 17.144531 13.570312 C 16.199219 13.570312 15.257812 13.570312 14.285156 13.570312 C 14.285156 10.035156 14.285156 6.5 14.285156 2.855469 C 15.230469 2.855469 16.171875 2.855469 17.144531 2.855469 C 17.144531 1.914062 17.144531 0.972656 17.144531 0 Z M 17.144531 0 "/>
<path style=" stroke:none;fill-rule:nonzero;fill:rgb(23.529412%,33.725491%,40.784314%);fill-opacity:1;" d="M 32.855469 19.285156 C 34.035156 19.285156 35.214844 19.285156 36.429688 19.285156 C 36.429688 19.992188 36.429688 20.699219 36.429688 21.429688 C 37.371094 21.429688 38.3125 21.429688 39.285156 21.429688 C 39.285156 25.4375 39.285156 29.441406 39.285156 33.570312 C 38.34375 33.570312 37.398438 33.570312 36.429688 33.570312 C 36.191406 34.75 35.957031 35.929688 35.714844 37.144531 C 35.007812 37.144531 34.300781 37.144531 33.570312 37.144531 C 33.570312 39.027344 33.570312 40.914062 33.570312 42.855469 C 34.515625 42.855469 35.457031 42.855469 36.429688 42.855469 C 36.429688 45.214844 36.429688 47.570312 36.429688 50 C 29.121094 50 21.8125 50 14.285156 50 C 14.285156 47.878906 14.285156 45.757812 14.285156 43.570312 C 15.464844 43.570312 16.644531 43.570312 17.855469 43.570312 C 17.855469 44.515625 17.855469 45.457031 17.855469 46.429688 C 19.742188 46.429688 21.628906 46.429688 23.570312 46.429688 C 23.570312 43.128906 23.570312 39.828125 23.570312 36.429688 C 24.75 36.429688 25.929688 36.429688 27.144531 36.429688 C 27.144531 39.730469 27.144531 43.027344 27.144531 46.429688 C 29.027344 46.429688 30.914062 46.429688 32.855469 46.429688 C 32.855469 45.484375 32.855469 44.542969 32.855469 43.570312 C 31.914062 43.570312 30.972656 43.570312 30 43.570312 C 30 40.269531 30 36.972656 30 33.570312 C 28.585938 33.570312 27.171875 33.570312 25.714844 33.570312 C 25.949219 31.921875 26.1875 30.269531 26.429688 28.570312 C 27.136719 28.570312 27.84375 28.570312 28.570312 28.570312 C 28.570312 27.628906 28.570312 26.6875 28.570312 25.714844 C 27.863281 25.714844 27.15625 25.714844 26.429688 25.714844 C 26.429688 24.535156 26.429688 23.355469 26.429688 22.144531 C 28.550781 22.144531 30.671875 22.144531 32.855469 22.144531 C 32.855469 21.199219 32.855469 20.257812 32.855469 19.285156 Z M 32.855469 19.285156 "/>
<path style=" stroke:none;fill-rule:nonzero;fill:rgb(3.921569%,18.82353%,30.19608%);fill-opacity:1;" d="M 11.429688 20 C 12.605469 20 13.785156 20 15 20 C 15 20.707031 15 21.414062 15 22.144531 C 17.59375 22.144531 20.1875 22.144531 22.855469 22.144531 C 22.855469 23.320312 22.855469 24.5 22.855469 25.714844 C 21.914062 25.714844 20.972656 25.714844 20 25.714844 C 20 26.65625 20 27.601562 20 28.570312 C 20.941406 28.570312 21.886719 28.570312 22.855469 28.570312 C 22.855469 29.75 22.855469 30.929688 22.855469 32.144531 C 23.800781 32.144531 24.742188 32.144531 25.714844 32.144531 C 25.714844 32.613281 25.714844 33.085938 25.714844 33.570312 C 27.128906 33.570312 28.542969 33.570312 30 33.570312 C 30 36.871094 30 40.171875 30 43.570312 C 30.941406 43.570312 31.886719 43.570312 32.855469 43.570312 C 32.855469 44.515625 32.855469 45.457031 32.855469 46.429688 C 30.972656 46.429688 29.085938 46.429688 27.144531 46.429688 C 27.144531 43.128906 27.144531 39.828125 27.144531 36.429688 C 25.964844 36.429688 24.785156 36.429688 23.570312 36.429688 C 23.570312 39.730469 23.570312 43.027344 23.570312 46.429688 C 21.6875 46.429688 19.800781 46.429688 17.855469 46.429688 C 17.855469 45.484375 17.855469 44.542969 17.855469 43.570312 C 16.679688 43.570312 15.5 43.570312 14.285156 43.570312 C 15.699219 43.21875 15.699219 43.21875 17.144531 42.855469 C 17.144531 41.207031 17.144531 39.558594 17.144531 37.855469 C 16.6875 37.769531 16.230469 37.679688 15.757812 37.589844 C 15.03125 37.367188 15.03125 37.367188 14.285156 37.144531 C 14.050781 36.671875 13.8125 36.199219 13.570312 35.714844 C 13.808594 35.242188 14.042969 34.769531 14.285156 34.285156 C 13.34375 34.285156 12.398438 34.285156 11.429688 34.285156 C 11.429688 29.570312 11.429688 24.855469 11.429688 20 Z M 11.429688 20 "/>
<path style=" stroke:none;fill-rule:nonzero;fill:rgb(63.137257%,62.352943%,52.549022%);fill-opacity:1;" d="M 17.855469 0.714844 C 21.863281 0.714844 25.871094 0.714844 30 0.714844 C 30 1.65625 30 2.601562 30 3.570312 C 30.941406 3.570312 31.886719 3.570312 32.855469 3.570312 C 32.855469 6.636719 32.855469 9.699219 32.855469 12.855469 C 31.914062 12.855469 30.972656 12.855469 30 12.855469 C 30 14.035156 30 15.214844 30 16.429688 C 30.941406 16.429688 31.886719 16.429688 32.855469 16.429688 C 32.855469 17.371094 32.855469 18.3125 32.855469 19.285156 C 26.964844 19.285156 21.070312 19.285156 15 19.285156 C 15 18.34375 15 17.398438 15 16.429688 C 15.941406 16.429688 16.886719 16.429688 17.855469 16.429688 C 17.855469 15.25 17.855469 14.070312 17.855469 12.855469 C 19.035156 12.855469 20.214844 12.855469 21.429688 12.855469 C 21.429688 13.800781 21.429688 14.742188 21.429688 15.714844 C 22.84375 15.714844 24.257812 15.714844 25.714844 15.714844 C 25.714844 14.769531 25.714844 13.828125 25.714844 12.855469 C 26.1875 12.855469 26.65625 12.855469 27.144531 12.855469 C 27.144531 12.148438 27.144531 11.441406 27.144531 10.714844 C 26.671875 10.714844 26.199219 10.714844 25.714844 10.714844 C 25.714844 9.535156 25.714844 8.355469 25.714844 7.144531 C 26.421875 7.144531 27.128906 7.144531 27.855469 7.144531 C 27.855469 5.964844 27.855469 4.785156 27.855469 3.570312 C 24.558594 3.570312 21.257812 3.570312 17.855469 3.570312 C 17.855469 2.628906 17.855469 1.6875 17.855469 0.714844 Z M 17.855469 0.714844 "/>
<path style=" stroke:none;fill-rule:nonzero;fill:rgb(90.196079%,84.313726%,65.098041%);fill-opacity:1;" d="M 15 3.570312 C 19.242188 3.570312 23.484375 3.570312 27.855469 3.570312 C 27.855469 4.75 27.855469 5.929688 27.855469 7.144531 C 27.148438 7.144531 26.441406 7.144531 25.714844 7.144531 C 25.714844 8.320312 25.714844 9.5 25.714844 10.714844 C 26.1875 10.714844 26.65625 10.714844 27.144531 10.714844 C 27.144531 11.421875 27.144531 12.128906 27.144531 12.855469 C 26.671875 12.855469 26.199219 12.855469 25.714844 12.855469 C 25.714844 13.800781 25.714844 14.742188 25.714844 15.714844 C 24.300781 15.714844 22.886719 15.714844 21.429688 15.714844 C 21.429688 14.769531 21.429688 13.828125 21.429688 12.855469 C 19.308594 12.855469 17.1875 12.855469 15 12.855469 C 15 9.792969 15 6.730469 15 3.570312 Z M 15 3.570312 "/>
<path style=" stroke:none;fill-rule:nonzero;fill:rgb(68.235296%,65.490198%,57.647061%);fill-opacity:1;" d="M 20 33.570312 C 23.300781 33.570312 26.601562 33.570312 30 33.570312 C 30 36.871094 30 40.171875 30 43.570312 C 30.941406 43.570312 31.886719 43.570312 32.855469 43.570312 C 32.855469 44.515625 32.855469 45.457031 32.855469 46.429688 C 30.972656 46.429688 29.085938 46.429688 27.144531 46.429688 C 27.144531 43.128906 27.144531 39.828125 27.144531 36.429688 C 25.964844 36.429688 24.785156 36.429688 23.570312 36.429688 C 23.570312 39.730469 23.570312 43.027344 23.570312 46.429688 C 21.6875 46.429688 19.800781 46.429688 17.855469 46.429688 C 17.855469 45.484375 17.855469 44.542969 17.855469 43.570312 C 16.679688 43.570312 15.5 43.570312 14.285156 43.570312 C 15.230469 43.335938 16.171875 43.101562 17.144531 42.855469 C 17.144531 41.207031 17.144531 39.558594 17.144531 37.855469 C 16.4375 37.621094 15.730469 37.386719 15 37.144531 C 15.941406 37.144531 16.886719 37.144531 17.855469 37.144531 C 17.855469 39.027344 17.855469 40.914062 17.855469 42.855469 C 18.5625 42.855469 19.269531 42.855469 20 42.855469 C 20 39.792969 20 36.730469 20 33.570312 Z M 20 33.570312 "/>
<path style=" stroke:none;fill-rule:nonzero;fill:rgb(1.176471%,14.117648%,27.058825%);fill-opacity:1;" d="M 23.570312 36.429688 C 24.75 36.429688 25.929688 36.429688 27.144531 36.429688 C 27.144531 39.730469 27.144531 43.027344 27.144531 46.429688 C 29.027344 46.429688 30.914062 46.429688 32.855469 46.429688 C 32.855469 45.484375 32.855469 44.542969 32.855469 43.570312 C 33.800781 43.570312 34.742188 43.570312 35.714844 43.570312 C 35.714844 45.457031 35.714844 47.34375 35.714844 49.285156 C 28.644531 49.285156 21.570312 49.285156 14.285156 49.285156 C 14.285156 47.398438 14.285156 45.515625 14.285156 43.570312 C 15.464844 43.570312 16.644531 43.570312 17.855469 43.570312 C 17.855469 44.515625 17.855469 45.457031 17.855469 46.429688 C 19.742188 46.429688 21.628906 46.429688 23.570312 46.429688 C 23.570312 43.128906 23.570312 39.828125 23.570312 36.429688 Z M 23.570312 36.429688 "/>
<path style=" stroke:none;fill-rule:nonzero;fill:rgb(52.156866%,56.078434%,57.647061%);fill-opacity:1;" d="M 32.855469 19.285156 C 34.035156 19.285156 35.214844 19.285156 36.429688 19.285156 C 36.429688 19.992188 36.429688 20.699219 36.429688 21.429688 C 37.371094 21.429688 38.3125 21.429688 39.285156 21.429688 C 39.285156 25.4375 39.285156 29.441406 39.285156 33.570312 C 38.34375 33.570312 37.398438 33.570312 36.429688 33.570312 C 36.191406 34.515625 35.957031 35.457031 35.714844 36.429688 C 35.714844 35.25 35.714844 34.070312 35.714844 32.855469 C 34.769531 32.855469 33.828125 32.855469 32.855469 32.855469 C 32.855469 28.378906 32.855469 23.898438 32.855469 19.285156 Z M 32.855469 19.285156 "/>
<path style=" stroke:none;fill-rule:nonzero;fill:rgb(4.313726%,17.647059%,29.411766%);fill-opacity:1;" d="M 17.855469 12.855469 C 19.035156 12.855469 20.214844 12.855469 21.429688 12.855469 C 21.429688 13.800781 21.429688 14.742188 21.429688 15.714844 C 22.84375 15.714844 24.257812 15.714844 25.714844 15.714844 C 25.714844 14.769531 25.714844 13.828125 25.714844 12.855469 C 27.128906 12.855469 28.542969 12.855469 30 12.855469 C 30 14.035156 30 15.214844 30 16.429688 C 30.941406 16.429688 31.886719 16.429688 32.855469 16.429688 C 32.855469 17.371094 32.855469 18.3125 32.855469 19.285156 C 26.964844 19.285156 21.070312 19.285156 15 19.285156 C 15 18.34375 15 17.398438 15 16.429688 C 15.941406 16.429688 16.886719 16.429688 17.855469 16.429688 C 17.855469 15.25 17.855469 14.070312 17.855469 12.855469 Z M 17.855469 12.855469 "/>
<path style=" stroke:none;fill-rule:nonzero;fill:rgb(96.078432%,89.411765%,71.372551%);fill-opacity:1;" d="M 28.707031 19.242188 C 29.871094 19.25 29.871094 19.25 31.058594 19.261719 C 31.652344 19.269531 32.246094 19.277344 32.855469 19.285156 C 32.855469 20.230469 32.855469 21.171875 32.855469 22.144531 C 30.734375 22.144531 28.613281 22.144531 26.429688 22.144531 C 26.429688 23.320312 26.429688 24.5 26.429688 25.714844 C 27.136719 25.714844 27.84375 25.714844 28.570312 25.714844 C 28.570312 26.65625 28.570312 27.601562 28.570312 28.570312 C 27.863281 28.570312 27.15625 28.570312 26.429688 28.570312 C 26.429688 29.75 26.429688 30.929688 26.429688 32.144531 C 25.25 32.144531 24.070312 32.144531 22.855469 32.144531 C 22.855469 30.964844 22.855469 29.785156 22.855469 28.570312 C 21.914062 28.570312 20.972656 28.570312 20 28.570312 C 20 27.628906 20 26.6875 20 25.714844 C 20.941406 25.714844 21.886719 25.714844 22.855469 25.714844 C 22.621094 23.828125 22.386719 21.941406 22.144531 20 C 24.488281 19.21875 26.242188 19.214844 28.707031 19.242188 Z M 28.707031 19.242188 "/>
<path style=" stroke:none;fill-rule:nonzero;fill:rgb(82.352942%,74.901962%,60.392159%);fill-opacity:1;" d="M 11.429688 20 C 12.605469 20 13.785156 20 15 20 C 15 20.707031 15 21.414062 15 22.144531 C 15.707031 22.144531 16.414062 22.144531 17.144531 22.144531 C 17.144531 25.914062 17.144531 29.6875 17.144531 33.570312 C 16.4375 33.570312 15.730469 33.570312 15 33.570312 C 15 34.75 15 35.929688 15 37.144531 C 14.527344 36.671875 14.058594 36.199219 13.570312 35.714844 C 13.808594 35.242188 14.042969 34.769531 14.285156 34.285156 C 13.34375 34.285156 12.398438 34.285156 11.429688 34.285156 C 11.429688 29.570312 11.429688 24.855469 11.429688 20 Z M 11.429688 20 "/>
<path style=" stroke:none;fill-rule:nonzero;fill:rgb(97.647059%,78.039217%,58.823532%);fill-opacity:1;" d="M 21.429688 34.285156 C 23.078125 34.285156 24.730469 34.285156 26.429688 34.285156 C 26.429688 34.992188 26.429688 35.699219 26.429688 36.429688 C 25.484375 36.429688 24.542969 36.429688 23.570312 36.429688 C 23.570312 39.730469 23.570312 43.027344 23.570312 46.429688 C 21.6875 46.429688 19.800781 46.429688 17.855469 46.429688 C 17.855469 45.484375 17.855469 44.542969 17.855469 43.570312 C 19.035156 43.570312 20.214844 43.570312 21.429688 43.570312 C 21.429688 40.507812 21.429688 37.441406 21.429688 34.285156 Z M 21.429688 34.285156 "/>
<path style=" stroke:none;fill-rule:nonzero;fill:rgb(1.176471%,13.333334%,25.882354%);fill-opacity:1;" d="M 11.429688 20 C 12.371094 20 13.3125 20 14.285156 20 C 14.285156 24.480469 14.285156 28.957031 14.285156 33.570312 C 13.34375 33.570312 12.398438 33.570312 11.429688 33.570312 C 11.429688 29.09375 11.429688 24.613281 11.429688 20 Z M 11.429688 20 "/>
<path style=" stroke:none;fill-rule:nonzero;fill:rgb(10.980392%,23.529412%,32.941177%);fill-opacity:1;" d="M 17.855469 12.855469 C 19.035156 12.855469 20.214844 12.855469 21.429688 12.855469 C 21.429688 13.800781 21.429688 14.742188 21.429688 15.714844 C 22.84375 15.714844 24.257812 15.714844 25.714844 15.714844 C 25.714844 15.949219 25.714844 16.1875 25.714844 16.429688 C 24.535156 16.664062 23.355469 16.898438 22.144531 17.144531 C 22.144531 17.378906 22.144531 17.613281 22.144531 17.855469 C 24.265625 18.210938 24.265625 18.210938 26.429688 18.570312 C 26.429688 18.808594 26.429688 19.042969 26.429688 19.285156 C 22.65625 19.285156 18.886719 19.285156 15 19.285156 C 15 18.34375 15 17.398438 15 16.429688 C 15.941406 16.429688 16.886719 16.429688 17.855469 16.429688 C 17.855469 15.25 17.855469 14.070312 17.855469 12.855469 Z M 17.855469 12.855469 "/>
<path style=" stroke:none;fill-rule:nonzero;fill:rgb(5.490196%,17.254902%,29.019609%);fill-opacity:1;" d="M 17.855469 0.714844 C 21.863281 0.714844 25.871094 0.714844 30 0.714844 C 30 1.65625 30 2.601562 30 3.570312 C 25.992188 3.570312 21.984375 3.570312 17.855469 3.570312 C 17.855469 2.628906 17.855469 1.6875 17.855469 0.714844 Z M 17.855469 0.714844 "/>
<path style=" stroke:none;fill-rule:nonzero;fill:rgb(2.745098%,18.431373%,30.588236%);fill-opacity:1;" d="M 30 32.855469 C 32.855469 33.570312 32.855469 33.570312 33.75 35.042969 C 33.925781 35.5 34.105469 35.957031 34.285156 36.429688 C 33.8125 36.429688 33.34375 36.429688 32.855469 36.429688 C 32.855469 38.785156 32.855469 41.144531 32.855469 43.570312 C 31.914062 43.570312 30.972656 43.570312 30 43.570312 C 30 40.035156 30 36.5 30 32.855469 Z M 30 32.855469 "/>
<path style=" stroke:none;fill-rule:nonzero;fill:rgb(1.176471%,14.901961%,27.843139%);fill-opacity:1;" d="M 35.714844 22.144531 C 36.65625 22.144531 37.601562 22.144531 38.570312 22.144531 C 38.570312 25.679688 38.570312 29.214844 38.570312 32.855469 C 37.628906 32.855469 36.6875 32.855469 35.714844 32.855469 C 35.714844 29.320312 35.714844 25.785156 35.714844 22.144531 Z M 35.714844 22.144531 "/>
<path style=" stroke:none;fill-rule:nonzero;fill:rgb(83.529413%,70.19608%,52.156866%);fill-opacity:1;" d="M 27.144531 33.570312 C 28.085938 33.570312 29.027344 33.570312 30 33.570312 C 30 36.871094 30 40.171875 30 43.570312 C 30.941406 43.570312 31.886719 43.570312 32.855469 43.570312 C 32.855469 44.515625 32.855469 45.457031 32.855469 46.429688 C 30.972656 46.429688 29.085938 46.429688 27.144531 46.429688 C 27.378906 44.542969 27.613281 42.65625 27.855469 40.714844 C 28.328125 40.714844 28.800781 40.714844 29.285156 40.714844 C 29.285156 38.59375 29.285156 36.472656 29.285156 34.285156 C 28.578125 34.050781 27.871094 33.8125 27.144531 33.570312 Z M 27.144531 33.570312 "/>
<path style=" stroke:none;fill-rule:nonzero;fill:rgb(2.745098%,17.647059%,30.588236%);fill-opacity:1;" d="M 30 3.570312 C 30.941406 3.570312 31.886719 3.570312 32.855469 3.570312 C 32.855469 6.636719 32.855469 9.699219 32.855469 12.855469 C 31.914062 12.855469 30.972656 12.855469 30 12.855469 C 30 9.792969 30 6.730469 30 3.570312 Z M 30 3.570312 "/>
<path style=" stroke:none;fill-rule:nonzero;fill:rgb(3.921569%,17.647059%,29.803923%);fill-opacity:1;" d="M 15 3.570312 C 15.941406 3.570312 16.886719 3.570312 17.855469 3.570312 C 17.855469 6.636719 17.855469 9.699219 17.855469 12.855469 C 16.914062 12.855469 15.972656 12.855469 15 12.855469 C 15 9.792969 15 6.730469 15 3.570312 Z M 15 3.570312 "/>
<path style=" stroke:none;fill-rule:nonzero;fill:rgb(7.843138%,22.745098%,33.333334%);fill-opacity:1;" d="M 32.144531 22.144531 C 32.378906 22.144531 32.613281 22.144531 32.855469 22.144531 C 32.855469 25.679688 32.855469 29.214844 32.855469 32.855469 C 33.800781 32.855469 34.742188 32.855469 35.714844 32.855469 C 35.714844 34.269531 35.714844 35.6875 35.714844 37.144531 C 34.285156 36.160156 34.285156 36.160156 32.855469 35 C 32.855469 34.527344 32.855469 34.058594 32.855469 33.570312 C 31.914062 33.335938 30.972656 33.101562 30 32.855469 C 30.222656 32.414062 30.441406 31.972656 30.667969 31.519531 C 31.71875 28.4375 31.90625 25.375 32.144531 22.144531 Z M 32.144531 22.144531 "/>
<path style=" stroke:none;fill-rule:nonzero;fill:rgb(80.000001%,82.352942%,73.725492%);fill-opacity:1;" d="M 33.570312 22.144531 C 34.277344 22.144531 34.984375 22.144531 35.714844 22.144531 C 35.714844 25.441406 35.714844 28.742188 35.714844 32.144531 C 35.007812 32.144531 34.300781 32.144531 33.570312 32.144531 C 33.570312 28.84375 33.570312 25.542969 33.570312 22.144531 Z M 33.570312 22.144531 "/>
<path style=" stroke:none;fill-rule:nonzero;fill:rgb(0%,14.901961%,27.058825%);fill-opacity:1;" d="M 17.855469 22.144531 C 19.507812 22.144531 21.15625 22.144531 22.855469 22.144531 C 22.855469 23.320312 22.855469 24.5 22.855469 25.714844 C 21.914062 25.714844 20.972656 25.714844 20 25.714844 C 19.765625 26.65625 19.527344 27.601562 19.285156 28.570312 C 17.648438 26.117188 17.730469 25.011719 17.855469 22.144531 Z M 17.855469 22.144531 "/>
<path style=" stroke:none;fill-rule:nonzero;fill:rgb(7.058824%,21.176471%,30.980393%);fill-opacity:1;" d="M 23.570312 36.429688 C 24.75 36.429688 25.929688 36.429688 27.144531 36.429688 C 26.90625 38.785156 26.671875 41.144531 26.429688 43.570312 C 25.722656 43.570312 25.015625 43.570312 24.285156 43.570312 C 24.050781 41.214844 23.8125 38.855469 23.570312 36.429688 Z M 23.570312 36.429688 "/>
<path style=" stroke:none;fill-rule:nonzero;fill:rgb(99.215686%,90.588236%,69.803923%);fill-opacity:1;" d="M 21.429688 34.285156 C 23.078125 34.285156 24.730469 34.285156 26.429688 34.285156 C 26.429688 34.992188 26.429688 35.699219 26.429688 36.429688 C 25.484375 36.429688 24.542969 36.429688 23.570312 36.429688 C 23.570312 39.492188 23.570312 42.558594 23.570312 45.714844 C 23.335938 45.714844 23.101562 45.714844 22.855469 45.714844 C 22.855469 42.179688 22.855469 38.644531 22.855469 35 C 22.386719 34.765625 21.914062 34.527344 21.429688 34.285156 Z M 21.429688 34.285156 "/>
<path style=" stroke:none;fill-rule:nonzero;fill:rgb(78.823531%,78.823531%,69.01961%);fill-opacity:1;" d="M 26.429688 19.285156 C 28.550781 19.285156 30.671875 19.285156 32.855469 19.285156 C 32.855469 20.230469 32.855469 21.171875 32.855469 22.144531 C 30.972656 22.144531 29.085938 22.144531 27.144531 22.144531 C 28.085938 21.90625 29.027344 21.671875 30 21.429688 C 30 20.957031 30 20.484375 30 20 C 28.820312 20 27.644531 20 26.429688 20 C 26.429688 19.765625 26.429688 19.527344 26.429688 19.285156 Z M 26.429688 19.285156 "/>
<path style=" stroke:none;fill-rule:nonzero;fill:rgb(99.607843%,95.686275%,79.607844%);fill-opacity:1;" d="M 16.429688 19.285156 C 19.019531 19.285156 21.613281 19.285156 24.285156 19.285156 C 23.578125 19.519531 22.871094 19.757812 22.144531 20 C 22.144531 20.472656 22.144531 20.941406 22.144531 21.429688 C 20.492188 21.429688 18.84375 21.429688 17.144531 21.429688 C 16.90625 20.722656 16.671875 20.015625 16.429688 19.285156 Z M 16.429688 19.285156 "/>
<path style=" stroke:none;fill-rule:nonzero;fill:rgb(94.117647%,78.823531%,57.647061%);fill-opacity:1;" d="M 21.429688 12.855469 C 22.84375 12.855469 24.257812 12.855469 25.714844 12.855469 C 25.714844 13.800781 25.714844 14.742188 25.714844 15.714844 C 24.300781 15.714844 22.886719 15.714844 21.429688 15.714844 C 21.429688 14.769531 21.429688 13.828125 21.429688 12.855469 Z M 21.429688 12.855469 "/>
<path style=" stroke:none;fill-rule:nonzero;fill:rgb(16.862746%,29.019609%,35.294119%);fill-opacity:1;" d="M 17.855469 12.855469 C 19.035156 12.855469 20.214844 12.855469 21.429688 12.855469 C 21.429688 13.800781 21.429688 14.742188 21.429688 15.714844 C 20.25 15.949219 19.070312 16.1875 17.855469 16.429688 C 17.855469 15.25 17.855469 14.070312 17.855469 12.855469 Z M 17.855469 12.855469 "/>
<path style=" stroke:none;fill-rule:nonzero;fill:rgb(80.784315%,67.843139%,52.156866%);fill-opacity:1;" d="M 22.855469 28.570312 C 23.800781 28.570312 24.742188 28.570312 25.714844 28.570312 C 25.949219 29.75 26.1875 30.929688 26.429688 32.144531 C 25.25 32.144531 24.070312 32.144531 22.855469 32.144531 C 22.855469 30.964844 22.855469 29.785156 22.855469 28.570312 Z M 22.855469 28.570312 "/>
<path style=" stroke:none;fill-rule:nonzero;fill:rgb(94.117647%,76.078433%,54.509807%);fill-opacity:1;" d="M 15 28.570312 C 15.707031 28.570312 16.414062 28.570312 17.144531 28.570312 C 17.144531 30.222656 17.144531 31.871094 17.144531 33.570312 C 16.4375 33.570312 15.730469 33.570312 15 33.570312 C 15 31.921875 15 30.269531 15 28.570312 Z M 15 28.570312 "/>
<path style=" stroke:none;fill-rule:nonzero;fill:rgb(79.607844%,69.803923%,56.078434%);fill-opacity:1;" d="M 17.855469 43.570312 C 18.800781 43.570312 19.742188 43.570312 20.714844 43.570312 C 20.714844 44.277344 20.714844 44.984375 20.714844 45.714844 C 21.65625 45.949219 22.601562 46.1875 23.570312 46.429688 C 21.6875 46.429688 19.800781 46.429688 17.855469 46.429688 C 17.855469 45.484375 17.855469 44.542969 17.855469 43.570312 Z M 17.855469 43.570312 "/>
</g>
</svg>
