<?xml version="1.0" encoding="UTF-8"?>
<svg xmlns="http://www.w3.org/2000/svg" xmlns:xlink="http://www.w3.org/1999/xlink" width="50px" height="50px" viewBox="0 0 50 50" version="1.1">
<g id="surface1">
<path style=" stroke:none;fill-rule:nonzero;fill:rgb(96.078432%,76.078433%,56.470591%);fill-opacity:1;" d="M 15.714844 2.144531 C 22.078125 2.144531 28.441406 2.144531 35 2.144531 C 35 3.085938 35 4.027344 35 5 C 36.179688 5 37.355469 5 38.570312 5 C 38.570312 8.535156 38.570312 12.070312 38.570312 15.714844 C 41.398438 15.714844 44.230469 15.714844 47.144531 15.714844 C 47.144531 16.65625 47.144531 17.601562 47.144531 18.570312 C 48.085938 18.570312 49.027344 18.570312 50 18.570312 C 50 28.941406 50 39.3125 50 50 C 33.5 50 17 50 0 50 C 0 39.863281 0 29.730469 0 19.285156 C 0.941406 19.050781 1.886719 18.8125 2.855469 18.570312 C 3.09375 17.628906 3.328125 16.6875 3.570312 15.714844 C 6.398438 15.714844 9.230469 15.714844 12.144531 15.714844 C 12.144531 12.179688 12.144531 8.644531 12.144531 5 C 13.320312 5 14.5 5 15.714844 5 C 15.714844 4.058594 15.714844 3.113281 15.714844 2.144531 Z M 15.714844 2.144531 "/>
<path style=" stroke:none;fill-rule:nonzero;fill:rgb(14.901961%,26.666668%,36.862746%);fill-opacity:1;" d="M 12.855469 5.714844 C 14.035156 5.714844 15.214844 5.714844 16.429688 5.714844 C 16.429688 10.429688 16.429688 15.144531 16.429688 20 C 12.421875 20 8.414062 20 4.285156 20 C 4.285156 28.484375 4.285156 36.972656 4.285156 45.714844 C 9 45.714844 13.714844 45.714844 18.570312 45.714844 C 18.570312 41.707031 18.570312 37.699219 18.570312 33.570312 C 23.050781 33.570312 27.527344 33.570312 32.144531 33.570312 C 32.144531 37.578125 32.144531 41.585938 32.144531 45.714844 C 36.855469 45.714844 41.570312 45.714844 46.429688 45.714844 C 46.429688 37.230469 46.429688 28.742188 46.429688 20 C 42.421875 20 38.414062 20 34.285156 20 C 34.285156 15.285156 34.285156 10.570312 34.285156 5.714844 C 35.464844 5.714844 36.644531 5.714844 37.855469 5.714844 C 37.855469 9.25 37.855469 12.785156 37.855469 16.429688 C 40.6875 16.429688 43.515625 16.429688 46.429688 16.429688 C 46.429688 17.371094 46.429688 18.3125 46.429688 19.285156 C 47.605469 19.285156 48.785156 19.285156 50 19.285156 C 50 29.421875 50 39.558594 50 50 C 33.5 50 17 50 0 50 C 0 39.863281 0 29.730469 0 19.285156 C 0.941406 19.050781 1.886719 18.8125 2.855469 18.570312 C 2.855469 17.863281 2.855469 17.15625 2.855469 16.429688 C 6.15625 16.429688 9.457031 16.429688 12.855469 16.429688 C 12.855469 12.894531 12.855469 9.355469 12.855469 5.714844 Z M 12.855469 5.714844 "/>
<path style=" stroke:none;fill-rule:nonzero;fill:rgb(99.607843%,92.156863%,77.64706%);fill-opacity:1;" d="M 17.144531 6.429688 C 21.855469 6.429688 26.570312 6.429688 31.429688 6.429688 C 31.429688 8.3125 31.429688 10.199219 31.429688 12.144531 C 30.25 12.144531 29.070312 12.144531 27.855469 12.144531 C 27.855469 10.964844 27.855469 9.785156 27.855469 8.570312 C 26.207031 8.570312 24.558594 8.570312 22.855469 8.570312 C 22.855469 9.75 22.855469 10.929688 22.855469 12.144531 C 21.679688 12.144531 20.5 12.144531 19.285156 12.144531 C 19.285156 13.792969 19.285156 15.441406 19.285156 17.144531 C 20.464844 17.144531 21.644531 17.144531 22.855469 17.144531 C 22.855469 18.085938 22.855469 19.027344 22.855469 20 C 24.507812 20 26.15625 20 27.855469 20 C 27.855469 19.058594 27.855469 18.113281 27.855469 17.144531 C 29.035156 17.144531 30.214844 17.144531 31.429688 17.144531 C 31.429688 19.265625 31.429688 21.386719 31.429688 23.570312 C 30.25 23.570312 29.070312 23.570312 27.855469 23.570312 C 27.855469 24.75 27.855469 25.929688 27.855469 27.144531 C 26.679688 27.144531 25.5 27.144531 24.285156 27.144531 C 24.285156 25.964844 24.285156 24.785156 24.285156 23.570312 C 22.164062 23.570312 20.042969 23.570312 17.855469 23.570312 C 17.855469 24.75 17.855469 25.929688 17.855469 27.144531 C 16.441406 27.144531 15.027344 27.144531 13.570312 27.144531 C 13.570312 25.730469 13.570312 24.3125 13.570312 22.855469 C 11.921875 22.855469 10.269531 22.855469 8.570312 22.855469 C 8.570312 24.980469 8.570312 27.101562 8.570312 29.285156 C 9.042969 29.285156 9.515625 29.285156 10 29.285156 C 10 30.9375 10 32.585938 10 34.285156 C 9.527344 34.285156 9.058594 34.285156 8.570312 34.285156 C 8.570312 36.40625 8.570312 38.527344 8.570312 40.714844 C 9.277344 40.714844 9.984375 40.714844 10.714844 40.714844 C 10.714844 41.1875 10.714844 41.65625 10.714844 42.144531 C 8.59375 42.144531 6.472656 42.144531 4.285156 42.144531 C 4.285156 34.835938 4.285156 27.527344 4.285156 20 C 8.527344 20 12.769531 20 17.144531 20 C 17.144531 15.519531 17.144531 11.042969 17.144531 6.429688 Z M 17.144531 6.429688 "/>
<path style=" stroke:none;fill-rule:nonzero;fill:rgb(82.352942%,81.960785%,78.823531%);fill-opacity:1;" d="M 15.714844 2.144531 C 22.078125 2.144531 28.441406 2.144531 35 2.144531 C 35 3.085938 35 4.027344 35 5 C 36.179688 5 37.355469 5 38.570312 5 C 38.570312 8.535156 38.570312 12.070312 38.570312 15.714844 C 41.398438 15.714844 44.230469 15.714844 47.144531 15.714844 C 47.144531 16.65625 47.144531 17.601562 47.144531 18.570312 C 48.085938 18.808594 49.027344 19.042969 50 19.285156 C 48.820312 19.285156 47.644531 19.285156 46.429688 19.285156 C 46.429688 18.34375 46.429688 17.398438 46.429688 16.429688 C 43.601562 16.429688 40.769531 16.429688 37.855469 16.429688 C 37.855469 12.894531 37.855469 9.355469 37.855469 5.714844 C 36.679688 5.714844 35.5 5.714844 34.285156 5.714844 C 34.285156 10.429688 34.285156 15.144531 34.285156 20 C 37.351562 20 40.414062 20 43.570312 20 C 43.570312 20.234375 43.570312 20.472656 43.570312 20.714844 C 40.507812 20.714844 37.441406 20.714844 34.285156 20.714844 C 33.933594 21.773438 33.933594 21.773438 33.570312 22.855469 C 32.863281 22.855469 32.15625 22.855469 31.429688 22.855469 C 31.429688 20.972656 31.429688 19.085938 31.429688 17.144531 C 30.25 17.144531 29.070312 17.144531 27.855469 17.144531 C 27.855469 18.085938 27.855469 19.027344 27.855469 20 C 26.207031 20 24.558594 20 22.855469 20 C 22.855469 19.058594 22.855469 18.113281 22.855469 17.144531 C 21.679688 17.144531 20.5 17.144531 19.285156 17.144531 C 19.285156 15.492188 19.285156 13.84375 19.285156 12.144531 C 20.464844 12.144531 21.644531 12.144531 22.855469 12.144531 C 22.855469 10.964844 22.855469 9.785156 22.855469 8.570312 C 24.507812 8.570312 26.15625 8.570312 27.855469 8.570312 C 27.855469 9.75 27.855469 10.929688 27.855469 12.144531 C 29.035156 12.144531 30.214844 12.144531 31.429688 12.144531 C 31.429688 10.257812 31.429688 8.371094 31.429688 6.429688 C 26.714844 6.429688 22 6.429688 17.144531 6.429688 C 17.144531 10.90625 17.144531 15.386719 17.144531 20 C 16.90625 20 16.671875 20 16.429688 20 C 16.429688 15.285156 16.429688 10.570312 16.429688 5.714844 C 15.25 5.714844 14.070312 5.714844 12.855469 5.714844 C 12.855469 9.25 12.855469 12.785156 12.855469 16.429688 C 9.792969 16.429688 6.730469 16.429688 3.570312 16.429688 C 3.570312 16.191406 3.570312 15.957031 3.570312 15.714844 C 6.398438 15.714844 9.230469 15.714844 12.144531 15.714844 C 12.144531 12.179688 12.144531 8.644531 12.144531 5 C 13.320312 5 14.5 5 15.714844 5 C 15.714844 4.058594 15.714844 3.113281 15.714844 2.144531 Z M 15.714844 2.144531 "/>
<path style=" stroke:none;fill-rule:nonzero;fill:rgb(96.862745%,90.588236%,69.01961%);fill-opacity:1;" d="M 46.429688 20 C 46.429688 28.484375 46.429688 36.972656 46.429688 45.714844 C 41.714844 45.714844 37 45.714844 32.144531 45.714844 C 32.144531 41.941406 32.144531 38.171875 32.144531 34.285156 C 32.378906 34.285156 32.613281 34.285156 32.855469 34.285156 C 32.855469 36.644531 32.855469 39 32.855469 41.429688 C 34.035156 41.429688 35.214844 41.429688 36.429688 41.429688 C 36.429688 40.957031 36.429688 40.484375 36.429688 40 C 38.550781 40 40.671875 40 42.855469 40 C 42.855469 38.113281 42.855469 36.230469 42.855469 34.285156 C 40.265625 34.285156 37.671875 34.285156 35 34.285156 C 35 31.929688 35 29.570312 35 27.144531 C 34.527344 27.144531 34.058594 27.144531 33.570312 27.144531 C 33.570312 25.964844 33.570312 24.785156 33.570312 23.570312 C 32.863281 23.335938 32.15625 23.101562 31.429688 22.855469 C 32.136719 22.621094 32.84375 22.386719 33.570312 22.144531 C 33.808594 21.671875 34.042969 21.199219 34.285156 20.714844 C 36.285156 20.417969 36.285156 20.417969 38.792969 20.269531 C 39.617188 20.214844 40.4375 20.160156 41.285156 20.105469 C 43 20.027344 44.714844 20 46.429688 20 Z M 46.429688 20 "/>
<path style=" stroke:none;fill-rule:nonzero;fill:rgb(2.352941%,42.745098%,46.27451%);fill-opacity:1;" d="M 18.570312 33.570312 C 23.050781 33.570312 27.527344 33.570312 32.144531 33.570312 C 32.144531 37.578125 32.144531 41.585938 32.144531 45.714844 C 27.664062 45.714844 23.1875 45.714844 18.570312 45.714844 C 18.570312 41.707031 18.570312 37.699219 18.570312 33.570312 Z M 18.570312 33.570312 "/>
<path style=" stroke:none;fill-rule:nonzero;fill:rgb(96.078432%,91.37255%,72.549021%);fill-opacity:1;" d="M 4.285156 20 C 8.292969 20 12.300781 20 16.429688 20 C 16.429688 20.941406 16.429688 21.886719 16.429688 22.855469 C 16.898438 22.855469 17.371094 22.855469 17.855469 22.855469 C 17.855469 24.269531 17.855469 25.6875 17.855469 27.144531 C 16.441406 27.144531 15.027344 27.144531 13.570312 27.144531 C 13.570312 25.730469 13.570312 24.3125 13.570312 22.855469 C 11.921875 22.855469 10.269531 22.855469 8.570312 22.855469 C 8.570312 24.980469 8.570312 27.101562 8.570312 29.285156 C 9.042969 29.285156 9.515625 29.285156 10 29.285156 C 10 30.9375 10 32.585938 10 34.285156 C 9.527344 34.285156 9.058594 34.285156 8.570312 34.285156 C 8.570312 36.40625 8.570312 38.527344 8.570312 40.714844 C 9.277344 40.714844 9.984375 40.714844 10.714844 40.714844 C 10.714844 41.1875 10.714844 41.65625 10.714844 42.144531 C 8.59375 42.144531 6.472656 42.144531 4.285156 42.144531 C 4.285156 34.835938 4.285156 27.527344 4.285156 20 Z M 4.285156 20 "/>
<path style=" stroke:none;fill-rule:nonzero;fill:rgb(5.098039%,16.078432%,27.450982%);fill-opacity:1;" d="M 12.855469 5.714844 C 14.035156 5.714844 15.214844 5.714844 16.429688 5.714844 C 16.429688 10.429688 16.429688 15.144531 16.429688 20 C 12.421875 20 8.414062 20 4.285156 20 C 4.285156 28.484375 4.285156 36.972656 4.285156 45.714844 C 4.050781 45.714844 3.8125 45.714844 3.570312 45.714844 C 3.570312 36.050781 3.570312 26.386719 3.570312 16.429688 C 6.636719 16.429688 9.699219 16.429688 12.855469 16.429688 C 12.855469 12.894531 12.855469 9.355469 12.855469 5.714844 Z M 12.855469 5.714844 "/>
<path style=" stroke:none;fill-rule:nonzero;fill:rgb(94.117647%,21.568628%,7.058824%);fill-opacity:1;" d="M 22.855469 8.570312 C 24.507812 8.570312 26.15625 8.570312 27.855469 8.570312 C 27.855469 9.75 27.855469 10.929688 27.855469 12.144531 C 29.035156 12.144531 30.214844 12.144531 31.429688 12.144531 C 31.429688 13.792969 31.429688 15.441406 31.429688 17.144531 C 30.25 17.144531 29.070312 17.144531 27.855469 17.144531 C 27.855469 18.085938 27.855469 19.027344 27.855469 20 C 26.207031 20 24.558594 20 22.855469 20 C 22.855469 19.058594 22.855469 18.113281 22.855469 17.144531 C 21.679688 17.144531 20.5 17.144531 19.285156 17.144531 C 19.285156 15.492188 19.285156 13.84375 19.285156 12.144531 C 20.464844 12.144531 21.644531 12.144531 22.855469 12.144531 C 22.855469 10.964844 22.855469 9.785156 22.855469 8.570312 Z M 22.855469 8.570312 "/>
<path style=" stroke:none;fill-rule:nonzero;fill:rgb(86.666667%,70.19608%,50.980395%);fill-opacity:1;" d="M 43.570312 20 C 44.515625 20 45.457031 20 46.429688 20 C 46.429688 28.484375 46.429688 36.972656 46.429688 45.714844 C 41.714844 45.714844 37 45.714844 32.144531 45.714844 C 32.144531 44.535156 32.144531 43.355469 32.144531 42.144531 C 35.914062 42.144531 39.6875 42.144531 43.570312 42.144531 C 43.570312 40.019531 43.570312 37.898438 43.570312 35.714844 C 44.277344 35.714844 44.984375 35.714844 45.714844 35.714844 C 45.714844 30.765625 45.714844 25.8125 45.714844 20.714844 C 45.007812 20.480469 44.300781 20.242188 43.570312 20 Z M 43.570312 20 "/>
<path style=" stroke:none;fill-rule:nonzero;fill:rgb(3.529412%,17.254902%,29.411766%);fill-opacity:1;" d="M 34.285156 5.714844 C 35.464844 5.714844 36.644531 5.714844 37.855469 5.714844 C 37.855469 9.25 37.855469 12.785156 37.855469 16.429688 C 40.6875 16.429688 43.515625 16.429688 46.429688 16.429688 C 46.429688 17.605469 46.429688 18.785156 46.429688 20 C 42.421875 20 38.414062 20 34.285156 20 C 34.285156 15.285156 34.285156 10.570312 34.285156 5.714844 Z M 34.285156 5.714844 "/>
<path style=" stroke:none;fill-rule:nonzero;fill:rgb(99.607843%,78.039217%,58.431375%);fill-opacity:1;" d="M 4.285156 20 C 8.292969 20 12.300781 20 16.429688 20 C 16.429688 20.234375 16.429688 20.472656 16.429688 20.714844 C 13.363281 20.714844 10.300781 20.714844 7.144531 20.714844 C 7.144531 27.785156 7.144531 34.855469 7.144531 42.144531 C 6.199219 42.144531 5.257812 42.144531 4.285156 42.144531 C 4.285156 34.835938 4.285156 27.527344 4.285156 20 Z M 4.285156 20 "/>
<path style=" stroke:none;fill-rule:nonzero;fill:rgb(0%,14.117648%,27.843139%);fill-opacity:1;" d="M 16.429688 2.855469 C 22.320312 2.855469 28.214844 2.855469 34.285156 2.855469 C 34.285156 3.800781 34.285156 4.742188 34.285156 5.714844 C 28.394531 5.714844 22.5 5.714844 16.429688 5.714844 C 16.429688 4.769531 16.429688 3.828125 16.429688 2.855469 Z M 16.429688 2.855469 "/>
<path style=" stroke:none;fill-rule:nonzero;fill:rgb(21.176471%,51.764709%,46.666667%);fill-opacity:1;" d="M 17.855469 23.570312 C 19.980469 23.570312 22.101562 23.570312 24.285156 23.570312 C 24.285156 25.457031 24.285156 27.34375 24.285156 29.285156 C 19.890625 29.355469 19.890625 29.355469 18.570312 29.285156 C 17.855469 28.570312 17.855469 28.570312 17.8125 26.027344 C 17.828125 25.214844 17.84375 24.40625 17.855469 23.570312 Z M 17.855469 23.570312 "/>
<path style=" stroke:none;fill-rule:nonzero;fill:rgb(0%,51.764709%,45.882353%);fill-opacity:1;" d="M 25.714844 40.714844 C 25.714844 42.363281 25.714844 44.015625 25.714844 45.714844 C 23.355469 45.714844 21 45.714844 18.570312 45.714844 C 18.570312 44.300781 18.570312 42.886719 18.570312 41.429688 C 20.984375 40.6875 23.199219 40.65625 25.714844 40.714844 Z M 25.714844 40.714844 "/>
<path style=" stroke:none;fill-rule:nonzero;fill:rgb(86.274511%,79.215688%,61.960787%);fill-opacity:1;" d="M 43.570312 20.714844 C 44.277344 20.714844 44.984375 20.714844 45.714844 20.714844 C 45.714844 25.664062 45.714844 30.613281 45.714844 35.714844 C 45.007812 35.714844 44.300781 35.714844 43.570312 35.714844 C 43.570312 30.765625 43.570312 25.8125 43.570312 20.714844 Z M 43.570312 20.714844 "/>
<path style=" stroke:none;fill-rule:nonzero;fill:rgb(99.607843%,96.470588%,82.745099%);fill-opacity:1;" d="M 17.144531 6.429688 C 21.855469 6.429688 26.570312 6.429688 31.429688 6.429688 C 31.429688 8.3125 31.429688 10.199219 31.429688 12.144531 C 30.25 12.144531 29.070312 12.144531 27.855469 12.144531 C 27.855469 10.964844 27.855469 9.785156 27.855469 8.570312 C 25.597656 7.820312 23.664062 7.632812 21.292969 7.457031 C 20.519531 7.394531 19.742188 7.335938 18.941406 7.273438 C 18.347656 7.230469 17.753906 7.1875 17.144531 7.144531 C 17.144531 6.90625 17.144531 6.671875 17.144531 6.429688 Z M 17.144531 6.429688 "/>
<path style=" stroke:none;fill-rule:nonzero;fill:rgb(100%,92.54902%,69.803923%);fill-opacity:1;" d="M 10 20.714844 C 12.121094 20.714844 14.242188 20.714844 16.429688 20.714844 C 16.429688 21.421875 16.429688 22.128906 16.429688 22.855469 C 16.898438 22.855469 17.371094 22.855469 17.855469 22.855469 C 17.855469 24.269531 17.855469 25.6875 17.855469 27.144531 C 16.441406 27.144531 15.027344 27.144531 13.570312 27.144531 C 13.570312 25.492188 13.570312 23.84375 13.570312 22.144531 C 12.15625 22.144531 10.742188 22.144531 9.285156 22.144531 C 9.519531 21.671875 9.757812 21.199219 10 20.714844 Z M 10 20.714844 "/>
<path style=" stroke:none;fill-rule:nonzero;fill:rgb(12.941177%,47.843137%,45.09804%);fill-opacity:1;" d="M 37.144531 34.285156 C 39.027344 34.285156 40.914062 34.285156 42.855469 34.285156 C 42.855469 36.171875 42.855469 38.058594 42.855469 40 C 41.207031 40 39.558594 40 37.855469 40 C 37.621094 38.113281 37.386719 36.230469 37.144531 34.285156 Z M 37.144531 34.285156 "/>
<path style=" stroke:none;fill-rule:nonzero;fill:rgb(0%,35.686275%,41.960785%);fill-opacity:1;" d="M 8.570312 34.285156 C 10.222656 34.285156 11.871094 34.285156 13.570312 34.285156 C 13.570312 36.171875 13.570312 38.058594 13.570312 40 C 11.921875 40 10.269531 40 8.570312 40 C 8.570312 38.113281 8.570312 36.230469 8.570312 34.285156 Z M 8.570312 34.285156 "/>
<path style=" stroke:none;fill-rule:nonzero;fill:rgb(9.803922%,43.137255%,43.529412%);fill-opacity:1;" d="M 37.855469 22.855469 C 39.507812 22.855469 41.15625 22.855469 42.855469 22.855469 C 42.855469 24.742188 42.855469 26.628906 42.855469 28.570312 C 41.207031 28.570312 39.558594 28.570312 37.855469 28.570312 C 37.855469 26.6875 37.855469 24.800781 37.855469 22.855469 Z M 37.855469 22.855469 "/>
<path style=" stroke:none;fill-rule:nonzero;fill:rgb(8.235294%,44.313726%,45.882353%);fill-opacity:1;" d="M 27.855469 23.570312 C 29.742188 23.570312 31.628906 23.570312 33.570312 23.570312 C 33.570312 25.222656 33.570312 26.871094 33.570312 28.570312 C 31.6875 28.570312 29.800781 28.570312 27.855469 28.570312 C 27.855469 26.921875 27.855469 25.269531 27.855469 23.570312 Z M 27.855469 23.570312 "/>
<path style=" stroke:none;fill-rule:nonzero;fill:rgb(8.235294%,38.039216%,43.529412%);fill-opacity:1;" d="M 8.570312 22.855469 C 10.222656 22.855469 11.871094 22.855469 13.570312 22.855469 C 13.570312 24.742188 13.570312 26.628906 13.570312 28.570312 C 11.921875 28.570312 10.269531 28.570312 8.570312 28.570312 C 8.570312 26.6875 8.570312 24.800781 8.570312 22.855469 Z M 8.570312 22.855469 "/>
<path style=" stroke:none;fill-rule:nonzero;fill:rgb(100%,86.666667%,65.490198%);fill-opacity:1;" d="M 32.144531 34.285156 C 32.378906 34.285156 32.613281 34.285156 32.855469 34.285156 C 32.855469 36.644531 32.855469 39 32.855469 41.429688 C 34.035156 41.429688 35.214844 41.429688 36.429688 41.429688 C 36.429688 40.957031 36.429688 40.484375 36.429688 40 C 38.550781 40 40.671875 40 42.855469 40 C 42.855469 38.585938 42.855469 37.171875 42.855469 35.714844 C 43.09375 35.714844 43.328125 35.714844 43.570312 35.714844 C 43.570312 37.835938 43.570312 39.957031 43.570312 42.144531 C 39.800781 42.144531 36.027344 42.144531 32.144531 42.144531 C 32.144531 39.550781 32.144531 36.957031 32.144531 34.285156 Z M 32.144531 34.285156 "/>
<path style=" stroke:none;fill-rule:nonzero;fill:rgb(99.607843%,94.901961%,76.078433%);fill-opacity:1;" d="M 7.144531 22.855469 C 7.378906 22.855469 7.613281 22.855469 7.855469 22.855469 C 8.09375 28.515625 8.328125 34.171875 8.570312 40 C 9.277344 40.234375 9.984375 40.472656 10.714844 40.714844 C 10.714844 41.1875 10.714844 41.65625 10.714844 42.144531 C 9.535156 42.144531 8.355469 42.144531 7.144531 42.144531 C 7.144531 35.777344 7.144531 29.414062 7.144531 22.855469 Z M 7.144531 22.855469 "/>
<path style=" stroke:none;fill-rule:nonzero;fill:rgb(89.411765%,70.980394%,50.588238%);fill-opacity:1;" d="M 4.285156 42.144531 C 6.878906 42.378906 9.472656 42.613281 12.144531 42.855469 C 11.90625 43.5625 11.671875 44.269531 11.429688 45 C 9.070312 45 6.714844 45 4.285156 45 C 4.285156 44.058594 4.285156 43.113281 4.285156 42.144531 Z M 4.285156 42.144531 "/>
<path style=" stroke:none;fill-rule:nonzero;fill:rgb(91.764706%,80.000001%,63.921571%);fill-opacity:1;" d="M 4.285156 20 C 8.292969 20 12.300781 20 16.429688 20 C 16.429688 20.234375 16.429688 20.472656 16.429688 20.714844 C 13.363281 20.714844 10.300781 20.714844 7.144531 20.714844 C 7.144531 22.835938 7.144531 24.957031 7.144531 27.144531 C 6.90625 27.144531 6.671875 27.144531 6.429688 27.144531 C 6.191406 25.492188 5.957031 23.84375 5.714844 22.144531 C 5.242188 22.851562 4.769531 23.558594 4.285156 24.285156 C 4.285156 22.871094 4.285156 21.457031 4.285156 20 Z M 4.285156 20 "/>
<path style=" stroke:none;fill-rule:nonzero;fill:rgb(96.862745%,79.215688%,58.823532%);fill-opacity:1;" d="M 14.285156 41.429688 C 15.464844 41.429688 16.644531 41.429688 17.855469 41.429688 C 17.855469 42.84375 17.855469 44.257812 17.855469 45.714844 C 13.378906 45.714844 8.898438 45.714844 4.285156 45.714844 C 4.285156 45.480469 4.285156 45.242188 4.285156 45 C 8.292969 45 12.300781 45 16.429688 45 C 15.875 42.804688 15.875 42.804688 14.285156 41.429688 Z M 14.285156 41.429688 "/>
<path style=" stroke:none;fill-rule:nonzero;fill:rgb(90.980393%,74.901962%,54.901963%);fill-opacity:1;" d="M 7.144531 42.144531 C 9.972656 42.144531 12.800781 42.144531 15.714844 42.144531 C 15.949219 43.085938 16.1875 44.027344 16.429688 45 C 14.777344 45 13.128906 45 11.429688 45 C 11.429688 44.527344 11.429688 44.058594 11.429688 43.570312 C 9.308594 43.21875 9.308594 43.21875 7.144531 42.855469 C 7.144531 42.621094 7.144531 42.386719 7.144531 42.144531 Z M 7.144531 42.144531 "/>
<path style=" stroke:none;fill-rule:nonzero;fill:rgb(82.352942%,79.215688%,67.843139%);fill-opacity:1;" d="M 32.144531 17.144531 C 32.378906 17.851562 32.613281 18.558594 32.855469 19.285156 C 32.621094 19.757812 32.386719 20.230469 32.144531 20.714844 C 32.613281 20.480469 33.085938 20.242188 33.570312 20 C 35.265625 19.949219 36.964844 19.941406 38.660156 19.957031 C 39.574219 19.960938 40.492188 19.96875 41.433594 19.976562 C 42.140625 19.984375 42.84375 19.992188 43.570312 20 C 43.570312 20.234375 43.570312 20.472656 43.570312 20.714844 C 40.507812 20.714844 37.441406 20.714844 34.285156 20.714844 C 34.050781 21.421875 33.8125 22.128906 33.570312 22.855469 C 32.863281 22.855469 32.15625 22.855469 31.429688 22.855469 C 31.339844 18.75 31.339844 18.75 32.144531 17.144531 Z M 32.144531 17.144531 "/>
<path style=" stroke:none;fill-rule:nonzero;fill:rgb(0%,46.27451%,44.705883%);fill-opacity:1;" d="M 8.570312 34.285156 C 9.277344 34.640625 9.277344 34.640625 10 35 C 9.765625 35.472656 9.527344 35.941406 9.285156 36.429688 C 9.992188 36.429688 10.699219 36.429688 11.429688 36.429688 C 11.429688 37.605469 11.429688 38.785156 11.429688 40 C 10.484375 40 9.542969 40 8.570312 40 C 8.570312 38.113281 8.570312 36.230469 8.570312 34.285156 Z M 8.570312 34.285156 "/>
<path style=" stroke:none;fill-rule:nonzero;fill:rgb(0%,35.294119%,42.745098%);fill-opacity:1;" d="M 37.855469 34.285156 C 39.269531 34.285156 40.6875 34.285156 42.144531 34.285156 C 42.144531 35.9375 42.144531 37.585938 42.144531 39.285156 C 41.4375 39.285156 40.730469 39.285156 40 39.285156 C 40 37.871094 40 36.457031 40 35 C 39.292969 34.765625 38.585938 34.527344 37.855469 34.285156 Z M 37.855469 34.285156 "/>
<path style=" stroke:none;fill-rule:nonzero;fill:rgb(0%,44.313726%,44.313726%);fill-opacity:1;" d="M 8.570312 24.285156 C 9.515625 24.285156 10.457031 24.285156 11.429688 24.285156 C 11.429688 25.699219 11.429688 27.113281 11.429688 28.570312 C 10.484375 28.570312 9.542969 28.570312 8.570312 28.570312 C 8.570312 27.15625 8.570312 25.742188 8.570312 24.285156 Z M 8.570312 24.285156 "/>
<path style=" stroke:none;fill-rule:nonzero;fill:rgb(5.098039%,49.803922%,46.666667%);fill-opacity:1;" d="M 27.855469 23.570312 C 28.800781 23.570312 29.742188 23.570312 30.714844 23.570312 C 30.714844 24.75 30.714844 25.929688 30.714844 27.144531 C 29.300781 27.851562 29.300781 27.851562 27.855469 28.570312 C 27.855469 26.921875 27.855469 25.269531 27.855469 23.570312 Z M 27.855469 23.570312 "/>
<path style=" stroke:none;fill-rule:nonzero;fill:rgb(100%,79.215688%,58.431375%);fill-opacity:1;" d="M 42.855469 35.714844 C 43.09375 35.714844 43.328125 35.714844 43.570312 35.714844 C 43.570312 37.835938 43.570312 39.957031 43.570312 42.144531 C 42.394531 42.144531 41.214844 42.144531 40 42.144531 C 40 41.4375 40 40.730469 40 40 C 40.941406 40 41.886719 40 42.855469 40 C 42.855469 38.585938 42.855469 37.171875 42.855469 35.714844 Z M 42.855469 35.714844 "/>
<path style=" stroke:none;fill-rule:nonzero;fill:rgb(90.980393%,88.627452%,79.607844%);fill-opacity:1;" d="M 31.429688 5.714844 C 32.371094 5.714844 33.3125 5.714844 34.285156 5.714844 C 34.285156 7.363281 34.285156 9.015625 34.285156 10.714844 C 34.050781 10.007812 33.8125 9.300781 33.570312 8.570312 C 32.863281 8.808594 32.15625 9.042969 31.429688 9.285156 C 31.429688 8.105469 31.429688 6.929688 31.429688 5.714844 Z M 31.429688 5.714844 "/>
<path style=" stroke:none;fill-rule:nonzero;fill:rgb(0%,40.392157%,44.705883%);fill-opacity:1;" d="M 21.429688 23.570312 C 22.136719 23.570312 22.84375 23.570312 23.570312 23.570312 C 23.570312 24.984375 23.570312 26.398438 23.570312 27.855469 C 22.863281 27.855469 22.15625 27.855469 21.429688 27.855469 C 21.429688 26.441406 21.429688 25.027344 21.429688 23.570312 Z M 21.429688 23.570312 "/>
</g>
</svg>
