<?xml version="1.0" encoding="UTF-8"?>
<svg xmlns="http://www.w3.org/2000/svg" xmlns:xlink="http://www.w3.org/1999/xlink" width="50px" height="50px" viewBox="0 0 50 50" version="1.1">
<g id="surface1">
<path style=" stroke:none;fill-rule:nonzero;fill:rgb(75.686276%,16.078432%,3.921569%);fill-opacity:1;" d="M 27.855469 2.855469 C 32.335938 2.855469 36.8125 2.855469 41.429688 2.855469 C 41.429688 4.035156 41.429688 5.214844 41.429688 6.429688 C 42.605469 6.429688 43.785156 6.429688 45 6.429688 C 45 7.605469 45 8.785156 45 10 C 45.941406 10 46.886719 10 47.855469 10 C 47.855469 13.769531 47.855469 17.542969 47.855469 21.429688 C 46.914062 21.429688 45.972656 21.429688 45 21.429688 C 45 22.605469 45 23.785156 45 25 C 44.058594 25 43.113281 25 42.144531 25 C 41.90625 26.179688 41.671875 27.355469 41.429688 28.570312 C 40.484375 28.570312 39.542969 28.570312 38.570312 28.570312 C 38.570312 29.75 38.570312 30.929688 38.570312 32.144531 C 36.804688 32.496094 36.804688 32.496094 35 32.855469 C 34.765625 34.035156 34.527344 35.214844 34.285156 36.429688 C 33.34375 36.429688 32.398438 36.429688 31.429688 36.429688 C 31.429688 37.605469 31.429688 38.785156 31.429688 40 C 30.25 40 29.070312 40 27.855469 40 C 27.855469 41.179688 27.855469 42.355469 27.855469 43.570312 C 26.914062 43.570312 25.972656 43.570312 25 43.570312 C 25 44.75 25 45.929688 25 47.144531 C 20.050781 47.144531 15.101562 47.144531 10 47.144531 C 10 45.964844 10 44.785156 10 43.570312 C 8.820312 43.570312 7.644531 43.570312 6.429688 43.570312 C 6.429688 42.394531 6.429688 41.214844 6.429688 40 C 5.484375 40 4.542969 40 3.570312 40 C 3.570312 35.992188 3.570312 31.984375 3.570312 27.855469 C 4.515625 27.855469 5.457031 27.855469 6.429688 27.855469 C 6.429688 26.679688 6.429688 25.5 6.429688 24.285156 C 7.605469 24.285156 8.785156 24.285156 10 24.285156 C 10 23.105469 10 21.929688 10 20.714844 C 11.179688 20.714844 12.355469 20.714844 13.570312 20.714844 C 13.570312 19.300781 13.570312 17.886719 13.570312 16.429688 C 14.515625 16.429688 15.457031 16.429688 16.429688 16.429688 C 16.664062 15.25 16.898438 14.070312 17.144531 12.855469 C 18.085938 12.855469 19.027344 12.855469 20 12.855469 C 20 11.914062 20 10.972656 20 10 C 21.179688 10 22.355469 10 23.570312 10 C 23.570312 8.585938 23.570312 7.171875 23.570312 5.714844 C 24.984375 5.714844 26.398438 5.714844 27.855469 5.714844 C 27.855469 4.769531 27.855469 3.828125 27.855469 2.855469 Z M 27.855469 2.855469 "/>
<path style=" stroke:none;fill-rule:nonzero;fill:rgb(99.607843%,90.196079%,67.450982%);fill-opacity:1;" d="M 27.855469 2.855469 C 32.335938 2.855469 36.8125 2.855469 41.429688 2.855469 C 41.429688 4.035156 41.429688 5.214844 41.429688 6.429688 C 42.605469 6.429688 43.785156 6.429688 45 6.429688 C 45 7.605469 45 8.785156 45 10 C 45.941406 10 46.886719 10 47.855469 10 C 47.855469 13.769531 47.855469 17.542969 47.855469 21.429688 C 46.914062 21.429688 45.972656 21.429688 45 21.429688 C 45 22.605469 45 23.785156 45 25 C 44.058594 25 43.113281 25 42.144531 25 C 41.90625 26.179688 41.671875 27.355469 41.429688 28.570312 C 40.484375 28.570312 39.542969 28.570312 38.570312 28.570312 C 38.570312 29.75 38.570312 30.929688 38.570312 32.144531 C 36.804688 32.496094 36.804688 32.496094 35 32.855469 C 34.765625 34.035156 34.527344 35.214844 34.285156 36.429688 C 33.34375 36.429688 32.398438 36.429688 31.429688 36.429688 C 31.429688 37.605469 31.429688 38.785156 31.429688 40 C 30.25 40 29.070312 40 27.855469 40 C 27.855469 41.179688 27.855469 42.355469 27.855469 43.570312 C 27.621094 43.570312 27.386719 43.570312 27.144531 43.570312 C 27.144531 42.15625 27.144531 40.742188 27.144531 39.285156 C 28.320312 39.285156 29.5 39.285156 30.714844 39.285156 C 30.714844 38.105469 30.714844 36.929688 30.714844 35.714844 C 31.65625 35.714844 32.601562 35.714844 33.570312 35.714844 C 33.570312 34.535156 33.570312 33.355469 33.570312 32.144531 C 34.75 32.144531 35.929688 32.144531 37.144531 32.144531 C 37.144531 30.964844 37.144531 29.785156 37.144531 28.570312 C 35.019531 28.570312 32.898438 28.570312 30.714844 28.570312 C 30.714844 27.394531 30.714844 26.214844 30.714844 25 C 29.535156 25 28.355469 25 27.144531 25 C 27.144531 23.585938 27.144531 22.171875 27.144531 20.714844 C 26.199219 20.714844 25.257812 20.714844 24.285156 20.714844 C 24.285156 19.535156 24.285156 18.355469 24.285156 17.144531 C 23.34375 17.144531 22.398438 17.144531 21.429688 17.144531 C 21.429688 15.964844 21.429688 14.785156 21.429688 13.570312 C 22.371094 13.570312 23.3125 13.570312 24.285156 13.570312 C 24.285156 12.628906 24.285156 11.6875 24.285156 10.714844 C 23.105469 10.714844 21.929688 10.714844 20.714844 10.714844 C 20.714844 11.65625 20.714844 12.601562 20.714844 13.570312 C 19.535156 13.570312 18.355469 13.570312 17.144531 13.570312 C 18.085938 13.335938 19.027344 13.101562 20 12.855469 C 20 11.914062 20 10.972656 20 10 C 21.179688 10 22.355469 10 23.570312 10 C 23.570312 8.585938 23.570312 7.171875 23.570312 5.714844 C 24.984375 5.714844 26.398438 5.714844 27.855469 5.714844 C 27.855469 4.769531 27.855469 3.828125 27.855469 2.855469 Z M 27.855469 2.855469 "/>
<path style=" stroke:none;fill-rule:nonzero;fill:rgb(92.156863%,18.431373%,4.313726%);fill-opacity:1;" d="M 17.855469 17.855469 C 19.980469 17.855469 22.101562 17.855469 24.285156 17.855469 C 24.285156 18.800781 24.285156 19.742188 24.285156 20.714844 C 25.230469 20.714844 26.171875 20.714844 27.144531 20.714844 C 27.144531 22.128906 27.144531 23.542969 27.144531 25 C 28.320312 25 29.5 25 30.714844 25 C 30.714844 26.179688 30.714844 27.355469 30.714844 28.570312 C 29.535156 28.570312 28.355469 28.570312 27.144531 28.570312 C 27.144531 30.929688 27.144531 33.285156 27.144531 35.714844 C 23.125 36.519531 23.125 36.519531 20.714844 35.714844 C 20.714844 36.894531 20.714844 38.070312 20.714844 39.285156 C 16.472656 39.285156 12.230469 39.285156 7.855469 39.285156 C 7.855469 35.75 7.855469 32.214844 7.855469 28.570312 C 8.800781 28.570312 9.742188 28.570312 10.714844 28.570312 C 10.714844 27.15625 10.714844 25.742188 10.714844 24.285156 C 11.894531 24.285156 13.070312 24.285156 14.285156 24.285156 C 14.285156 23.105469 14.285156 21.929688 14.285156 20.714844 C 15.464844 20.714844 16.644531 20.714844 17.855469 20.714844 C 17.855469 19.769531 17.855469 18.828125 17.855469 17.855469 Z M 17.855469 17.855469 "/>
<path style=" stroke:none;fill-rule:nonzero;fill:rgb(81.176472%,78.823531%,68.627453%);fill-opacity:1;" d="M 27.855469 2.855469 C 32.335938 2.855469 36.8125 2.855469 41.429688 2.855469 C 41.429688 4.035156 41.429688 5.214844 41.429688 6.429688 C 42.605469 6.429688 43.785156 6.429688 45 6.429688 C 45 7.605469 45 8.785156 45 10 C 45.941406 10 46.886719 10 47.855469 10 C 47.855469 13.769531 47.855469 17.542969 47.855469 21.429688 C 46.914062 21.429688 45.972656 21.429688 45 21.429688 C 45 22.605469 45 23.785156 45 25 C 44.058594 25 43.113281 25 42.144531 25 C 42.144531 25.941406 42.144531 26.886719 42.144531 27.855469 C 40.730469 27.855469 39.3125 27.855469 37.855469 27.855469 C 37.855469 25.5 37.855469 23.144531 37.855469 20.714844 C 38.5625 20.714844 39.269531 20.714844 40 20.714844 C 40.234375 17.414062 40.472656 14.113281 40.714844 10.714844 C 39.769531 10.714844 38.828125 10.714844 37.855469 10.714844 C 37.855469 9.535156 37.855469 8.355469 37.855469 7.144531 C 34.558594 7.144531 31.257812 7.144531 27.855469 7.144531 C 27.855469 8.085938 27.855469 9.027344 27.855469 10 C 26.679688 10 25.5 10 24.285156 10 C 24.285156 8.820312 24.285156 7.644531 24.285156 6.429688 C 25.464844 6.429688 26.644531 6.429688 27.855469 6.429688 C 27.855469 5.25 27.855469 4.070312 27.855469 2.855469 Z M 27.855469 2.855469 "/>
<path style=" stroke:none;fill-rule:nonzero;fill:rgb(45.490196%,41.568628%,44.313726%);fill-opacity:1;" d="M 20.714844 10.714844 C 21.894531 10.714844 23.070312 10.714844 24.285156 10.714844 C 24.285156 11.65625 24.285156 12.601562 24.285156 13.570312 C 23.34375 13.570312 22.398438 13.570312 21.429688 13.570312 C 21.429688 14.75 21.429688 15.929688 21.429688 17.144531 C 22.371094 17.378906 23.3125 17.613281 24.285156 17.855469 C 22.164062 17.855469 20.042969 17.855469 17.855469 17.855469 C 17.855469 18.800781 17.855469 19.742188 17.855469 20.714844 C 16.679688 20.714844 15.5 20.714844 14.285156 20.714844 C 14.285156 21.894531 14.285156 23.070312 14.285156 24.285156 C 10.75 24.640625 10.75 24.640625 7.144531 25 C 7.144531 26.179688 7.144531 27.355469 7.144531 28.570312 C 6.199219 28.570312 5.257812 28.570312 4.285156 28.570312 C 4.285156 32.105469 4.285156 35.644531 4.285156 39.285156 C 6.40625 39.519531 8.527344 39.757812 10.714844 40 C 10.714844 40.941406 10.714844 41.886719 10.714844 42.855469 C 13.308594 42.855469 15.898438 42.855469 18.570312 42.855469 C 18.570312 43.09375 18.570312 43.328125 18.570312 43.570312 C 15.980469 43.570312 13.386719 43.570312 10.714844 43.570312 C 10.714844 44.515625 10.714844 45.457031 10.714844 46.429688 C 15.191406 46.429688 19.671875 46.429688 24.285156 46.429688 C 24.519531 45.484375 24.757812 44.542969 25 43.570312 C 25 44.75 25 45.929688 25 47.144531 C 20.050781 47.144531 15.101562 47.144531 10 47.144531 C 10 45.964844 10 44.785156 10 43.570312 C 8.820312 43.570312 7.644531 43.570312 6.429688 43.570312 C 6.429688 42.394531 6.429688 41.214844 6.429688 40 C 5.484375 40 4.542969 40 3.570312 40 C 3.570312 35.992188 3.570312 31.984375 3.570312 27.855469 C 4.515625 27.855469 5.457031 27.855469 6.429688 27.855469 C 6.429688 26.679688 6.429688 25.5 6.429688 24.285156 C 7.605469 24.285156 8.785156 24.285156 10 24.285156 C 10 23.105469 10 21.929688 10 20.714844 C 11.179688 20.714844 12.355469 20.714844 13.570312 20.714844 C 13.570312 19.300781 13.570312 17.886719 13.570312 16.429688 C 14.515625 16.429688 15.457031 16.429688 16.429688 16.429688 C 16.429688 15.484375 16.429688 14.542969 16.429688 13.570312 C 17.84375 13.570312 19.257812 13.570312 20.714844 13.570312 C 20.714844 12.628906 20.714844 11.6875 20.714844 10.714844 Z M 20.714844 10.714844 "/>
<path style=" stroke:none;fill-rule:nonzero;fill:rgb(94.117647%,90.588236%,78.431374%);fill-opacity:1;" d="M 23.570312 5.714844 C 24.984375 5.714844 26.398438 5.714844 27.855469 5.714844 C 27.855469 5.949219 27.855469 6.1875 27.855469 6.429688 C 26.679688 6.429688 25.5 6.429688 24.285156 6.429688 C 24.285156 7.605469 24.285156 8.785156 24.285156 10 C 25.464844 10 26.644531 10 27.855469 10 C 27.855469 9.058594 27.855469 8.113281 27.855469 7.144531 C 30.214844 7.144531 32.570312 7.144531 35 7.144531 C 35 8.320312 35 9.5 35 10.714844 C 33.820312 10.714844 32.644531 10.714844 31.429688 10.714844 C 31.429688 11.65625 31.429688 12.601562 31.429688 13.570312 C 30.25 13.570312 29.070312 13.570312 27.855469 13.570312 C 27.855469 15.929688 27.855469 18.285156 27.855469 20.714844 C 26.679688 20.714844 25.5 20.714844 24.285156 20.714844 C 24.285156 19.535156 24.285156 18.355469 24.285156 17.144531 C 23.34375 17.144531 22.398438 17.144531 21.429688 17.144531 C 21.429688 15.964844 21.429688 14.785156 21.429688 13.570312 C 22.371094 13.570312 23.3125 13.570312 24.285156 13.570312 C 24.285156 12.628906 24.285156 11.6875 24.285156 10.714844 C 23.105469 10.714844 21.929688 10.714844 20.714844 10.714844 C 20.714844 11.65625 20.714844 12.601562 20.714844 13.570312 C 19.535156 13.570312 18.355469 13.570312 17.144531 13.570312 C 18.085938 13.335938 19.027344 13.101562 20 12.855469 C 20 11.914062 20 10.972656 20 10 C 21.179688 10 22.355469 10 23.570312 10 C 23.570312 8.585938 23.570312 7.171875 23.570312 5.714844 Z M 23.570312 5.714844 "/>
<path style=" stroke:none;fill-rule:nonzero;fill:rgb(41.960785%,46.666667%,49.019608%);fill-opacity:1;" d="M 27.855469 2.855469 C 32.335938 2.855469 36.8125 2.855469 41.429688 2.855469 C 41.429688 4.035156 41.429688 5.214844 41.429688 6.429688 C 42.371094 6.429688 43.3125 6.429688 44.285156 6.429688 C 44.285156 7.605469 44.285156 8.785156 44.285156 10 C 43.105469 10 41.929688 10 40.714844 10 C 40.714844 9.058594 40.714844 8.113281 40.714844 7.144531 C 36.472656 7.144531 32.230469 7.144531 27.855469 7.144531 C 27.855469 8.085938 27.855469 9.027344 27.855469 10 C 26.679688 10 25.5 10 24.285156 10 C 24.285156 8.820312 24.285156 7.644531 24.285156 6.429688 C 25.464844 6.429688 26.644531 6.429688 27.855469 6.429688 C 27.855469 5.25 27.855469 4.070312 27.855469 2.855469 Z M 27.855469 2.855469 "/>
<path style=" stroke:none;fill-rule:nonzero;fill:rgb(64.705884%,16.470589%,7.843138%);fill-opacity:1;" d="M 27.144531 28.570312 C 30.441406 28.570312 33.742188 28.570312 37.144531 28.570312 C 37.144531 29.75 37.144531 30.929688 37.144531 32.144531 C 35.964844 32.144531 34.785156 32.144531 33.570312 32.144531 C 33.570312 33.320312 33.570312 34.5 33.570312 35.714844 C 32.628906 35.714844 31.6875 35.714844 30.714844 35.714844 C 30.714844 36.894531 30.714844 38.070312 30.714844 39.285156 C 29.535156 39.285156 28.355469 39.285156 27.144531 39.285156 C 27.144531 35.75 27.144531 32.214844 27.144531 28.570312 Z M 27.144531 28.570312 "/>
<path style=" stroke:none;fill-rule:nonzero;fill:rgb(96.078432%,40.000001%,18.82353%);fill-opacity:1;" d="M 14.285156 20.714844 C 15.464844 20.714844 16.644531 20.714844 17.855469 20.714844 C 17.855469 22.128906 17.855469 23.542969 17.855469 25 C 16.914062 25 15.972656 25 15 25 C 15 27.59375 15 30.1875 15 32.855469 C 12.878906 32.855469 10.757812 32.855469 8.570312 32.855469 C 8.335938 33.800781 8.101562 34.742188 7.855469 35.714844 C 7.855469 33.355469 7.855469 31 7.855469 28.570312 C 8.800781 28.570312 9.742188 28.570312 10.714844 28.570312 C 10.714844 27.15625 10.714844 25.742188 10.714844 24.285156 C 11.894531 24.285156 13.070312 24.285156 14.285156 24.285156 C 14.285156 23.105469 14.285156 21.929688 14.285156 20.714844 Z M 14.285156 20.714844 "/>
<path style=" stroke:none;fill-rule:nonzero;fill:rgb(54.11765%,54.509807%,58.039218%);fill-opacity:1;" d="M 10 20.714844 C 10.234375 20.714844 10.472656 20.714844 10.714844 20.714844 C 10.714844 22.128906 10.714844 23.542969 10.714844 25 C 9.535156 25 8.355469 25 7.144531 25 C 7.144531 26.179688 7.144531 27.355469 7.144531 28.570312 C 6.199219 28.570312 5.257812 28.570312 4.285156 28.570312 C 4.285156 32.105469 4.285156 35.644531 4.285156 39.285156 C 6.40625 39.519531 8.527344 39.757812 10.714844 40 C 10.714844 40.941406 10.714844 41.886719 10.714844 42.855469 C 13.308594 42.855469 15.898438 42.855469 18.570312 42.855469 C 18.570312 43.09375 18.570312 43.328125 18.570312 43.570312 C 15.980469 43.570312 13.386719 43.570312 10.714844 43.570312 C 10.714844 44.515625 10.714844 45.457031 10.714844 46.429688 C 15.191406 46.429688 19.671875 46.429688 24.285156 46.429688 C 24.519531 45.484375 24.757812 44.542969 25 43.570312 C 25 44.75 25 45.929688 25 47.144531 C 20.050781 47.144531 15.101562 47.144531 10 47.144531 C 10 45.964844 10 44.785156 10 43.570312 C 8.820312 43.570312 7.644531 43.570312 6.429688 43.570312 C 6.429688 42.394531 6.429688 41.214844 6.429688 40 C 5.484375 40 4.542969 40 3.570312 40 C 3.570312 35.992188 3.570312 31.984375 3.570312 27.855469 C 4.515625 27.855469 5.457031 27.855469 6.429688 27.855469 C 6.429688 26.679688 6.429688 25.5 6.429688 24.285156 C 7.605469 24.285156 8.785156 24.285156 10 24.285156 C 10 23.105469 10 21.929688 10 20.714844 Z M 10 20.714844 "/>
<path style=" stroke:none;fill-rule:nonzero;fill:rgb(0.392157%,14.901961%,28.235295%);fill-opacity:1;" d="M 7.144531 25 C 8.320312 25 9.5 25 10.714844 25 C 10.714844 26.179688 10.714844 27.355469 10.714844 28.570312 C 9.769531 28.570312 8.828125 28.570312 7.855469 28.570312 C 7.855469 32.105469 7.855469 35.644531 7.855469 39.285156 C 8.800781 39.519531 9.742188 39.757812 10.714844 40 C 8.59375 39.765625 6.472656 39.527344 4.285156 39.285156 C 4.285156 35.75 4.285156 32.214844 4.285156 28.570312 C 5.230469 28.570312 6.171875 28.570312 7.144531 28.570312 C 7.144531 27.394531 7.144531 26.214844 7.144531 25 Z M 7.144531 25 "/>
<path style=" stroke:none;fill-rule:nonzero;fill:rgb(0.392157%,14.509805%,28.235295%);fill-opacity:1;" d="M 24.285156 40 C 25.230469 40 26.171875 40 27.144531 40 C 27.144531 41.179688 27.144531 42.355469 27.144531 43.570312 C 26.199219 43.570312 25.257812 43.570312 24.285156 43.570312 C 24.285156 44.515625 24.285156 45.457031 24.285156 46.429688 C 19.808594 46.429688 15.328125 46.429688 10.714844 46.429688 C 10.714844 45.484375 10.714844 44.542969 10.714844 43.570312 C 15.191406 43.335938 19.671875 43.101562 24.285156 42.855469 C 24.285156 41.914062 24.285156 40.972656 24.285156 40 Z M 24.285156 40 "/>
<path style=" stroke:none;fill-rule:nonzero;fill:rgb(0%,10.588235%,24.313726%);fill-opacity:1;" d="M 27.855469 3.570312 C 32.101562 3.570312 36.34375 3.570312 40.714844 3.570312 C 40.714844 4.515625 40.714844 5.457031 40.714844 6.429688 C 36.472656 6.429688 32.230469 6.429688 27.855469 6.429688 C 27.855469 5.484375 27.855469 4.542969 27.855469 3.570312 Z M 27.855469 3.570312 "/>
<path style=" stroke:none;fill-rule:nonzero;fill:rgb(80.392158%,17.254902%,3.921569%);fill-opacity:1;" d="M 10.714844 39.285156 C 14.015625 39.285156 17.3125 39.285156 20.714844 39.285156 C 20.714844 40.464844 20.714844 41.644531 20.714844 42.855469 C 17.414062 42.855469 14.113281 42.855469 10.714844 42.855469 C 10.714844 41.679688 10.714844 40.5 10.714844 39.285156 Z M 10.714844 39.285156 "/>
<path style=" stroke:none;fill-rule:nonzero;fill:rgb(85.490197%,16.862746%,3.529412%);fill-opacity:1;" d="M 27.144531 28.570312 C 30.441406 28.570312 33.742188 28.570312 37.144531 28.570312 C 37.144531 29.75 37.144531 30.929688 37.144531 32.144531 C 33.84375 32.144531 30.542969 32.144531 27.144531 32.144531 C 27.144531 30.964844 27.144531 29.785156 27.144531 28.570312 Z M 27.144531 28.570312 "/>
<path style=" stroke:none;fill-rule:nonzero;fill:rgb(98.823529%,93.333334%,78.431374%);fill-opacity:1;" d="M 21.429688 13.570312 C 23.550781 13.570312 25.671875 13.570312 27.855469 13.570312 C 27.855469 15.929688 27.855469 18.285156 27.855469 20.714844 C 26.679688 20.714844 25.5 20.714844 24.285156 20.714844 C 24.285156 19.535156 24.285156 18.355469 24.285156 17.144531 C 23.34375 17.144531 22.398438 17.144531 21.429688 17.144531 C 21.429688 15.964844 21.429688 14.785156 21.429688 13.570312 Z M 21.429688 13.570312 "/>
<path style=" stroke:none;fill-rule:nonzero;fill:rgb(77.64706%,74.117649%,61.960787%);fill-opacity:1;" d="M 37.855469 20.714844 C 39.980469 20.714844 42.101562 20.714844 44.285156 20.714844 C 44.285156 21.894531 44.285156 23.070312 44.285156 24.285156 C 43.34375 24.285156 42.398438 24.285156 41.429688 24.285156 C 41.429688 25.464844 41.429688 26.644531 41.429688 27.855469 C 40.25 27.855469 39.070312 27.855469 37.855469 27.855469 C 37.855469 25.5 37.855469 23.144531 37.855469 20.714844 Z M 37.855469 20.714844 "/>
<path style=" stroke:none;fill-rule:nonzero;fill:rgb(96.862745%,27.843139%,10.196079%);fill-opacity:1;" d="M 14.285156 20.714844 C 15.464844 20.714844 16.644531 20.714844 17.855469 20.714844 C 17.855469 22.128906 17.855469 23.542969 17.855469 25 C 16.914062 25 15.972656 25 15 25 C 15 27.59375 15 30.1875 15 32.855469 C 12.878906 32.855469 10.757812 32.855469 8.570312 32.855469 C 8.335938 33.800781 8.101562 34.742188 7.855469 35.714844 C 7.855469 34.535156 7.855469 33.355469 7.855469 32.144531 C 9.742188 31.90625 11.628906 31.671875 13.570312 31.429688 C 13.808594 27.894531 14.042969 24.355469 14.285156 20.714844 Z M 14.285156 20.714844 "/>
<path style=" stroke:none;fill-rule:nonzero;fill:rgb(5.490196%,17.254902%,30.588236%);fill-opacity:1;" d="M 45 10.714844 C 45.941406 10.714844 46.886719 10.714844 47.855469 10.714844 C 47.855469 14.015625 47.855469 17.3125 47.855469 20.714844 C 46.914062 20.714844 45.972656 20.714844 45 20.714844 C 45 17.414062 45 14.113281 45 10.714844 Z M 45 10.714844 "/>
<path style=" stroke:none;fill-rule:nonzero;fill:rgb(76.47059%,77.254903%,78.431374%);fill-opacity:1;" d="M 37.144531 25 C 37.378906 25.941406 37.613281 26.886719 37.855469 27.855469 C 39.035156 27.855469 40.214844 27.855469 41.429688 27.855469 C 40.484375 28.09375 39.542969 28.328125 38.570312 28.570312 C 38.570312 29.75 38.570312 30.929688 38.570312 32.144531 C 37.394531 32.378906 36.214844 32.613281 35 32.855469 C 34.765625 34.035156 34.527344 35.214844 34.285156 36.429688 C 33.34375 36.429688 32.398438 36.429688 31.429688 36.429688 C 31.429688 37.605469 31.429688 38.785156 31.429688 40 C 30.25 40 29.070312 40 27.855469 40 C 27.855469 41.179688 27.855469 42.355469 27.855469 43.570312 C 27.621094 43.570312 27.386719 43.570312 27.144531 43.570312 C 27.144531 42.15625 27.144531 40.742188 27.144531 39.285156 C 28.320312 39.285156 29.5 39.285156 30.714844 39.285156 C 30.714844 38.105469 30.714844 36.929688 30.714844 35.714844 C 31.65625 35.714844 32.601562 35.714844 33.570312 35.714844 C 33.570312 34.535156 33.570312 33.355469 33.570312 32.144531 C 34.75 32.144531 35.929688 32.144531 37.144531 32.144531 C 36.945312 31.171875 36.945312 31.171875 36.742188 30.179688 C 36.460938 28.082031 36.464844 26.953125 37.144531 25 Z M 37.144531 25 "/>
<path style=" stroke:none;fill-rule:nonzero;fill:rgb(63.921571%,24.313726%,17.254902%);fill-opacity:1;" d="M 7.144531 25 C 8.320312 25 9.5 25 10.714844 25 C 10.714844 26.179688 10.714844 27.355469 10.714844 28.570312 C 9.769531 28.570312 8.828125 28.570312 7.855469 28.570312 C 7.855469 32.105469 7.855469 35.644531 7.855469 39.285156 C 8.800781 39.519531 9.742188 39.757812 10.714844 40 C 9.535156 40 8.355469 40 7.144531 40 C 7.144531 35.050781 7.144531 30.101562 7.144531 25 Z M 7.144531 25 "/>
<path style=" stroke:none;fill-rule:nonzero;fill:rgb(89.411765%,83.92157%,66.274512%);fill-opacity:1;" d="M 37.855469 7.144531 C 38.800781 7.144531 39.742188 7.144531 40.714844 7.144531 C 40.714844 8.085938 40.714844 9.027344 40.714844 10 C 41.65625 10.234375 42.601562 10.472656 43.570312 10.714844 C 42.863281 10.714844 42.15625 10.714844 41.429688 10.714844 C 41.429688 13.777344 41.429688 16.84375 41.429688 20 C 42.371094 20.234375 43.3125 20.472656 44.285156 20.714844 C 43.105469 20.714844 41.929688 20.714844 40.714844 20.714844 C 40.714844 17.414062 40.714844 14.113281 40.714844 10.714844 C 39.769531 10.714844 38.828125 10.714844 37.855469 10.714844 C 37.855469 9.535156 37.855469 8.355469 37.855469 7.144531 Z M 37.855469 7.144531 "/>
<path style=" stroke:none;fill-rule:nonzero;fill:rgb(19.607843%,21.568628%,29.803923%);fill-opacity:1;" d="M 24.285156 40 C 25.230469 40 26.171875 40 27.144531 40 C 27.144531 41.179688 27.144531 42.355469 27.144531 43.570312 C 26.199219 43.570312 25.257812 43.570312 24.285156 43.570312 C 24.050781 44.515625 23.8125 45.457031 23.570312 46.429688 C 23.570312 45.484375 23.570312 44.542969 23.570312 43.570312 C 21.921875 43.570312 20.269531 43.570312 18.570312 43.570312 C 18.570312 43.335938 18.570312 43.101562 18.570312 42.855469 C 20.457031 42.855469 22.34375 42.855469 24.285156 42.855469 C 24.285156 41.914062 24.285156 40.972656 24.285156 40 Z M 24.285156 40 "/>
<path style=" stroke:none;fill-rule:nonzero;fill:rgb(62.7451%,15.686275%,6.666667%);fill-opacity:1;" d="M 20.714844 39.285156 C 22.835938 39.285156 24.957031 39.285156 27.144531 39.285156 C 26.199219 39.519531 25.257812 39.757812 24.285156 40 C 24.285156 40.941406 24.285156 41.886719 24.285156 42.855469 C 23.105469 42.855469 21.929688 42.855469 20.714844 42.855469 C 20.714844 41.679688 20.714844 40.5 20.714844 39.285156 Z M 20.714844 39.285156 "/>
<path style=" stroke:none;fill-rule:nonzero;fill:rgb(7.450981%,16.078432%,27.058825%);fill-opacity:1;" d="M 33.570312 28.570312 C 34.75 28.570312 35.929688 28.570312 37.144531 28.570312 C 37.144531 29.75 37.144531 30.929688 37.144531 32.144531 C 35.964844 32.144531 34.785156 32.144531 33.570312 32.144531 C 33.570312 30.964844 33.570312 29.785156 33.570312 28.570312 Z M 33.570312 28.570312 "/>
<path style=" stroke:none;fill-rule:nonzero;fill:rgb(95.294118%,40.392157%,20%);fill-opacity:1;" d="M 14.285156 20.714844 C 15.464844 20.714844 16.644531 20.714844 17.855469 20.714844 C 17.855469 21.894531 17.855469 23.070312 17.855469 24.285156 C 16.679688 24.285156 15.5 24.285156 14.285156 24.285156 C 14.285156 23.105469 14.285156 21.929688 14.285156 20.714844 Z M 14.285156 20.714844 "/>
<path style=" stroke:none;fill-rule:nonzero;fill:rgb(4.705882%,16.078432%,29.411766%);fill-opacity:1;" d="M 24.285156 6.429688 C 25.464844 6.429688 26.644531 6.429688 27.855469 6.429688 C 27.855469 7.605469 27.855469 8.785156 27.855469 10 C 26.679688 10 25.5 10 24.285156 10 C 24.285156 8.820312 24.285156 7.644531 24.285156 6.429688 Z M 24.285156 6.429688 "/>
<path style=" stroke:none;fill-rule:nonzero;fill:rgb(3.921569%,20.392157%,32.156864%);fill-opacity:1;" d="M 28.570312 4.285156 C 30.929688 4.285156 33.285156 4.285156 35.714844 4.285156 C 35.480469 4.992188 35.242188 5.699219 35 6.429688 C 32.878906 6.191406 30.757812 5.957031 28.570312 5.714844 C 28.570312 5.242188 28.570312 4.769531 28.570312 4.285156 Z M 28.570312 4.285156 "/>
<path style=" stroke:none;fill-rule:nonzero;fill:rgb(89.411765%,78.431374%,61.56863%);fill-opacity:1;" d="M 34.285156 25 C 35.230469 25 36.171875 25 37.144531 25 C 36.90625 26.179688 36.671875 27.355469 36.429688 28.570312 C 34.542969 28.570312 32.65625 28.570312 30.714844 28.570312 C 30.714844 28.335938 30.714844 28.101562 30.714844 27.855469 C 31.894531 27.855469 33.070312 27.855469 34.285156 27.855469 C 34.285156 26.914062 34.285156 25.972656 34.285156 25 Z M 34.285156 25 "/>
<path style=" stroke:none;fill-rule:nonzero;fill:rgb(0%,14.509805%,27.843139%);fill-opacity:1;" d="M 35.714844 4.285156 C 37.363281 4.285156 39.015625 4.285156 40.714844 4.285156 C 40.714844 4.992188 40.714844 5.699219 40.714844 6.429688 C 38.828125 6.429688 36.941406 6.429688 35 6.429688 C 35.234375 5.722656 35.472656 5.015625 35.714844 4.285156 Z M 35.714844 4.285156 "/>
<path style=" stroke:none;fill-rule:nonzero;fill:rgb(67.450982%,68.627453%,65.882355%);fill-opacity:1;" d="M 37.144531 25 C 37.378906 25.941406 37.613281 26.886719 37.855469 27.855469 C 39.035156 27.855469 40.214844 27.855469 41.429688 27.855469 C 40.484375 28.09375 39.542969 28.328125 38.570312 28.570312 C 38.570312 29.75 38.570312 30.929688 38.570312 32.144531 C 38.101562 32.144531 37.628906 32.144531 37.144531 32.144531 C 36.609375 29.527344 36.257812 27.554688 37.144531 25 Z M 37.144531 25 "/>
<path style=" stroke:none;fill-rule:nonzero;fill:rgb(5.882353%,16.862746%,29.019609%);fill-opacity:1;" d="M 27.144531 36.429688 C 28.320312 36.429688 29.5 36.429688 30.714844 36.429688 C 30.714844 37.371094 30.714844 38.3125 30.714844 39.285156 C 29.535156 39.285156 28.355469 39.285156 27.144531 39.285156 C 27.144531 38.34375 27.144531 37.398438 27.144531 36.429688 Z M 27.144531 36.429688 "/>
<path style=" stroke:none;fill-rule:nonzero;fill:rgb(4.313726%,15.686275%,27.843139%);fill-opacity:1;" d="M 30.714844 32.144531 C 31.65625 32.144531 32.601562 32.144531 33.570312 32.144531 C 33.570312 33.320312 33.570312 34.5 33.570312 35.714844 C 32.628906 35.714844 31.6875 35.714844 30.714844 35.714844 C 30.714844 34.535156 30.714844 33.355469 30.714844 32.144531 Z M 30.714844 32.144531 "/>
<path style=" stroke:none;fill-rule:nonzero;fill:rgb(68.627453%,14.509805%,3.529412%);fill-opacity:1;" d="M 30.714844 28.570312 C 31.65625 28.570312 32.601562 28.570312 33.570312 28.570312 C 33.570312 29.75 33.570312 30.929688 33.570312 32.144531 C 32.628906 32.144531 31.6875 32.144531 30.714844 32.144531 C 30.714844 30.964844 30.714844 29.785156 30.714844 28.570312 Z M 30.714844 28.570312 "/>
<path style=" stroke:none;fill-rule:nonzero;fill:rgb(1.568628%,14.901961%,27.450982%);fill-opacity:1;" d="M 37.855469 25 C 39.035156 25 40.214844 25 41.429688 25 C 41.429688 25.941406 41.429688 26.886719 41.429688 27.855469 C 40.25 27.855469 39.070312 27.855469 37.855469 27.855469 C 37.855469 26.914062 37.855469 25.972656 37.855469 25 Z M 37.855469 25 "/>
<path style=" stroke:none;fill-rule:nonzero;fill:rgb(7.843138%,19.215687%,30.980393%);fill-opacity:1;" d="M 7.144531 25 C 8.320312 25 9.5 25 10.714844 25 C 10.714844 25.941406 10.714844 26.886719 10.714844 27.855469 C 9.535156 27.855469 8.355469 27.855469 7.144531 27.855469 C 7.144531 26.914062 7.144531 25.972656 7.144531 25 Z M 7.144531 25 "/>
<path style=" stroke:none;fill-rule:nonzero;fill:rgb(5.490196%,17.647059%,29.019609%);fill-opacity:1;" d="M 41.429688 20.714844 C 42.371094 20.714844 43.3125 20.714844 44.285156 20.714844 C 44.285156 21.894531 44.285156 23.070312 44.285156 24.285156 C 43.34375 24.285156 42.398438 24.285156 41.429688 24.285156 C 41.429688 23.105469 41.429688 21.929688 41.429688 20.714844 Z M 41.429688 20.714844 "/>
<path style=" stroke:none;fill-rule:nonzero;fill:rgb(6.666667%,16.470589%,28.627452%);fill-opacity:1;" d="M 10.714844 21.429688 C 11.894531 21.429688 13.070312 21.429688 14.285156 21.429688 C 14.285156 22.371094 14.285156 23.3125 14.285156 24.285156 C 13.105469 24.285156 11.929688 24.285156 10.714844 24.285156 C 10.714844 23.34375 10.714844 22.398438 10.714844 21.429688 Z M 10.714844 21.429688 "/>
<path style=" stroke:none;fill-rule:nonzero;fill:rgb(98.431373%,40.000001%,18.431373%);fill-opacity:1;" d="M 17.855469 17.855469 C 19.035156 17.855469 20.214844 17.855469 21.429688 17.855469 C 21.429688 18.800781 21.429688 19.742188 21.429688 20.714844 C 20.25 20.714844 19.070312 20.714844 17.855469 20.714844 C 17.855469 19.769531 17.855469 18.828125 17.855469 17.855469 Z M 17.855469 17.855469 "/>
<path style=" stroke:none;fill-rule:nonzero;fill:rgb(1.960784%,14.901961%,27.843139%);fill-opacity:1;" d="M 17.855469 13.570312 C 18.800781 13.570312 19.742188 13.570312 20.714844 13.570312 C 20.714844 14.75 20.714844 15.929688 20.714844 17.144531 C 19.769531 17.144531 18.828125 17.144531 17.855469 17.144531 C 17.855469 15.964844 17.855469 14.785156 17.855469 13.570312 Z M 17.855469 13.570312 "/>
<path style=" stroke:none;fill-rule:nonzero;fill:rgb(3.529412%,15.294118%,27.450982%);fill-opacity:1;" d="M 20.714844 10.714844 C 21.894531 10.714844 23.070312 10.714844 24.285156 10.714844 C 24.285156 11.65625 24.285156 12.601562 24.285156 13.570312 C 23.105469 13.570312 21.929688 13.570312 20.714844 13.570312 C 20.714844 12.628906 20.714844 11.6875 20.714844 10.714844 Z M 20.714844 10.714844 "/>
<path style=" stroke:none;fill-rule:nonzero;fill:rgb(84.313726%,16.470589%,3.529412%);fill-opacity:1;" d="M 20.714844 35.714844 C 21.65625 35.949219 22.601562 36.1875 23.570312 36.429688 C 23.570312 37.371094 23.570312 38.3125 23.570312 39.285156 C 22.628906 39.285156 21.6875 39.285156 20.714844 39.285156 C 20.714844 38.105469 20.714844 36.929688 20.714844 35.714844 Z M 20.714844 35.714844 "/>
</g>
</svg>
