<?xml version="1.0" encoding="UTF-8"?>
<svg xmlns="http://www.w3.org/2000/svg" xmlns:xlink="http://www.w3.org/1999/xlink" width="50px" height="50px" viewBox="0 0 50 50" version="1.1">
<g id="surface1">
<path style=" stroke:none;fill-rule:nonzero;fill:rgb(0.784314%,76.47059%,27.058825%);fill-opacity:1;" d="M 22.144531 2.144531 C 24.265625 2.144531 26.386719 2.144531 28.570312 2.144531 C 28.570312 2.613281 28.570312 3.085938 28.570312 3.570312 C 29.042969 3.570312 29.515625 3.570312 30 3.570312 C 30 4.042969 30 4.515625 30 5 C 30.707031 5 31.414062 5 32.144531 5 C 32.144531 5.941406 32.144531 6.886719 32.144531 7.855469 C 33.511719 9.464844 33.511719 9.464844 35 10.714844 C 35 9.535156 35 8.355469 35 7.144531 C 35.472656 7.144531 35.941406 7.144531 36.429688 7.144531 C 36.429688 6.4375 36.429688 5.730469 36.429688 5 C 37.453125 4.941406 38.480469 4.902344 39.507812 4.867188 C 40.367188 4.828125 40.367188 4.828125 41.242188 4.789062 C 42.855469 5 42.855469 5 44.136719 5.992188 C 45 7.144531 45 7.144531 45 8.570312 C 45.707031 8.808594 46.414062 9.042969 47.144531 9.285156 C 47.144531 11.171875 47.144531 13.058594 47.144531 15 C 46.4375 15 45.730469 15 45 15 C 45 15.707031 45 16.414062 45 17.144531 C 44.292969 17.378906 43.585938 17.613281 42.855469 17.855469 C 43.328125 18.5625 43.800781 19.269531 44.285156 20 C 44.285156 19.292969 44.285156 18.585938 44.285156 17.855469 C 45.625 18.035156 45.625 18.035156 47.144531 18.570312 C 48.035156 20.042969 48.035156 20.042969 48.570312 21.429688 C 49.042969 21.429688 49.515625 21.429688 50 21.429688 C 50 23.785156 50 26.144531 50 28.570312 C 49.527344 28.570312 49.058594 28.570312 48.570312 28.570312 C 48.570312 29.042969 48.570312 29.515625 48.570312 30 C 47.863281 30.355469 47.863281 30.355469 47.144531 30.714844 C 47.144531 31.1875 47.144531 31.65625 47.144531 32.144531 C 46.199219 32.144531 45.257812 32.144531 44.285156 32.144531 C 44.285156 31.4375 44.285156 30.730469 44.285156 30 C 44.050781 30.707031 43.8125 31.414062 43.570312 32.144531 C 44.277344 32.496094 44.277344 32.496094 45 32.855469 C 45 33.5625 45 34.269531 45 35 C 45.707031 35 46.414062 35 47.144531 35 C 47.144531 37.121094 47.144531 39.242188 47.144531 41.429688 C 46.4375 41.429688 45.730469 41.429688 45 41.429688 C 45 41.898438 45 42.371094 45 42.855469 C 44.292969 43.210938 44.292969 43.210938 43.570312 43.570312 C 43.570312 44.042969 43.570312 44.515625 43.570312 45 C 41.214844 45 38.855469 45 36.429688 45 C 36.429688 44.292969 36.429688 43.585938 36.429688 42.855469 C 35.957031 42.855469 35.484375 42.855469 35 42.855469 C 35 41.679688 35 40.5 35 39.285156 C 34.765625 39.992188 34.527344 40.699219 34.285156 41.429688 C 33.578125 41.664062 32.871094 41.898438 32.144531 42.144531 C 32.144531 43.085938 32.144531 44.027344 32.144531 45 C 31.4375 45 30.730469 45 30 45 C 30 45.472656 30 45.941406 30 46.429688 C 29.527344 46.429688 29.058594 46.429688 28.570312 46.429688 C 28.570312 46.898438 28.570312 47.371094 28.570312 47.855469 C 26.449219 47.855469 24.328125 47.855469 22.144531 47.855469 C 22.144531 47.386719 22.144531 46.914062 22.144531 46.429688 C 21.4375 46.429688 20.730469 46.429688 20 46.429688 C 20 45.957031 20 45.484375 20 45 C 19.292969 45 18.585938 45 17.855469 45 C 17.855469 44.058594 17.855469 43.113281 17.855469 42.144531 C 17.386719 41.90625 16.914062 41.671875 16.429688 41.429688 C 16.429688 40.722656 16.429688 40.015625 16.429688 39.285156 C 16.191406 40.464844 15.957031 41.644531 15.714844 42.855469 C 15.007812 42.855469 14.300781 42.855469 13.570312 42.855469 C 13.570312 43.5625 13.570312 44.269531 13.570312 45 C 11.449219 45 9.328125 45 7.144531 45 C 7.144531 44.292969 7.144531 43.585938 7.144531 42.855469 C 6.4375 42.855469 5.730469 42.855469 5 42.855469 C 5 42.386719 5 41.914062 5 41.429688 C 4.527344 41.429688 4.058594 41.429688 3.570312 41.429688 C 3.570312 39.308594 3.570312 37.1875 3.570312 35 C 4.042969 35 4.515625 35 5 35 C 5 34.292969 5 33.585938 5 32.855469 C 6.0625 32.503906 6.0625 32.503906 7.144531 32.144531 C 7.144531 31.4375 7.144531 30.730469 7.144531 30 C 6.90625 30.707031 6.671875 31.414062 6.429688 32.144531 C 5.484375 32.144531 4.542969 32.144531 3.570312 32.144531 C 3.570312 31.4375 3.570312 30.730469 3.570312 30 C 2.863281 30 2.15625 30 1.429688 30 C 1.429688 29.527344 1.429688 29.058594 1.429688 28.570312 C 0.957031 28.570312 0.484375 28.570312 0 28.570312 C 0 26.214844 0 23.855469 0 21.429688 C 0.472656 21.429688 0.941406 21.429688 1.429688 21.429688 C 1.429688 20.957031 1.429688 20.484375 1.429688 20 C 2.136719 20 2.84375 20 3.570312 20 C 3.570312 19.292969 3.570312 18.585938 3.570312 17.855469 C 4.515625 17.855469 5.457031 17.855469 6.429688 17.855469 C 6.664062 18.5625 6.898438 19.269531 7.144531 20 C 7.144531 19.292969 7.144531 18.585938 7.144531 17.855469 C 6.4375 17.621094 5.730469 17.386719 5 17.144531 C 5 16.4375 5 15.730469 5 15 C 4.527344 15 4.058594 15 3.570312 15 C 3.570312 12.878906 3.570312 10.757812 3.570312 8.570312 C 4.042969 8.570312 4.515625 8.570312 5 8.570312 C 5 8.101562 5 7.628906 5 7.144531 C 5.707031 7.144531 6.414062 7.144531 7.144531 7.144531 C 7.144531 6.4375 7.144531 5.730469 7.144531 5 C 9.265625 5 11.386719 5 13.570312 5 C 13.570312 5.707031 13.570312 6.414062 13.570312 7.144531 C 14.277344 7.144531 14.984375 7.144531 15.714844 7.144531 C 15.949219 7.613281 16.1875 8.085938 16.429688 8.570312 C 16.898438 8.335938 17.371094 8.101562 17.855469 7.855469 C 17.855469 6.914062 17.855469 5.972656 17.855469 5 C 18.5625 5 19.269531 5 20 5 C 20 4.527344 20 4.058594 20 3.570312 C 20.707031 3.570312 21.414062 3.570312 22.144531 3.570312 C 22.144531 3.101562 22.144531 2.628906 22.144531 2.144531 Z M 22.144531 2.144531 "/>
<path style=" stroke:none;fill-rule:nonzero;fill:rgb(6.27451%,78.823531%,26.666668%);fill-opacity:1;" d="M 3.570312 8.570312 C 4.277344 8.808594 4.984375 9.042969 5.714844 9.285156 C 5.714844 11.171875 5.714844 13.058594 5.714844 15 C 6.421875 15 7.128906 15 7.855469 15 C 7.855469 14.527344 7.855469 14.058594 7.855469 13.570312 C 8.5625 13.335938 9.269531 13.101562 10 12.855469 C 10.898438 14.933594 11.429688 16.28125 11.429688 18.570312 C 10.722656 18.570312 10.015625 18.570312 9.285156 18.570312 C 9.285156 19.75 9.285156 20.929688 9.285156 22.144531 C 8.105469 22.144531 6.929688 22.144531 5.714844 22.144531 C 5.714844 21.671875 5.714844 21.199219 5.714844 20.714844 C 5.007812 20.714844 4.300781 20.714844 3.570312 20.714844 C 3.570312 21.1875 3.570312 21.65625 3.570312 22.144531 C 3.101562 22.144531 2.628906 22.144531 2.144531 22.144531 C 2.144531 24.027344 2.144531 25.914062 2.144531 27.855469 C 2.851562 27.855469 3.558594 27.855469 4.285156 27.855469 C 4.285156 28.328125 4.285156 28.800781 4.285156 29.285156 C 4.757812 29.285156 5.230469 29.285156 5.714844 29.285156 C 5.714844 28.8125 5.714844 28.34375 5.714844 27.855469 C 6.894531 27.855469 8.070312 27.855469 9.285156 27.855469 C 9.285156 29.035156 9.285156 30.214844 9.285156 31.429688 C 9.992188 31.429688 10.699219 31.429688 11.429688 31.429688 C 11.429688 32.84375 11.429688 34.257812 11.429688 35.714844 C 11.898438 35.714844 12.371094 35.714844 12.855469 35.714844 C 12.855469 36.1875 12.855469 36.65625 12.855469 37.144531 C 14.269531 37.144531 15.6875 37.144531 17.144531 37.144531 C 17.144531 37.613281 17.144531 38.085938 17.144531 38.570312 C 18.792969 38.570312 20.441406 38.570312 22.144531 38.570312 C 22.144531 39.277344 22.144531 39.984375 22.144531 40.714844 C 24.027344 40.714844 25.914062 40.714844 27.855469 40.714844 C 27.855469 40.242188 27.855469 39.769531 27.855469 39.285156 C 29.742188 39.285156 31.628906 39.285156 33.570312 39.285156 C 33.808594 39.992188 34.042969 40.699219 34.285156 41.429688 C 33.578125 41.664062 32.871094 41.898438 32.144531 42.144531 C 32.144531 43.085938 32.144531 44.027344 32.144531 45 C 31.4375 45 30.730469 45 30 45 C 30 45.472656 30 45.941406 30 46.429688 C 29.527344 46.429688 29.058594 46.429688 28.570312 46.429688 C 28.570312 46.898438 28.570312 47.371094 28.570312 47.855469 C 26.449219 47.855469 24.328125 47.855469 22.144531 47.855469 C 22.144531 47.386719 22.144531 46.914062 22.144531 46.429688 C 21.4375 46.429688 20.730469 46.429688 20 46.429688 C 20 45.957031 20 45.484375 20 45 C 19.292969 45 18.585938 45 17.855469 45 C 17.855469 44.058594 17.855469 43.113281 17.855469 42.144531 C 17.386719 41.90625 16.914062 41.671875 16.429688 41.429688 C 16.429688 40.722656 16.429688 40.015625 16.429688 39.285156 C 16.191406 40.464844 15.957031 41.644531 15.714844 42.855469 C 15.007812 42.855469 14.300781 42.855469 13.570312 42.855469 C 13.570312 43.5625 13.570312 44.269531 13.570312 45 C 11.449219 45 9.328125 45 7.144531 45 C 7.144531 44.292969 7.144531 43.585938 7.144531 42.855469 C 6.4375 42.855469 5.730469 42.855469 5 42.855469 C 5 42.386719 5 41.914062 5 41.429688 C 4.527344 41.429688 4.058594 41.429688 3.570312 41.429688 C 3.570312 39.308594 3.570312 37.1875 3.570312 35 C 4.042969 35 4.515625 35 5 35 C 5 34.292969 5 33.585938 5 32.855469 C 6.0625 32.503906 6.0625 32.503906 7.144531 32.144531 C 7.144531 31.4375 7.144531 30.730469 7.144531 30 C 6.90625 30.707031 6.671875 31.414062 6.429688 32.144531 C 5.484375 32.144531 4.542969 32.144531 3.570312 32.144531 C 3.570312 31.4375 3.570312 30.730469 3.570312 30 C 2.863281 30 2.15625 30 1.429688 30 C 1.429688 29.527344 1.429688 29.058594 1.429688 28.570312 C 0.957031 28.570312 0.484375 28.570312 0 28.570312 C 0 26.214844 0 23.855469 0 21.429688 C 0.472656 21.429688 0.941406 21.429688 1.429688 21.429688 C 1.429688 20.957031 1.429688 20.484375 1.429688 20 C 2.136719 20 2.84375 20 3.570312 20 C 3.570312 19.292969 3.570312 18.585938 3.570312 17.855469 C 4.515625 17.855469 5.457031 17.855469 6.429688 17.855469 C 6.664062 18.5625 6.898438 19.269531 7.144531 20 C 7.144531 19.292969 7.144531 18.585938 7.144531 17.855469 C 6.4375 17.621094 5.730469 17.386719 5 17.144531 C 5 16.4375 5 15.730469 5 15 C 4.527344 15 4.058594 15 3.570312 15 C 3.570312 12.878906 3.570312 10.757812 3.570312 8.570312 Z M 3.570312 8.570312 "/>
<path style=" stroke:none;fill-rule:nonzero;fill:rgb(8.235294%,36.862746%,36.078432%);fill-opacity:1;" d="M 39.285156 17.144531 C 40.730469 17.574219 42.15625 18.050781 43.570312 18.570312 C 43.808594 19.042969 44.042969 19.515625 44.285156 20 C 44.285156 19.292969 44.285156 18.585938 44.285156 17.855469 C 45.625 18.035156 45.625 18.035156 47.144531 18.570312 C 48.035156 20.042969 48.035156 20.042969 48.570312 21.429688 C 49.042969 21.429688 49.515625 21.429688 50 21.429688 C 50 23.785156 50 26.144531 50 28.570312 C 49.527344 28.570312 49.058594 28.570312 48.570312 28.570312 C 48.570312 29.042969 48.570312 29.515625 48.570312 30 C 48.101562 30.234375 47.628906 30.472656 47.144531 30.714844 C 47.144531 31.1875 47.144531 31.65625 47.144531 32.144531 C 46.199219 32.144531 45.257812 32.144531 44.285156 32.144531 C 44.285156 31.4375 44.285156 30.730469 44.285156 30 C 44.050781 30.707031 43.8125 31.414062 43.570312 32.144531 C 44.042969 32.378906 44.515625 32.613281 45 32.855469 C 45 33.5625 45 34.269531 45 35 C 45.707031 35 46.414062 35 47.144531 35 C 47.144531 37.121094 47.144531 39.242188 47.144531 41.429688 C 46.4375 41.429688 45.730469 41.429688 45 41.429688 C 45 41.898438 45 42.371094 45 42.855469 C 44.292969 43.210938 44.292969 43.210938 43.570312 43.570312 C 43.570312 44.042969 43.570312 44.515625 43.570312 45 C 41.214844 45 38.855469 45 36.429688 45 C 36.429688 44.292969 36.429688 43.585938 36.429688 42.855469 C 35.957031 42.855469 35.484375 42.855469 35 42.855469 C 35 41.679688 35 40.5 35 39.285156 C 34.527344 39.285156 34.058594 39.285156 33.570312 39.285156 C 33.570312 38.578125 33.570312 37.871094 33.570312 37.144531 C 34.75 37.144531 35.929688 37.144531 37.144531 37.144531 C 37.144531 36.4375 37.144531 35.730469 37.144531 35 C 37.613281 35 38.085938 35 38.570312 35 C 38.570312 33.820312 38.570312 32.644531 38.570312 31.429688 C 39.277344 31.429688 39.984375 31.429688 40.714844 31.429688 C 40.714844 30.25 40.714844 29.070312 40.714844 27.855469 C 43.070312 27.855469 45.429688 27.855469 47.855469 27.855469 C 47.855469 25.972656 47.855469 24.085938 47.855469 22.144531 C 47.386719 22.144531 46.914062 22.144531 46.429688 22.144531 C 46.429688 21.671875 46.429688 21.199219 46.429688 20.714844 C 45.722656 20.714844 45.015625 20.714844 44.285156 20.714844 C 44.285156 21.1875 44.285156 21.65625 44.285156 22.144531 C 43.105469 22.144531 41.929688 22.144531 40.714844 22.144531 C 40.714844 20.964844 40.714844 19.785156 40.714844 18.570312 C 40.242188 18.570312 39.769531 18.570312 39.285156 18.570312 C 39.285156 18.101562 39.285156 17.628906 39.285156 17.144531 Z M 39.285156 17.144531 "/>
<path style=" stroke:none;fill-rule:nonzero;fill:rgb(14.509805%,19.607843%,24.705882%);fill-opacity:1;" d="M 3.570312 8.570312 C 4.277344 8.808594 4.984375 9.042969 5.714844 9.285156 C 5.714844 11.171875 5.714844 13.058594 5.714844 15 C 6.421875 15 7.128906 15 7.855469 15 C 7.855469 14.527344 7.855469 14.058594 7.855469 13.570312 C 8.5625 13.335938 9.269531 13.101562 10 12.855469 C 10.898438 14.933594 11.429688 16.28125 11.429688 18.570312 C 10.722656 18.570312 10.015625 18.570312 9.285156 18.570312 C 9.285156 19.75 9.285156 20.929688 9.285156 22.144531 C 8.105469 22.144531 6.929688 22.144531 5.714844 22.144531 C 5.714844 21.671875 5.714844 21.199219 5.714844 20.714844 C 5.007812 20.714844 4.300781 20.714844 3.570312 20.714844 C 3.570312 21.1875 3.570312 21.65625 3.570312 22.144531 C 3.101562 22.144531 2.628906 22.144531 2.144531 22.144531 C 2.144531 24.027344 2.144531 25.914062 2.144531 27.855469 C 2.851562 27.855469 3.558594 27.855469 4.285156 27.855469 C 4.285156 28.328125 4.285156 28.800781 4.285156 29.285156 C 4.757812 29.285156 5.230469 29.285156 5.714844 29.285156 C 5.714844 28.8125 5.714844 28.34375 5.714844 27.855469 C 6.894531 27.855469 8.070312 27.855469 9.285156 27.855469 C 9.285156 29.035156 9.285156 30.214844 9.285156 31.429688 C 9.992188 31.429688 10.699219 31.429688 11.429688 31.429688 C 11.429688 32.136719 11.429688 32.84375 11.429688 33.570312 C 10.722656 33.570312 10.015625 33.570312 9.285156 33.570312 C 9.285156 34.75 9.285156 35.929688 9.285156 37.144531 C 8.8125 37.144531 8.34375 37.144531 7.855469 37.144531 C 7.855469 36.4375 7.855469 35.730469 7.855469 35 C 7.148438 35 6.441406 35 5.714844 35 C 5.714844 36.886719 5.714844 38.769531 5.714844 40.714844 C 6.421875 40.714844 7.128906 40.714844 7.855469 40.714844 C 7.855469 41.421875 7.855469 42.128906 7.855469 42.855469 C 9.507812 42.855469 11.15625 42.855469 12.855469 42.855469 C 12.855469 43.328125 12.855469 43.800781 12.855469 44.285156 C 10.972656 44.285156 9.085938 44.285156 7.144531 44.285156 C 7.144531 43.8125 7.144531 43.34375 7.144531 42.855469 C 6.4375 42.855469 5.730469 42.855469 5 42.855469 C 5 42.386719 5 41.914062 5 41.429688 C 4.527344 41.429688 4.058594 41.429688 3.570312 41.429688 C 3.570312 39.308594 3.570312 37.1875 3.570312 35 C 4.042969 35 4.515625 35 5 35 C 5 34.292969 5 33.585938 5 32.855469 C 6.0625 32.503906 6.0625 32.503906 7.144531 32.144531 C 7.144531 31.4375 7.144531 30.730469 7.144531 30 C 6.90625 30.707031 6.671875 31.414062 6.429688 32.144531 C 5.484375 32.144531 4.542969 32.144531 3.570312 32.144531 C 3.570312 31.4375 3.570312 30.730469 3.570312 30 C 2.863281 30 2.15625 30 1.429688 30 C 1.429688 29.527344 1.429688 29.058594 1.429688 28.570312 C 0.957031 28.570312 0.484375 28.570312 0 28.570312 C 0 26.214844 0 23.855469 0 21.429688 C 0.472656 21.429688 0.941406 21.429688 1.429688 21.429688 C 1.429688 20.957031 1.429688 20.484375 1.429688 20 C 2.136719 20 2.84375 20 3.570312 20 C 3.570312 19.292969 3.570312 18.585938 3.570312 17.855469 C 4.515625 17.855469 5.457031 17.855469 6.429688 17.855469 C 6.664062 18.5625 6.898438 19.269531 7.144531 20 C 7.144531 19.292969 7.144531 18.585938 7.144531 17.855469 C 6.4375 17.621094 5.730469 17.386719 5 17.144531 C 5 16.4375 5 15.730469 5 15 C 4.527344 15 4.058594 15 3.570312 15 C 3.570312 12.878906 3.570312 10.757812 3.570312 8.570312 Z M 3.570312 8.570312 "/>
<path style=" stroke:none;fill-rule:nonzero;fill:rgb(12.941177%,16.470589%,24.313726%);fill-opacity:1;" d="M 36.429688 5 C 37.453125 4.941406 38.480469 4.902344 39.507812 4.867188 C 40.367188 4.828125 40.367188 4.828125 41.242188 4.789062 C 42.855469 5 42.855469 5 44.136719 5.992188 C 45 7.144531 45 7.144531 45 8.570312 C 45.707031 8.808594 46.414062 9.042969 47.144531 9.285156 C 47.144531 11.171875 47.144531 13.058594 47.144531 15 C 46.4375 15 45.730469 15 45 15 C 45 15.472656 45 15.941406 45 16.429688 C 43.585938 16.429688 42.171875 16.429688 40.714844 16.429688 C 40.714844 15.25 40.714844 14.070312 40.714844 12.855469 C 41.421875 12.855469 42.128906 12.855469 42.855469 12.855469 C 42.855469 13.5625 42.855469 14.269531 42.855469 15 C 43.328125 15 43.800781 15 44.285156 15 C 44.285156 13.113281 44.285156 11.230469 44.285156 9.285156 C 43.8125 9.285156 43.34375 9.285156 42.855469 9.285156 C 42.855469 8.8125 42.855469 8.34375 42.855469 7.855469 C 40.972656 7.855469 39.085938 7.855469 37.144531 7.855469 C 37.144531 8.328125 37.144531 8.800781 37.144531 9.285156 C 37.851562 9.285156 38.558594 9.285156 39.285156 9.285156 C 39.285156 9.992188 39.285156 10.699219 39.285156 11.429688 C 37.871094 11.429688 36.457031 11.429688 35 11.429688 C 35 11.898438 35 12.371094 35 12.855469 C 34.527344 12.855469 34.058594 12.855469 33.570312 12.855469 C 33.570312 12.386719 33.570312 11.914062 33.570312 11.429688 C 31.6875 11.429688 29.800781 11.429688 27.855469 11.429688 C 27.855469 10.25 27.855469 9.070312 27.855469 7.855469 C 28.769531 7.929688 29.683594 8.003906 30.625 8.082031 C 31.394531 8.140625 31.394531 8.140625 32.183594 8.207031 C 33.570312 8.570312 33.570312 8.570312 35 10.714844 C 35 9.535156 35 8.355469 35 7.144531 C 35.472656 7.144531 35.941406 7.144531 36.429688 7.144531 C 36.429688 6.4375 36.429688 5.730469 36.429688 5 Z M 36.429688 5 "/>
<path style=" stroke:none;fill-rule:nonzero;fill:rgb(25.098041%,29.411766%,32.156864%);fill-opacity:1;" d="M 22.144531 2.144531 C 24.265625 2.144531 26.386719 2.144531 28.570312 2.144531 C 28.570312 2.613281 28.570312 3.085938 28.570312 3.570312 C 29.042969 3.570312 29.515625 3.570312 30 3.570312 C 30 4.042969 30 4.515625 30 5 C 30.707031 5 31.414062 5 32.144531 5 C 32.144531 5.941406 32.144531 6.886719 32.144531 7.855469 C 31.4375 7.855469 30.730469 7.855469 30 7.855469 C 30 7.148438 30 6.441406 30 5.714844 C 29.292969 5.714844 28.585938 5.714844 27.855469 5.714844 C 27.855469 5.007812 27.855469 4.300781 27.855469 3.570312 C 25.972656 3.808594 24.085938 4.042969 22.144531 4.285156 C 22.144531 4.757812 22.144531 5.230469 22.144531 5.714844 C 21.671875 5.714844 21.199219 5.714844 20.714844 5.714844 C 20.714844 6.1875 20.714844 6.65625 20.714844 7.144531 C 21.1875 7.144531 21.65625 7.144531 22.144531 7.144531 C 22.144531 8.558594 22.144531 9.972656 22.144531 11.429688 C 18.605469 11.429688 15.070312 11.429688 11.429688 11.429688 C 11.429688 10.722656 11.429688 10.015625 11.429688 9.285156 C 11.898438 9.285156 12.371094 9.285156 12.855469 9.285156 C 12.855469 8.8125 12.855469 8.34375 12.855469 7.855469 C 11.207031 7.855469 9.558594 7.855469 7.855469 7.855469 C 7.855469 7.148438 7.855469 6.441406 7.855469 5.714844 C 9.507812 5.714844 11.15625 5.714844 12.855469 5.714844 C 12.855469 6.1875 12.855469 6.65625 12.855469 7.144531 C 13.800781 7.144531 14.742188 7.144531 15.714844 7.144531 C 15.949219 7.613281 16.1875 8.085938 16.429688 8.570312 C 16.898438 8.335938 17.371094 8.101562 17.855469 7.855469 C 17.855469 6.914062 17.855469 5.972656 17.855469 5 C 18.5625 5 19.269531 5 20 5 C 20 4.527344 20 4.058594 20 3.570312 C 20.707031 3.570312 21.414062 3.570312 22.144531 3.570312 C 22.144531 3.101562 22.144531 2.628906 22.144531 2.144531 Z M 22.144531 2.144531 "/>
<path style=" stroke:none;fill-rule:nonzero;fill:rgb(12.54902%,14.509805%,18.82353%);fill-opacity:1;" d="M 39.285156 17.144531 C 40.730469 17.574219 42.15625 18.050781 43.570312 18.570312 C 43.808594 19.042969 44.042969 19.515625 44.285156 20 C 44.285156 19.292969 44.285156 18.585938 44.285156 17.855469 C 45.625 18.035156 45.625 18.035156 47.144531 18.570312 C 48.035156 20.042969 48.035156 20.042969 48.570312 21.429688 C 49.042969 21.429688 49.515625 21.429688 50 21.429688 C 50 23.785156 50 26.144531 50 28.570312 C 49.527344 28.570312 49.058594 28.570312 48.570312 28.570312 C 48.570312 29.042969 48.570312 29.515625 48.570312 30 C 48.101562 30.234375 47.628906 30.472656 47.144531 30.714844 C 47.144531 31.1875 47.144531 31.65625 47.144531 32.144531 C 46.199219 32.144531 45.257812 32.144531 44.285156 32.144531 C 44.285156 31.4375 44.285156 30.730469 44.285156 30 C 44.050781 30.707031 43.8125 31.414062 43.570312 32.144531 C 41.382812 32.992188 41.382812 32.992188 39.285156 33.570312 C 39.285156 32.863281 39.285156 32.15625 39.285156 31.429688 C 39.757812 31.429688 40.230469 31.429688 40.714844 31.429688 C 40.714844 30.25 40.714844 29.070312 40.714844 27.855469 C 43.070312 27.855469 45.429688 27.855469 47.855469 27.855469 C 47.855469 25.972656 47.855469 24.085938 47.855469 22.144531 C 47.386719 22.144531 46.914062 22.144531 46.429688 22.144531 C 46.429688 21.671875 46.429688 21.199219 46.429688 20.714844 C 45.722656 20.714844 45.015625 20.714844 44.285156 20.714844 C 44.285156 21.1875 44.285156 21.65625 44.285156 22.144531 C 43.105469 22.144531 41.929688 22.144531 40.714844 22.144531 C 40.714844 20.964844 40.714844 19.785156 40.714844 18.570312 C 40.242188 18.570312 39.769531 18.570312 39.285156 18.570312 C 39.285156 18.101562 39.285156 17.628906 39.285156 17.144531 Z M 39.285156 17.144531 "/>
<path style=" stroke:none;fill-rule:nonzero;fill:rgb(0.392157%,42.745098%,36.078432%);fill-opacity:1;" d="M 7.144531 5 C 9.265625 5 11.386719 5 13.570312 5 C 13.335938 5.707031 13.101562 6.414062 12.855469 7.144531 C 12.855469 6.671875 12.855469 6.199219 12.855469 5.714844 C 11.207031 5.714844 9.558594 5.714844 7.855469 5.714844 C 7.855469 6.421875 7.855469 7.128906 7.855469 7.855469 C 9.507812 7.855469 11.15625 7.855469 12.855469 7.855469 C 12.855469 8.328125 12.855469 8.800781 12.855469 9.285156 C 12.386719 9.285156 11.914062 9.285156 11.429688 9.285156 C 11.429688 9.992188 11.429688 10.699219 11.429688 11.429688 C 14.492188 11.429688 17.558594 11.429688 20.714844 11.429688 C 20.714844 11.898438 20.714844 12.371094 20.714844 12.855469 C 19.816406 12.988281 18.917969 13.121094 17.992188 13.257812 C 17.234375 13.371094 17.234375 13.371094 16.460938 13.484375 C 15 13.570312 15 13.570312 12.855469 12.855469 C 12.855469 13.5625 12.855469 14.269531 12.855469 15 C 12.386719 15 11.914062 15 11.429688 15 C 11.191406 15.472656 10.957031 15.941406 10.714844 16.429688 C 10.242188 15.484375 9.769531 14.542969 9.285156 13.570312 C 8.8125 13.570312 8.34375 13.570312 7.855469 13.570312 C 7.855469 14.042969 7.855469 14.515625 7.855469 15 C 7.148438 15 6.441406 15 5.714844 15 C 5.480469 12.40625 5.242188 9.8125 5 7.144531 C 5.707031 7.144531 6.414062 7.144531 7.144531 7.144531 C 7.144531 6.4375 7.144531 5.730469 7.144531 5 Z M 7.144531 5 "/>
<path style=" stroke:none;fill-rule:nonzero;fill:rgb(5.098039%,38.431373%,36.862746%);fill-opacity:1;" d="M 9.285156 33.570312 C 9.992188 33.570312 10.699219 33.570312 11.429688 33.570312 C 11.429688 34.277344 11.429688 34.984375 11.429688 35.714844 C 11.898438 35.714844 12.371094 35.714844 12.855469 35.714844 C 12.855469 36.1875 12.855469 36.65625 12.855469 37.144531 C 13.5625 37.144531 14.269531 37.144531 15 37.144531 C 15 37.613281 15 38.085938 15 38.570312 C 13.820312 38.570312 12.644531 38.570312 11.429688 38.570312 C 11.429688 39.277344 11.429688 39.984375 11.429688 40.714844 C 12.136719 40.714844 12.84375 40.714844 13.570312 40.714844 C 14.042969 40.242188 14.515625 39.769531 15 39.285156 C 15.234375 40.464844 15.472656 41.644531 15.714844 42.855469 C 15.007812 42.855469 14.300781 42.855469 13.570312 42.855469 C 13.570312 43.5625 13.570312 44.269531 13.570312 45 C 11.449219 45 9.328125 45 7.144531 45 C 7.144531 44.765625 7.144531 44.527344 7.144531 44.285156 C 9.027344 44.285156 10.914062 44.285156 12.855469 44.285156 C 12.855469 43.8125 12.855469 43.34375 12.855469 42.855469 C 11.207031 42.855469 9.558594 42.855469 7.855469 42.855469 C 7.855469 42.148438 7.855469 41.441406 7.855469 40.714844 C 7.148438 40.714844 6.441406 40.714844 5.714844 40.714844 C 5.714844 38.828125 5.714844 36.941406 5.714844 35 C 6.421875 35 7.128906 35 7.855469 35 C 7.855469 35.707031 7.855469 36.414062 7.855469 37.144531 C 8.328125 37.144531 8.800781 37.144531 9.285156 37.144531 C 9.285156 35.964844 9.285156 34.785156 9.285156 33.570312 Z M 9.285156 33.570312 "/>
<path style=" stroke:none;fill-rule:nonzero;fill:rgb(2.352941%,42.352942%,38.431373%);fill-opacity:1;" d="M 37.144531 7.855469 C 39.027344 7.855469 40.914062 7.855469 42.855469 7.855469 C 42.855469 8.328125 42.855469 8.800781 42.855469 9.285156 C 43.328125 9.285156 43.800781 9.285156 44.285156 9.285156 C 44.285156 11.171875 44.285156 13.058594 44.285156 15 C 43.8125 15 43.34375 15 42.855469 15 C 42.855469 14.292969 42.855469 13.585938 42.855469 12.855469 C 42.148438 12.855469 41.441406 12.855469 40.714844 12.855469 C 40.714844 14.035156 40.714844 15.214844 40.714844 16.429688 C 42.128906 16.429688 43.542969 16.429688 45 16.429688 C 45 16.664062 45 16.898438 45 17.144531 C 40.894531 17.945312 40.894531 17.945312 39.285156 17.144531 C 39.285156 16.4375 39.285156 15.730469 39.285156 15 C 38.578125 15 37.871094 15 37.144531 15 C 37.144531 14.292969 37.144531 13.585938 37.144531 12.855469 C 36.4375 12.855469 35.730469 12.855469 35 12.855469 C 35 12.386719 35 11.914062 35 11.429688 C 36.414062 11.429688 37.828125 11.429688 39.285156 11.429688 C 39.285156 10.722656 39.285156 10.015625 39.285156 9.285156 C 38.578125 9.285156 37.871094 9.285156 37.144531 9.285156 C 37.144531 8.8125 37.144531 8.34375 37.144531 7.855469 Z M 37.144531 7.855469 "/>
<path style=" stroke:none;fill-rule:nonzero;fill:rgb(0%,67.058825%,30.980393%);fill-opacity:1;" d="M 12.855469 12.855469 C 13.5625 13.09375 14.269531 13.328125 15 13.570312 C 16.1875 13.820312 17.378906 14.058594 18.570312 14.285156 C 18.570312 14.992188 18.570312 15.699219 18.570312 16.429688 C 19.277344 16.429688 19.984375 16.429688 20.714844 16.429688 C 20.714844 17.136719 20.714844 17.84375 20.714844 18.570312 C 20.007812 18.570312 19.300781 18.570312 18.570312 18.570312 C 18.570312 18.101562 18.570312 17.628906 18.570312 17.144531 C 17.394531 17.144531 16.214844 17.144531 15 17.144531 C 15 18.085938 15 19.027344 15 20 C 15.472656 20 15.941406 20 16.429688 20 C 16.429688 20.707031 16.429688 21.414062 16.429688 22.144531 C 15.957031 22.144531 15.484375 22.144531 15 22.144531 C 15 21.671875 15 21.199219 15 20.714844 C 14.292969 20.714844 13.585938 20.714844 12.855469 20.714844 C 12.621094 20.242188 12.386719 19.769531 12.144531 19.285156 C 11.90625 20.230469 11.671875 21.171875 11.429688 22.144531 C 10.722656 22.144531 10.015625 22.144531 9.285156 22.144531 C 9.285156 20.964844 9.285156 19.785156 9.285156 18.570312 C 9.992188 18.570312 10.699219 18.570312 11.429688 18.570312 C 11.429688 17.394531 11.429688 16.214844 11.429688 15 C 11.898438 15 12.371094 15 12.855469 15 C 12.855469 14.292969 12.855469 13.585938 12.855469 12.855469 Z M 12.855469 12.855469 "/>
<path style=" stroke:none;fill-rule:nonzero;fill:rgb(8.235294%,19.215687%,22.352941%);fill-opacity:1;" d="M 15 37.144531 C 15.707031 37.144531 16.414062 37.144531 17.144531 37.144531 C 17.144531 37.613281 17.144531 38.085938 17.144531 38.570312 C 18.792969 38.570312 20.441406 38.570312 22.144531 38.570312 C 22.144531 39.984375 22.144531 41.398438 22.144531 42.855469 C 21.671875 42.855469 21.199219 42.855469 20.714844 42.855469 C 20.714844 43.328125 20.714844 43.800781 20.714844 44.285156 C 21.1875 44.285156 21.65625 44.285156 22.144531 44.285156 C 22.144531 44.992188 22.144531 45.699219 22.144531 46.429688 C 21.4375 46.429688 20.730469 46.429688 20 46.429688 C 20 45.957031 20 45.484375 20 45 C 19.292969 45 18.585938 45 17.855469 45 C 17.855469 44.058594 17.855469 43.113281 17.855469 42.144531 C 17.386719 41.90625 16.914062 41.671875 16.429688 41.429688 C 16.429688 40.722656 16.429688 40.015625 16.429688 39.285156 C 15.722656 39.285156 15.015625 39.285156 14.285156 39.285156 C 14.050781 40.230469 13.8125 41.171875 13.570312 42.144531 C 13.570312 41.671875 13.570312 41.199219 13.570312 40.714844 C 12.863281 40.714844 12.15625 40.714844 11.429688 40.714844 C 11.429688 40.007812 11.429688 39.300781 11.429688 38.570312 C 12.605469 38.570312 13.785156 38.570312 15 38.570312 C 15 38.101562 15 37.628906 15 37.144531 Z M 15 37.144531 "/>
<path style=" stroke:none;fill-rule:nonzero;fill:rgb(20%,15.294118%,25.882354%);fill-opacity:1;" d="M 5 32.855469 C 6.414062 32.855469 7.828125 32.855469 9.285156 32.855469 C 9.285156 34.269531 9.285156 35.6875 9.285156 37.144531 C 8.8125 37.144531 8.34375 37.144531 7.855469 37.144531 C 7.855469 36.4375 7.855469 35.730469 7.855469 35 C 7.148438 35 6.441406 35 5.714844 35 C 5.714844 36.886719 5.714844 38.769531 5.714844 40.714844 C 6.421875 40.714844 7.128906 40.714844 7.855469 40.714844 C 7.855469 41.421875 7.855469 42.128906 7.855469 42.855469 C 9.507812 42.855469 11.15625 42.855469 12.855469 42.855469 C 12.855469 43.328125 12.855469 43.800781 12.855469 44.285156 C 10.972656 44.285156 9.085938 44.285156 7.144531 44.285156 C 7.144531 43.8125 7.144531 43.34375 7.144531 42.855469 C 6.4375 42.855469 5.730469 42.855469 5 42.855469 C 5 42.386719 5 41.914062 5 41.429688 C 4.527344 41.429688 4.058594 41.429688 3.570312 41.429688 C 3.570312 39.308594 3.570312 37.1875 3.570312 35 C 4.042969 35 4.515625 35 5 35 C 5 34.292969 5 33.585938 5 32.855469 Z M 5 32.855469 "/>
<path style=" stroke:none;fill-rule:nonzero;fill:rgb(5.490196%,77.64706%,26.274511%);fill-opacity:1;" d="M 27.855469 3.570312 C 27.855469 4.277344 27.855469 4.984375 27.855469 5.714844 C 28.5625 5.714844 29.269531 5.714844 30 5.714844 C 30 6.421875 30 7.128906 30 7.855469 C 29.292969 7.855469 28.585938 7.855469 27.855469 7.855469 C 27.855469 8.328125 27.855469 8.800781 27.855469 9.285156 C 25.972656 9.285156 24.085938 9.285156 22.144531 9.285156 C 22.144531 8.578125 22.144531 7.871094 22.144531 7.144531 C 21.671875 7.144531 21.199219 7.144531 20.714844 7.144531 C 20.714844 6.671875 20.714844 6.199219 20.714844 5.714844 C 21.1875 5.714844 21.65625 5.714844 22.144531 5.714844 C 22.144531 5.242188 22.144531 4.769531 22.144531 4.285156 C 24.117188 3.859375 25.828125 3.570312 27.855469 3.570312 Z M 27.855469 3.570312 "/>
<path style=" stroke:none;fill-rule:nonzero;fill:rgb(18.039216%,17.647059%,25.098041%);fill-opacity:1;" d="M 27.855469 39.285156 C 29.742188 39.285156 31.628906 39.285156 33.570312 39.285156 C 33.808594 39.992188 34.042969 40.699219 34.285156 41.429688 C 33.578125 41.664062 32.871094 41.898438 32.144531 42.144531 C 32.144531 43.085938 32.144531 44.027344 32.144531 45 C 31.4375 45 30.730469 45 30 45 C 30 45.472656 30 45.941406 30 46.429688 C 29.527344 46.429688 29.058594 46.429688 28.570312 46.429688 C 28.570312 46.898438 28.570312 47.371094 28.570312 47.855469 C 26.449219 47.855469 24.328125 47.855469 22.144531 47.855469 C 22.144531 47.386719 22.144531 46.914062 22.144531 46.429688 C 24.027344 46.429688 25.914062 46.429688 27.855469 46.429688 C 27.855469 45.722656 27.855469 45.015625 27.855469 44.285156 C 28.5625 44.285156 29.269531 44.285156 30 44.285156 C 30 43.8125 30 43.34375 30 42.855469 C 29.292969 42.855469 28.585938 42.855469 27.855469 42.855469 C 27.855469 41.679688 27.855469 40.5 27.855469 39.285156 Z M 27.855469 39.285156 "/>
<path style=" stroke:none;fill-rule:nonzero;fill:rgb(0%,68.235296%,30.980393%);fill-opacity:1;" d="M 12.855469 30 C 13.5625 30 14.269531 30 15 30 C 15 31.179688 15 32.355469 15 33.570312 C 16.179688 33.570312 17.355469 33.570312 18.570312 33.570312 C 18.570312 34.277344 18.570312 34.984375 18.570312 35.714844 C 19.277344 35.949219 19.984375 36.1875 20.714844 36.429688 C 20.714844 37.136719 20.714844 37.84375 20.714844 38.570312 C 19.535156 38.570312 18.355469 38.570312 17.144531 38.570312 C 17.144531 38.101562 17.144531 37.628906 17.144531 37.144531 C 15.730469 37.144531 14.3125 37.144531 12.855469 37.144531 C 12.855469 36.671875 12.855469 36.199219 12.855469 35.714844 C 12.386719 35.480469 11.914062 35.242188 11.429688 35 C 11.898438 33.351562 12.371094 31.699219 12.855469 30 Z M 12.855469 30 "/>
<path style=" stroke:none;fill-rule:nonzero;fill:rgb(15.294118%,13.725491%,23.529412%);fill-opacity:1;" d="M 33.570312 37.144531 C 34.277344 37.144531 34.984375 37.144531 35.714844 37.144531 C 35.714844 37.613281 35.714844 38.085938 35.714844 38.570312 C 36.894531 38.570312 38.070312 38.570312 39.285156 38.570312 C 39.285156 39.277344 39.285156 39.984375 39.285156 40.714844 C 38.578125 40.714844 37.871094 40.714844 37.144531 40.714844 C 37.144531 41.421875 37.144531 42.128906 37.144531 42.855469 C 39.027344 42.855469 40.914062 42.855469 42.855469 42.855469 C 43.09375 43.5625 43.328125 44.269531 43.570312 45 C 41.214844 45 38.855469 45 36.429688 45 C 36.429688 44.292969 36.429688 43.585938 36.429688 42.855469 C 35.957031 42.855469 35.484375 42.855469 35 42.855469 C 35 41.679688 35 40.5 35 39.285156 C 34.527344 39.285156 34.058594 39.285156 33.570312 39.285156 C 33.570312 38.578125 33.570312 37.871094 33.570312 37.144531 Z M 33.570312 37.144531 "/>
<path style=" stroke:none;fill-rule:nonzero;fill:rgb(0%,79.215688%,25.098041%);fill-opacity:1;" d="M 3.570312 20.714844 C 4.277344 20.714844 4.984375 20.714844 5.714844 20.714844 C 5.714844 21.421875 5.714844 22.128906 5.714844 22.855469 C 6.1875 22.855469 6.65625 22.855469 7.144531 22.855469 C 7.144531 24.507812 7.144531 26.15625 7.144531 27.855469 C 6.671875 27.855469 6.199219 27.855469 5.714844 27.855469 C 5.714844 28.328125 5.714844 28.800781 5.714844 29.285156 C 5.242188 29.285156 4.769531 29.285156 4.285156 29.285156 C 4.285156 28.8125 4.285156 28.34375 4.285156 27.855469 C 3.578125 27.855469 2.871094 27.855469 2.144531 27.855469 C 2.144531 25.972656 2.144531 24.085938 2.144531 22.144531 C 2.613281 22.144531 3.085938 22.144531 3.570312 22.144531 C 3.570312 21.671875 3.570312 21.199219 3.570312 20.714844 Z M 3.570312 20.714844 "/>
<path style=" stroke:none;fill-rule:nonzero;fill:rgb(4.705882%,79.607844%,26.666668%);fill-opacity:1;" d="M 44.285156 20.714844 C 44.992188 20.714844 45.699219 20.714844 46.429688 20.714844 C 46.429688 21.1875 46.429688 21.65625 46.429688 22.144531 C 46.898438 22.144531 47.371094 22.144531 47.855469 22.144531 C 47.855469 24.027344 47.855469 25.914062 47.855469 27.855469 C 46.207031 27.855469 44.558594 27.855469 42.855469 27.855469 C 42.855469 25.972656 42.855469 24.085938 42.855469 22.144531 C 43.328125 22.144531 43.800781 22.144531 44.285156 22.144531 C 44.285156 21.671875 44.285156 21.199219 44.285156 20.714844 Z M 44.285156 20.714844 "/>
<path style=" stroke:none;fill-rule:nonzero;fill:rgb(0%,61.960787%,34.117648%);fill-opacity:1;" d="M 33.570312 27.855469 C 34.277344 27.855469 34.984375 27.855469 35.714844 27.855469 C 35.714844 28.5625 35.714844 29.269531 35.714844 30 C 36.1875 30 36.65625 30 37.144531 30 C 37.144531 31.179688 37.144531 32.355469 37.144531 33.570312 C 36.671875 33.570312 36.199219 33.570312 35.714844 33.570312 C 35.714844 34.277344 35.714844 34.984375 35.714844 35.714844 C 34.300781 35.714844 32.886719 35.714844 31.429688 35.714844 C 31.429688 35.007812 31.429688 34.300781 31.429688 33.570312 C 30.722656 33.570312 30.015625 33.570312 29.285156 33.570312 C 29.285156 32.863281 29.285156 32.15625 29.285156 31.429688 C 29.992188 31.429688 30.699219 31.429688 31.429688 31.429688 C 31.664062 31.898438 31.898438 32.371094 32.144531 32.855469 C 33.589844 33.324219 33.589844 33.324219 35 33.570312 C 35 32.394531 35 31.214844 35 30 C 34.527344 30 34.058594 30 33.570312 30 C 33.570312 29.292969 33.570312 28.585938 33.570312 27.855469 Z M 33.570312 27.855469 "/>
<path style=" stroke:none;fill-rule:nonzero;fill:rgb(10.980392%,10.196079%,20.392157%);fill-opacity:1;" d="M 7.855469 5.714844 C 9.507812 5.714844 11.15625 5.714844 12.855469 5.714844 C 12.855469 6.1875 12.855469 6.65625 12.855469 7.144531 C 13.5625 7.144531 14.269531 7.144531 15 7.144531 C 15 8.558594 15 9.972656 15 11.429688 C 13.820312 11.429688 12.644531 11.429688 11.429688 11.429688 C 11.429688 10.722656 11.429688 10.015625 11.429688 9.285156 C 11.898438 9.285156 12.371094 9.285156 12.855469 9.285156 C 12.855469 8.8125 12.855469 8.34375 12.855469 7.855469 C 11.207031 7.855469 9.558594 7.855469 7.855469 7.855469 C 7.855469 7.148438 7.855469 6.441406 7.855469 5.714844 Z M 7.855469 5.714844 "/>
<path style=" stroke:none;fill-rule:nonzero;fill:rgb(18.431373%,14.901961%,23.921569%);fill-opacity:1;" d="M 22.144531 2.144531 C 24.265625 2.144531 26.386719 2.144531 28.570312 2.144531 C 28.570312 2.613281 28.570312 3.085938 28.570312 3.570312 C 29.042969 3.570312 29.515625 3.570312 30 3.570312 C 30 4.042969 30 4.515625 30 5 C 30.707031 5 31.414062 5 32.144531 5 C 32.144531 5.941406 32.144531 6.886719 32.144531 7.855469 C 31.4375 7.855469 30.730469 7.855469 30 7.855469 C 30 7.148438 30 6.441406 30 5.714844 C 29.292969 5.714844 28.585938 5.714844 27.855469 5.714844 C 27.855469 5.007812 27.855469 4.300781 27.855469 3.570312 C 25.972656 3.570312 24.085938 3.570312 22.144531 3.570312 C 22.144531 3.101562 22.144531 2.628906 22.144531 2.144531 Z M 22.144531 2.144531 "/>
<path style=" stroke:none;fill-rule:nonzero;fill:rgb(8.627451%,9.803922%,19.215687%);fill-opacity:1;" d="M 44.285156 9.285156 C 44.757812 9.285156 45.230469 9.285156 45.714844 9.285156 C 45.804688 14.820312 45.804688 14.820312 45 16.429688 C 43.585938 16.429688 42.171875 16.429688 40.714844 16.429688 C 40.714844 15.25 40.714844 14.070312 40.714844 12.855469 C 41.421875 12.855469 42.128906 12.855469 42.855469 12.855469 C 42.855469 13.5625 42.855469 14.269531 42.855469 15 C 43.328125 15 43.800781 15 44.285156 15 C 44.285156 13.113281 44.285156 11.230469 44.285156 9.285156 Z M 44.285156 9.285156 "/>
<path style=" stroke:none;fill-rule:nonzero;fill:rgb(18.431373%,16.862746%,23.529412%);fill-opacity:1;" d="M 16.429688 39.285156 C 16.664062 39.757812 16.898438 40.230469 17.144531 40.714844 C 18.320312 40.714844 19.5 40.714844 20.714844 40.714844 C 20.714844 41.1875 20.714844 41.65625 20.714844 42.144531 C 21.1875 42.378906 21.65625 42.613281 22.144531 42.855469 C 21.671875 42.855469 21.199219 42.855469 20.714844 42.855469 C 20.714844 43.328125 20.714844 43.800781 20.714844 44.285156 C 21.1875 44.285156 21.65625 44.285156 22.144531 44.285156 C 22.144531 44.992188 22.144531 45.699219 22.144531 46.429688 C 21.4375 46.429688 20.730469 46.429688 20 46.429688 C 20 45.957031 20 45.484375 20 45 C 19.292969 45 18.585938 45 17.855469 45 C 17.855469 44.058594 17.855469 43.113281 17.855469 42.144531 C 17.386719 41.90625 16.914062 41.671875 16.429688 41.429688 C 16.429688 40.722656 16.429688 40.015625 16.429688 39.285156 Z M 16.429688 39.285156 "/>
<path style=" stroke:none;fill-rule:nonzero;fill:rgb(12.156863%,10.196079%,18.431373%);fill-opacity:1;" d="M 40.714844 27.855469 C 41.894531 27.855469 43.070312 27.855469 44.285156 27.855469 C 44.285156 28.328125 44.285156 28.800781 44.285156 29.285156 C 43.8125 29.285156 43.34375 29.285156 42.855469 29.285156 C 43.09375 30.230469 43.328125 31.171875 43.570312 32.144531 C 42.15625 32.613281 40.742188 33.085938 39.285156 33.570312 C 39.285156 32.863281 39.285156 32.15625 39.285156 31.429688 C 39.757812 31.429688 40.230469 31.429688 40.714844 31.429688 C 40.714844 30.25 40.714844 29.070312 40.714844 27.855469 Z M 40.714844 27.855469 "/>
<path style=" stroke:none;fill-rule:nonzero;fill:rgb(12.54902%,5.490196%,17.647059%);fill-opacity:1;" d="M 39.285156 17.144531 C 40.699219 17.613281 42.113281 18.085938 43.570312 18.570312 C 43.808594 19.75 44.042969 20.929688 44.285156 22.144531 C 43.105469 22.144531 41.929688 22.144531 40.714844 22.144531 C 40.714844 20.964844 40.714844 19.785156 40.714844 18.570312 C 40.242188 18.570312 39.769531 18.570312 39.285156 18.570312 C 39.285156 18.101562 39.285156 17.628906 39.285156 17.144531 Z M 39.285156 17.144531 "/>
<path style=" stroke:none;fill-rule:nonzero;fill:rgb(16.470589%,10.588235%,20.392157%);fill-opacity:1;" d="M 27.855469 7.855469 C 29.742188 8.09375 31.628906 8.328125 33.570312 8.570312 C 33.570312 9.277344 33.570312 9.984375 33.570312 10.714844 C 31.6875 10.714844 29.800781 10.714844 27.855469 10.714844 C 27.855469 9.769531 27.855469 8.828125 27.855469 7.855469 Z M 27.855469 7.855469 "/>
<path style=" stroke:none;fill-rule:nonzero;fill:rgb(13.725491%,7.843138%,17.647059%);fill-opacity:1;" d="M 10.714844 17.144531 C 10.714844 17.613281 10.714844 18.085938 10.714844 18.570312 C 10.242188 18.570312 9.769531 18.570312 9.285156 18.570312 C 9.285156 19.75 9.285156 20.929688 9.285156 22.144531 C 8.105469 22.144531 6.929688 22.144531 5.714844 22.144531 C 6.292969 20.042969 6.292969 20.042969 7.144531 17.855469 C 9.285156 17.144531 9.285156 17.144531 10.714844 17.144531 Z M 10.714844 17.144531 "/>
<path style=" stroke:none;fill-rule:nonzero;fill:rgb(31.764707%,27.843139%,37.64706%);fill-opacity:1;" d="M 42.855469 7.144531 C 43.5625 7.144531 44.269531 7.144531 45 7.144531 C 45 7.613281 45 8.085938 45 8.570312 C 45.707031 8.808594 46.414062 9.042969 47.144531 9.285156 C 47.144531 11.171875 47.144531 13.058594 47.144531 15 C 46.671875 15 46.199219 15 45.714844 15 C 45.714844 13.113281 45.714844 11.230469 45.714844 9.285156 C 44.769531 9.285156 43.828125 9.285156 42.855469 9.285156 C 42.855469 8.578125 42.855469 7.871094 42.855469 7.144531 Z M 42.855469 7.144531 "/>
<path style=" stroke:none;fill-rule:nonzero;fill:rgb(0%,63.921571%,32.941177%);fill-opacity:1;" d="M 5.714844 22.144531 C 6.894531 22.144531 8.070312 22.144531 9.285156 22.144531 C 9.285156 24.027344 9.285156 25.914062 9.285156 27.855469 C 8.578125 27.855469 7.871094 27.855469 7.144531 27.855469 C 7.144531 26.207031 7.144531 24.558594 7.144531 22.855469 C 6.671875 22.621094 6.199219 22.386719 5.714844 22.144531 Z M 5.714844 22.144531 "/>
<path style=" stroke:none;fill-rule:nonzero;fill:rgb(14.117648%,8.627451%,20%);fill-opacity:1;" d="M 3.570312 8.570312 C 4.277344 8.808594 4.984375 9.042969 5.714844 9.285156 C 5.714844 11.171875 5.714844 13.058594 5.714844 15 C 5.007812 15 4.300781 15 3.570312 15 C 3.570312 12.878906 3.570312 10.757812 3.570312 8.570312 Z M 3.570312 8.570312 "/>
<path style=" stroke:none;fill-rule:nonzero;fill:rgb(12.941177%,9.019608%,19.215687%);fill-opacity:1;" d="M 5.714844 40.714844 C 6.421875 40.714844 7.128906 40.714844 7.855469 40.714844 C 7.855469 41.421875 7.855469 42.128906 7.855469 42.855469 C 9.507812 42.855469 11.15625 42.855469 12.855469 42.855469 C 12.855469 43.328125 12.855469 43.800781 12.855469 44.285156 C 10.972656 44.285156 9.085938 44.285156 7.144531 44.285156 C 7.144531 43.8125 7.144531 43.34375 7.144531 42.855469 C 6.671875 42.855469 6.199219 42.855469 5.714844 42.855469 C 5.714844 42.148438 5.714844 41.441406 5.714844 40.714844 Z M 5.714844 40.714844 "/>
<path style=" stroke:none;fill-rule:nonzero;fill:rgb(29.019609%,43.137255%,33.725491%);fill-opacity:1;" d="M 44.285156 27.855469 C 44.992188 27.855469 45.699219 27.855469 46.429688 27.855469 C 46.429688 28.328125 46.429688 28.800781 46.429688 29.285156 C 47.136719 29.519531 47.84375 29.757812 48.570312 30 C 47.863281 30.355469 47.863281 30.355469 47.144531 30.714844 C 47.144531 31.1875 47.144531 31.65625 47.144531 32.144531 C 46.199219 32.144531 45.257812 32.144531 44.285156 32.144531 C 44.285156 31.4375 44.285156 30.730469 44.285156 30 C 43.8125 29.765625 43.34375 29.527344 42.855469 29.285156 C 43.328125 29.285156 43.800781 29.285156 44.285156 29.285156 C 44.285156 28.8125 44.285156 28.34375 44.285156 27.855469 Z M 44.285156 27.855469 "/>
<path style=" stroke:none;fill-rule:nonzero;fill:rgb(24.313726%,28.235295%,36.470589%);fill-opacity:1;" d="M 7.144531 5 C 9.265625 5 11.386719 5 13.570312 5 C 13.335938 5.707031 13.101562 6.414062 12.855469 7.144531 C 12.855469 6.671875 12.855469 6.199219 12.855469 5.714844 C 11.207031 5.714844 9.558594 5.714844 7.855469 5.714844 C 7.855469 6.894531 7.855469 8.070312 7.855469 9.285156 C 6.914062 9.285156 5.972656 9.285156 5 9.285156 C 5 8.578125 5 7.871094 5 7.144531 C 5.707031 7.144531 6.414062 7.144531 7.144531 7.144531 C 7.144531 6.4375 7.144531 5.730469 7.144531 5 Z M 7.144531 5 "/>
<path style=" stroke:none;fill-rule:nonzero;fill:rgb(0%,64.313728%,34.117648%);fill-opacity:1;" d="M 22.144531 27.855469 C 24.027344 27.855469 25.914062 27.855469 27.855469 27.855469 C 27.855469 28.5625 27.855469 29.269531 27.855469 30 C 25.972656 30 24.085938 30 22.144531 30 C 22.144531 29.292969 22.144531 28.585938 22.144531 27.855469 Z M 22.144531 27.855469 "/>
<path style=" stroke:none;fill-rule:nonzero;fill:rgb(0%,62.352943%,34.901962%);fill-opacity:1;" d="M 40.714844 22.144531 C 41.421875 22.144531 42.128906 22.144531 42.855469 22.144531 C 42.855469 24.027344 42.855469 25.914062 42.855469 27.855469 C 42.148438 27.855469 41.441406 27.855469 40.714844 27.855469 C 40.714844 25.972656 40.714844 24.085938 40.714844 22.144531 Z M 40.714844 22.144531 "/>
<path style=" stroke:none;fill-rule:nonzero;fill:rgb(34.509805%,89.411765%,31.764707%);fill-opacity:1;" d="M 24.285156 15 C 25.464844 15 26.644531 15 27.855469 15 C 27.855469 15.707031 27.855469 16.414062 27.855469 17.144531 C 28.328125 17.144531 28.800781 17.144531 29.285156 17.144531 C 29.285156 18.085938 29.285156 19.027344 29.285156 20 C 28.8125 20 28.34375 20 27.855469 20 C 27.855469 19.527344 27.855469 19.058594 27.855469 18.570312 C 27.386719 18.570312 26.914062 18.570312 26.429688 18.570312 C 26.429688 17.863281 26.429688 17.15625 26.429688 16.429688 C 25.722656 16.429688 25.015625 16.429688 24.285156 16.429688 C 24.285156 15.957031 24.285156 15.484375 24.285156 15 Z M 24.285156 15 "/>
<path style=" stroke:none;fill-rule:nonzero;fill:rgb(0%,61.960787%,34.509805%);fill-opacity:1;" d="M 22.144531 9.285156 C 24.027344 9.285156 25.914062 9.285156 27.855469 9.285156 C 27.855469 9.992188 27.855469 10.699219 27.855469 11.429688 C 25.972656 11.429688 24.085938 11.429688 22.144531 11.429688 C 22.144531 10.722656 22.144531 10.015625 22.144531 9.285156 Z M 22.144531 9.285156 "/>
<path style=" stroke:none;fill-rule:nonzero;fill:rgb(0%,80.000001%,24.705882%);fill-opacity:1;" d="M 31.429688 13.570312 C 33.3125 13.570312 35.199219 13.570312 37.144531 13.570312 C 37.144531 14.042969 37.144531 14.515625 37.144531 15 C 37.613281 15 38.085938 15 38.570312 15 C 38.570312 16.179688 38.570312 17.355469 38.570312 18.570312 C 38.054688 17.996094 37.539062 17.421875 37.007812 16.832031 C 34.980469 14.984375 34.089844 14.515625 31.429688 14.285156 C 31.429688 14.050781 31.429688 13.8125 31.429688 13.570312 Z M 31.429688 13.570312 "/>
<path style=" stroke:none;fill-rule:nonzero;fill:rgb(17.647059%,13.725491%,21.960784%);fill-opacity:1;" d="M 3.570312 17.855469 C 4.515625 17.855469 5.457031 17.855469 6.429688 17.855469 C 6.429688 18.800781 6.429688 19.742188 6.429688 20.714844 C 5.484375 20.714844 4.542969 20.714844 3.570312 20.714844 C 3.570312 21.1875 3.570312 21.65625 3.570312 22.144531 C 3.101562 22.144531 2.628906 22.144531 2.144531 22.144531 C 2.144531 21.4375 2.144531 20.730469 2.144531 20 C 2.613281 20 3.085938 20 3.570312 20 C 3.570312 19.292969 3.570312 18.585938 3.570312 17.855469 Z M 3.570312 17.855469 "/>
<path style=" stroke:none;fill-rule:nonzero;fill:rgb(0%,60.000002%,35.294119%);fill-opacity:1;" d="M 12.855469 17.144531 C 13.5625 17.144531 14.269531 17.144531 15 17.144531 C 15 18.085938 15 19.027344 15 20 C 15.472656 20 15.941406 20 16.429688 20 C 16.429688 20.707031 16.429688 21.414062 16.429688 22.144531 C 15.957031 22.144531 15.484375 22.144531 15 22.144531 C 15 21.671875 15 21.199219 15 20.714844 C 14.292969 20.714844 13.585938 20.714844 12.855469 20.714844 C 12.855469 19.535156 12.855469 18.355469 12.855469 17.144531 Z M 12.855469 17.144531 "/>
<path style=" stroke:none;fill-rule:nonzero;fill:rgb(13.725491%,3.137255%,15.294118%);fill-opacity:1;" d="M 27.855469 39.285156 C 29.742188 39.285156 31.628906 39.285156 33.570312 39.285156 C 33.570312 39.757812 33.570312 40.230469 33.570312 40.714844 C 32.15625 40.714844 30.742188 40.714844 29.285156 40.714844 C 29.285156 41.1875 29.285156 41.65625 29.285156 42.144531 C 28.8125 42.144531 28.34375 42.144531 27.855469 42.144531 C 27.855469 41.199219 27.855469 40.257812 27.855469 39.285156 Z M 27.855469 39.285156 "/>
<path style=" stroke:none;fill-rule:nonzero;fill:rgb(0%,62.352943%,32.156864%);fill-opacity:1;" d="M 38.570312 15 C 38.808594 15 39.042969 15 39.285156 15 C 39.285156 16.179688 39.285156 17.355469 39.285156 18.570312 C 39.757812 18.570312 40.230469 18.570312 40.714844 18.570312 C 40.714844 19.75 40.714844 20.929688 40.714844 22.144531 C 40.007812 22.144531 39.300781 22.144531 38.570312 22.144531 C 38.570312 19.785156 38.570312 17.429688 38.570312 15 Z M 38.570312 15 "/>
<path style=" stroke:none;fill-rule:nonzero;fill:rgb(7.843138%,9.019608%,16.470589%);fill-opacity:1;" d="M 20.714844 7.855469 C 21.1875 7.855469 21.65625 7.855469 22.144531 7.855469 C 22.144531 9.035156 22.144531 10.214844 22.144531 11.429688 C 20.492188 11.429688 18.84375 11.429688 17.144531 11.429688 C 17.144531 10.957031 17.144531 10.484375 17.144531 10 C 18.320312 10 19.5 10 20.714844 10 C 20.714844 9.292969 20.714844 8.585938 20.714844 7.855469 Z M 20.714844 7.855469 "/>
<path style=" stroke:none;fill-rule:nonzero;fill:rgb(10.588235%,7.450981%,17.647059%);fill-opacity:1;" d="M 40.714844 33.570312 C 41.894531 33.570312 43.070312 33.570312 44.285156 33.570312 C 44.285156 34.042969 44.285156 34.515625 44.285156 35 C 43.8125 35 43.34375 35 42.855469 35 C 42.855469 35.707031 42.855469 36.414062 42.855469 37.144531 C 42.148438 37.144531 41.441406 37.144531 40.714844 37.144531 C 40.714844 35.964844 40.714844 34.785156 40.714844 33.570312 Z M 40.714844 33.570312 "/>
<path style=" stroke:none;fill-rule:nonzero;fill:rgb(0%,58.823532%,34.901962%);fill-opacity:1;" d="M 31.429688 15 C 32.605469 15 33.785156 15 35 15 C 35 15.472656 35 15.941406 35 16.429688 C 34.058594 16.429688 33.113281 16.429688 32.144531 16.429688 C 32.144531 17.136719 32.144531 17.84375 32.144531 18.570312 C 31.4375 18.570312 30.730469 18.570312 30 18.570312 C 30 17.863281 30 17.15625 30 16.429688 C 30.472656 16.429688 30.941406 16.429688 31.429688 16.429688 C 31.429688 15.957031 31.429688 15.484375 31.429688 15 Z M 31.429688 15 "/>
<path style=" stroke:none;fill-rule:nonzero;fill:rgb(11.764706%,2.352941%,14.117648%);fill-opacity:1;" d="M 17.144531 39.285156 C 18.792969 39.285156 20.441406 39.285156 22.144531 39.285156 C 22.144531 40.230469 22.144531 41.171875 22.144531 42.144531 C 21.671875 42.144531 21.199219 42.144531 20.714844 42.144531 C 20.714844 41.671875 20.714844 41.199219 20.714844 40.714844 C 19.535156 40.714844 18.355469 40.714844 17.144531 40.714844 C 17.144531 40.242188 17.144531 39.769531 17.144531 39.285156 Z M 17.144531 39.285156 "/>
<path style=" stroke:none;fill-rule:nonzero;fill:rgb(0%,52.549022%,31.764707%);fill-opacity:1;" d="M 30 37.144531 C 31.179688 37.144531 32.355469 37.144531 33.570312 37.144531 C 33.570312 37.851562 33.570312 38.558594 33.570312 39.285156 C 31.6875 39.285156 29.800781 39.285156 27.855469 39.285156 C 28.5625 39.050781 29.269531 38.8125 30 38.570312 C 30 38.101562 30 37.628906 30 37.144531 Z M 30 37.144531 "/>
<path style=" stroke:none;fill-rule:nonzero;fill:rgb(29.019609%,86.274511%,30.980393%);fill-opacity:1;" d="M 3.570312 20.714844 C 4.277344 20.714844 4.984375 20.714844 5.714844 20.714844 C 5.480469 21.421875 5.242188 22.128906 5 22.855469 C 4.527344 22.855469 4.058594 22.855469 3.570312 22.855469 C 3.570312 23.800781 3.570312 24.742188 3.570312 25.714844 C 3.101562 25.714844 2.628906 25.714844 2.144531 25.714844 C 2.144531 24.535156 2.144531 23.355469 2.144531 22.144531 C 2.613281 22.144531 3.085938 22.144531 3.570312 22.144531 C 3.570312 21.671875 3.570312 21.199219 3.570312 20.714844 Z M 3.570312 20.714844 "/>
<path style=" stroke:none;fill-rule:nonzero;fill:rgb(28.627452%,32.156864%,35.686275%);fill-opacity:1;" d="M 16.429688 39.285156 C 16.664062 39.757812 16.898438 40.230469 17.144531 40.714844 C 18.320312 40.714844 19.5 40.714844 20.714844 40.714844 C 20.714844 41.1875 20.714844 41.65625 20.714844 42.144531 C 21.1875 42.378906 21.65625 42.613281 22.144531 42.855469 C 21.671875 42.855469 21.199219 42.855469 20.714844 42.855469 C 20.480469 43.328125 20.242188 43.800781 20 44.285156 C 20 43.8125 20 43.34375 20 42.855469 C 19.292969 42.621094 18.585938 42.386719 17.855469 42.144531 C 17.386719 41.90625 16.914062 41.671875 16.429688 41.429688 C 16.429688 40.722656 16.429688 40.015625 16.429688 39.285156 Z M 16.429688 39.285156 "/>
</g>
</svg>
